# Blender 5.2.0 LTS
# www.blender.org
o demo5_background
v -7.620880 -0.585061 -0.024475
v -7.620878 2.580397 3.691563
v -7.620880 2.579113 -0.025566
v -7.620880 -0.585061 -0.024475
v -7.620878 -0.583778 3.692656
v -7.620878 2.580397 3.691563
v -7.629138 2.579113 -0.025566
v -7.629137 2.580397 3.691563
v -7.629138 -0.585061 -0.024475
v -7.629137 2.580397 3.691563
v -7.629137 -0.583778 3.692656
v -7.629138 -0.585061 -0.024475
v -7.620880 2.579113 -0.025566
v -7.620878 2.580397 3.691563
v -7.629137 2.580397 3.691563
v -7.629137 2.580397 3.691563
v -7.629138 2.579113 -0.025566
v -7.620880 2.579113 -0.025566
v -7.620880 -0.585061 -0.024475
v -7.620880 2.579113 -0.025566
v -7.629138 2.579113 -0.025566
v -7.629138 2.579113 -0.025566
v -7.629138 -0.585061 -0.024475
v -7.620880 -0.585061 -0.024475
v -7.620878 -0.583778 3.692656
v -7.620880 -0.585061 -0.024475
v -7.629138 -0.585061 -0.024475
v -7.629138 -0.585061 -0.024475
v -7.629137 -0.583778 3.692656
v -7.620878 -0.583778 3.692656
v -7.620878 2.580397 3.691563
v -7.620878 -0.583778 3.692656
v -7.629137 -0.583778 3.692656
v -7.629137 -0.583778 3.692656
v -7.629137 2.580397 3.691563
v -7.620878 2.580397 3.691563
vn 1.0000 -0.0000 -0.0000
vn -1.0000 -0.0000 -0.0000
vn -0.0000 1.0000 -0.0003
vn -0.0000 -0.0003 -1.0000
vn -0.0000 -1.0000 0.0003
vn -0.0000 0.0003 1.0000
vt 0.335432 1.011492
vt 0.664568 1.011492
vt 0.664568 -0.011492
vt 0.335432 -0.011492
s 0
f 1/1/1 3/2/1 2/3/1
f 4/1/1 6/3/1 5/4/1
f 7/2/2 9/1/2 8/3/2
f 10/3/2 12/1/2 11/4/2
f 13/2/3 15/3/3 14/3/3
f 16/3/3 18/2/3 17/2/3
f 19/1/4 21/2/4 20/2/4
f 22/2/4 24/1/4 23/1/4
f 25/4/5 27/1/5 26/1/5
f 28/1/5 30/4/5 29/4/5
f 31/3/6 33/4/6 32/4/6
f 34/4/6 36/3/6 35/3/6
