# Blender 5.2.0 LTS
# www.blender.org
o demo5_background.003
v 8.194925 5.840956 4.083509
v 8.201679 5.855043 4.083509
v 8.201679 5.840956 4.083509
v 8.194925 5.840956 4.083509
v 8.194925 5.855043 4.083509
v 8.201679 5.855043 4.083509
v -8.104822 5.840962 4.083524
v 8.194925 5.855043 4.083509
v 8.194925 5.840956 4.083509
v 8.201680 6.537897 4.083509
v 8.201679 5.855043 4.083509
v 8.194925 5.855043 4.083509
v 8.201680 6.537897 4.083509
v 8.194925 5.855043 4.083509
v 8.194926 6.537897 4.083509
v 8.201680 6.553336 4.083509
v 8.201680 6.537897 4.083509
v 8.194926 6.537897 4.083509
v 8.201680 6.553336 4.083509
v 8.194926 6.537897 4.083509
v 8.194926 6.553336 4.083509
v -8.104821 6.553342 4.083524
v 8.194926 6.553336 4.083509
v 8.194926 6.537897 4.083509
v -8.104821 6.537904 4.083524
v 8.194926 6.537897 4.083509
v 8.194925 5.855043 4.083509
v -8.104821 6.537904 4.083524
v 8.194925 5.855043 4.083509
v -8.104822 5.855050 4.083525
v -8.114159 6.537904 4.083524
v -8.104821 6.537904 4.083524
v -8.104822 5.855050 4.083525
v -8.114159 6.553342 4.083524
v -8.104821 6.537904 4.083524
v -8.114159 6.537904 4.083524
v -8.114159 6.553342 4.083524
v -8.104821 6.553342 4.083524
v -8.104821 6.537904 4.083524
v -8.104821 6.553342 4.083524
v 8.194926 6.537897 4.083509
v -8.104821 6.537904 4.083524
v -8.114159 6.537904 4.083524
v -8.104822 5.855050 4.083525
v -8.114160 5.855050 4.083525
v -8.114160 5.840962 4.083524
v -8.114160 5.855050 4.083525
v -8.104822 5.855050 4.083525
v -8.114160 5.840962 4.083524
v -8.104822 5.855050 4.083525
v -8.104822 5.840962 4.083524
v -8.104822 5.840962 4.083524
v -8.104822 5.855050 4.083525
v 8.194925 5.855043 4.083509
v 8.201679 5.855043 3.632429
v 8.194924 5.840956 3.632429
v 8.201679 5.840956 3.632429
v 8.201679 5.855043 3.632429
v 8.194924 5.855043 3.632429
v 8.194924 5.840956 3.632429
v -8.104822 5.855050 3.632444
v 8.194924 5.840956 3.632429
v 8.194924 5.855043 3.632429
v 8.201679 6.537897 3.632428
v 8.194924 5.855043 3.632429
v 8.201679 5.855043 3.632429
v 8.201679 6.537897 3.632428
v 8.194925 6.537897 3.632428
v 8.194924 5.855043 3.632429
v 8.201679 6.553336 3.632428
v 8.194925 6.537897 3.632428
v 8.201679 6.537897 3.632428
v 8.201679 6.553336 3.632428
v 8.194925 6.553336 3.632428
v 8.194925 6.537897 3.632428
v -8.104821 6.553342 3.632444
v 8.194925 6.537897 3.632428
v 8.194925 6.553336 3.632428
v -8.104821 6.537904 3.632445
v 8.194924 5.855043 3.632429
v 8.194925 6.537897 3.632428
v -8.104821 6.537904 3.632445
v -8.104822 5.855050 3.632444
v 8.194924 5.855043 3.632429
v -8.114158 5.855050 3.632444
v -8.104822 5.855050 3.632444
v -8.104821 6.537904 3.632445
v -8.114158 5.840962 3.632444
v -8.104822 5.855050 3.632444
v -8.114158 5.855050 3.632444
v -8.114158 5.840962 3.632444
v -8.104822 5.840962 3.632444
v -8.104822 5.855050 3.632444
v -8.104822 5.855050 3.632444
v -8.104822 5.840962 3.632444
v 8.194924 5.840956 3.632429
v -8.114158 5.855050 3.632444
v -8.104821 6.537904 3.632445
v -8.114157 6.537904 3.632444
v -8.114157 6.553342 3.632444
v -8.114157 6.537904 3.632444
v -8.104821 6.537904 3.632445
v -8.114157 6.553342 3.632444
v -8.104821 6.537904 3.632445
v -8.104821 6.553342 3.632444
v -8.104821 6.553342 3.632444
v -8.104821 6.537904 3.632445
v 8.194925 6.537897 3.632428
v 8.201679 5.855043 4.083509
v 8.201679 5.840956 4.075860
v 8.201679 5.840956 4.083509
v 8.201679 5.855043 4.083509
v 8.201679 5.855043 4.075861
v 8.201679 5.840956 4.075860
v 8.201680 6.537897 4.083509
v 8.201679 5.855043 4.075861
v 8.201679 5.855043 4.083509
v 8.201679 5.840956 3.637299
v 8.201679 5.840956 4.075860
v 8.201679 5.855043 4.075861
v 8.201680 6.537897 4.083509
v 8.201680 6.537897 4.075860
v 8.201679 5.855043 4.075861
v 8.201680 6.553336 4.083509
v 8.201680 6.537897 4.075860
v 8.201680 6.537897 4.083509
v 8.201680 6.553336 4.083509
v 8.201680 6.553336 4.075860
v 8.201680 6.537897 4.075860
v 8.201679 6.553336 3.637299
v 8.201680 6.537897 4.075860
v 8.201680 6.553336 4.075860
v 8.201679 5.840956 3.637299
v 8.201679 5.855043 4.075861
v 8.201679 5.855043 3.637299
v 8.201679 5.855043 3.637299
v 8.201679 5.855043 4.075861
v 8.201680 6.537897 4.075860
v 8.201679 5.840956 3.632429
v 8.201679 5.840956 3.637299
v 8.201679 5.855043 3.637299
v 8.201679 5.840956 3.632429
v 8.201679 5.855043 3.637299
v 8.201679 5.855043 3.632429
v 8.201679 6.553336 3.637299
v 8.201679 6.537897 3.637299
v 8.201680 6.537897 4.075860
v 8.201679 5.855043 3.637299
v 8.201680 6.537897 4.075860
v 8.201679 6.537897 3.637299
v 8.201679 5.855043 3.632429
v 8.201679 5.855043 3.637299
v 8.201679 6.537897 3.637299
v 8.201679 6.553336 3.632428
v 8.201679 6.537897 3.637299
v 8.201679 6.553336 3.637299
v 8.201679 5.855043 3.632429
v 8.201679 6.537897 3.637299
v 8.201679 6.537897 3.632428
v 8.201679 6.553336 3.632428
v 8.201679 6.537897 3.632428
v 8.201679 6.537897 3.637299
v 8.194926 6.553336 4.083509
v 8.201680 6.553336 4.075860
v 8.201680 6.553336 4.083509
v 8.194926 6.553336 4.083509
v 8.194926 6.553336 4.075860
v 8.201680 6.553336 4.075860
v -8.104821 6.553342 4.083524
v 8.194926 6.553336 4.075860
v 8.194926 6.553336 4.083509
v 8.201679 6.553336 3.637299
v 8.201680 6.553336 4.075860
v 8.194926 6.553336 4.075860
v 8.201679 6.553336 3.637299
v 8.194926 6.553336 4.075860
v 8.194925 6.553336 3.637299
v 8.201679 6.553336 3.632428
v 8.201679 6.553336 3.637299
v 8.194925 6.553336 3.637299
v 8.201679 6.553336 3.632428
v 8.194925 6.553336 3.637299
v 8.194925 6.553336 3.632428
v -8.104821 6.553342 3.632444
v 8.194925 6.553336 3.632428
v 8.194925 6.553336 3.637299
v -8.104821 6.553342 3.637314
v 8.194925 6.553336 3.637299
v 8.194926 6.553336 4.075860
v -8.104821 6.553342 3.637314
v 8.194926 6.553336 4.075860
v -8.104821 6.553342 4.075875
v -8.114157 6.553342 3.637314
v -8.104821 6.553342 3.637314
v -8.104821 6.553342 4.075875
v -8.114157 6.553342 3.632444
v -8.104821 6.553342 3.637314
v -8.114157 6.553342 3.637314
v -8.114157 6.553342 3.632444
v -8.104821 6.553342 3.632444
v -8.104821 6.553342 3.637314
v -8.104821 6.553342 3.632444
v 8.194925 6.553336 3.637299
v -8.104821 6.553342 3.637314
v -8.114157 6.553342 3.637314
v -8.104821 6.553342 4.075875
v -8.114159 6.553342 4.075874
v -8.114159 6.553342 4.083524
v -8.114159 6.553342 4.075874
v -8.104821 6.553342 4.075875
v -8.114159 6.553342 4.083524
v -8.104821 6.553342 4.075875
v -8.104821 6.553342 4.083524
v -8.104821 6.553342 4.083524
v -8.104821 6.553342 4.075875
v 8.194926 6.553336 4.075860
v -8.114159 6.537904 4.083524
v -8.114159 6.553342 4.075874
v -8.114159 6.553342 4.083524
v -8.114159 6.537904 4.083524
v -8.114159 6.537904 4.075874
v -8.114159 6.553342 4.075874
v -8.114160 5.855050 4.083525
v -8.114159 6.537904 4.075874
v -8.114159 6.537904 4.083524
v -8.114157 6.553342 3.637314
v -8.114159 6.553342 4.075874
v -8.114159 6.537904 4.075874
v -8.114160 5.855050 4.083525
v -8.114160 5.855050 4.075875
v -8.114159 6.537904 4.075874
v -8.114160 5.840962 4.083524
v -8.114160 5.855050 4.075875
v -8.114160 5.855050 4.083525
v -8.114160 5.840962 4.083524
v -8.114160 5.840962 4.075874
v -8.114160 5.855050 4.075875
v -8.114158 5.840962 3.637314
v -8.114160 5.855050 4.075875
v -8.114160 5.840962 4.075874
v -8.114157 6.553342 3.637314
v -8.114159 6.537904 4.075874
v -8.114157 6.537904 3.637314
v -8.114157 6.537904 3.637314
v -8.114159 6.537904 4.075874
v -8.114160 5.855050 4.075875
v -8.114157 6.553342 3.632444
v -8.114157 6.553342 3.637314
v -8.114157 6.537904 3.637314
v -8.114157 6.553342 3.632444
v -8.114157 6.537904 3.637314
v -8.114157 6.537904 3.632444
v -8.114158 5.840962 3.637314
v -8.114158 5.855050 3.637314
v -8.114160 5.855050 4.075875
v -8.114157 6.537904 3.637314
v -8.114160 5.855050 4.075875
v -8.114158 5.855050 3.637314
v -8.114157 6.537904 3.632444
v -8.114157 6.537904 3.637314
v -8.114158 5.855050 3.637314
v -8.114158 5.840962 3.632444
v -8.114158 5.855050 3.637314
v -8.114158 5.840962 3.637314
v -8.114157 6.537904 3.632444
v -8.114158 5.855050 3.637314
v -8.114158 5.855050 3.632444
v -8.114158 5.840962 3.632444
v -8.114158 5.855050 3.632444
v -8.114158 5.855050 3.637314
v -8.104822 5.840962 4.083524
v -8.114160 5.840962 4.075874
v -8.114160 5.840962 4.083524
v -8.104822 5.840962 4.083524
v -8.104822 5.840962 4.075875
v -8.114160 5.840962 4.075874
v 8.194925 5.840956 4.083509
v -8.104822 5.840962 4.075875
v -8.104822 5.840962 4.083524
v -8.104822 5.840962 3.637314
v -8.114160 5.840962 4.075874
v -8.104822 5.840962 4.075875
v -8.104822 5.840962 3.637314
v -8.114158 5.840962 3.637314
v -8.114160 5.840962 4.075874
v -8.104822 5.840962 3.632444
v -8.114158 5.840962 3.637314
v -8.104822 5.840962 3.637314
v -8.104822 5.840962 3.632444
v -8.114158 5.840962 3.632444
v -8.114158 5.840962 3.637314
v -8.104822 5.840962 3.632444
v -8.104822 5.840962 3.637314
v 8.194924 5.840956 3.637299
v -8.104822 5.840962 3.637314
v -8.104822 5.840962 4.075875
v 8.194925 5.840956 4.075860
v 8.194925 5.840956 4.083509
v 8.194925 5.840956 4.075860
v -8.104822 5.840962 4.075875
v 8.201679 5.840956 4.083509
v 8.194925 5.840956 4.075860
v 8.194925 5.840956 4.083509
v 8.201679 5.840956 4.083509
v 8.201679 5.840956 4.075860
v 8.194925 5.840956 4.075860
v 8.201679 5.840956 3.637299
v 8.194925 5.840956 4.075860
v 8.201679 5.840956 4.075860
v -8.104822 5.840962 3.637314
v 8.194925 5.840956 4.075860
v 8.194924 5.840956 3.637299
v 8.201679 5.840956 3.637299
v 8.194924 5.840956 3.637299
v 8.194925 5.840956 4.075860
v 8.201679 5.840956 3.632429
v 8.194924 5.840956 3.637299
v 8.201679 5.840956 3.637299
v 8.201679 5.840956 3.632429
v 8.194924 5.840956 3.632429
v 8.194924 5.840956 3.637299
v -8.104822 5.840962 3.632444
v 8.194924 5.840956 3.637299
v 8.194924 5.840956 3.632429
v 8.244987 5.841079 -0.043119
v 8.244987 5.846529 -0.049872
v 8.244987 5.841079 -0.049874
v 8.244987 5.841079 -0.043119
v 8.244987 5.846529 -0.043117
v 8.244987 5.846529 -0.049872
v 8.244988 5.841080 3.621030
v 8.244987 5.846529 -0.043117
v 8.244987 5.841079 -0.043119
v 8.244987 5.914659 -0.049874
v 8.244987 5.846529 -0.049872
v 8.244987 5.846529 -0.043117
v 8.244988 5.841080 3.621030
v 8.244988 5.846530 3.621030
v 8.244987 5.846529 -0.043117
v 8.244988 5.841080 3.627147
v 8.244988 5.846530 3.621030
v 8.244988 5.841080 3.621030
v 8.244988 5.841080 3.627147
v 8.244988 5.846530 3.627148
v 8.244988 5.846530 3.621030
v 8.244988 5.914659 3.627147
v 8.244988 5.846530 3.621030
v 8.244988 5.846530 3.627148
v 8.244988 5.914659 3.627147
v 8.244989 5.914659 3.621030
v 8.244988 5.846530 3.621030
v 8.244989 5.914659 3.621030
v 8.244987 5.846529 -0.043117
v 8.244988 5.846530 3.621030
v 8.244989 5.921461 3.627147
v 8.244989 5.914659 3.621030
v 8.244988 5.914659 3.627147
v 8.244989 5.921461 3.627147
v 8.244989 5.921461 3.621030
v 8.244989 5.914659 3.621030
v 8.244987 5.914659 -0.049874
v 8.244987 5.846529 -0.043117
v 8.244987 5.914659 -0.043119
v 8.244989 5.914659 3.621030
v 8.244987 5.914659 -0.043119
v 8.244987 5.846529 -0.043117
v 8.244989 5.921461 3.621030
v 8.244987 5.914659 -0.043119
v 8.244989 5.914659 3.621030
v 8.244987 5.921460 -0.049872
v 8.244987 5.914659 -0.049874
v 8.244987 5.914659 -0.043119
v 8.244989 5.921461 3.621030
v 8.244987 5.921460 -0.043119
v 8.244987 5.914659 -0.043119
v 8.244987 5.921460 -0.049872
v 8.244987 5.914659 -0.043119
v 8.244987 5.921460 -0.043119
v 7.612659 5.846530 -0.049872
v 7.612659 5.841080 -0.043119
v 7.612660 5.841080 -0.049874
v 7.612659 5.846530 -0.049872
v 7.612659 5.846530 -0.043117
v 7.612659 5.841080 -0.043119
v 7.612659 5.914659 -0.049874
v 7.612659 5.846530 -0.043117
v 7.612659 5.846530 -0.049872
v 7.612659 5.846530 3.621031
v 7.612659 5.841080 -0.043119
v 7.612659 5.846530 -0.043117
v 7.612659 5.846530 3.621031
v 7.612660 5.841080 3.621031
v 7.612659 5.841080 -0.043119
v 7.612659 5.841080 3.627148
v 7.612660 5.841080 3.621031
v 7.612659 5.846530 3.621031
v 7.612659 5.841080 3.627148
v 7.612659 5.846530 3.621031
v 7.612659 5.846530 3.627148
v 7.612659 5.846530 3.627148
v 7.612659 5.846530 3.621031
v 7.612661 5.914659 3.621031
v 7.612661 5.914659 3.621031
v 7.612659 5.846530 3.621031
v 7.612659 5.846530 -0.043117
v 7.612659 5.846530 3.627148
v 7.612661 5.914659 3.621031
v 7.612661 5.914659 3.627148
v 7.612661 5.921461 3.627148
v 7.612661 5.914659 3.627148
v 7.612661 5.914659 3.621031
v 7.612661 5.921461 3.627148
v 7.612661 5.914659 3.621031
v 7.612661 5.921461 3.621031
v 7.612659 5.914659 -0.049874
v 7.612659 5.914659 -0.043119
v 7.612659 5.846530 -0.043117
v 7.612661 5.914659 3.621031
v 7.612659 5.846530 -0.043117
v 7.612659 5.914659 -0.043119
v 7.612661 5.921461 3.621031
v 7.612661 5.914659 3.621031
v 7.612659 5.914659 -0.043119
v 7.612659 5.921461 -0.049872
v 7.612659 5.914659 -0.043119
v 7.612659 5.914659 -0.049874
v 7.612661 5.921461 3.621031
v 7.612659 5.914659 -0.043119
v 7.612659 5.921461 -0.043117
v 7.612659 5.921461 -0.049872
v 7.612659 5.921461 -0.043117
v 7.612659 5.914659 -0.043119
v 8.244987 5.846529 -0.049872
v 8.225591 5.841079 -0.049874
v 8.244987 5.841079 -0.049874
v 8.244987 5.846529 -0.049872
v 8.225591 5.846529 -0.049872
v 8.225591 5.841079 -0.049874
v 8.244987 5.914659 -0.049874
v 8.225591 5.846529 -0.049872
v 8.244987 5.846529 -0.049872
v 7.626568 5.841080 -0.049874
v 8.225591 5.841079 -0.049874
v 8.225591 5.846529 -0.049872
v 8.244987 5.914659 -0.049874
v 8.225591 5.914659 -0.049874
v 8.225591 5.846529 -0.049872
v 8.244987 5.921460 -0.049872
v 8.225591 5.914659 -0.049874
v 8.244987 5.914659 -0.049874
v 8.244987 5.921460 -0.049872
v 8.225591 5.921460 -0.049872
v 8.225591 5.914659 -0.049874
v 7.626568 5.921461 -0.049872
v 8.225591 5.914659 -0.049874
v 8.225591 5.921460 -0.049872
v 7.626568 5.841080 -0.049874
v 8.225591 5.846529 -0.049872
v 7.626568 5.846530 -0.049872
v 7.626568 5.846530 -0.049872
v 8.225591 5.846529 -0.049872
v 8.225591 5.914659 -0.049874
v 7.612660 5.841080 -0.049874
v 7.626568 5.841080 -0.049874
v 7.626568 5.846530 -0.049872
v 7.612660 5.841080 -0.049874
v 7.626568 5.846530 -0.049872
v 7.612659 5.846530 -0.049872
v 7.626568 5.921461 -0.049872
v 7.626568 5.914659 -0.049874
v 8.225591 5.914659 -0.049874
v 7.626568 5.846530 -0.049872
v 8.225591 5.914659 -0.049874
v 7.626568 5.914659 -0.049874
v 7.612659 5.846530 -0.049872
v 7.626568 5.846530 -0.049872
v 7.626568 5.914659 -0.049874
v 7.612659 5.921461 -0.049872
v 7.626568 5.914659 -0.049874
v 7.626568 5.921461 -0.049872
v 7.612659 5.846530 -0.049872
v 7.626568 5.914659 -0.049874
v 7.612659 5.914659 -0.049874
v 7.612659 5.921461 -0.049872
v 7.612659 5.914659 -0.049874
v 7.626568 5.914659 -0.049874
v 8.244987 5.921460 -0.043119
v 8.225591 5.921460 -0.049872
v 8.244987 5.921460 -0.049872
v 8.244987 5.921460 -0.043119
v 8.225591 5.921460 -0.043119
v 8.225591 5.921460 -0.049872
v 8.244989 5.921461 3.621030
v 8.225591 5.921460 -0.043119
v 8.244987 5.921460 -0.043119
v 7.626568 5.921461 -0.049872
v 8.225591 5.921460 -0.049872
v 8.225591 5.921460 -0.043119
v 8.244989 5.921461 3.621030
v 8.225593 5.921461 3.621030
v 8.225591 5.921460 -0.043119
v 8.244989 5.921461 3.627147
v 8.225593 5.921461 3.621030
v 8.244989 5.921461 3.621030
v 8.244989 5.921461 3.627147
v 8.225593 5.921461 3.627147
v 8.225593 5.921461 3.621030
v 7.626570 5.921461 3.627148
v 8.225593 5.921461 3.621030
v 8.225593 5.921461 3.627147
v 7.626570 5.921461 3.627148
v 7.626570 5.921461 3.621031
v 8.225593 5.921461 3.621030
v 7.626570 5.921461 3.621031
v 8.225591 5.921460 -0.043119
v 8.225593 5.921461 3.621030
v 7.612661 5.921461 3.627148
v 7.626570 5.921461 3.621031
v 7.626570 5.921461 3.627148
v 7.612661 5.921461 3.627148
v 7.612661 5.921461 3.621031
v 7.626570 5.921461 3.621031
v 7.626568 5.921461 -0.049872
v 8.225591 5.921460 -0.043119
v 7.626568 5.921461 -0.043119
v 7.626570 5.921461 3.621031
v 7.626568 5.921461 -0.043119
v 8.225591 5.921460 -0.043119
v 7.612661 5.921461 3.621031
v 7.626568 5.921461 -0.043119
v 7.626570 5.921461 3.621031
v 7.612659 5.921461 -0.049872
v 7.626568 5.921461 -0.049872
v 7.626568 5.921461 -0.043119
v 7.612661 5.921461 3.621031
v 7.612659 5.921461 -0.043117
v 7.626568 5.921461 -0.043119
v 7.612659 5.921461 -0.049872
v 7.626568 5.921461 -0.043119
v 7.612659 5.921461 -0.043117
v 8.244988 5.914659 3.627147
v 8.225593 5.921461 3.627147
v 8.244989 5.921461 3.627147
v 8.244988 5.914659 3.627147
v 8.225592 5.914659 3.627147
v 8.225593 5.921461 3.627147
v 8.244988 5.846530 3.627148
v 8.225592 5.914659 3.627147
v 8.244988 5.914659 3.627147
v 7.626570 5.921461 3.627148
v 8.225593 5.921461 3.627147
v 8.225592 5.914659 3.627147
v 8.244988 5.846530 3.627148
v 8.225592 5.846530 3.627148
v 8.225592 5.914659 3.627147
v 8.244988 5.841080 3.627147
v 8.225592 5.846530 3.627148
v 8.244988 5.846530 3.627148
v 8.244988 5.841080 3.627147
v 8.225592 5.841080 3.627147
v 8.225592 5.846530 3.627148
v 7.626568 5.841080 3.627148
v 8.225592 5.846530 3.627148
v 8.225592 5.841080 3.627147
v 7.626570 5.921461 3.627148
v 8.225592 5.914659 3.627147
v 7.626570 5.914659 3.627148
v 7.626570 5.914659 3.627148
v 8.225592 5.914659 3.627147
v 8.225592 5.846530 3.627148
v 7.612661 5.921461 3.627148
v 7.626570 5.921461 3.627148
v 7.626570 5.914659 3.627148
v 7.612661 5.921461 3.627148
v 7.626570 5.914659 3.627148
v 7.612661 5.914659 3.627148
v 7.626568 5.841080 3.627148
v 7.626568 5.846530 3.627148
v 8.225592 5.846530 3.627148
v 7.626570 5.914659 3.627148
v 8.225592 5.846530 3.627148
v 7.626568 5.846530 3.627148
v 7.612661 5.914659 3.627148
v 7.626570 5.914659 3.627148
v 7.626568 5.846530 3.627148
v 7.612659 5.841080 3.627148
v 7.626568 5.846530 3.627148
v 7.626568 5.841080 3.627148
v 7.612661 5.914659 3.627148
v 7.626568 5.846530 3.627148
v 7.612659 5.846530 3.627148
v 7.612659 5.841080 3.627148
v 7.612659 5.846530 3.627148
v 7.626568 5.846530 3.627148
v 8.244988 5.841080 3.621030
v 8.225592 5.841080 3.627147
v 8.244988 5.841080 3.627147
v 8.244988 5.841080 3.621030
v 8.225592 5.841080 3.621030
v 8.225592 5.841080 3.627147
v 8.244987 5.841079 -0.043119
v 8.225592 5.841080 3.621030
v 8.244988 5.841080 3.621030
v 7.626568 5.841080 3.621031
v 8.225592 5.841080 3.627147
v 8.225592 5.841080 3.621030
v 7.626568 5.841080 3.621031
v 7.626568 5.841080 3.627148
v 8.225592 5.841080 3.627147
v 8.244987 5.841079 -0.043119
v 8.225591 5.841079 -0.043119
v 8.225592 5.841080 3.621030
v 7.626568 5.841080 3.621031
v 8.225592 5.841080 3.621030
v 8.225591 5.841079 -0.043119
v 8.244987 5.841079 -0.049874
v 8.225591 5.841079 -0.043119
v 8.244987 5.841079 -0.043119
v 8.244987 5.841079 -0.049874
v 8.225591 5.841079 -0.049874
v 8.225591 5.841079 -0.043119
v 7.626568 5.841080 -0.049874
v 8.225591 5.841079 -0.043119
v 8.225591 5.841079 -0.049874
v 7.626568 5.841080 -0.049874
v 7.626568 5.841080 -0.043119
v 8.225591 5.841079 -0.043119
v 7.626568 5.841080 3.621031
v 8.225591 5.841079 -0.043119
v 7.626568 5.841080 -0.043119
v 7.612660 5.841080 -0.049874
v 7.626568 5.841080 -0.043119
v 7.626568 5.841080 -0.049874
v 7.612660 5.841080 -0.049874
v 7.612659 5.841080 -0.043119
v 7.626568 5.841080 -0.043119
v 7.612660 5.841080 3.621031
v 7.626568 5.841080 -0.043119
v 7.612659 5.841080 -0.043119
v 7.612660 5.841080 3.621031
v 7.626568 5.841080 3.621031
v 7.626568 5.841080 -0.043119
v 7.612660 5.841080 3.621031
v 7.626568 5.841080 3.627148
v 7.626568 5.841080 3.621031
v 7.612660 5.841080 3.621031
v 7.612659 5.841080 3.627148
v 7.626568 5.841080 3.627148
v 8.244987 5.932055 -0.043119
v 8.244987 5.938310 -0.049874
v 8.244987 5.932055 -0.049874
v 8.244987 5.932055 -0.043119
v 8.244987 5.938310 -0.043117
v 8.244987 5.938310 -0.049874
v 8.244988 5.932055 3.621030
v 8.244987 5.938310 -0.043117
v 8.244987 5.932055 -0.043119
v 8.244989 6.547209 -0.049872
v 8.244987 5.938310 -0.049874
v 8.244987 5.938310 -0.043117
v 8.244988 5.932055 3.621030
v 8.244988 5.938311 3.621030
v 8.244987 5.938310 -0.043117
v 8.244988 5.932055 3.627147
v 8.244988 5.938311 3.621030
v 8.244988 5.932055 3.621030
v 8.244988 5.932055 3.627147
v 8.244988 5.938311 3.627146
v 8.244988 5.938311 3.621030
v 8.244990 6.547210 3.627147
v 8.244988 5.938311 3.621030
v 8.244988 5.938311 3.627146
v 8.244990 6.547210 3.627147
v 8.244992 6.547210 3.621030
v 8.244988 5.938311 3.621030
v 8.244992 6.547210 3.621030
v 8.244987 5.938310 -0.043117
v 8.244988 5.938311 3.621030
v 8.244990 6.553061 3.627147
v 8.244992 6.547210 3.621030
v 8.244990 6.547210 3.627147
v 8.244990 6.553061 3.627147
v 8.244992 6.553061 3.621030
v 8.244992 6.547210 3.621030
v 8.244989 6.547209 -0.049872
v 8.244987 5.938310 -0.043117
v 8.244989 6.547209 -0.043119
v 8.244992 6.547210 3.621030
v 8.244989 6.547209 -0.043119
v 8.244987 5.938310 -0.043117
v 8.244992 6.553061 3.621030
v 8.244989 6.547209 -0.043119
v 8.244992 6.547210 3.621030
v 8.244989 6.553060 -0.049874
v 8.244989 6.547209 -0.049872
v 8.244989 6.547209 -0.043119
v 8.244992 6.553061 3.621030
v 8.244989 6.553060 -0.043119
v 8.244989 6.547209 -0.043119
v 8.244989 6.553060 -0.049874
v 8.244989 6.547209 -0.043119
v 8.244989 6.553060 -0.043119
v 7.612660 5.938311 -0.049874
v 7.612660 5.932055 -0.043119
v 7.612660 5.932055 -0.049874
v 7.612660 5.938311 -0.049874
v 7.612660 5.938311 -0.043117
v 7.612660 5.932055 -0.043119
v 7.612660 6.547210 -0.049872
v 7.612660 5.938311 -0.043117
v 7.612660 5.938311 -0.049874
v 7.612660 5.938311 3.621031
v 7.612660 5.932055 -0.043119
v 7.612660 5.938311 -0.043117
v 7.612660 5.938311 3.621031
v 7.612660 5.932055 3.621031
v 7.612660 5.932055 -0.043119
v 7.612660 5.932055 3.627148
v 7.612660 5.932055 3.621031
v 7.612660 5.938311 3.621031
v 7.612660 5.932055 3.627148
v 7.612660 5.938311 3.621031
v 7.612660 5.938311 3.627147
v 7.612660 5.938311 3.627147
v 7.612660 5.938311 3.621031
v 7.612663 6.547210 3.621031
v 7.612663 6.547210 3.621031
v 7.612660 5.938311 3.621031
v 7.612660 5.938311 -0.043117
v 7.612660 5.938311 3.627147
v 7.612663 6.547210 3.621031
v 7.612663 6.547210 3.627148
v 7.612663 6.553061 3.627148
v 7.612663 6.547210 3.627148
v 7.612663 6.547210 3.621031
v 7.612663 6.553061 3.627148
v 7.612663 6.547210 3.621031
v 7.612663 6.553061 3.621031
v 7.612660 6.547210 -0.049872
v 7.612660 6.547210 -0.043119
v 7.612660 5.938311 -0.043117
v 7.612663 6.547210 3.621031
v 7.612660 5.938311 -0.043117
v 7.612660 6.547210 -0.043119
v 7.612663 6.553061 3.621031
v 7.612663 6.547210 3.621031
v 7.612660 6.547210 -0.043119
v 7.612660 6.553061 -0.049874
v 7.612660 6.547210 -0.043119
v 7.612660 6.547210 -0.049872
v 7.612663 6.553061 3.621031
v 7.612660 6.547210 -0.043119
v 7.612660 6.553061 -0.043119
v 7.612660 6.553061 -0.049874
v 7.612660 6.553061 -0.043119
v 7.612660 6.547210 -0.043119
v 8.244987 5.938310 -0.049874
v 8.225592 5.932055 -0.049874
v 8.244987 5.932055 -0.049874
v 8.244987 5.938310 -0.049874
v 8.225592 5.938310 -0.049874
v 8.225592 5.932055 -0.049874
v 8.244989 6.547209 -0.049872
v 8.225592 5.938310 -0.049874
v 8.244987 5.938310 -0.049874
v 7.626569 5.932055 -0.049874
v 8.225592 5.932055 -0.049874
v 8.225592 5.938310 -0.049874
v 8.244989 6.547209 -0.049872
v 8.225593 6.547209 -0.049872
v 8.225592 5.938310 -0.049874
v 8.244989 6.553060 -0.049874
v 8.225593 6.547209 -0.049872
v 8.244989 6.547209 -0.049872
v 8.244989 6.553060 -0.049874
v 8.225593 6.553060 -0.049874
v 8.225593 6.547209 -0.049872
v 7.626569 6.553061 -0.049874
v 8.225593 6.547209 -0.049872
v 8.225593 6.553060 -0.049874
v 7.626569 5.932055 -0.049874
v 8.225592 5.938310 -0.049874
v 7.626569 5.938311 -0.049874
v 7.626569 5.938311 -0.049874
v 8.225592 5.938310 -0.049874
v 8.225593 6.547209 -0.049872
v 7.612660 5.932055 -0.049874
v 7.626569 5.932055 -0.049874
v 7.626569 5.938311 -0.049874
v 7.612660 5.932055 -0.049874
v 7.626569 5.938311 -0.049874
v 7.612660 5.938311 -0.049874
v 7.626569 6.553061 -0.049874
v 7.626569 6.547210 -0.049872
v 8.225593 6.547209 -0.049872
v 7.626569 5.938311 -0.049874
v 8.225593 6.547209 -0.049872
v 7.626569 6.547210 -0.049872
v 7.612660 5.938311 -0.049874
v 7.626569 5.938311 -0.049874
v 7.626569 6.547210 -0.049872
v 7.612660 6.553061 -0.049874
v 7.626569 6.547210 -0.049872
v 7.626569 6.553061 -0.049874
v 7.612660 5.938311 -0.049874
v 7.626569 6.547210 -0.049872
v 7.612660 6.547210 -0.049872
v 7.612660 6.553061 -0.049874
v 7.612660 6.547210 -0.049872
v 7.626569 6.547210 -0.049872
v 8.244989 6.553060 -0.043119
v 8.225593 6.553060 -0.049874
v 8.244989 6.553060 -0.049874
v 8.244989 6.553060 -0.043119
v 8.225593 6.553060 -0.043119
v 8.225593 6.553060 -0.049874
v 8.244992 6.553061 3.621030
v 8.225593 6.553060 -0.043119
v 8.244989 6.553060 -0.043119
v 7.626569 6.553061 -0.049874
v 8.225593 6.553060 -0.049874
v 8.225593 6.553060 -0.043119
v 8.244992 6.553061 3.621030
v 8.225595 6.553061 3.621030
v 8.225593 6.553060 -0.043119
v 8.244990 6.553061 3.627147
v 8.225595 6.553061 3.621030
v 8.244992 6.553061 3.621030
v 8.244990 6.553061 3.627147
v 8.225594 6.553061 3.627147
v 8.225595 6.553061 3.621030
v 7.626571 6.553061 3.627148
v 8.225595 6.553061 3.621030
v 8.225594 6.553061 3.627147
v 7.626571 6.553061 3.627148
v 7.626571 6.553061 3.621031
v 8.225595 6.553061 3.621030
v 7.626571 6.553061 3.621031
v 8.225593 6.553060 -0.043119
v 8.225595 6.553061 3.621030
v 7.612663 6.553061 3.627148
v 7.626571 6.553061 3.621031
v 7.626571 6.553061 3.627148
v 7.612663 6.553061 3.627148
v 7.612663 6.553061 3.621031
v 7.626571 6.553061 3.621031
v 7.626569 6.553061 -0.049874
v 8.225593 6.553060 -0.043119
v 7.626569 6.553061 -0.043119
v 7.626571 6.553061 3.621031
v 7.626569 6.553061 -0.043119
v 8.225593 6.553060 -0.043119
v 7.612663 6.553061 3.621031
v 7.626569 6.553061 -0.043119
v 7.626571 6.553061 3.621031
v 7.612660 6.553061 -0.049874
v 7.626569 6.553061 -0.049874
v 7.626569 6.553061 -0.043119
v 7.612663 6.553061 3.621031
v 7.612660 6.553061 -0.043119
v 7.626569 6.553061 -0.043119
v 7.612660 6.553061 -0.049874
v 7.626569 6.553061 -0.043119
v 7.612660 6.553061 -0.043119
v 8.244990 6.547210 3.627147
v 8.225594 6.553061 3.627147
v 8.244990 6.553061 3.627147
v 8.244990 6.547210 3.627147
v 8.225594 6.547210 3.627147
v 8.225594 6.553061 3.627147
v 8.244988 5.938311 3.627146
v 8.225594 6.547210 3.627147
v 8.244990 6.547210 3.627147
v 7.626571 6.553061 3.627148
v 8.225594 6.553061 3.627147
v 8.225594 6.547210 3.627147
v 8.244988 5.938311 3.627146
v 8.225592 5.938311 3.627146
v 8.225594 6.547210 3.627147
v 8.244988 5.932055 3.627147
v 8.225592 5.938311 3.627146
v 8.244988 5.938311 3.627146
v 8.244988 5.932055 3.627147
v 8.225592 5.932055 3.627147
v 8.225592 5.938311 3.627146
v 7.626568 5.932055 3.627148
v 8.225592 5.938311 3.627146
v 8.225592 5.932055 3.627147
v 7.626571 6.553061 3.627148
v 8.225594 6.547210 3.627147
v 7.626571 6.547210 3.627148
v 7.626571 6.547210 3.627148
v 8.225594 6.547210 3.627147
v 8.225592 5.938311 3.627146
v 7.612663 6.553061 3.627148
v 7.626571 6.553061 3.627148
v 7.626571 6.547210 3.627148
v 7.612663 6.553061 3.627148
v 7.626571 6.547210 3.627148
v 7.612663 6.547210 3.627148
v 7.626568 5.932055 3.627148
v 7.626568 5.938311 3.627147
v 8.225592 5.938311 3.627146
v 7.626571 6.547210 3.627148
v 8.225592 5.938311 3.627146
v 7.626568 5.938311 3.627147
v 7.612663 6.547210 3.627148
v 7.626571 6.547210 3.627148
v 7.626568 5.938311 3.627147
v 7.612660 5.932055 3.627148
v 7.626568 5.938311 3.627147
v 7.626568 5.932055 3.627148
v 7.612663 6.547210 3.627148
v 7.626568 5.938311 3.627147
v 7.612660 5.938311 3.627147
v 7.612660 5.932055 3.627148
v 7.612660 5.938311 3.627147
v 7.626568 5.938311 3.627147
v 8.244988 5.932055 3.621030
v 8.225592 5.932055 3.627147
v 8.244988 5.932055 3.627147
v 8.244988 5.932055 3.621030
v 8.225592 5.932055 3.621030
v 8.225592 5.932055 3.627147
v 8.244987 5.932055 -0.043119
v 8.225592 5.932055 3.621030
v 8.244988 5.932055 3.621030
v 7.626568 5.932055 3.621031
v 8.225592 5.932055 3.627147
v 8.225592 5.932055 3.621030
v 7.626568 5.932055 3.621031
v 7.626568 5.932055 3.627148
v 8.225592 5.932055 3.627147
v 8.244987 5.932055 -0.043119
v 8.225592 5.932055 -0.043119
v 8.225592 5.932055 3.621030
v 7.626568 5.932055 3.621031
v 8.225592 5.932055 3.621030
v 8.225592 5.932055 -0.043119
v 8.244987 5.932055 -0.049874
v 8.225592 5.932055 -0.043119
v 8.244987 5.932055 -0.043119
v 8.244987 5.932055 -0.049874
v 8.225592 5.932055 -0.049874
v 8.225592 5.932055 -0.043119
v 7.626569 5.932055 -0.049874
v 8.225592 5.932055 -0.043119
v 8.225592 5.932055 -0.049874
v 7.626569 5.932055 -0.049874
v 7.626569 5.932055 -0.043119
v 8.225592 5.932055 -0.043119
v 7.626568 5.932055 3.621031
v 8.225592 5.932055 -0.043119
v 7.626569 5.932055 -0.043119
v 7.612660 5.932055 -0.049874
v 7.626569 5.932055 -0.043119
v 7.626569 5.932055 -0.049874
v 7.612660 5.932055 -0.049874
v 7.612660 5.932055 -0.043119
v 7.626569 5.932055 -0.043119
v 7.612660 5.932055 3.621031
v 7.626569 5.932055 -0.043119
v 7.612660 5.932055 -0.043119
v 7.612660 5.932055 3.621031
v 7.626568 5.932055 3.621031
v 7.626569 5.932055 -0.043119
v 7.612660 5.932055 3.621031
v 7.626568 5.932055 3.627148
v 7.626568 5.932055 3.621031
v 7.612660 5.932055 3.621031
v 7.612660 5.932055 3.627148
v 7.626568 5.932055 3.627148
v -7.530184 6.553342 -0.022560
v 7.611513 6.553336 -0.022576
v 7.611513 6.553336 -0.017705
v 7.611513 5.945678 0.435693
v 7.618268 5.959764 0.435694
v 7.618268 5.945678 0.435694
v 7.611513 5.945678 0.435693
v 7.611513 5.959764 0.435694
v 7.618268 5.959764 0.435694
v -7.530182 5.945684 0.435708
v 7.611513 5.959764 0.435694
v 7.611513 5.945678 0.435693
v 7.618268 6.537897 0.435694
v 7.618268 5.959764 0.435694
v 7.611513 5.959764 0.435694
v 7.618268 6.537897 0.435694
v 7.611513 5.959764 0.435694
v 7.611513 6.537897 0.435694
v 7.618268 6.553336 0.435693
v 7.618268 6.537897 0.435694
v 7.611513 6.537897 0.435694
v 7.618268 6.553336 0.435693
v 7.611513 6.537897 0.435694
v 7.611513 6.553336 0.435693
v -7.530182 6.553342 0.435708
v 7.611513 6.553336 0.435693
v 7.611513 6.537897 0.435694
v -7.530182 6.537904 0.435708
v 7.611513 6.537897 0.435694
v 7.611513 5.959764 0.435694
v -7.530182 6.553342 0.435708
v 7.611513 6.537897 0.435694
v -7.530182 6.537904 0.435708
v -7.539518 6.553342 0.435706
v -7.530182 6.553342 0.435708
v -7.530182 6.537904 0.435708
v -7.539518 6.553342 0.435706
v -7.530182 6.537904 0.435708
v -7.539518 6.537904 0.435708
v -7.530182 6.537904 0.435708
v 7.611513 5.959764 0.435694
v -7.530182 5.959771 0.435708
v -7.539518 6.537904 0.435708
v -7.530182 6.537904 0.435708
v -7.530182 5.959771 0.435708
v -7.539518 6.537904 0.435708
v -7.530182 5.959771 0.435708
v -7.539518 5.959771 0.435708
v -7.539518 5.945684 0.435708
v -7.539518 5.959771 0.435708
v -7.530182 5.959771 0.435708
v -7.539518 5.945684 0.435708
v -7.530182 5.959771 0.435708
v -7.530182 5.945684 0.435708
v -7.530182 5.945684 0.435708
v -7.530182 5.959771 0.435708
v 7.611513 5.959764 0.435694
v 7.618268 5.959764 -0.022575
v 7.611513 5.945678 -0.022573
v 7.618268 5.945678 -0.022573
v 7.618268 5.959764 -0.022575
v 7.611513 5.959764 -0.022575
v 7.611513 5.945678 -0.022573
v -7.530184 5.959771 -0.022560
v 7.611513 5.945678 -0.022573
v 7.611513 5.959764 -0.022575
v 7.618267 6.537897 -0.022573
v 7.611513 5.959764 -0.022575
v 7.618268 5.959764 -0.022575
v 7.618267 6.537897 -0.022573
v 7.611513 6.537897 -0.022573
v 7.611513 5.959764 -0.022575
v 7.618267 6.553336 -0.022576
v 7.611513 6.537897 -0.022573
v 7.618267 6.537897 -0.022573
v 7.618267 6.553336 -0.022576
v 7.611513 6.553336 -0.022576
v 7.611513 6.537897 -0.022573
v -7.530184 6.553342 -0.022560
v 7.611513 6.537897 -0.022573
v 7.611513 6.553336 -0.022576
v -7.530184 6.537904 -0.022560
v 7.611513 5.959764 -0.022575
v 7.611513 6.537897 -0.022573
v -7.530184 6.553342 -0.022560
v -7.530184 6.537904 -0.022560
v 7.611513 6.537897 -0.022573
v -7.539518 6.553342 -0.022561
v -7.530184 6.537904 -0.022560
v -7.530184 6.553342 -0.022560
v -7.539518 6.553342 -0.022561
v -7.539518 6.537904 -0.022560
v -7.530184 6.537904 -0.022560
v -7.539518 5.959771 -0.022560
v -7.530184 6.537904 -0.022560
v -7.539518 6.537904 -0.022560
v -7.530184 6.537904 -0.022560
v -7.530184 5.959771 -0.022560
v 7.611513 5.959764 -0.022575
v -7.539518 5.959771 -0.022560
v -7.530184 5.959771 -0.022560
v -7.530184 6.537904 -0.022560
v -7.539518 5.945684 -0.022560
v -7.530184 5.959771 -0.022560
v -7.539518 5.959771 -0.022560
v -7.539518 5.945684 -0.022560
v -7.530184 5.945684 -0.022560
v -7.530184 5.959771 -0.022560
v -7.530184 5.959771 -0.022560
v -7.530184 5.945684 -0.022560
v 7.611513 5.945678 -0.022573
v 7.618268 5.959764 0.435694
v 7.618268 5.945678 0.428044
v 7.618268 5.945678 0.435694
v 7.618268 5.959764 0.435694
v 7.618268 5.959764 0.428044
v 7.618268 5.945678 0.428044
v 7.618268 6.537897 0.435694
v 7.618268 5.959764 0.428044
v 7.618268 5.959764 0.435694
v 7.618268 5.945678 -0.017705
v 7.618268 5.945678 0.428044
v 7.618268 5.959764 0.428044
v 7.618268 6.537897 0.435694
v 7.618268 6.537897 0.428044
v 7.618268 5.959764 0.428044
v 7.618268 6.553336 0.435693
v 7.618268 6.537897 0.428044
v 7.618268 6.537897 0.435694
v 7.618268 6.553336 0.435693
v 7.618268 6.553336 0.428042
v 7.618268 6.537897 0.428044
v 7.618267 6.553336 -0.017705
v 7.618268 6.537897 0.428044
v 7.618268 6.553336 0.428042
v 7.618268 5.945678 -0.017705
v 7.618268 5.959764 0.428044
v 7.618268 5.959764 -0.017703
v 7.618268 5.959764 -0.017703
v 7.618268 5.959764 0.428044
v 7.618268 6.537897 0.428044
v 7.618268 5.945678 -0.022573
v 7.618268 5.945678 -0.017705
v 7.618268 5.959764 -0.017703
v 7.618268 5.945678 -0.022573
v 7.618268 5.959764 -0.017703
v 7.618268 5.959764 -0.022575
v 7.618267 6.553336 -0.017705
v 7.618267 6.537897 -0.017703
v 7.618268 6.537897 0.428044
v 7.618268 5.959764 -0.017703
v 7.618268 6.537897 0.428044
v 7.618267 6.537897 -0.017703
v 7.618268 5.959764 -0.022575
v 7.618268 5.959764 -0.017703
v 7.618267 6.537897 -0.017703
v 7.618267 6.553336 -0.022576
v 7.618267 6.537897 -0.017703
v 7.618267 6.553336 -0.017705
v 7.618268 5.959764 -0.022575
v 7.618267 6.537897 -0.017703
v 7.618267 6.537897 -0.022573
v 7.618267 6.553336 -0.022576
v 7.618267 6.537897 -0.022573
v 7.618267 6.537897 -0.017703
v 7.611513 6.553336 0.435693
v 7.618268 6.553336 0.428042
v 7.618268 6.553336 0.435693
v 7.611513 6.553336 0.435693
v 7.611513 6.553336 0.428042
v 7.618268 6.553336 0.428042
v -7.530182 6.553342 0.435708
v 7.611513 6.553336 0.428042
v 7.611513 6.553336 0.435693
v 7.618267 6.553336 -0.017705
v 7.618268 6.553336 0.428042
v 7.611513 6.553336 0.428042
v 7.618267 6.553336 -0.017705
v 7.611513 6.553336 0.428042
v 7.611513 6.553336 -0.017705
v 7.618267 6.553336 -0.022576
v 7.618267 6.553336 -0.017705
v 7.611513 6.553336 -0.017705
v 7.618267 6.553336 -0.022576
v 7.611513 6.553336 -0.017705
v 7.611513 6.553336 -0.022576
v -7.530184 6.553342 -0.017692
v 7.611513 6.553336 -0.017705
v 7.611513 6.553336 0.428042
v -7.530184 6.553342 -0.017692
v 7.611513 6.553336 0.428042
v -7.530182 6.553342 0.428057
v -7.539518 6.553342 -0.017692
v -7.530184 6.553342 -0.017692
v -7.530182 6.553342 0.428057
v -7.539518 6.553342 -0.022561
v -7.530184 6.553342 -0.017692
v -7.539518 6.553342 -0.017692
v -7.539518 6.553342 -0.022561
v -7.530184 6.553342 -0.022560
v -7.530184 6.553342 -0.017692
v -7.530184 6.553342 -0.022560
v 7.611513 6.553336 -0.017705
v -7.530184 6.553342 -0.017692
v -7.539518 6.553342 -0.017692
v -7.530182 6.553342 0.428057
v -7.539518 6.553342 0.428057
v -7.539518 6.553342 0.435706
v -7.539518 6.553342 0.428057
v -7.530182 6.553342 0.428057
v -7.539518 6.553342 0.435706
v -7.530182 6.553342 0.428057
v -7.530182 6.553342 0.435708
v -7.530182 6.553342 0.435708
v -7.530182 6.553342 0.428057
v 7.611513 6.553336 0.428042
v -7.539518 6.537904 0.435708
v -7.539518 6.553342 0.428057
v -7.539518 6.553342 0.435706
v -7.539518 6.537904 0.435708
v -7.539518 6.537904 0.428057
v -7.539518 6.553342 0.428057
v -7.539518 5.959771 0.435708
v -7.539518 6.537904 0.428057
v -7.539518 6.537904 0.435708
v -7.539518 6.553342 -0.017692
v -7.539518 6.553342 0.428057
v -7.539518 6.537904 0.428057
v -7.539518 5.959771 0.435708
v -7.539518 5.959771 0.428058
v -7.539518 6.537904 0.428057
v -7.539518 5.945684 0.435708
v -7.539518 5.959771 0.428058
v -7.539518 5.959771 0.435708
v -7.539518 5.945684 0.435708
v -7.539518 5.945684 0.428058
v -7.539518 5.959771 0.428058
v -7.539518 5.945684 -0.017690
v -7.539518 5.959771 0.428058
v -7.539518 5.945684 0.428058
v -7.539518 6.553342 -0.017692
v -7.539518 6.537904 0.428057
v -7.539518 6.537904 -0.017692
v -7.539518 6.537904 -0.017692
v -7.539518 6.537904 0.428057
v -7.539518 5.959771 0.428058
v -7.539518 6.553342 -0.022561
v -7.539518 6.553342 -0.017692
v -7.539518 6.537904 -0.017692
v -7.539518 6.553342 -0.022561
v -7.539518 6.537904 -0.017692
v -7.539518 6.537904 -0.022560
v -7.539518 5.945684 -0.017690
v -7.539518 5.959771 -0.017691
v -7.539518 5.959771 0.428058
v -7.539518 6.537904 -0.017692
v -7.539518 5.959771 0.428058
v -7.539518 5.959771 -0.017691
v -7.539518 6.537904 -0.022560
v -7.539518 6.537904 -0.017692
v -7.539518 5.959771 -0.017691
v -7.539518 5.945684 -0.022560
v -7.539518 5.959771 -0.017691
v -7.539518 5.945684 -0.017690
v -7.539518 6.537904 -0.022560
v -7.539518 5.959771 -0.017691
v -7.539518 5.959771 -0.022560
v -7.539518 5.945684 -0.022560
v -7.539518 5.959771 -0.022560
v -7.539518 5.959771 -0.017691
v -7.530182 5.945684 0.435708
v -7.539518 5.945684 0.428058
v -7.539518 5.945684 0.435708
v -7.530182 5.945684 0.435708
v -7.530182 5.945684 0.428058
v -7.539518 5.945684 0.428058
v 7.611513 5.945678 0.435693
v -7.530182 5.945684 0.428058
v -7.530182 5.945684 0.435708
v -7.530184 5.945684 -0.017690
v -7.539518 5.945684 0.428058
v -7.530182 5.945684 0.428058
v -7.530184 5.945684 -0.017690
v -7.539518 5.945684 -0.017690
v -7.539518 5.945684 0.428058
v -7.530184 5.945684 -0.022560
v -7.539518 5.945684 -0.017690
v -7.530184 5.945684 -0.017690
v -7.530184 5.945684 -0.022560
v -7.539518 5.945684 -0.022560
v -7.539518 5.945684 -0.017690
v -7.530184 5.945684 -0.022560
v -7.530184 5.945684 -0.017690
v 7.611513 5.945678 -0.017705
v -7.530184 5.945684 -0.017690
v -7.530182 5.945684 0.428058
v 7.611513 5.945678 0.428044
v -7.530184 5.945684 -0.017690
v 7.611513 5.945678 0.428044
v 7.611513 5.945678 -0.017705
v 7.611513 5.945678 0.435693
v 7.611513 5.945678 0.428044
v -7.530182 5.945684 0.428058
v 7.618268 5.945678 0.435694
v 7.611513 5.945678 0.428044
v 7.611513 5.945678 0.435693
v 7.618268 5.945678 0.435694
v 7.618268 5.945678 0.428044
v 7.611513 5.945678 0.428044
v 7.618268 5.945678 -0.017705
v 7.611513 5.945678 0.428044
v 7.618268 5.945678 0.428044
v 7.618268 5.945678 -0.017705
v 7.611513 5.945678 -0.017705
v 7.611513 5.945678 0.428044
v 7.618268 5.945678 -0.022573
v 7.611513 5.945678 -0.017705
v 7.618268 5.945678 -0.017705
v 7.618268 5.945678 -0.022573
v 7.611513 5.945678 -0.022573
v 7.611513 5.945678 -0.017705
v -7.530184 5.945684 -0.022560
v 7.611513 5.945678 -0.017705
v 7.611513 5.945678 -0.022573
vn -0.6377 0.3057 0.7070
vn 0.5773 -0.5774 0.5774
vn -0.6376 0.3058 0.7070
vn -0.3057 -0.6377 0.7070
vn 0.3058 0.6376 0.7070
vn -0.0000 -0.0000 1.0000
vn -0.0006 0.7072 0.7071
vn 0.7072 -0.0001 0.7070
vn -0.7072 0.0070 0.7070
vn -0.0000 -0.7072 0.7070
vn 0.0070 0.7072 0.7070
vn -0.2976 0.7603 0.5774
vn 0.7603 0.2976 0.5774
vn -0.7072 -0.0000 0.7070
vn -0.0007 -0.7072 0.7071
vn 0.7072 -0.0000 0.7070
vn -0.0096 0.7071 0.7071
vn 0.1951 0.7928 0.5774
vn -0.0001 -0.7072 0.7071
vn -0.7928 0.1951 0.5774
vn 0.7072 -0.0000 0.7071
vn -0.7072 0.0006 0.7071
vn 0.7071 0.0097 0.7071
vn -0.0000 -0.7072 0.7071
vn 0.1623 -0.8002 0.5773
vn -0.0000 0.7071 0.7071
vn -0.8002 -0.1623 0.5773
vn -0.0000 -0.0001 1.0000
vn -0.7072 -0.0006 0.7071
vn -0.6377 0.3057 -0.7071
vn 0.5774 -0.5773 -0.5774
vn 0.3057 0.6377 -0.7071
vn -0.3058 -0.6376 -0.7071
vn -0.0000 -0.0000 -1.0000
vn 0.7072 -0.0006 -0.7071
vn -0.7071 0.0069 -0.7071
vn 0.0001 -0.7072 -0.7071
vn 0.0070 0.7071 -0.7071
vn -0.2975 0.7604 -0.5774
vn 0.7604 0.2974 -0.5774
vn -0.7072 -0.0000 -0.7071
vn -0.0007 -0.7072 -0.7070
vn 0.7072 -0.0000 -0.7071
vn -0.0096 -0.7071 -0.7070
vn 0.1623 -0.8002 -0.5774
vn -0.0001 0.7072 -0.7070
vn -0.8002 -0.1624 -0.5774
vn 0.7072 -0.0000 -0.7070
vn 0.0006 0.7072 -0.7071
vn -0.7072 -0.0001 -0.7070
vn 0.7072 -0.0097 -0.7069
vn -0.0000 0.7072 -0.7070
vn 0.0002 -0.0000 -1.0000
vn 0.1955 0.7928 -0.5773
vn 0.0002 0.0001 -1.0000
vn 0.0001 -0.7071 -0.7071
vn -0.7928 0.1952 -0.5774
vn 0.7072 -0.0001 -0.7070
vn -0.0000 -0.0001 -1.0000
vn -0.7072 0.0007 -0.7070
vn 0.7070 0.3375 -0.6215
vn 0.5774 -0.5774 0.5773
vn 0.7070 0.3374 -0.6215
vn 0.7070 0.6216 0.3372
vn 0.7070 -0.6215 -0.3375
vn 1.0000 -0.0000 -0.0000
vn 0.7070 0.0079 -0.7071
vn 0.7070 -0.7072 0.0001
vn 0.7071 0.7068 -0.0227
vn 0.7070 -0.0000 0.7072
vn 0.7070 0.7071 0.0079
vn 0.5774 0.7736 -0.2611
vn 0.5774 0.2610 0.7737
vn 0.7071 -0.0000 -0.7072
vn 0.7070 -0.7068 -0.0249
vn 0.7071 0.0001 0.7072
vn 0.7071 -0.0227 -0.7068
vn 0.5774 -0.3570 -0.7343
vn 0.7071 -0.0000 0.7072
vn 0.5774 -0.7344 0.3569
vn 0.7071 0.7072 -0.0000
vn 0.7070 0.0249 -0.7068
vn 0.7071 -0.7071 -0.0050
vn 0.5774 0.3768 -0.7244
vn 0.7070 0.0001 0.7072
vn 0.7071 -0.0050 0.7071
vn 0.5774 0.7243 0.3769
vn 0.7071 -0.7072 -0.0000
vn -0.5301 0.7071 -0.4680
vn 0.5774 0.5773 0.5773
vn -0.5301 0.7070 -0.4681
vn -0.4680 0.7071 0.5301
vn 0.4680 0.7071 -0.5301
vn -0.0000 1.0000 -0.0000
vn -0.0003 0.7070 -0.7072
vn 0.7072 0.7071 -0.0000
vn -0.7071 0.7071 -0.0109
vn -0.0000 0.7070 0.7072
vn 0.0108 0.7071 -0.7071
vn 0.1305 0.5774 -0.8060
vn -0.0000 0.7071 0.7072
vn 0.8060 0.5774 0.1305
vn -0.7072 0.7070 -0.0001
vn -0.0002 0.7071 0.7072
vn 0.7072 0.7070 -0.0000
vn -0.0150 0.7071 -0.7070
vn -0.2449 0.5774 -0.7789
vn -0.0001 0.7071 0.7072
vn -0.7789 0.5774 0.2450
vn -0.7072 0.7071 -0.0001
vn 0.7070 0.7071 -0.0150
vn -0.0002 0.7070 0.7072
vn -0.0001 1.0000 -0.0000
vn -0.0806 0.5774 0.8125
vn -0.0000 0.7070 -0.7072
vn -0.8125 0.5774 -0.0807
vn -0.7072 0.7070 0.0004
vn -0.7071 -0.3140 -0.6336
vn -0.5774 0.5773 0.5774
vn -0.7071 -0.6337 0.3139
vn -0.7071 0.6336 -0.3140
vn -1.0000 -0.0000 -0.0000
vn -0.7071 -0.0079 -0.7071
vn -0.7071 0.7072 0.0001
vn -0.7070 -0.7068 -0.0249
vn -0.7071 -0.0000 0.7072
vn -0.7071 -0.7071 0.0077
vn -0.5774 -0.7829 -0.2319
vn -0.5774 -0.2319 0.7829
vn -0.7071 -0.0000 -0.7072
vn -0.7070 0.7068 -0.0226
vn -0.7071 -0.0001 0.7072
vn -0.7070 0.0248 -0.7068
vn -0.5774 0.3770 -0.7243
vn -0.7070 -0.0000 0.7072
vn -0.5774 0.7243 0.3769
vn -0.7070 -0.7072 -0.0001
vn -0.7070 -0.0225 -0.7068
vn -0.7070 0.7072 -0.0050
vn -0.5774 -0.3571 -0.7343
vn -0.7070 -0.0001 0.7072
vn -0.7070 0.0051 0.7072
vn -0.5774 -0.7342 0.3571
vn -0.7070 0.7072 -0.0000
vn 0.4482 -0.7070 -0.5470
vn -0.5774 -0.5774 0.5773
vn 0.5470 -0.7070 0.4482
vn -0.5469 -0.7071 -0.4483
vn 0.0001 -1.0000 -0.0000
vn 0.0003 -0.7071 -0.7072
vn -0.7072 -0.7070 0.0001
vn -0.0000 -1.0000 -0.0000
vn -0.0151 -0.7070 0.7070
vn 0.7070 -0.7070 0.0150
vn -0.0000 -0.7071 -0.7072
vn 0.6270 -0.7071 -0.3271
vn -0.6270 -0.7071 0.3270
vn 0.3270 -0.7071 0.6270
vn -0.5773 -0.5774 -0.5774
vn -0.7072 -0.7071 -0.0002
vn 0.7072 -0.7071 0.0004
vn 0.8149 -0.5774 0.0508
vn -0.7072 -0.7071 -0.0000
vn -0.0507 -0.5774 0.8149
vn -0.7071 -0.7070 -0.0109
vn -0.0000 -0.7071 0.7072
vn 0.0108 -0.7070 -0.7071
vn 0.1307 -0.5774 -0.8060
vn 0.0001 -0.7070 0.7072
vn 0.8059 -0.5774 0.1308
vn -0.7072 -0.7070 -0.0000
vn -0.0002 -0.7071 0.7072
vn 0.7072 -0.7070 -0.0001
vn 0.7071 0.5503 0.4441
vn 0.7071 0.5503 0.4442
vn 0.7071 -0.4441 0.5503
vn 0.7069 0.4443 -0.5503
vn 1.0000 0.0001 -0.0000
vn 0.7069 0.7073 0.0011
vn 0.7070 0.0002 -0.7072
vn 0.7070 0.0698 0.7037
vn 0.7070 -0.7072 -0.0000
vn 0.7070 -0.0010 0.7072
vn 0.5774 0.0470 0.8151
vn 0.7070 -0.0000 -0.7072
vn 0.5775 -0.8150 0.0470
vn 0.7070 0.7072 0.0001
vn 0.7071 0.0632 -0.7043
vn 0.7071 -0.7071 -0.0000
vn 0.7071 0.7043 0.0632
vn 0.5774 0.8153 -0.0430
vn 0.7069 -0.7073 0.0003
vn 1.0000 -0.0001 0.0004
vn 0.5774 0.0431 0.8154
vn 0.7070 0.7037 -0.0697
vn 1.0000 -0.0000 0.0002
vn 0.7070 0.0013 0.7072
vn 0.5773 0.8165 0.0031
vn 0.7070 -0.7072 -0.0001
vn 0.7071 -0.7072 0.0013
vn 0.5775 0.0029 -0.8164
vn 0.7069 -0.0000 0.7073
vn -0.7071 0.5502 0.4441
vn -0.5773 -0.5773 -0.5774
vn -0.7071 0.5502 0.4442
vn -0.7071 0.4442 -0.5503
vn -0.7070 -0.4443 0.5502
vn -0.7070 0.0697 0.7037
vn -0.7071 -0.7072 -0.0000
vn -0.7070 -0.0010 -0.7072
vn -1.0000 -0.0001 -0.0000
vn -0.7072 0.7070 -0.0010
vn -0.7071 -0.0002 0.7072
vn -0.5773 0.0468 0.8152
vn -0.7071 -0.0001 -0.7071
vn -0.5774 -0.8152 0.0469
vn -0.7071 -0.7043 0.0633
vn -0.7071 -0.0632 -0.7043
vn -0.7070 0.7072 -0.0001
vn -0.5774 0.8153 -0.0434
vn -1.0000 -0.0000 -0.0001
vn -0.5774 0.0433 0.8153
vn -0.7070 0.0001 -0.7072
vn -0.7070 0.7037 -0.0698
vn -0.7070 0.0015 0.7072
vn -0.5773 0.8165 0.0029
vn -0.7070 -0.7072 -0.0002
vn -0.7070 -0.7072 0.0013
vn -0.7071 0.0002 -0.7072
vn -0.5774 0.0028 -0.8165
vn -0.1912 0.6810 -0.7068
vn 0.5773 -0.5772 -0.5775
vn -0.1913 0.6810 -0.7069
vn 0.6808 0.1915 -0.7070
vn -0.6808 -0.1912 -0.7071
vn -0.0000 0.0003 -1.0000
vn -0.6802 0.1936 -0.7070
vn -0.0000 -0.7072 -0.7070
vn -0.0065 0.7073 -0.7069
vn 0.7072 0.0002 -0.7071
vn 0.1937 0.6801 -0.7070
vn 0.3537 0.7360 -0.5772
vn 0.0001 -0.7070 -0.7072
vn -0.0000 0.0002 -1.0000
vn 0.7359 -0.3536 -0.5774
vn -0.7072 0.0001 -0.7070
vn -0.0080 -0.7070 -0.7072
vn 0.7072 0.0002 -0.7070
vn -0.7071 -0.0063 -0.7071
vn -0.7482 0.3271 -0.5773
vn -0.3268 -0.7481 -0.5776
vn -0.0001 0.7074 -0.7068
vn -0.7071 0.0082 -0.7070
vn -0.1415 -0.6929 -0.7070
vn -0.7723 -0.2648 -0.5774
vn 0.6929 -0.1415 -0.7070
vn -0.2648 0.7725 -0.5772
vn -0.0000 -0.7070 -0.7072
vn -0.2325 0.7071 0.6678
vn 0.5773 0.5774 -0.5774
vn -0.2325 0.7070 0.6679
vn 0.6678 0.7071 0.2325
vn -0.6678 0.7070 -0.2326
vn -0.7072 0.7070 0.0038
vn -0.0000 0.7071 -0.7072
vn -0.0080 0.7070 0.7071
vn 0.0038 0.7070 0.7072
vn 0.3770 0.5774 0.7243
vn 0.7242 0.5774 -0.3770
vn -0.7072 0.7070 -0.0000
vn -0.0072 0.7070 -0.7072
vn 0.7072 0.7070 0.0001
vn -0.7072 0.7070 0.0073
vn -0.7610 0.5774 -0.2960
vn -0.2960 0.5774 0.7609
vn -0.7071 0.7070 -0.0080
vn -0.0027 0.7070 0.7072
vn -0.7715 0.5774 0.2672
vn 0.7072 0.7070 0.0026
vn -0.2672 0.5774 -0.7715
vn -0.2340 -0.6673 0.7071
vn 0.5774 0.5773 0.5774
vn -0.2341 -0.6673 0.7070
vn 0.6673 -0.2341 0.7071
vn -0.6673 0.2341 0.7070
vn -0.6801 -0.1936 0.7071
vn -0.0081 -0.7072 0.7070
vn 0.1937 -0.6801 0.7071
vn 0.3997 -0.7120 0.5773
vn -0.0001 0.7071 0.7071
vn 0.7120 0.3996 0.5774
vn -0.7072 -0.0001 0.7071
vn -0.0064 0.7070 0.7072
vn -0.7071 0.0080 0.7070
vn -0.7723 -0.2649 0.5774
vn -0.2649 0.7723 0.5774
vn -0.7071 -0.0065 0.7070
vn -0.0000 -0.0002 1.0000
vn -0.1412 0.6929 0.7070
vn -0.7482 0.3267 0.5774
vn 0.7072 -0.0002 0.7071
vn 0.6929 0.1414 0.7071
vn -0.0001 -0.7072 0.7070
vn -0.3268 -0.7483 0.5773
vn -0.2126 -0.7070 -0.6745
vn -0.2128 -0.7071 -0.6744
vn 0.6744 -0.7070 -0.2127
vn -0.6744 -0.7071 0.2128
vn -0.7072 -0.7070 -0.0037
vn 0.7071 -0.7071 0.0073
vn 0.0072 -0.7071 -0.7071
vn 0.0040 -0.7070 -0.7072
vn 0.3553 -0.5774 -0.7352
vn 0.7351 -0.5774 0.3553
vn -0.0079 -0.7070 0.7071
vn 0.7072 -0.7071 -0.0001
vn -0.7071 -0.7070 -0.0079
vn -0.7715 -0.5774 0.2672
vn -0.2671 -0.5774 -0.7716
vn -0.0001 -0.7071 0.7072
vn 0.7072 -0.7071 0.0027
vn -0.0001 -0.7071 -0.7072
vn -0.0027 -0.7071 0.7072
vn -0.6473 -0.7071 -0.2847
vn 0.6473 -0.7070 0.2847
vn 0.2848 -0.7071 -0.6473
vn 0.2847 -0.7070 -0.6474
vn 0.7071 0.5189 0.4804
vn 0.7070 0.5189 0.4805
vn 0.7071 -0.4805 0.5188
vn 0.7070 0.4805 -0.5189
vn 0.7071 0.7072 0.0011
vn 0.7070 0.0079 0.7071
vn 0.7070 -0.0011 0.7072
vn 0.5773 -0.0090 0.8165
vn 0.5774 -0.8164 -0.0090
vn 0.7069 0.7073 -0.0001
vn 0.7070 0.0071 -0.7072
vn 0.7072 0.7070 0.0073
vn 1.0000 -0.0000 0.0003
vn 0.5774 0.8163 0.0184
vn 0.7072 -0.7070 0.0001
vn 1.0000 -0.0005 0.0002
vn 0.5772 -0.0182 0.8164
vn 0.7070 0.7071 -0.0079
vn 0.7071 0.0013 0.7072
vn 0.5774 0.8144 -0.0584
vn 0.7070 -0.7072 0.0002
vn 0.7071 -0.7072 0.0012
vn 0.5774 -0.0583 -0.8144
vn -0.7070 0.5188 0.4806
vn -0.5774 -0.5774 -0.5773
vn -0.7070 0.4805 -0.5189
vn -0.7070 -0.4806 0.5188
vn -0.7070 0.0078 0.7071
vn -0.7070 0.7072 -0.0011
vn -0.5774 -0.0092 0.8164
vn -0.7070 -0.0000 -0.7072
vn -0.5774 -0.8164 -0.0092
vn -0.7071 0.7072 -0.0001
vn -0.7071 -0.7071 0.0071
vn -0.7071 -0.0071 -0.7071
vn -0.5774 0.8163 0.0181
vn -0.7070 -0.7072 -0.0000
vn -0.5774 -0.0182 0.8163
vn -0.7070 0.7071 -0.0079
vn -0.7070 0.0012 0.7072
vn -0.5774 0.8144 -0.0585
vn -0.7070 -0.7072 0.0011
vn -0.5774 -0.0585 -0.8144
vn -0.2170 0.6731 -0.7070
vn 0.5773 -0.5774 -0.5774
vn -0.2171 0.6730 -0.7071
vn 0.6731 0.2170 -0.7070
vn -0.6730 -0.2171 -0.7071
vn -0.7068 0.0224 -0.7070
vn -0.0074 0.7072 -0.7070
vn 0.0225 0.7068 -0.7070
vn 0.3861 0.7193 -0.5775
vn 0.0001 -0.7074 -0.7068
vn -0.0000 -0.0003 -1.0000
vn 0.7194 -0.3862 -0.5773
vn -0.7072 -0.0002 -0.7071
vn -0.0069 -0.7073 -0.7069
vn 0.7072 -0.0001 -0.7071
vn -0.7072 -0.0074 -0.7070
vn -0.7633 0.2898 -0.5774
vn -0.2897 -0.7634 -0.5774
vn -0.7071 0.0067 -0.7071
vn -0.0162 -0.7070 -0.7070
vn -0.7561 -0.3083 -0.5773
vn 0.7072 -0.0002 -0.7071
vn 0.7070 -0.0161 -0.7070
vn -0.3082 0.7559 -0.5775
vn -0.0000 -0.7074 -0.7068
vn 0.6679 0.7070 0.2325
vn -0.6678 0.7071 -0.2326
vn -0.0079 0.7070 0.7071
vn 0.3769 0.5774 0.7243
vn 0.7072 0.7070 0.0002
vn -0.7071 0.7070 -0.0079
vn -0.2671 0.5774 -0.7716
vn -0.0001 0.7070 0.7072
vn -0.2041 -0.6770 0.7071
vn -0.2043 -0.6770 0.7070
vn 0.6769 -0.2042 0.7071
vn -0.6771 0.2042 0.7070
vn -0.7068 -0.0224 0.7071
vn -0.0069 -0.7071 0.7071
vn 0.0225 -0.7068 0.7071
vn 0.3724 -0.7266 0.5774
vn -0.0001 0.7073 0.7069
vn -0.0000 0.0002 1.0000
vn 0.7267 0.3724 0.5773
vn -0.0000 0.0001 1.0000
vn -0.7072 -0.0000 0.7071
vn -0.0074 0.7072 0.7070
vn 0.7072 0.0002 0.7071
vn -0.7071 0.0070 0.7071
vn -0.7560 -0.3084 0.5774
vn -0.3083 0.7561 0.5774
vn -0.7071 -0.0073 0.7071
vn -0.0162 0.7070 0.7071
vn -0.7634 0.2898 0.5773
vn 0.7070 0.0162 0.7071
vn -0.2896 -0.7633 0.5774
vn -0.0000 0.7073 0.7070
vn 0.5773 -0.5773 0.5774
vn 0.3554 -0.5774 -0.7351
vn 0.7351 -0.5774 0.3555
vn -0.0000 -0.7070 0.7072
vn 0.7072 -0.7070 0.0026
vn -0.0001 -0.7070 -0.7072
vn -0.0027 -0.7070 0.7072
vn -0.6474 -0.7070 -0.2847
vn -0.0003 0.7071 0.7072
vn 0.7072 0.7070 -0.0003
vn -0.6378 0.3058 0.7069
vn 0.5772 -0.5774 0.5775
vn -0.6378 0.3057 0.7069
vn -0.3058 -0.6377 0.7070
vn 0.3057 0.6376 0.7071
vn -0.0007 0.7071 0.7071
vn -0.7071 0.0082 0.7070
vn 0.0082 0.7071 0.7070
vn -0.2976 0.7604 0.5773
vn -0.0000 -0.7071 0.7071
vn 0.7604 0.2975 0.5773
vn -0.0008 -0.7071 0.7071
vn -0.7072 0.0007 0.7071
vn -0.7929 0.1951 0.5772
vn -0.0002 -0.0000 1.0000
vn 0.1951 0.7929 0.5773
vn -0.0001 -0.7071 0.7071
vn -0.0114 0.7071 0.7071
vn 0.7071 0.0114 0.7071
vn 0.1623 -0.8002 0.5774
vn -0.0000 0.7072 0.7071
vn -0.8002 -0.1622 0.5774
vn 0.7072 -0.0001 0.7071
vn -0.7072 -0.0007 0.7071
vn -0.6377 0.3056 -0.7071
vn 0.5774 -0.5774 -0.5773
vn 0.3058 0.6375 -0.7071
vn -0.3058 -0.6377 -0.7070
vn 0.7072 -0.0008 -0.7071
vn -0.7071 0.0082 -0.7071
vn 0.0082 0.7071 -0.7071
vn -0.2975 0.7602 -0.5775
vn 0.0001 -0.7073 -0.7069
vn -0.0000 -0.0002 -1.0000
vn 0.7604 0.2973 -0.5774
vn -0.0007 -0.7073 -0.7069
vn -0.7072 0.0005 -0.7070
vn -0.7927 0.1954 -0.5775
vn 0.7073 -0.0000 -0.7069
vn 0.1955 0.7927 -0.5774
vn -0.0000 -0.7073 -0.7070
vn 0.7071 -0.0114 -0.7070
vn -0.0114 -0.7071 -0.7070
vn 0.1624 -0.8002 -0.5774
vn 0.0007 0.7072 -0.7071
vn 0.7071 0.3375 -0.6214
vn 0.7070 0.6215 0.3375
vn 0.7071 -0.6215 -0.3374
vn 0.7070 0.0093 -0.7071
vn 0.7070 0.7068 -0.0223
vn 0.7070 0.7071 0.0093
vn 0.7070 -0.7068 -0.0245
vn 0.7070 -0.0222 -0.7068
vn 0.5774 -0.7343 0.3569
vn 0.7070 0.0245 -0.7068
vn 0.7071 -0.7071 -0.0059
vn 0.7071 -0.0060 0.7071
vn 0.5774 0.7244 0.3767
vn 0.7071 -0.7072 0.0002
vn -0.7071 0.7071 -0.0106
vn 0.0107 0.7070 -0.7071
vn 0.8060 0.5773 0.1305
vn -0.0148 0.7070 -0.7070
vn -0.7789 0.5774 0.2449
vn 0.7072 0.7071 0.0001
vn -0.7072 0.7071 -0.0002
vn 0.7070 0.7070 -0.0148
vn -0.7070 -0.3140 -0.6337
vn -0.7070 0.6337 -0.3139
vn -0.7071 -0.0093 -0.7071
vn -0.7070 -0.7068 -0.0245
vn -0.7071 -0.7071 0.0093
vn -0.5774 -0.7829 -0.2317
vn -0.5774 -0.2317 0.7829
vn -0.7070 0.7068 -0.0223
vn -0.7070 0.0245 -0.7068
vn -0.5774 0.7242 0.3770
vn -0.7070 -0.0223 -0.7068
vn -0.7070 0.7072 -0.0059
vn -0.7070 0.0059 0.7072
vn -0.5774 -0.7342 0.3572
vn -0.5470 -0.7070 -0.4482
vn -0.0150 -0.7070 0.7070
vn 0.7070 -0.7070 0.0148
vn -0.6270 -0.7070 0.3271
vn 0.3271 -0.7070 0.6270
vn 0.8149 -0.5774 0.0507
vn -0.7072 -0.7071 -0.0001
vn -0.0506 -0.5774 0.8149
vn -0.7071 -0.7071 -0.0106
vn 0.0107 -0.7071 -0.7071
vn 0.1308 -0.5774 -0.8060
vn 0.0001 -0.7071 0.7072
vn 0.8059 -0.5774 0.1309
vt 3.740394 2.189291
vt 3.743010 2.189291
vt 3.743010 2.193866
vt 3.740394 2.193866
vt -2.572479 2.189292
vt 3.743011 2.415666
vt 3.740395 2.415666
vt 3.743011 2.420681
vt 3.740395 2.420681
vt -2.572479 2.420681
vt -2.572479 2.415667
vt -2.572479 2.193867
vt -2.576096 2.415667
vt -2.576096 2.420681
vt -2.576096 2.193867
vt -2.576096 2.189292
vt -2.743010 2.193866
vt -2.743010 2.189291
vt -2.740394 2.189291
vt -2.740394 2.193866
vt 3.572479 2.193867
vt -2.743010 2.415666
vt -2.740394 2.415666
vt -2.743010 2.420681
vt -2.740394 2.420681
vt 3.572479 2.420681
vt 3.572479 2.415667
vt 3.576095 2.193867
vt 3.576095 2.189292
vt 3.572479 2.189292
vt 3.576095 2.415667
vt 3.576095 2.420681
vt 2.193866 0.391285
vt 2.189291 0.391285
vt 2.189291 0.388204
vt 2.193866 0.388204
vt 2.415666 0.391285
vt 2.189291 0.211567
vt 2.415666 0.388204
vt 2.420681 0.391285
vt 2.420681 0.388204
vt 2.420681 0.211567
vt 2.193866 0.211567
vt 2.189291 0.209606
vt 2.193866 0.209606
vt 2.415666 0.211567
vt 2.420681 0.209606
vt 2.415666 0.209606
vt -2.740395 0.391285
vt -2.743011 0.391285
vt -2.743011 0.388204
vt -2.740395 0.388204
vt 3.572479 0.391289
vt -2.743010 0.211567
vt -2.740394 0.211567
vt -2.743010 0.209606
vt -2.740394 0.209606
vt 3.572479 0.209610
vt 3.572479 0.211571
vt 3.572479 0.388208
vt 3.576095 0.211571
vt 3.576095 0.209610
vt 3.576096 0.388208
vt 3.576096 0.391289
vt -1.415667 0.391289
vt -1.420681 0.391289
vt -1.420681 0.388208
vt -1.415667 0.388208
vt -1.193867 0.391289
vt -1.420681 0.211571
vt -1.193867 0.388208
vt -1.189292 0.391289
vt -1.189292 0.388208
vt -1.189292 0.211571
vt -1.415667 0.211571
vt -1.420681 0.209610
vt -1.415667 0.209610
vt -1.193867 0.211571
vt -1.189292 0.209610
vt -1.193867 0.209610
vt -2.572479 0.391289
vt -2.576096 0.391289
vt -2.576096 0.388208
vt -2.572479 0.388208
vt 3.740394 0.391285
vt -2.572479 0.211571
vt -2.576095 0.211571
vt -2.572479 0.209610
vt -2.576095 0.209610
vt 3.740394 0.211567
vt 3.740394 0.388204
vt 3.743010 0.391285
vt 3.743010 0.388204
vt 3.743010 0.211567
vt 3.743010 0.209606
vt 3.740394 0.209606
vt 2.189291 -1.270780
vt 2.189291 -1.273501
vt 2.191061 -1.273501
vt 2.191061 -1.270780
vt 2.189291 0.205010
vt 2.213190 -1.273501
vt 2.191061 0.205010
vt 2.189291 0.207474
vt 2.191061 0.207474
vt 2.213190 0.207474
vt 2.213190 0.205010
vt 2.215400 0.207474
vt 2.215400 0.205010
vt 2.213190 -1.270780
vt 2.215400 -1.273501
vt 2.215400 -1.270780
vt -1.191061 -1.273501
vt -1.189291 -1.273501
vt -1.189291 -1.270780
vt -1.191061 -1.270780
vt -1.213190 -1.273501
vt -1.191061 0.205010
vt -1.189291 0.205010
vt -1.189291 0.207474
vt -1.191061 0.207474
vt -1.213190 0.205010
vt -1.213190 0.207474
vt -1.215400 0.207474
vt -1.215400 0.205010
vt -1.213190 -1.270780
vt -1.215400 -1.273501
vt -1.215400 -1.270780
vt -2.759714 2.191061
vt -2.759714 2.189291
vt -2.752202 2.189291
vt -2.752201 2.191061
vt -2.759714 2.213190
vt -2.520200 2.189291
vt -2.752201 2.213190
vt -2.759714 2.215400
vt -2.752201 2.215400
vt -2.520200 2.215400
vt -2.520200 2.191061
vt -2.514813 2.189291
vt -2.514813 2.191061
vt -2.520200 2.213190
vt -2.514813 2.215400
vt -2.514813 2.213190
vt -2.759714 -1.270780
vt -2.759714 -1.273501
vt -2.752201 -1.273501
vt -2.752201 -1.270780
vt -2.759714 0.205010
vt -2.520200 -1.273501
vt -2.752202 0.205010
vt -2.759714 0.207474
vt -2.752202 0.207474
vt -2.520200 0.207474
vt -2.520200 0.205010
vt -2.514814 0.207474
vt -2.514814 0.205010
vt -2.520200 -1.270780
vt -2.514813 -1.273501
vt -2.514813 -1.270780
vt 3.759714 2.213190
vt 3.759714 2.215400
vt 3.752202 2.215400
vt 3.752201 2.213190
vt 3.759713 2.191061
vt 3.520200 2.215400
vt 3.752201 2.191061
vt 3.759714 2.189291
vt 3.752201 2.189291
vt 3.520200 2.189291
vt 3.520200 2.213190
vt 3.514814 2.215400
vt 3.514814 2.213190
vt 3.520200 2.191061
vt 3.514813 2.189291
vt 3.514813 2.191061
vt 3.759714 0.205010
vt 3.759714 0.207474
vt 3.752201 0.207474
vt 3.752201 0.205010
vt 3.759714 -1.270780
vt 3.520200 0.205010
vt 3.520200 0.207474
vt 3.752201 -1.270780
vt 3.759714 -1.273501
vt 3.752202 -1.273501
vt 3.520200 -1.273501
vt 3.520200 -1.270780
vt 3.514813 -1.273501
vt 3.514813 -1.270780
vt 3.514813 0.205010
vt 3.514813 0.207474
vt 2.218841 -1.270780
vt 2.218841 -1.273501
vt 2.220873 -1.273501
vt 2.220873 -1.270780
vt 2.218841 0.205010
vt 2.418651 -1.273501
vt 2.220873 0.205010
vt 2.218841 0.207474
vt 2.220873 0.207474
vt 2.418651 0.207474
vt 2.418651 0.205010
vt 2.420551 0.207474
vt 2.420551 0.205010
vt 2.418651 -1.270780
vt 2.420551 -1.273501
vt 2.420551 -1.270780
vt -1.220873 -1.273501
vt -1.218841 -1.273501
vt -1.218841 -1.270780
vt -1.220873 -1.270780
vt -1.418651 -1.273501
vt -1.220873 0.205010
vt -1.218841 0.205010
vt -1.218841 0.207474
vt -1.220873 0.207474
vt -1.418651 0.205010
vt -1.418651 0.207474
vt -1.420551 0.207474
vt -1.420551 0.205010
vt -1.418651 -1.270780
vt -1.420551 -1.273501
vt -1.420551 -1.270780
vt -2.759714 2.220873
vt -2.759714 2.218841
vt -2.752202 2.218841
vt -2.752202 2.220873
vt -2.759714 2.418651
vt -2.520200 2.218841
vt -2.752202 2.418651
vt -2.759714 2.420551
vt -2.752202 2.420551
vt -2.520200 2.420551
vt -2.520200 2.220873
vt -2.514814 2.218841
vt -2.514814 2.220873
vt -2.520200 2.418651
vt -2.514814 2.420551
vt -2.514814 2.418651
vt -2.759714 -1.270780
vt -2.752202 -1.273501
vt -2.752202 -1.270780
vt -2.759715 0.205010
vt -2.520200 -1.273501
vt -2.752202 0.205010
vt -2.759714 0.207474
vt -2.520201 0.207474
vt -2.520201 0.205010
vt -2.514814 0.207474
vt -2.514814 0.205010
vt -2.520200 -1.270780
vt -2.514814 -1.273501
vt -2.514814 -1.270780
vt 3.759714 2.418651
vt 3.759714 2.420551
vt 3.752202 2.420551
vt 3.752202 2.418651
vt 3.759713 2.220873
vt 3.520201 2.420551
vt 3.752201 2.220873
vt 3.759714 2.218841
vt 3.752201 2.218841
vt 3.520200 2.218841
vt 3.520201 2.418651
vt 3.514814 2.420551
vt 3.514814 2.418651
vt 3.520200 2.220873
vt 3.514813 2.218841
vt 3.514813 2.220873
vt 3.759714 -1.270780
vt 3.520200 0.205010
vt 3.520200 0.207474
vt 3.752202 -1.270780
vt 3.520200 -1.273501
vt 3.520200 -1.270780
vt 3.514814 -1.273501
vt 3.514814 -1.270780
vt 3.514813 0.205010
vt 3.514813 0.207474
vt 3.349899 -1.262483
vt -2.514463 -1.260525
vt -2.514463 -1.262487
vt 3.514463 2.223306
vt 3.517079 2.223306
vt 3.517079 2.227881
vt 3.514463 2.227881
vt -2.349899 2.223307
vt 3.517079 2.415666
vt 3.514463 2.415666
vt 3.517079 2.420681
vt 3.514463 2.420681
vt -2.349899 2.420681
vt -2.349899 2.415667
vt -2.353515 2.420681
vt -2.353515 2.415667
vt -2.349899 2.227882
vt -2.353515 2.227882
vt -2.353515 2.223307
vt -2.517079 2.227881
vt -2.517079 2.223306
vt -2.514463 2.223306
vt -2.514463 2.227881
vt 3.349899 2.227882
vt -2.517079 2.415666
vt -2.514463 2.415666
vt -2.517079 2.420681
vt -2.514463 2.420681
vt 3.349899 2.420681
vt 3.349899 2.415667
vt 3.353515 2.420681
vt 3.353515 2.415667
vt 3.353515 2.227882
vt 3.353515 2.223307
vt 3.349899 2.223307
vt 2.227881 -1.077912
vt 2.223306 -1.077912
vt 2.223306 -1.080993
vt 2.227881 -1.080993
vt 2.415666 -1.077912
vt 2.223306 -1.260525
vt 2.415666 -1.080993
vt 2.420681 -1.077912
vt 2.420681 -1.080993
vt 2.420681 -1.260525
vt 2.227881 -1.260525
vt 2.223306 -1.262486
vt 2.227881 -1.262486
vt 2.415666 -1.260525
vt 2.420681 -1.262487
vt 2.415666 -1.262487
vt -2.514463 -1.077913
vt -2.517079 -1.077912
vt -2.517079 -1.080993
vt -2.514463 -1.080994
vt 3.349899 -1.077909
vt -2.517079 -1.260525
vt -2.517079 -1.262487
vt 3.349899 -1.260522
vt 3.349899 -1.080990
vt 3.353515 -1.260522
vt 3.353515 -1.262483
vt 3.353515 -1.080990
vt 3.353515 -1.077909
vt -1.415667 -1.077909
vt -1.420681 -1.077909
vt -1.420681 -1.080990
vt -1.415667 -1.080990
vt -1.227882 -1.077909
vt -1.420681 -1.260522
vt -1.227882 -1.080990
vt -1.223307 -1.077909
vt -1.223307 -1.080990
vt -1.223307 -1.260522
vt -1.415667 -1.260522
vt -1.420681 -1.262483
vt -1.415667 -1.262483
vt -1.227882 -1.260522
vt -1.223307 -1.262483
vt -1.227882 -1.262483
vt -2.349899 -1.077909
vt -2.353515 -1.077909
vt -2.353515 -1.080990
vt -2.349899 -1.080990
vt 3.514463 -1.077913
vt -2.349899 -1.260522
vt -2.353515 -1.260522
vt -2.349899 -1.262483
vt -2.353515 -1.262483
vt 3.514463 -1.260525
vt 3.514463 -1.080994
vt 3.517079 -1.077912
vt 3.517079 -1.080993
vt 3.517079 -1.260525
vt 3.517079 -1.262486
vt 3.514463 -1.262487
s 1
f 1/1/1 3/2/2 2/3/3
f 4/1/4 6/3/5 5/4/6
f 7/5/7 9/1/8 8/4/6
f 10/6/9 12/4/6 11/3/10
f 13/6/11 15/7/6 14/4/6
f 16/8/12 18/7/6 17/6/10
f 19/8/13 21/9/14 20/7/6
f 22/10/15 24/7/6 23/9/16
s 0
f 25/11/6 27/4/6 26/7/6
f 28/11/6 30/12/6 29/4/6
s 1
f 31/13/17 33/12/6 32/11/6
f 34/14/18 36/13/19 35/11/6
f 37/14/20 39/11/6 38/10/21
f 40/10/22 42/11/6 41/7/6
f 43/13/23 45/15/24 44/12/6
f 46/16/25 48/12/6 47/15/26
f 49/16/27 51/5/21 50/12/28
f 52/5/29 54/4/28 53/12/28
f 55/17/30 57/18/31 56/19/30
f 58/17/32 60/19/33 59/20/34
f 61/21/34 63/20/34 62/19/35
f 64/22/36 66/17/37 65/20/34
f 67/22/38 69/20/34 68/23/34
f 70/24/39 72/22/37 71/23/34
f 73/24/40 75/23/34 74/25/41
f 76/26/42 78/25/43 77/23/34
s 0
f 79/27/34 81/23/34 80/20/34
f 82/27/34 84/20/34 83/21/34
s 1
f 85/28/44 87/27/34 86/21/34
f 88/29/45 90/28/46 89/21/34
f 91/29/47 93/21/34 92/30/48
f 94/21/34 96/19/49 95/30/50
f 97/28/51 99/31/52 98/27/53
f 100/32/54 102/27/55 101/31/56
f 103/32/57 105/26/58 104/27/59
f 106/26/60 108/23/34 107/27/34
f 109/33/61 111/34/62 110/35/63
f 112/33/64 114/35/65 113/36/66
f 115/37/67 117/33/68 116/36/66
f 118/38/69 120/36/66 119/35/70
f 121/37/71 123/36/66 122/39/66
f 124/40/72 126/37/68 125/39/66
f 127/40/73 129/39/66 128/41/74
f 130/42/75 132/41/76 131/39/66
f 133/38/77 135/43/66 134/36/66
s 0
f 136/43/66 138/39/66 137/36/66
s 1
f 139/44/78 141/43/66 140/38/79
f 142/44/80 144/45/81 143/43/66
f 145/42/82 147/39/66 146/46/66
s 0
f 148/43/66 150/46/66 149/39/66
s 1
f 151/45/83 153/46/66 152/43/66
f 154/47/84 156/42/85 155/46/66
f 157/45/86 159/48/81 158/46/66
f 160/47/87 162/46/66 161/48/88
f 163/49/89 165/50/90 164/51/91
f 166/49/92 168/51/93 167/52/94
f 169/53/95 171/49/96 170/52/94
f 172/54/97 174/52/94 173/51/98
f 175/54/99 177/55/94 176/52/94
f 178/56/100 180/55/94 179/54/101
f 181/56/102 183/57/103 182/55/94
f 184/58/104 186/55/94 185/57/105
s 0
f 187/59/94 189/52/94 188/55/94
f 190/59/94 192/60/94 191/52/94
s 1
f 193/61/106 195/60/94 194/59/94
f 196/62/107 198/61/108 197/59/94
f 199/62/109 201/59/94 200/58/96
f 202/58/110 204/59/94 203/55/94
f 205/61/111 207/63/112 206/60/113
f 208/64/114 210/60/94 209/63/115
f 211/64/116 213/53/105 212/60/94
f 214/53/117 216/52/94 215/60/94
f 217/65/118 219/66/119 218/67/118
f 220/65/120 222/67/121 221/68/122
f 223/69/123 225/65/124 224/68/122
f 226/70/125 228/68/122 227/67/126
f 229/69/127 231/68/122 230/71/122
f 232/72/128 234/69/124 233/71/122
f 235/72/129 237/71/122 236/73/130
f 238/74/131 240/73/132 239/71/122
f 241/70/133 243/75/122 242/68/122
s 0
f 244/75/122 246/71/122 245/68/122
s 1
f 247/76/134 249/75/122 248/70/135
f 250/76/136 252/77/137 251/75/122
f 253/74/138 255/71/122 254/78/122
s 0
f 256/75/122 258/78/122 257/71/122
s 1
f 259/77/139 261/78/122 260/75/122
f 262/79/140 264/74/141 263/78/122
f 265/77/142 267/80/137 266/78/122
f 268/79/143 270/78/122 269/80/144
f 271/81/145 273/82/146 272/83/145
f 274/81/147 276/83/148 275/84/149
f 277/85/150 279/81/151 278/84/152
f 280/86/152 282/84/152 281/83/153
f 283/86/152 285/83/154 284/87/155
f 286/88/156 288/86/152 287/87/157
f 289/88/158 291/87/158 290/89/159
f 292/88/160 294/90/152 293/86/152
s 0
f 295/86/152 297/91/152 296/84/152
s 1
f 298/85/161 300/84/152 299/91/152
f 301/92/162 303/85/163 302/91/152
f 304/92/164 306/91/152 305/93/155
f 307/94/165 309/93/166 308/91/152
s 0
f 310/86/152 312/90/152 311/91/152
s 1
f 313/94/167 315/91/152 314/90/152
f 316/95/168 318/94/169 317/90/152
f 319/95/170 321/90/152 320/96/171
f 322/88/172 324/96/173 323/90/152
f 325/97/174 327/98/31 326/99/175
f 328/97/176 330/99/177 329/100/178
f 331/101/179 333/97/180 332/100/178
f 334/102/181 336/100/66 335/99/182
f 337/101/183 339/100/66 338/103/66
f 340/104/184 342/101/185 341/103/66
f 343/104/186 345/103/178 344/105/187
f 346/106/188 348/105/189 347/103/66
f 349/106/190 351/103/66 350/107/66
s 0
f 352/107/66 354/103/66 353/100/66
s 1
f 355/108/191 357/106/192 356/107/193
f 358/108/194 360/107/66 359/109/185
f 361/102/195 363/110/196 362/100/196
s 0
f 364/107/66 366/100/66 365/110/66
s 1
f 367/109/197 369/107/66 368/110/66
f 370/111/198 372/110/66 371/102/199
f 373/109/200 375/110/66 374/112/185
f 376/111/201 378/112/202 377/110/196
f 379/113/203 381/114/204 380/115/205
f 382/113/206 384/115/207 383/116/122
f 385/117/208 387/113/209 386/116/122
f 388/118/122 390/116/122 389/115/210
f 391/118/211 393/115/212 392/119/213
f 394/120/214 396/118/211 395/119/215
f 397/120/216 399/121/124 398/118/122
f 400/121/217 402/122/122 401/118/122
s 0
f 403/122/122 405/116/122 404/118/122
s 1
f 406/121/218 408/123/219 407/122/122
f 409/124/220 411/122/221 410/123/137
f 412/124/222 414/125/223 413/122/122
f 415/117/224 417/116/122 416/126/122
s 0
f 418/122/122 420/126/122 419/116/122
s 1
f 421/125/225 423/126/122 422/122/122
f 424/127/226 426/117/227 425/126/221
f 427/125/228 429/128/229 428/126/122
f 430/127/230 432/126/122 431/128/126
f 433/129/231 435/130/232 434/131/233
f 436/129/234 438/131/235 437/132/236
f 439/133/237 441/129/238 440/132/34
f 442/134/239 444/132/236 443/131/240
f 445/133/241 447/132/34 446/135/34
f 448/136/242 450/133/243 449/135/244
f 451/136/245 453/135/244 452/137/246
f 454/138/247 456/137/248 455/135/244
f 457/134/249 459/139/236 458/132/236
s 0
f 460/139/34 462/135/34 461/132/34
s 1
f 463/140/250 465/139/236 464/134/240
f 466/140/251 468/141/252 467/139/236
f 469/138/253 471/135/244 470/142/244
s 0
f 472/139/34 474/142/34 473/135/34
s 1
f 475/141/254 477/142/34 476/139/34
f 478/143/255 480/138/248 479/142/244
f 481/141/256 483/144/46 482/142/34
f 484/143/257 486/142/244 485/144/258
f 487/145/259 489/146/260 488/147/261
f 490/145/262 492/147/263 491/148/94
f 493/149/264 495/145/265 494/148/94
f 496/150/266 498/148/94 497/147/105
f 499/149/267 501/148/94 500/151/94
f 502/152/268 504/149/115 503/151/94
f 505/152/269 507/151/94 506/153/270
f 508/154/271 510/153/272 509/151/94
f 511/154/273 513/151/94 512/155/94
s 0
f 514/155/94 516/151/94 515/148/94
s 1
f 517/156/274 519/154/272 518/155/94
f 520/156/275 522/155/94 521/157/115
f 523/150/276 525/158/94 524/148/94
s 0
f 526/155/94 528/148/94 527/158/94
s 1
f 529/157/277 531/155/94 530/158/94
f 532/159/278 534/158/94 533/150/105
f 535/157/279 537/158/94 536/160/115
f 538/159/280 540/160/98 539/158/94
f 541/161/281 543/162/282 542/163/283
f 544/161/284 546/163/285 545/164/6
f 547/165/286 549/161/26 548/164/6
f 550/166/287 552/164/6 551/163/16
f 553/165/288 555/164/6 554/167/6
f 556/168/289 558/165/290 557/167/28
f 559/168/291 561/167/28 560/169/292
f 562/170/293 564/169/21 563/167/28
f 565/166/294 567/171/6 566/164/6
s 0
f 568/171/6 570/167/6 569/164/6
s 1
f 571/172/295 573/171/6 572/166/16
f 574/172/296 576/173/24 575/171/6
f 577/170/297 579/167/298 578/174/298
s 0
f 580/171/6 582/174/6 581/167/6
s 1
f 583/173/299 585/174/6 584/171/6
f 586/175/300 588/170/301 587/174/28
f 589/173/302 591/176/303 590/174/6
f 592/175/304 594/174/28 593/176/26
f 595/177/305 597/178/2 596/179/306
f 598/177/307 600/179/308 599/180/152
f 601/181/309 603/177/169 602/180/152
f 604/182/152 606/180/152 605/179/310
f 607/182/152 609/179/311 608/183/151
f 610/181/312 612/180/152 611/184/152
s 0
f 613/182/152 615/184/152 614/180/152
s 1
f 616/185/313 618/181/169 617/184/152
f 619/185/314 621/184/152 620/186/163
f 622/187/315 624/186/316 623/184/152
f 625/187/317 627/184/152 626/188/152
s 0
f 628/182/152 630/188/152 629/184/152
s 1
f 631/189/318 633/187/173 632/188/152
f 634/189/319 636/188/152 635/190/320
f 637/191/321 639/190/322 638/188/152
f 640/191/323 642/188/152 641/182/152
f 643/191/324 645/182/152 644/183/325
f 646/191/326 648/183/327 647/192/146
f 649/193/328 651/194/31 650/195/329
f 652/193/330 654/195/331 653/196/66
f 655/197/332 657/193/74 656/196/66
f 658/198/333 660/196/66 659/195/182
f 661/197/334 663/196/178 662/199/178
f 664/200/335 666/197/185 665/199/178
f 667/200/336 669/199/178 668/201/337
f 670/202/338 672/201/182 671/199/66
f 673/202/339 675/199/340 674/203/340
s 0
f 676/203/66 678/199/66 677/196/66
s 1
f 679/204/341 681/202/342 680/203/343
f 682/204/344 684/203/340 683/205/48
f 685/198/345 687/206/66 686/196/66
s 0
f 688/203/66 690/196/66 689/206/66
s 1
f 691/205/346 693/203/66 692/206/66
f 694/207/347 696/206/66 695/198/348
f 697/205/349 699/206/66 698/208/185
f 700/207/350 702/208/85 701/206/66
f 703/209/351 705/210/352 704/211/351
f 706/209/353 708/211/354 707/212/122
f 709/213/355 711/209/137 710/212/122
f 712/214/122 714/212/122 713/211/210
f 715/214/122 717/211/356 716/215/141
f 718/216/357 720/214/122 719/215/358
f 721/216/359 723/217/360 722/214/122
f 724/217/361 726/218/122 725/214/122
s 0
f 727/218/122 729/212/122 728/214/122
s 1
f 730/217/362 732/219/144 731/218/122
f 733/220/363 735/218/122 734/219/364
f 736/220/365 738/221/223 737/218/122
f 739/213/366 741/212/122 740/222/122
s 0
f 742/218/122 744/222/122 743/212/122
s 1
f 745/221/367 747/222/122 746/218/122
f 748/223/368 750/213/364 749/222/122
f 751/221/369 753/224/223 752/222/122
f 754/223/370 756/222/122 755/224/135
f 757/225/371 759/226/372 758/227/373
f 760/225/374 762/227/375 761/228/34
f 763/229/376 765/225/238 764/228/34
f 766/230/377 768/228/34 767/227/43
f 769/229/378 771/228/34 770/231/34
f 772/232/379 774/229/380 773/231/381
f 775/232/382 777/231/381 776/233/383
f 778/234/384 780/233/385 779/231/381
f 781/230/386 783/235/34 782/228/34
s 0
f 784/235/34 786/231/34 785/228/34
s 1
f 787/236/387 789/235/34 788/230/48
f 790/236/388 792/237/46 791/235/34
f 793/234/389 795/231/381 794/238/381
s 0
f 796/235/34 798/238/34 797/231/34
s 1
f 799/237/390 801/238/34 800/235/34
f 802/239/391 804/234/392 803/238/381
f 805/237/393 807/240/46 806/238/34
f 808/239/394 810/238/381 809/240/395
f 811/241/261 813/146/260 812/242/259
f 814/241/396 816/242/397 815/243/94
f 817/244/264 819/241/115 818/243/94
f 820/245/398 822/243/94 821/242/96
f 823/244/267 825/243/94 824/246/94
f 826/247/399 828/244/115 827/246/94
f 829/247/269 831/246/94 830/153/270
f 832/248/271 834/153/400 833/246/94
f 835/248/273 837/246/94 836/249/94
s 0
f 838/249/94 840/246/94 839/243/94
s 1
f 841/250/274 843/248/105 842/249/94
f 844/250/275 846/249/94 845/251/115
f 847/245/401 849/252/94 848/243/94
s 0
f 850/249/94 852/243/94 851/252/94
s 1
f 853/251/277 855/249/94 854/252/94
f 856/253/278 858/252/94 857/245/105
f 859/251/279 861/252/94 860/254/115
f 862/253/402 864/254/403 863/252/94
f 865/255/404 867/256/282 866/257/405
f 868/255/406 870/257/407 869/258/6
f 871/259/408 873/255/26 872/258/6
f 874/260/409 876/258/6 875/257/16
f 877/259/410 879/258/6 878/261/6
f 880/262/411 882/259/412 881/261/413
f 883/262/414 885/261/415 884/263/416
f 886/264/417 888/263/418 887/261/415
f 889/260/419 891/265/6 890/258/6
s 0
f 892/265/6 894/261/6 893/258/6
s 1
f 895/266/420 897/265/6 896/260/21
f 898/266/421 900/267/24 899/265/6
f 901/264/422 903/261/413 902/268/413
s 0
f 904/265/6 906/268/6 905/261/6
s 1
f 907/267/423 909/268/6 908/265/6
f 910/269/424 912/264/21 911/268/415
f 913/267/425 915/270/303 914/268/6
f 916/269/426 918/268/415 917/270/427
f 919/177/305 921/178/428 920/179/306
f 922/177/307 924/179/308 923/180/152
f 925/271/309 927/177/169 926/180/152
f 928/272/152 930/180/152 929/179/310
f 931/272/152 933/179/311 932/273/151
f 934/271/312 936/180/152 935/274/152
s 0
f 937/272/152 939/274/152 938/180/152
s 1
f 940/185/429 942/271/169 941/274/152
f 943/185/430 945/274/152 944/186/171
f 946/275/315 948/186/173 947/274/152
f 949/275/317 951/274/152 950/276/152
s 0
f 952/272/152 954/276/152 953/274/152
s 1
f 955/277/318 957/275/173 956/276/152
f 958/277/319 960/276/152 959/278/431
f 961/279/432 963/278/433 962/276/152
f 964/279/434 966/276/152 965/272/152
f 967/279/435 969/272/152 968/273/325
f 970/279/327 972/273/327 971/280/146
f 973/281/436 975/282/94 974/283/437
f 976/284/438 978/285/439 977/286/440
f 979/284/441 981/286/442 980/287/28
f 982/288/443 984/284/8 983/287/28
f 985/289/444 987/287/6 986/286/10
f 988/289/445 990/290/6 989/287/6
f 991/291/446 993/290/415 992/289/447
f 994/291/448 996/292/14 995/290/415
f 997/293/449 999/290/415 998/292/16
s 0
f 1000/294/6 1002/287/6 1001/290/6
s 1
f 1003/293/450 1005/294/6 1004/290/6
f 1006/295/451 1008/294/452 1007/293/70
f 1009/295/453 1011/296/454 1010/294/415
s 0
f 1012/294/6 1014/297/6 1013/287/6
s 1
f 1015/296/455 1017/297/6 1016/294/6
f 1018/296/456 1020/298/19 1019/297/6
f 1021/299/457 1023/297/6 1022/298/458
f 1024/299/459 1026/288/460 1025/297/6
f 1027/288/461 1029/287/6 1028/297/6
f 1030/300/462 1032/301/463 1031/302/30
f 1033/300/464 1035/302/465 1034/303/59
f 1036/304/59 1038/303/59 1037/302/466
f 1039/305/467 1041/300/37 1040/303/34
f 1042/305/468 1044/303/34 1043/306/34
f 1045/307/469 1047/305/470 1046/306/471
f 1048/307/472 1050/306/471 1049/308/383
f 1051/309/473 1053/308/392 1052/306/471
s 0
f 1054/310/34 1056/306/34 1055/303/34
s 1
f 1057/309/474 1059/306/34 1058/310/34
f 1060/311/475 1062/309/476 1061/310/53
f 1063/311/477 1065/310/59 1064/312/478
f 1066/313/479 1068/312/46 1067/310/34
s 0
f 1069/310/34 1071/303/34 1070/304/34
s 1
f 1072/313/480 1074/310/34 1073/304/34
f 1075/314/481 1077/313/46 1076/304/34
f 1078/314/47 1080/304/34 1079/315/48
f 1081/304/34 1083/302/482 1082/315/50
f 1084/316/61 1086/317/62 1085/318/483
f 1087/316/484 1089/318/485 1088/319/66
f 1090/320/486 1092/316/68 1091/319/66
f 1093/321/487 1095/319/66 1094/318/79
f 1096/320/488 1098/319/66 1097/322/66
f 1099/323/72 1101/320/68 1100/322/66
f 1102/323/73 1104/322/66 1103/324/74
f 1105/325/489 1107/324/76 1106/322/66
f 1108/321/490 1110/326/66 1109/319/66
s 0
f 1111/326/66 1113/322/66 1112/319/66
s 1
f 1114/327/78 1116/326/66 1115/321/70
f 1117/327/491 1119/328/81 1118/326/66
f 1120/325/492 1122/322/66 1121/329/66
s 0
f 1123/326/66 1125/329/66 1124/322/66
s 1
f 1126/328/493 1128/329/66 1127/326/66
f 1129/330/84 1131/325/85 1130/329/66
f 1132/328/494 1134/331/81 1133/329/66
f 1135/330/495 1137/329/66 1136/331/496
f 1138/332/89 1140/333/90 1139/334/91
f 1141/332/92 1143/334/93 1142/335/94
f 1144/336/95 1146/332/96 1145/335/94
f 1147/337/497 1149/335/94 1148/334/98
f 1150/337/498 1152/282/94 1151/335/94
f 1153/338/100 1155/282/94 1154/337/101
f 1156/338/499 1158/283/270 1157/282/94
s 0
f 1159/339/94 1161/335/94 1160/282/94
f 1162/339/94 1164/340/94 1163/335/94
s 1
f 1165/341/500 1167/340/94 1166/339/94
f 1168/342/107 1170/341/403 1169/339/94
f 1171/342/501 1173/339/94 1172/281/502
f 1174/281/503 1176/339/94 1175/282/94
f 1177/341/504 1179/343/403 1178/340/94
f 1180/344/114 1182/340/94 1181/343/115
f 1183/344/116 1185/336/105 1184/340/94
f 1186/336/117 1188/335/94 1187/340/94
f 1189/345/118 1191/346/119 1190/347/505
f 1192/345/120 1194/347/506 1193/348/122
f 1195/349/507 1197/345/124 1196/348/122
f 1198/350/508 1200/348/122 1199/347/135
f 1201/349/509 1203/348/122 1202/351/122
f 1204/352/510 1206/349/124 1205/351/122
f 1207/352/511 1209/351/122 1208/353/130
f 1210/354/512 1212/353/132 1211/351/122
f 1213/350/513 1215/355/122 1214/348/122
s 0
f 1216/355/122 1218/351/122 1217/348/122
s 1
f 1219/356/134 1221/355/122 1220/350/135
f 1222/356/514 1224/357/364 1223/355/122
f 1225/354/515 1227/351/122 1226/358/122
s 0
f 1228/355/122 1230/358/122 1229/351/122
s 1
f 1231/357/516 1233/358/122 1232/355/122
f 1234/359/140 1236/354/135 1235/358/122
f 1237/357/517 1239/360/364 1238/358/122
f 1240/359/518 1242/358/122 1241/360/144
f 1243/361/145 1245/362/146 1244/363/145
f 1246/361/147 1248/363/519 1247/364/152
f 1249/365/150 1251/361/151 1250/364/152
f 1252/366/152 1254/364/152 1253/363/520
f 1255/366/152 1257/363/521 1256/367/433
f 1258/368/156 1260/366/152 1259/367/522
f 1261/368/158 1263/367/523 1262/369/159
f 1264/368/160 1266/370/152 1265/366/152
s 0
f 1267/366/152 1269/371/152 1268/364/152
f 1270/366/152 1272/370/152 1271/371/152
s 1
f 1273/365/161 1275/364/152 1274/371/152
f 1276/372/524 1278/365/525 1277/371/152
f 1279/372/526 1281/371/152 1280/373/258
f 1282/374/527 1284/373/169 1283/371/152
f 1285/374/528 1287/371/152 1286/370/152
f 1288/375/529 1290/374/530 1289/370/152
f 1291/375/531 1293/370/152 1292/376/171
f 1294/368/172 1296/376/173 1295/370/152
