# Blender 5.2.0 LTS
# www.blender.org
o demo5_background.005
v 4.255602 -3.624458 3.090994
v 3.655408 5.995901 3.090994
v 3.655404 -3.624458 3.090994
v 4.255602 -3.624458 3.090994
v 4.255606 5.995900 3.090994
v 3.655408 5.995901 3.090994
v 4.255602 -3.624458 3.642246
v 3.655408 5.995901 3.642246
v 4.255606 5.995900 3.642246
v 4.255602 -3.624458 3.642246
v 3.655404 -3.624457 3.642247
v 3.655408 5.995901 3.642246
v 4.255602 -3.624458 3.090994
v 3.655404 -3.624457 3.642247
v 4.255602 -3.624458 3.642246
v 4.255602 -3.624458 3.090994
v 3.655404 -3.624458 3.090994
v 3.655404 -3.624457 3.642247
v 3.655404 -3.624458 3.090994
v 3.655408 5.995901 3.642246
v 3.655404 -3.624457 3.642247
v 3.655404 -3.624458 3.090994
v 3.655408 5.995901 3.090994
v 3.655408 5.995901 3.642246
v 3.655408 5.995901 3.090994
v 4.255606 5.995900 3.642246
v 3.655408 5.995901 3.642246
v 3.655408 5.995901 3.090994
v 4.255606 5.995900 3.090994
v 4.255606 5.995900 3.642246
v 4.255606 5.995900 3.090994
v 4.255602 -3.624458 3.642246
v 4.255606 5.995900 3.642246
v 4.255606 5.995900 3.090994
v 4.255602 -3.624458 3.090994
v 4.255602 -3.624458 3.642246
v 0.358881 -3.624456 3.090996
v -0.241312 5.995903 3.090995
v -0.241316 -3.624456 3.090996
v 0.358881 -3.624456 3.090996
v 0.358885 5.995903 3.090995
v -0.241312 5.995903 3.090995
v 0.358882 -3.624455 3.642249
v -0.241312 5.995903 3.642248
v 0.358885 5.995903 3.642248
v 0.358882 -3.624455 3.642249
v -0.241316 -3.624455 3.642249
v -0.241312 5.995903 3.642248
v 0.358881 -3.624456 3.090996
v -0.241316 -3.624455 3.642249
v 0.358882 -3.624455 3.642249
v 0.358881 -3.624456 3.090996
v -0.241316 -3.624456 3.090996
v -0.241316 -3.624455 3.642249
v -0.241316 -3.624456 3.090996
v -0.241312 5.995903 3.642248
v -0.241316 -3.624455 3.642249
v -0.241316 -3.624456 3.090996
v -0.241312 5.995903 3.090995
v -0.241312 5.995903 3.642248
v -0.241312 5.995903 3.090995
v 0.358885 5.995903 3.642248
v -0.241312 5.995903 3.642248
v -0.241312 5.995903 3.090995
v 0.358885 5.995903 3.090995
v 0.358885 5.995903 3.642248
v 0.358885 5.995903 3.090995
v 0.358882 -3.624455 3.642249
v 0.358885 5.995903 3.642248
v 0.358885 5.995903 3.090995
v 0.358881 -3.624456 3.090996
v 0.358882 -3.624455 3.642249
vn -0.0000 -0.0000 -1.0000
vn -0.0000 -0.0000 1.0000
vn -0.0000 -1.0000 -0.0000
vn -1.0000 -0.0000 -0.0000
vn -0.0000 1.0000 -0.0000
vn 1.0000 -0.0000 -0.0000
vt 0.679368 -2.019600
vt 0.320633 -2.019600
vt 0.320631 3.019600
vt 0.679367 3.019600
vt 0.320631 -2.019600
vt 0.320633 3.019600
vt 0.679369 3.019600
vt 0.679367 -2.019600
vt 0.320631 0.301587
vt 0.320631 0.698413
vt 0.679367 0.698413
vt 0.679367 0.301587
vt -2.019600 0.301587
vt -2.019600 0.698413
vt 3.019600 0.698413
vt 3.019600 0.301587
vt 0.320631 0.301587
vt 0.320631 0.698413
s 0
f 1/1/1 3/2/1 2/3/1
f 4/1/1 6/3/1 5/4/1
f 7/5/2 9/6/2 8/7/2
f 10/5/2 12/7/2 11/8/2
f 13/9/3 15/10/3 14/11/3
f 16/9/3 18/11/3 17/12/3
f 19/13/4 21/14/4 20/15/4
f 22/13/4 24/15/4 23/16/4
f 25/17/5 27/18/5 26/11/5
f 28/17/5 30/11/5 29/12/5
f 31/13/6 33/14/6 32/15/6
f 34/13/6 36/15/6 35/16/6
f 37/1/1 39/2/1 38/3/1
f 40/1/1 42/3/1 41/4/1
f 43/5/2 45/6/2 44/7/2
f 46/5/2 48/7/2 47/8/2
f 49/9/3 51/10/3 50/11/3
f 52/9/3 54/11/3 53/12/3
f 55/13/4 57/14/4 56/15/4
f 58/13/4 60/15/4 59/16/4
f 61/17/5 63/18/5 62/11/5
f 64/17/5 66/11/5 65/12/5
f 67/13/6 69/14/6 68/15/6
f 70/13/6 72/15/6 71/16/6
