# Blender 5.2.0 LTS
# www.blender.org
o demo5_background.007
v 0.225654 5.841079 4.099642
v 0.225655 5.846456 4.092888
v 0.225655 5.841079 4.092888
v 0.225654 5.841079 4.099642
v 0.225655 5.846456 4.099642
v 0.225655 5.846456 4.092888
v 0.225655 5.841079 7.763791
v 0.225655 5.846456 4.099642
v 0.225654 5.841079 4.099642
v 0.225655 5.915976 4.092888
v 0.225655 5.846456 4.092888
v 0.225655 5.846456 4.099642
v 0.225655 5.841079 7.763791
v 0.225655 5.846457 7.763791
v 0.225655 5.846456 4.099642
v 0.225655 5.841079 7.769908
v 0.225655 5.846457 7.763791
v 0.225655 5.841079 7.763791
v 0.225655 5.841079 7.769908
v 0.225655 5.846457 7.769907
v 0.225655 5.846457 7.763791
v 0.225655 5.915976 7.769908
v 0.225655 5.846457 7.763791
v 0.225655 5.846457 7.769907
v 0.225655 5.915976 7.769908
v 0.225655 5.915976 7.763791
v 0.225655 5.846457 7.763791
v 0.225655 5.915976 7.763791
v 0.225655 5.846456 4.099642
v 0.225655 5.846457 7.763791
v 0.225655 5.921461 7.769907
v 0.225655 5.915976 7.763791
v 0.225655 5.915976 7.769908
v 0.225655 5.921461 7.769907
v 0.225655 5.921461 7.763791
v 0.225655 5.915976 7.763791
v 0.225655 5.915976 4.092888
v 0.225655 5.846456 4.099642
v 0.225655 5.915976 4.099642
v 0.225655 5.915976 7.763791
v 0.225655 5.915976 4.099642
v 0.225655 5.846456 4.099642
v 0.225655 5.921461 7.763791
v 0.225655 5.915976 4.099642
v 0.225655 5.915976 7.763791
v 0.225655 5.921460 4.092888
v 0.225655 5.915976 4.092888
v 0.225655 5.915976 4.099642
v 0.225655 5.921461 7.763791
v 0.225655 5.921460 4.099642
v 0.225655 5.915976 4.099642
v 0.225655 5.921460 4.092888
v 0.225655 5.915976 4.099642
v 0.225655 5.921460 4.099642
v -0.195780 5.846457 4.092888
v -0.195780 5.841080 4.099642
v -0.195780 5.841080 4.092888
v -0.195780 5.846457 4.092888
v -0.195780 5.846457 4.099642
v -0.195780 5.841080 4.099642
v -0.195780 5.915976 4.092888
v -0.195780 5.846457 4.099642
v -0.195780 5.846457 4.092888
v -0.195780 5.846457 7.763791
v -0.195780 5.841080 4.099642
v -0.195780 5.846457 4.099642
v -0.195780 5.846457 7.763791
v -0.195780 5.841080 7.763791
v -0.195780 5.841080 4.099642
v -0.195780 5.841080 7.769908
v -0.195780 5.841080 7.763791
v -0.195780 5.846457 7.763791
v -0.195780 5.841080 7.769908
v -0.195780 5.846457 7.763791
v -0.195780 5.846457 7.769907
v -0.195780 5.846457 7.769907
v -0.195780 5.846457 7.763791
v -0.195779 5.915976 7.763791
v -0.195779 5.915976 7.763791
v -0.195780 5.846457 7.763791
v -0.195780 5.846457 4.099642
v -0.195780 5.846457 7.769907
v -0.195779 5.915976 7.763791
v -0.195780 5.915976 7.769908
v -0.195780 5.921461 7.769908
v -0.195780 5.915976 7.769908
v -0.195779 5.915976 7.763791
v -0.195780 5.921461 7.769908
v -0.195779 5.915976 7.763791
v -0.195779 5.921461 7.763791
v -0.195780 5.915976 4.092888
v -0.195780 5.915976 4.099643
v -0.195780 5.846457 4.099642
v -0.195779 5.915976 7.763791
v -0.195780 5.846457 4.099642
v -0.195780 5.915976 4.099643
v -0.195779 5.921461 7.763791
v -0.195779 5.915976 7.763791
v -0.195780 5.915976 4.099643
v -0.195780 5.921461 4.092888
v -0.195780 5.915976 4.099643
v -0.195780 5.915976 4.092888
v -0.195779 5.921461 7.763791
v -0.195780 5.915976 4.099643
v -0.195780 5.921461 4.099643
v -0.195780 5.921461 4.092888
v -0.195780 5.921461 4.099643
v -0.195780 5.915976 4.099643
v 0.225655 5.846456 4.092888
v 0.206258 5.841079 4.092888
v 0.225655 5.841079 4.092888
v 0.225655 5.846456 4.092888
v 0.206258 5.846456 4.092888
v 0.206258 5.841079 4.092888
v 0.225655 5.915976 4.092888
v 0.206258 5.846456 4.092888
v 0.225655 5.846456 4.092888
v -0.181871 5.841080 4.092888
v 0.206258 5.841079 4.092888
v 0.206258 5.846456 4.092888
v 0.225655 5.915976 4.092888
v 0.206258 5.915976 4.092888
v 0.206258 5.846456 4.092888
v 0.225655 5.921460 4.092888
v 0.206258 5.915976 4.092888
v 0.225655 5.915976 4.092888
v 0.225655 5.921460 4.092888
v 0.206258 5.921460 4.092888
v 0.206258 5.915976 4.092888
v -0.181871 5.921461 4.092888
v 0.206258 5.915976 4.092888
v 0.206258 5.921460 4.092888
v -0.181871 5.841080 4.092888
v 0.206258 5.846456 4.092888
v -0.181871 5.846457 4.092888
v -0.181871 5.846457 4.092888
v 0.206258 5.846456 4.092888
v 0.206258 5.915976 4.092888
v -0.195780 5.841080 4.092888
v -0.181871 5.841080 4.092888
v -0.181871 5.846457 4.092888
v -0.195780 5.841080 4.092888
v -0.181871 5.846457 4.092888
v -0.195780 5.846457 4.092888
v -0.181871 5.921461 4.092888
v -0.181871 5.915976 4.092888
v 0.206258 5.915976 4.092888
v -0.181871 5.846457 4.092888
v 0.206258 5.915976 4.092888
v -0.181871 5.915976 4.092888
v -0.195780 5.846457 4.092888
v -0.181871 5.846457 4.092888
v -0.181871 5.915976 4.092888
v -0.195780 5.921461 4.092888
v -0.181871 5.915976 4.092888
v -0.181871 5.921461 4.092888
v -0.195780 5.846457 4.092888
v -0.181871 5.915976 4.092888
v -0.195780 5.915976 4.092888
v -0.195780 5.921461 4.092888
v -0.195780 5.915976 4.092888
v -0.181871 5.915976 4.092888
v 0.225655 5.921460 4.099642
v 0.206258 5.921460 4.092888
v 0.225655 5.921460 4.092888
v 0.225655 5.921460 4.099642
v 0.206258 5.921460 4.099642
v 0.206258 5.921460 4.092888
v 0.225655 5.921461 7.763791
v 0.206258 5.921460 4.099642
v 0.225655 5.921460 4.099642
v -0.181871 5.921461 4.092888
v 0.206258 5.921460 4.092888
v 0.206258 5.921460 4.099642
v 0.225655 5.921461 7.763791
v 0.206259 5.921461 7.763791
v 0.206258 5.921460 4.099642
v 0.225655 5.921461 7.769907
v 0.206259 5.921461 7.763791
v 0.225655 5.921461 7.763791
v 0.225655 5.921461 7.769907
v 0.206258 5.921461 7.769907
v 0.206259 5.921461 7.763791
v -0.181871 5.921461 7.769908
v 0.206259 5.921461 7.763791
v 0.206258 5.921461 7.769907
v -0.181871 5.921461 7.769908
v -0.181871 5.921461 7.763791
v 0.206259 5.921461 7.763791
v -0.181871 5.921461 7.763791
v 0.206258 5.921460 4.099642
v 0.206259 5.921461 7.763791
v -0.195780 5.921461 7.769908
v -0.181871 5.921461 7.763791
v -0.181871 5.921461 7.769908
v -0.195780 5.921461 7.769908
v -0.195779 5.921461 7.763791
v -0.181871 5.921461 7.763791
v -0.181871 5.921461 4.092888
v 0.206258 5.921460 4.099642
v -0.181871 5.921461 4.099643
v -0.181871 5.921461 7.763791
v -0.181871 5.921461 4.099643
v 0.206258 5.921460 4.099642
v -0.195779 5.921461 7.763791
v -0.181871 5.921461 4.099643
v -0.181871 5.921461 7.763791
v -0.195780 5.921461 4.092888
v -0.181871 5.921461 4.092888
v -0.181871 5.921461 4.099643
v -0.195779 5.921461 7.763791
v -0.195780 5.921461 4.099643
v -0.181871 5.921461 4.099643
v -0.195780 5.921461 4.092888
v -0.181871 5.921461 4.099643
v -0.195780 5.921461 4.099643
v 0.225655 5.915976 7.769908
v 0.206258 5.921461 7.769907
v 0.225655 5.921461 7.769907
v 0.225655 5.915976 7.769908
v 0.206258 5.915976 7.769908
v 0.206258 5.921461 7.769907
v 0.225655 5.846457 7.769907
v 0.206258 5.915976 7.769908
v 0.225655 5.915976 7.769908
v -0.181871 5.921461 7.769908
v 0.206258 5.921461 7.769907
v 0.206258 5.915976 7.769908
v 0.225655 5.846457 7.769907
v 0.206258 5.846457 7.769907
v 0.206258 5.915976 7.769908
v 0.225655 5.841079 7.769908
v 0.206258 5.846457 7.769907
v 0.225655 5.846457 7.769907
v 0.225655 5.841079 7.769908
v 0.206258 5.841079 7.769908
v 0.206258 5.846457 7.769907
v -0.181871 5.841080 7.769908
v 0.206258 5.846457 7.769907
v 0.206258 5.841079 7.769908
v -0.181871 5.921461 7.769908
v 0.206258 5.915976 7.769908
v -0.181871 5.915976 7.769908
v -0.181871 5.915976 7.769908
v 0.206258 5.915976 7.769908
v 0.206258 5.846457 7.769907
v -0.195780 5.921461 7.769908
v -0.181871 5.921461 7.769908
v -0.181871 5.915976 7.769908
v -0.195780 5.921461 7.769908
v -0.181871 5.915976 7.769908
v -0.195780 5.915976 7.769908
v -0.181871 5.841080 7.769908
v -0.181871 5.846457 7.769907
v 0.206258 5.846457 7.769907
v -0.181871 5.915976 7.769908
v 0.206258 5.846457 7.769907
v -0.181871 5.846457 7.769907
v -0.195780 5.915976 7.769908
v -0.181871 5.915976 7.769908
v -0.181871 5.846457 7.769907
v -0.195780 5.841080 7.769908
v -0.181871 5.846457 7.769907
v -0.181871 5.841080 7.769908
v -0.195780 5.915976 7.769908
v -0.181871 5.846457 7.769907
v -0.195780 5.846457 7.769907
v -0.195780 5.841080 7.769908
v -0.195780 5.846457 7.769907
v -0.181871 5.846457 7.769907
v 0.225655 5.841079 7.763791
v 0.206258 5.841079 7.769908
v 0.225655 5.841079 7.769908
v 0.225655 5.841079 7.763791
v 0.206258 5.841079 7.763791
v 0.206258 5.841079 7.769908
v 0.225654 5.841079 4.099642
v 0.206258 5.841079 7.763791
v 0.225655 5.841079 7.763791
v -0.181871 5.841080 7.763791
v 0.206258 5.841079 7.769908
v 0.206258 5.841079 7.763791
v -0.181871 5.841080 7.763791
v -0.181871 5.841080 7.769908
v 0.206258 5.841079 7.769908
v 0.225654 5.841079 4.099642
v 0.206258 5.841079 4.099642
v 0.206258 5.841079 7.763791
v -0.181871 5.841080 7.763791
v 0.206258 5.841079 7.763791
v 0.206258 5.841079 4.099642
v 0.225655 5.841079 4.092888
v 0.206258 5.841079 4.099642
v 0.225654 5.841079 4.099642
v 0.225655 5.841079 4.092888
v 0.206258 5.841079 4.092888
v 0.206258 5.841079 4.099642
v -0.181871 5.841080 4.092888
v 0.206258 5.841079 4.099642
v 0.206258 5.841079 4.092888
v -0.181871 5.841080 4.092888
v -0.181872 5.841080 4.099642
v 0.206258 5.841079 4.099642
v -0.181871 5.841080 7.763791
v 0.206258 5.841079 4.099642
v -0.181872 5.841080 4.099642
v -0.195780 5.841080 4.092888
v -0.181872 5.841080 4.099642
v -0.181871 5.841080 4.092888
v -0.195780 5.841080 4.092888
v -0.195780 5.841080 4.099642
v -0.181872 5.841080 4.099642
v -0.195780 5.841080 7.763791
v -0.181872 5.841080 4.099642
v -0.195780 5.841080 4.099642
v -0.195780 5.841080 7.763791
v -0.181871 5.841080 7.763791
v -0.181872 5.841080 4.099642
v -0.195780 5.841080 7.763791
v -0.181871 5.841080 7.769908
v -0.181871 5.841080 7.763791
v -0.195780 5.841080 7.763791
v -0.195780 5.841080 7.769908
v -0.181871 5.841080 7.769908
v 0.225655 5.932055 4.099642
v 0.225655 5.938237 4.092887
v 0.225655 5.932055 4.092886
v 0.225655 5.932055 4.099642
v 0.225655 5.938237 4.099642
v 0.225655 5.938237 4.092887
v 0.225655 5.932055 7.763791
v 0.225655 5.938237 4.099642
v 0.225655 5.932055 4.099642
v 0.225655 6.546404 4.092887
v 0.225655 5.938237 4.092887
v 0.225655 5.938237 4.099642
v 0.225655 5.932055 7.763791
v 0.225655 5.938237 7.763791
v 0.225655 5.938237 4.099642
v 0.225655 5.932055 7.769907
v 0.225655 5.938237 7.763791
v 0.225655 5.932055 7.763791
v 0.225655 5.932055 7.769907
v 0.225655 5.938237 7.769908
v 0.225655 5.938237 7.763791
v 0.225655 6.546404 7.769908
v 0.225655 5.938237 7.763791
v 0.225655 5.938237 7.769908
v 0.225655 6.546404 7.769908
v 0.225656 6.546404 7.763791
v 0.225655 5.938237 7.763791
v 0.225656 6.546404 7.763791
v 0.225655 5.938237 4.099642
v 0.225655 5.938237 7.763791
v 0.225655 6.553060 7.769908
v 0.225656 6.546404 7.763791
v 0.225655 6.546404 7.769908
v 0.225655 6.553060 7.769908
v 0.225656 6.553060 7.763791
v 0.225656 6.546404 7.763791
v 0.225655 6.546404 4.092887
v 0.225655 5.938237 4.099642
v 0.225655 6.546404 4.099641
v 0.225656 6.546404 7.763791
v 0.225655 6.546404 4.099641
v 0.225655 5.938237 4.099642
v 0.225656 6.553060 7.763791
v 0.225655 6.546404 4.099641
v 0.225656 6.546404 7.763791
v 0.225655 6.553060 4.092888
v 0.225655 6.546404 4.092887
v 0.225655 6.546404 4.099641
v 0.225656 6.553060 7.763791
v 0.225655 6.553060 4.099642
v 0.225655 6.546404 4.099641
v 0.225655 6.553060 4.092888
v 0.225655 6.546404 4.099641
v 0.225655 6.553060 4.099642
v -0.195780 5.938237 4.092887
v -0.195780 5.932055 4.099642
v -0.195780 5.932055 4.092886
v -0.195780 5.938237 4.092887
v -0.195780 5.938237 4.099642
v -0.195780 5.932055 4.099642
v -0.195779 6.546404 4.092889
v -0.195780 5.938237 4.099642
v -0.195780 5.938237 4.092887
v -0.195780 5.938237 7.763791
v -0.195780 5.932055 4.099642
v -0.195780 5.938237 4.099642
v -0.195780 5.938237 7.763791
v -0.195780 5.932055 7.763791
v -0.195780 5.932055 4.099642
v -0.195780 5.932055 7.769907
v -0.195780 5.932055 7.763791
v -0.195780 5.938237 7.763791
v -0.195780 5.932055 7.769907
v -0.195780 5.938237 7.763791
v -0.195780 5.938237 7.769908
v -0.195780 5.938237 7.769908
v -0.195780 5.938237 7.763791
v -0.195779 6.546404 7.763792
v -0.195779 6.546404 7.763792
v -0.195780 5.938237 7.763791
v -0.195780 5.938237 4.099642
v -0.195780 5.938237 7.769908
v -0.195779 6.546404 7.763792
v -0.195780 6.546404 7.769909
v -0.195780 6.553060 7.769909
v -0.195780 6.546404 7.769909
v -0.195779 6.546404 7.763792
v -0.195780 6.553060 7.769909
v -0.195779 6.546404 7.763792
v -0.195779 6.553060 7.763792
v -0.195779 6.546404 4.092889
v -0.195780 6.546404 4.099643
v -0.195780 5.938237 4.099642
v -0.195779 6.546404 7.763792
v -0.195780 5.938237 4.099642
v -0.195780 6.546404 4.099643
v -0.195779 6.553060 7.763792
v -0.195779 6.546404 7.763792
v -0.195780 6.546404 4.099643
v -0.195779 6.553060 4.092889
v -0.195780 6.546404 4.099643
v -0.195779 6.546404 4.092889
v -0.195779 6.553060 7.763792
v -0.195780 6.546404 4.099643
v -0.195780 6.553060 4.099643
v -0.195779 6.553060 4.092889
v -0.195780 6.553060 4.099643
v -0.195780 6.546404 4.099643
v 0.225655 5.938237 4.092887
v 0.206258 5.932055 4.092886
v 0.225655 5.932055 4.092886
v 0.225655 5.938237 4.092887
v 0.206258 5.938237 4.092887
v 0.206258 5.932055 4.092886
v 0.225655 6.546404 4.092887
v 0.206258 5.938237 4.092887
v 0.225655 5.938237 4.092887
v -0.181871 5.932055 4.092886
v 0.206258 5.932055 4.092886
v 0.206258 5.938237 4.092887
v 0.225655 6.546404 4.092887
v 0.206258 6.546404 4.092887
v 0.206258 5.938237 4.092887
v 0.225655 6.553060 4.092888
v 0.206258 6.546404 4.092887
v 0.225655 6.546404 4.092887
v 0.225655 6.553060 4.092888
v 0.206258 6.553060 4.092888
v 0.206258 6.546404 4.092887
v -0.181871 6.553060 4.092889
v 0.206258 6.546404 4.092887
v 0.206258 6.553060 4.092888
v -0.181871 5.932055 4.092886
v 0.206258 5.938237 4.092887
v -0.181871 5.938237 4.092887
v -0.181871 5.938237 4.092887
v 0.206258 5.938237 4.092887
v 0.206258 6.546404 4.092887
v -0.195780 5.932055 4.092886
v -0.181871 5.932055 4.092886
v -0.181871 5.938237 4.092887
v -0.195780 5.932055 4.092886
v -0.181871 5.938237 4.092887
v -0.195780 5.938237 4.092887
v -0.181871 6.553060 4.092889
v -0.181871 6.546404 4.092889
v 0.206258 6.546404 4.092887
v -0.181871 5.938237 4.092887
v 0.206258 6.546404 4.092887
v -0.181871 6.546404 4.092889
v -0.195780 5.938237 4.092887
v -0.181871 5.938237 4.092887
v -0.181871 6.546404 4.092889
v -0.195779 6.553060 4.092889
v -0.181871 6.546404 4.092889
v -0.181871 6.553060 4.092889
v -0.195780 5.938237 4.092887
v -0.181871 6.546404 4.092889
v -0.195779 6.546404 4.092889
v -0.195779 6.553060 4.092889
v -0.195779 6.546404 4.092889
v -0.181871 6.546404 4.092889
v 0.225655 6.553060 4.099642
v 0.206258 6.553060 4.092888
v 0.225655 6.553060 4.092888
v 0.225655 6.553060 4.099642
v 0.206258 6.553060 4.099642
v 0.206258 6.553060 4.092888
v 0.225656 6.553060 7.763791
v 0.206258 6.553060 4.099642
v 0.225655 6.553060 4.099642
v -0.181871 6.553060 4.092889
v 0.206258 6.553060 4.092888
v 0.206258 6.553060 4.099642
v 0.225656 6.553060 7.763791
v 0.206259 6.553060 7.763791
v 0.206258 6.553060 4.099642
v 0.225655 6.553060 7.769908
v 0.206259 6.553060 7.763791
v 0.225656 6.553060 7.763791
v 0.225655 6.553060 7.769908
v 0.206259 6.553060 7.769908
v 0.206259 6.553060 7.763791
v -0.181871 6.553060 7.769909
v 0.206259 6.553060 7.763791
v 0.206259 6.553060 7.769908
v -0.181871 6.553060 7.769909
v -0.181871 6.553060 7.763792
v 0.206259 6.553060 7.763791
v -0.181871 6.553060 7.763792
v 0.206258 6.553060 4.099642
v 0.206259 6.553060 7.763791
v -0.195780 6.553060 7.769909
v -0.181871 6.553060 7.763792
v -0.181871 6.553060 7.769909
v -0.195780 6.553060 7.769909
v -0.195779 6.553060 7.763792
v -0.181871 6.553060 7.763792
v -0.181871 6.553060 4.092889
v 0.206258 6.553060 4.099642
v -0.181871 6.553060 4.099643
v -0.181871 6.553060 7.763792
v -0.181871 6.553060 4.099643
v 0.206258 6.553060 4.099642
v -0.195779 6.553060 7.763792
v -0.181871 6.553060 4.099643
v -0.181871 6.553060 7.763792
v -0.195779 6.553060 4.092889
v -0.181871 6.553060 4.092889
v -0.181871 6.553060 4.099643
v -0.195779 6.553060 7.763792
v -0.195780 6.553060 4.099643
v -0.181871 6.553060 4.099643
v -0.195779 6.553060 4.092889
v -0.181871 6.553060 4.099643
v -0.195780 6.553060 4.099643
v 0.225655 6.546404 7.769908
v 0.206259 6.553060 7.769908
v 0.225655 6.553060 7.769908
v 0.225655 6.546404 7.769908
v 0.206259 6.546404 7.769908
v 0.206259 6.553060 7.769908
v 0.225655 5.938237 7.769908
v 0.206259 6.546404 7.769908
v 0.225655 6.546404 7.769908
v -0.181871 6.553060 7.769909
v 0.206259 6.553060 7.769908
v 0.206259 6.546404 7.769908
v 0.225655 5.938237 7.769908
v 0.206258 5.938237 7.769908
v 0.206259 6.546404 7.769908
v 0.225655 5.932055 7.769907
v 0.206258 5.938237 7.769908
v 0.225655 5.938237 7.769908
v 0.225655 5.932055 7.769907
v 0.206258 5.932055 7.769907
v 0.206258 5.938237 7.769908
v -0.181871 5.932055 7.769907
v 0.206258 5.938237 7.769908
v 0.206258 5.932055 7.769907
v -0.181871 6.553060 7.769909
v 0.206259 6.546404 7.769908
v -0.181871 6.546404 7.769909
v -0.181871 6.546404 7.769909
v 0.206259 6.546404 7.769908
v 0.206258 5.938237 7.769908
v -0.195780 6.553060 7.769909
v -0.181871 6.553060 7.769909
v -0.181871 6.546404 7.769909
v -0.195780 6.553060 7.769909
v -0.181871 6.546404 7.769909
v -0.195780 6.546404 7.769909
v -0.181871 5.932055 7.769907
v -0.181871 5.938237 7.769908
v 0.206258 5.938237 7.769908
v -0.181871 6.546404 7.769909
v 0.206258 5.938237 7.769908
v -0.181871 5.938237 7.769908
v -0.195780 6.546404 7.769909
v -0.181871 6.546404 7.769909
v -0.181871 5.938237 7.769908
v -0.195780 5.932055 7.769907
v -0.181871 5.938237 7.769908
v -0.181871 5.932055 7.769907
v -0.195780 6.546404 7.769909
v -0.181871 5.938237 7.769908
v -0.195780 5.938237 7.769908
v -0.195780 5.932055 7.769907
v -0.195780 5.938237 7.769908
v -0.181871 5.938237 7.769908
v 0.225655 5.932055 7.763791
v 0.206258 5.932055 7.769907
v 0.225655 5.932055 7.769907
v 0.225655 5.932055 7.763791
v 0.206259 5.932055 7.763791
v 0.206258 5.932055 7.769907
v 0.225655 5.932055 4.099642
v 0.206259 5.932055 7.763791
v 0.225655 5.932055 7.763791
v -0.181871 5.932055 7.763791
v 0.206258 5.932055 7.769907
v 0.206259 5.932055 7.763791
v -0.181871 5.932055 7.763791
v -0.181871 5.932055 7.769907
v 0.206258 5.932055 7.769907
v 0.225655 5.932055 4.099642
v 0.206258 5.932055 4.099642
v 0.206259 5.932055 7.763791
v -0.181871 5.932055 7.763791
v 0.206259 5.932055 7.763791
v 0.206258 5.932055 4.099642
v 0.225655 5.932055 4.092886
v 0.206258 5.932055 4.099642
v 0.225655 5.932055 4.099642
v 0.225655 5.932055 4.092886
v 0.206258 5.932055 4.092886
v 0.206258 5.932055 4.099642
v -0.181871 5.932055 4.092886
v 0.206258 5.932055 4.099642
v 0.206258 5.932055 4.092886
v -0.181871 5.932055 4.092886
v -0.181871 5.932055 4.099642
v 0.206258 5.932055 4.099642
v -0.181871 5.932055 7.763791
v 0.206258 5.932055 4.099642
v -0.181871 5.932055 4.099642
v -0.195780 5.932055 4.092886
v -0.181871 5.932055 4.099642
v -0.181871 5.932055 4.092886
v -0.195780 5.932055 4.092886
v -0.195780 5.932055 4.099642
v -0.181871 5.932055 4.099642
v -0.195780 5.932055 7.763791
v -0.181871 5.932055 4.099642
v -0.195780 5.932055 4.099642
v -0.195780 5.932055 7.763791
v -0.181871 5.932055 7.763791
v -0.181871 5.932055 4.099642
v -0.195780 5.932055 7.763791
v -0.181871 5.932055 7.769907
v -0.181871 5.932055 7.763791
v -0.195780 5.932055 7.763791
v -0.195780 5.932055 7.769907
v -0.181871 5.932055 7.769907
v -7.984367 -0.823226 4.149577
v -7.989745 -0.823226 4.142823
v -7.984367 -0.823226 4.142823
v -7.984367 -0.823226 4.149577
v -7.989745 -0.823226 4.149577
v -7.989745 -0.823226 4.142823
v -7.984368 -0.823226 7.796810
v -7.989745 -0.823226 4.149577
v -7.984367 -0.823226 4.149577
v -8.059262 -0.823227 4.142823
v -7.989745 -0.823226 4.142823
v -7.989745 -0.823226 4.149577
v -7.984368 -0.823226 7.796810
v -7.989745 -0.823226 7.796810
v -7.989745 -0.823226 4.149577
v -7.984368 -0.823226 7.802927
v -7.989745 -0.823226 7.796810
v -7.984368 -0.823226 7.796810
v -7.984368 -0.823226 7.802927
v -7.989745 -0.823226 7.802927
v -7.989745 -0.823226 7.796810
v -8.059263 -0.823226 7.802927
v -7.989745 -0.823226 7.796810
v -7.989745 -0.823226 7.802927
v -8.059263 -0.823226 7.802927
v -8.059263 -0.823226 7.796810
v -7.989745 -0.823226 7.796810
v -8.059263 -0.823226 7.796810
v -7.989745 -0.823226 4.149577
v -7.989745 -0.823226 7.796810
v -8.064749 -0.823226 7.802927
v -8.059263 -0.823226 7.796810
v -8.059263 -0.823226 7.802927
v -8.064749 -0.823226 7.802927
v -8.064749 -0.823226 7.796810
v -8.059263 -0.823226 7.796810
v -8.059262 -0.823227 4.142823
v -7.989745 -0.823226 4.149577
v -8.059262 -0.823226 4.149577
v -8.059263 -0.823226 7.796810
v -8.059262 -0.823226 4.149577
v -7.989745 -0.823226 4.149577
v -8.064749 -0.823226 7.796810
v -8.059262 -0.823226 4.149577
v -8.059263 -0.823226 7.796810
v -8.064748 -0.823227 4.142823
v -8.059262 -0.823227 4.142823
v -8.059262 -0.823226 4.149577
v -8.064749 -0.823226 7.796810
v -8.064748 -0.823226 4.149577
v -8.059262 -0.823226 4.149577
v -8.064748 -0.823227 4.142823
v -8.059262 -0.823226 4.149577
v -8.064748 -0.823226 4.149577
v -7.989745 -0.995324 4.142823
v -7.984367 -0.995324 4.149577
v -7.984367 -0.995324 4.142823
v -7.989745 -0.995324 4.142823
v -7.989745 -0.995324 4.149578
v -7.984367 -0.995324 4.149577
v -8.059262 -0.995324 4.142823
v -7.989745 -0.995324 4.149578
v -7.989745 -0.995324 4.142823
v -7.989745 -0.995323 7.796810
v -7.984367 -0.995324 4.149577
v -7.989745 -0.995324 4.149578
v -7.989745 -0.995323 7.796810
v -7.984368 -0.995323 7.796810
v -7.984367 -0.995324 4.149577
v -7.984368 -0.995323 7.802927
v -7.984368 -0.995323 7.796810
v -7.989745 -0.995323 7.796810
v -7.984368 -0.995323 7.802927
v -7.989745 -0.995323 7.796810
v -7.989745 -0.995323 7.802927
v -7.989745 -0.995323 7.802927
v -7.989745 -0.995323 7.796810
v -8.059263 -0.995323 7.796811
v -8.059263 -0.995323 7.796811
v -7.989745 -0.995323 7.796810
v -7.989745 -0.995324 4.149578
v -7.989745 -0.995323 7.802927
v -8.059263 -0.995323 7.796811
v -8.059263 -0.995323 7.802927
v -8.064748 -0.995323 7.802927
v -8.059263 -0.995323 7.802927
v -8.059263 -0.995323 7.796811
v -8.064748 -0.995323 7.802927
v -8.059263 -0.995323 7.796811
v -8.064748 -0.995323 7.796810
v -8.059262 -0.995324 4.142823
v -8.059262 -0.995324 4.149578
v -7.989745 -0.995324 4.149578
v -8.059263 -0.995323 7.796811
v -7.989745 -0.995324 4.149578
v -8.059262 -0.995324 4.149578
v -8.064748 -0.995323 7.796810
v -8.059263 -0.995323 7.796811
v -8.059262 -0.995324 4.149578
v -8.064748 -0.995324 4.142823
v -8.059262 -0.995324 4.149578
v -8.059262 -0.995324 4.142823
v -8.064748 -0.995323 7.796810
v -8.059262 -0.995324 4.149578
v -8.064748 -0.995324 4.149578
v -8.064748 -0.995324 4.142823
v -8.064748 -0.995324 4.149578
v -8.059262 -0.995324 4.149578
v -7.989745 -0.823226 4.142823
v -7.984367 -0.831881 4.142823
v -7.984367 -0.823226 4.142823
v -7.989745 -0.823226 4.142823
v -7.989745 -0.831881 4.142823
v -7.984367 -0.831881 4.142823
v -8.059262 -0.823227 4.142823
v -7.989745 -0.831881 4.142823
v -7.989745 -0.823226 4.142823
v -7.984367 -0.986857 4.142823
v -7.984367 -0.831881 4.142823
v -7.989745 -0.831881 4.142823
v -8.059262 -0.823227 4.142823
v -8.059262 -0.831881 4.142823
v -7.989745 -0.831881 4.142823
v -8.064748 -0.823227 4.142823
v -8.059262 -0.831881 4.142823
v -8.059262 -0.823227 4.142823
v -8.064748 -0.823227 4.142823
v -8.064748 -0.831881 4.142823
v -8.059262 -0.831881 4.142823
v -8.064748 -0.986857 4.142823
v -8.059262 -0.831881 4.142823
v -8.064748 -0.831881 4.142823
v -7.984367 -0.986857 4.142823
v -7.989745 -0.831881 4.142823
v -7.989745 -0.986857 4.142823
v -7.989745 -0.986857 4.142823
v -7.989745 -0.831881 4.142823
v -8.059262 -0.831881 4.142823
v -7.984367 -0.995324 4.142823
v -7.984367 -0.986857 4.142823
v -7.989745 -0.986857 4.142823
v -7.984367 -0.995324 4.142823
v -7.989745 -0.986857 4.142823
v -7.989745 -0.995324 4.142823
v -8.064748 -0.986857 4.142823
v -8.059262 -0.986857 4.142823
v -8.059262 -0.831881 4.142823
v -7.989745 -0.986857 4.142823
v -8.059262 -0.831881 4.142823
v -8.059262 -0.986857 4.142823
v -7.989745 -0.995324 4.142823
v -7.989745 -0.986857 4.142823
v -8.059262 -0.986857 4.142823
v -8.064748 -0.995324 4.142823
v -8.059262 -0.986857 4.142823
v -8.064748 -0.986857 4.142823
v -7.989745 -0.995324 4.142823
v -8.059262 -0.986857 4.142823
v -8.059262 -0.995324 4.142823
v -8.064748 -0.995324 4.142823
v -8.059262 -0.995324 4.142823
v -8.059262 -0.986857 4.142823
v -8.064748 -0.823226 4.149577
v -8.064748 -0.831881 4.142823
v -8.064748 -0.823227 4.142823
v -8.064748 -0.823226 4.149577
v -8.064748 -0.831881 4.149577
v -8.064748 -0.831881 4.142823
v -8.064749 -0.823226 7.796810
v -8.064748 -0.831881 4.149577
v -8.064748 -0.823226 4.149577
v -8.064748 -0.986857 4.142823
v -8.064748 -0.831881 4.142823
v -8.064748 -0.831881 4.149577
v -8.064749 -0.823226 7.796810
v -8.064748 -0.831881 7.796811
v -8.064748 -0.831881 4.149577
v -8.064749 -0.823226 7.802927
v -8.064748 -0.831881 7.796811
v -8.064749 -0.823226 7.796810
v -8.064749 -0.823226 7.802927
v -8.064748 -0.831881 7.802928
v -8.064748 -0.831881 7.796811
v -8.064748 -0.986857 7.802927
v -8.064748 -0.831881 7.796811
v -8.064748 -0.831881 7.802928
v -8.064748 -0.986857 7.802927
v -8.064748 -0.986856 7.796810
v -8.064748 -0.831881 7.796811
v -8.064748 -0.986856 7.796810
v -8.064748 -0.831881 4.149577
v -8.064748 -0.831881 7.796811
v -8.064748 -0.995323 7.802927
v -8.064748 -0.986856 7.796810
v -8.064748 -0.986857 7.802927
v -8.064748 -0.995323 7.802927
v -8.064748 -0.995323 7.796810
v -8.064748 -0.986856 7.796810
v -8.064748 -0.986857 4.142823
v -8.064748 -0.831881 4.149577
v -8.064748 -0.986857 4.149578
v -8.064748 -0.986856 7.796810
v -8.064748 -0.986857 4.149578
v -8.064748 -0.831881 4.149577
v -8.064748 -0.995323 7.796810
v -8.064748 -0.986857 4.149578
v -8.064748 -0.986856 7.796810
v -8.064748 -0.995324 4.142823
v -8.064748 -0.986857 4.142823
v -8.064748 -0.986857 4.149578
v -8.064748 -0.995323 7.796810
v -8.064748 -0.995324 4.149578
v -8.064748 -0.986857 4.149578
v -8.064748 -0.995324 4.142823
v -8.064748 -0.986857 4.149578
v -8.064748 -0.995324 4.149578
v -8.059263 -0.823226 7.802927
v -8.064748 -0.831881 7.802928
v -8.064749 -0.823226 7.802927
v -8.059263 -0.823226 7.802927
v -8.059263 -0.831881 7.802928
v -8.064748 -0.831881 7.802928
v -7.989745 -0.823226 7.802927
v -8.059263 -0.831881 7.802928
v -8.059263 -0.823226 7.802927
v -8.064748 -0.986857 7.802927
v -8.064748 -0.831881 7.802928
v -8.059263 -0.831881 7.802928
v -7.989745 -0.823226 7.802927
v -7.989745 -0.831881 7.802928
v -8.059263 -0.831881 7.802928
v -7.984368 -0.823226 7.802927
v -7.989745 -0.831881 7.802928
v -7.989745 -0.823226 7.802927
v -7.984368 -0.823226 7.802927
v -7.984368 -0.831881 7.802928
v -7.989745 -0.831881 7.802928
v -7.984368 -0.986857 7.802927
v -7.989745 -0.831881 7.802928
v -7.984368 -0.831881 7.802928
v -8.064748 -0.986857 7.802927
v -8.059263 -0.831881 7.802928
v -8.059263 -0.986857 7.802928
v -8.059263 -0.986857 7.802928
v -8.059263 -0.831881 7.802928
v -7.989745 -0.831881 7.802928
v -8.064748 -0.995323 7.802927
v -8.064748 -0.986857 7.802927
v -8.059263 -0.986857 7.802928
v -8.064748 -0.995323 7.802927
v -8.059263 -0.986857 7.802928
v -8.059263 -0.995323 7.802927
v -7.984368 -0.986857 7.802927
v -7.989745 -0.986857 7.802927
v -7.989745 -0.831881 7.802928
v -8.059263 -0.986857 7.802928
v -7.989745 -0.831881 7.802928
v -7.989745 -0.986857 7.802927
v -8.059263 -0.995323 7.802927
v -8.059263 -0.986857 7.802928
v -7.989745 -0.986857 7.802927
v -7.984368 -0.995323 7.802927
v -7.989745 -0.986857 7.802927
v -7.984368 -0.986857 7.802927
v -8.059263 -0.995323 7.802927
v -7.989745 -0.986857 7.802927
v -7.989745 -0.995323 7.802927
v -7.984368 -0.995323 7.802927
v -7.989745 -0.995323 7.802927
v -7.989745 -0.986857 7.802927
v -7.984368 -0.823226 7.796810
v -7.984368 -0.831881 7.802928
v -7.984368 -0.823226 7.802927
v -7.984368 -0.823226 7.796810
v -7.984368 -0.831881 7.796811
v -7.984368 -0.831881 7.802928
v -7.984367 -0.823226 4.149577
v -7.984368 -0.831881 7.796811
v -7.984368 -0.823226 7.796810
v -7.984368 -0.986856 7.796810
v -7.984368 -0.831881 7.802928
v -7.984368 -0.831881 7.796811
v -7.984368 -0.986856 7.796810
v -7.984368 -0.986857 7.802927
v -7.984368 -0.831881 7.802928
v -7.984367 -0.823226 4.149577
v -7.984367 -0.831881 4.149577
v -7.984368 -0.831881 7.796811
v -7.984368 -0.986856 7.796810
v -7.984368 -0.831881 7.796811
v -7.984367 -0.831881 4.149577
v -7.984367 -0.823226 4.142823
v -7.984367 -0.831881 4.149577
v -7.984367 -0.823226 4.149577
v -7.984367 -0.823226 4.142823
v -7.984367 -0.831881 4.142823
v -7.984367 -0.831881 4.149577
v -7.984367 -0.986857 4.142823
v -7.984367 -0.831881 4.149577
v -7.984367 -0.831881 4.142823
v -7.984367 -0.986857 4.142823
v -7.984367 -0.986857 4.149577
v -7.984367 -0.831881 4.149577
v -7.984368 -0.986856 7.796810
v -7.984367 -0.831881 4.149577
v -7.984367 -0.986857 4.149577
v -7.984367 -0.995324 4.142823
v -7.984367 -0.986857 4.149577
v -7.984367 -0.986857 4.142823
v -7.984367 -0.995324 4.142823
v -7.984367 -0.995324 4.149577
v -7.984367 -0.986857 4.149577
v -7.984368 -0.995323 7.796810
v -7.984367 -0.986857 4.149577
v -7.984367 -0.995324 4.149577
v -7.984368 -0.995323 7.796810
v -7.984368 -0.986856 7.796810
v -7.984367 -0.986857 4.149577
v -7.984368 -0.995323 7.796810
v -7.984368 -0.986857 7.802927
v -7.984368 -0.986856 7.796810
v -7.984368 -0.995323 7.796810
v -7.984368 -0.995323 7.802927
v -7.984368 -0.986857 7.802927
v -8.075342 -0.823226 4.149577
v -8.081524 -0.823227 4.142823
v -8.075342 -0.823227 4.142823
v -8.075342 -0.823226 4.149577
v -8.081524 -0.823226 4.149577
v -8.081524 -0.823227 4.142823
v -8.075342 -0.823226 7.796810
v -8.081524 -0.823226 4.149577
v -8.075342 -0.823226 4.149577
v -8.371449 -0.823226 4.142824
v -8.081524 -0.823227 4.142823
v -8.081524 -0.823226 4.149577
v -8.075342 -0.823226 7.796810
v -8.081525 -0.823226 7.796810
v -8.081524 -0.823226 4.149577
v -8.075342 -0.823226 7.802927
v -8.081525 -0.823226 7.796810
v -8.075342 -0.823226 7.796810
v -8.075342 -0.823226 7.802927
v -8.081525 -0.823226 7.802927
v -8.081525 -0.823226 7.796810
v -8.371449 -0.823226 7.802927
v -8.081525 -0.823226 7.796810
v -8.081525 -0.823226 7.802927
v -8.371449 -0.823226 7.802927
v -8.371449 -0.823226 7.796811
v -8.081525 -0.823226 7.796810
v -8.371449 -0.823226 7.796811
v -8.081524 -0.823226 4.149577
v -8.081525 -0.823226 7.796810
v -8.378105 -0.823226 7.802927
v -8.371449 -0.823226 7.796811
v -8.371449 -0.823226 7.802927
v -8.378105 -0.823226 7.802927
v -8.378105 -0.823226 7.796811
v -8.371449 -0.823226 7.796811
v -8.371449 -0.823226 4.142824
v -8.081524 -0.823226 4.149577
v -8.371449 -0.823226 4.149578
v -8.371449 -0.823226 7.796811
v -8.371449 -0.823226 4.149578
v -8.081524 -0.823226 4.149577
v -8.378105 -0.823226 7.796811
v -8.371449 -0.823226 4.149578
v -8.371449 -0.823226 7.796811
v -8.378105 -0.823226 4.142824
v -8.371449 -0.823226 4.142824
v -8.371449 -0.823226 4.149578
v -8.378105 -0.823226 7.796811
v -8.378105 -0.823226 4.149578
v -8.371449 -0.823226 4.149578
v -8.378105 -0.823226 4.142824
v -8.371449 -0.823226 4.149578
v -8.378105 -0.823226 4.149578
v -8.081525 -0.995323 4.142823
v -8.075342 -0.995324 4.149577
v -8.075342 -0.995324 4.142823
v -8.081525 -0.995323 4.142823
v -8.081525 -0.995323 4.149578
v -8.075342 -0.995324 4.149577
v -8.371449 -0.995323 4.142825
v -8.081525 -0.995323 4.149578
v -8.081525 -0.995323 4.142823
v -8.081525 -0.995323 7.796810
v -8.075342 -0.995324 4.149577
v -8.081525 -0.995323 4.149578
v -8.081525 -0.995323 7.796810
v -8.075342 -0.995323 7.796810
v -8.075342 -0.995324 4.149577
v -8.075342 -0.995323 7.802927
v -8.075342 -0.995323 7.796810
v -8.081525 -0.995323 7.796810
v -8.075342 -0.995323 7.802927
v -8.081525 -0.995323 7.796810
v -8.081525 -0.995323 7.802927
v -8.081525 -0.995323 7.802927
v -8.081525 -0.995323 7.796810
v -8.371449 -0.995323 7.796812
v -8.371449 -0.995323 7.796812
v -8.081525 -0.995323 7.796810
v -8.081525 -0.995323 4.149578
v -8.081525 -0.995323 7.802927
v -8.371449 -0.995323 7.796812
v -8.371449 -0.995323 7.802928
v -8.378105 -0.995323 7.802928
v -8.371449 -0.995323 7.802928
v -8.371449 -0.995323 7.796812
v -8.378105 -0.995323 7.802928
v -8.371449 -0.995323 7.796812
v -8.378105 -0.995323 7.796812
v -8.371449 -0.995323 4.142825
v -8.371449 -0.995323 4.149579
v -8.081525 -0.995323 4.149578
v -8.371449 -0.995323 7.796812
v -8.081525 -0.995323 4.149578
v -8.371449 -0.995323 4.149579
v -8.378105 -0.995323 7.796812
v -8.371449 -0.995323 7.796812
v -8.371449 -0.995323 4.149579
v -8.378104 -0.995323 4.142824
v -8.371449 -0.995323 4.149579
v -8.371449 -0.995323 4.142825
v -8.378105 -0.995323 7.796812
v -8.371449 -0.995323 4.149579
v -8.378104 -0.995323 4.149579
v -8.378104 -0.995323 4.142824
v -8.378104 -0.995323 4.149579
v -8.371449 -0.995323 4.149579
v -8.081524 -0.823227 4.142823
v -8.075342 -0.842622 4.142823
v -8.075342 -0.823227 4.142823
v -8.081524 -0.823227 4.142823
v -8.081524 -0.842622 4.142823
v -8.075342 -0.842622 4.142823
v -8.371449 -0.823226 4.142824
v -8.081524 -0.842622 4.142823
v -8.081524 -0.823227 4.142823
v -8.075342 -0.981415 4.142823
v -8.075342 -0.842622 4.142823
v -8.081524 -0.842622 4.142823
v -8.371449 -0.823226 4.142824
v -8.371449 -0.842622 4.142823
v -8.081524 -0.842622 4.142823
v -8.378105 -0.823226 4.142824
v -8.371449 -0.842622 4.142823
v -8.371449 -0.823226 4.142824
v -8.378105 -0.823226 4.142824
v -8.378105 -0.842622 4.142823
v -8.371449 -0.842622 4.142823
v -8.378104 -0.981415 4.142824
v -8.371449 -0.842622 4.142823
v -8.378105 -0.842622 4.142823
v -8.075342 -0.981415 4.142823
v -8.081524 -0.842622 4.142823
v -8.081525 -0.981415 4.142823
v -8.081525 -0.981415 4.142823
v -8.081524 -0.842622 4.142823
v -8.371449 -0.842622 4.142823
v -8.075342 -0.995324 4.142823
v -8.075342 -0.981415 4.142823
v -8.081525 -0.981415 4.142823
v -8.075342 -0.995324 4.142823
v -8.081525 -0.981415 4.142823
v -8.081525 -0.995323 4.142823
v -8.378104 -0.981415 4.142824
v -8.371449 -0.981415 4.142825
v -8.371449 -0.842622 4.142823
v -8.081525 -0.981415 4.142823
v -8.371449 -0.842622 4.142823
v -8.371449 -0.981415 4.142825
v -8.081525 -0.995323 4.142823
v -8.081525 -0.981415 4.142823
v -8.371449 -0.981415 4.142825
v -8.378104 -0.995323 4.142824
v -8.371449 -0.981415 4.142825
v -8.378104 -0.981415 4.142824
v -8.081525 -0.995323 4.142823
v -8.371449 -0.981415 4.142825
v -8.371449 -0.995323 4.142825
v -8.378104 -0.995323 4.142824
v -8.371449 -0.995323 4.142825
v -8.371449 -0.981415 4.142825
v -8.378105 -0.823226 4.149578
v -8.378105 -0.842622 4.142823
v -8.378105 -0.823226 4.142824
v -8.378105 -0.823226 4.149578
v -8.378105 -0.842623 4.149579
v -8.378105 -0.842622 4.142823
v -8.378105 -0.823226 7.796811
v -8.378105 -0.842623 4.149579
v -8.378105 -0.823226 4.149578
v -8.378104 -0.981415 4.142824
v -8.378105 -0.842622 4.142823
v -8.378105 -0.842623 4.149579
v -8.378105 -0.823226 7.796811
v -8.378105 -0.842623 7.796811
v -8.378105 -0.842623 4.149579
v -8.378105 -0.823226 7.802927
v -8.378105 -0.842623 7.796811
v -8.378105 -0.823226 7.796811
v -8.378105 -0.823226 7.802927
v -8.378105 -0.842623 7.802927
v -8.378105 -0.842623 7.796811
v -8.378105 -0.981415 7.802927
v -8.378105 -0.842623 7.796811
v -8.378105 -0.842623 7.802927
v -8.378105 -0.981415 7.802927
v -8.378105 -0.981414 7.796811
v -8.378105 -0.842623 7.796811
v -8.378105 -0.981414 7.796811
v -8.378105 -0.842623 4.149579
v -8.378105 -0.842623 7.796811
v -8.378105 -0.995323 7.802928
v -8.378105 -0.981414 7.796811
v -8.378105 -0.981415 7.802927
v -8.378105 -0.995323 7.802928
v -8.378105 -0.995323 7.796812
v -8.378105 -0.981414 7.796811
v -8.378104 -0.981415 4.142824
v -8.378105 -0.842623 4.149579
v -8.378104 -0.981415 4.149579
v -8.378105 -0.981414 7.796811
v -8.378104 -0.981415 4.149579
v -8.378105 -0.842623 4.149579
v -8.378105 -0.995323 7.796812
v -8.378104 -0.981415 4.149579
v -8.378105 -0.981414 7.796811
v -8.378104 -0.995323 4.142824
v -8.378104 -0.981415 4.142824
v -8.378104 -0.981415 4.149579
v -8.378105 -0.995323 7.796812
v -8.378104 -0.995323 4.149579
v -8.378104 -0.981415 4.149579
v -8.378104 -0.995323 4.142824
v -8.378104 -0.981415 4.149579
v -8.378104 -0.995323 4.149579
v -8.371449 -0.823226 7.802927
v -8.378105 -0.842623 7.802927
v -8.378105 -0.823226 7.802927
v -8.371449 -0.823226 7.802927
v -8.371449 -0.842623 7.802927
v -8.378105 -0.842623 7.802927
v -8.081525 -0.823226 7.802927
v -8.371449 -0.842623 7.802927
v -8.371449 -0.823226 7.802927
v -8.378105 -0.981415 7.802927
v -8.378105 -0.842623 7.802927
v -8.371449 -0.842623 7.802927
v -8.081525 -0.823226 7.802927
v -8.081525 -0.842623 7.802927
v -8.371449 -0.842623 7.802927
v -8.075342 -0.823226 7.802927
v -8.081525 -0.842623 7.802927
v -8.081525 -0.823226 7.802927
v -8.075342 -0.823226 7.802927
v -8.075342 -0.842623 7.802927
v -8.081525 -0.842623 7.802927
v -8.075342 -0.981415 7.802927
v -8.081525 -0.842623 7.802927
v -8.075342 -0.842623 7.802927
v -8.378105 -0.981415 7.802927
v -8.371449 -0.842623 7.802927
v -8.371449 -0.981415 7.802928
v -8.371449 -0.981415 7.802928
v -8.371449 -0.842623 7.802927
v -8.081525 -0.842623 7.802927
v -8.378105 -0.995323 7.802928
v -8.378105 -0.981415 7.802927
v -8.371449 -0.981415 7.802928
v -8.378105 -0.995323 7.802928
v -8.371449 -0.981415 7.802928
v -8.371449 -0.995323 7.802928
v -8.075342 -0.981415 7.802927
v -8.081525 -0.981415 7.802927
v -8.081525 -0.842623 7.802927
v -8.371449 -0.981415 7.802928
v -8.081525 -0.842623 7.802927
v -8.081525 -0.981415 7.802927
v -8.371449 -0.995323 7.802928
v -8.371449 -0.981415 7.802928
v -8.081525 -0.981415 7.802927
v -8.075342 -0.995323 7.802927
v -8.081525 -0.981415 7.802927
v -8.075342 -0.981415 7.802927
v -8.371449 -0.995323 7.802928
v -8.081525 -0.981415 7.802927
v -8.081525 -0.995323 7.802927
v -8.075342 -0.995323 7.802927
v -8.081525 -0.995323 7.802927
v -8.081525 -0.981415 7.802927
v -8.075342 -0.823226 7.796810
v -8.075342 -0.842623 7.802927
v -8.075342 -0.823226 7.802927
v -8.075342 -0.823226 7.796810
v -8.075342 -0.842623 7.796810
v -8.075342 -0.842623 7.802927
v -8.075342 -0.823226 4.149577
v -8.075342 -0.842623 7.796810
v -8.075342 -0.823226 7.796810
v -8.075342 -0.981414 7.796810
v -8.075342 -0.842623 7.802927
v -8.075342 -0.842623 7.796810
v -8.075342 -0.981414 7.796810
v -8.075342 -0.981415 7.802927
v -8.075342 -0.842623 7.802927
v -8.075342 -0.823226 4.149577
v -8.075342 -0.842623 4.149578
v -8.075342 -0.842623 7.796810
v -8.075342 -0.981414 7.796810
v -8.075342 -0.842623 7.796810
v -8.075342 -0.842623 4.149578
v -8.075342 -0.823227 4.142823
v -8.075342 -0.842623 4.149578
v -8.075342 -0.823226 4.149577
v -8.075342 -0.823227 4.142823
v -8.075342 -0.842622 4.142823
v -8.075342 -0.842623 4.149578
v -8.075342 -0.981415 4.142823
v -8.075342 -0.842623 4.149578
v -8.075342 -0.842622 4.142823
v -8.075342 -0.981415 4.142823
v -8.075342 -0.981415 4.149579
v -8.075342 -0.842623 4.149578
v -8.075342 -0.981414 7.796810
v -8.075342 -0.842623 4.149578
v -8.075342 -0.981415 4.149579
v -8.075342 -0.995324 4.142823
v -8.075342 -0.981415 4.149579
v -8.075342 -0.981415 4.142823
v -8.075342 -0.995324 4.142823
v -8.075342 -0.995324 4.149577
v -8.075342 -0.981415 4.149579
v -8.075342 -0.995323 7.796810
v -8.075342 -0.981415 4.149579
v -8.075342 -0.995324 4.149577
v -8.075342 -0.995323 7.796810
v -8.075342 -0.981414 7.796810
v -8.075342 -0.981415 4.149579
v -8.075342 -0.995323 7.796810
v -8.075342 -0.981415 7.802927
v -8.075342 -0.981414 7.796810
v -8.075342 -0.995323 7.796810
v -8.075342 -0.995323 7.802927
v -8.075342 -0.981415 7.802927
v -6.535233 -3.386793 -0.010548
v -6.738811 -3.377756 -0.015324
v -6.738811 -3.399114 -0.015316
v -6.738811 -3.399114 -0.015316
v -6.540000 -3.399114 -0.015316
v -6.535233 -3.386793 -0.010548
v -6.738811 -3.377756 -0.015324
v -6.535233 -3.386793 -0.010548
v -6.540566 -3.378859 2.661449
v -6.738811 -3.377756 -0.015324
v -6.540566 -3.378859 2.661449
v -6.738811 -3.376756 2.870141
v -6.540566 -3.378859 2.661449
v -5.011575 -3.378865 2.656700
v -6.738811 -3.376756 2.870141
v -5.011575 -3.378865 2.656700
v -4.803809 -3.376757 2.870140
v -6.738811 -3.376756 2.870141
v -5.011575 -3.378865 2.656700
v -4.803809 -3.377757 -0.015324
v -4.803809 -3.376757 2.870140
v -5.011575 -3.378865 2.656700
v -5.028931 -3.386835 -0.010529
v -4.803809 -3.377757 -0.015324
v -6.535233 -3.386793 -0.010548
v -5.029990 -3.633678 -0.009380
v -6.534164 -3.633677 -0.009393
v -6.535233 -3.386793 -0.010548
v -5.028931 -3.386835 -0.010529
v -5.029990 -3.633678 -0.009380
v -5.028931 -3.386835 -0.010529
v -5.014944 -3.632758 2.653449
v -5.029990 -3.633678 -0.009380
v -5.028931 -3.386835 -0.010529
v -5.011575 -3.378865 2.656700
v -5.014944 -3.632758 2.653449
v -5.011575 -3.378865 2.656700
v -6.537212 -3.632756 2.658177
v -5.014944 -3.632758 2.653449
v -5.011575 -3.378865 2.656700
v -6.540566 -3.378859 2.661449
v -6.537212 -3.632756 2.658177
v -6.540566 -3.378859 2.661449
v -6.534164 -3.633677 -0.009393
v -6.537212 -3.632756 2.658177
v -6.540566 -3.378859 2.661449
v -6.535233 -3.386793 -0.010548
v -6.534164 -3.633677 -0.009393
v -6.543047 -3.398188 2.663941
v -6.540000 -3.399114 -0.015316
v -6.738811 -3.399114 -0.015316
v -6.738811 -3.398115 2.870150
v -6.543047 -3.398188 2.663941
v -6.738811 -3.399114 -0.015316
v -6.738811 -3.398115 2.870150
v -5.009078 -3.398189 2.659181
v -6.543047 -3.398188 2.663941
v -6.738811 -3.398115 2.870150
v -4.803809 -3.398116 2.870149
v -5.009078 -3.398189 2.659181
v -4.803809 -3.398116 2.870149
v -4.803809 -3.399115 -0.015317
v -5.009078 -3.398189 2.659181
v -4.803809 -3.399115 -0.015317
v -5.024167 -3.399114 -0.015317
v -5.009078 -3.398189 2.659181
v -6.540000 -3.633679 -0.015234
v -5.024167 -3.633680 -0.015235
v -6.540000 -3.399114 -0.015316
v -5.024167 -3.633680 -0.015235
v -5.024167 -3.399114 -0.015317
v -6.540000 -3.399114 -0.015316
v -5.024167 -3.633680 -0.015235
v -5.009078 -3.632756 2.659263
v -5.024167 -3.399114 -0.015317
v -5.009078 -3.632756 2.659263
v -5.009078 -3.398189 2.659181
v -5.024167 -3.399114 -0.015317
v -5.009078 -3.632756 2.659263
v -6.543047 -3.632754 2.664023
v -5.009078 -3.398189 2.659181
v -6.543047 -3.632754 2.664023
v -6.543047 -3.398188 2.663941
v -5.009078 -3.398189 2.659181
v -6.543047 -3.632754 2.664023
v -6.540000 -3.633679 -0.015234
v -6.543047 -3.398188 2.663941
v -6.540000 -3.633679 -0.015234
v -6.540000 -3.399114 -0.015316
v -6.543047 -3.398188 2.663941
v -6.738811 -3.377756 -0.015324
v -6.738811 -3.376756 2.870141
v -6.738811 -3.398115 2.870150
v -6.738811 -3.398115 2.870150
v -6.738811 -3.399114 -0.015316
v -6.738811 -3.377756 -0.015324
v -6.738811 -3.376756 2.870141
v -4.803809 -3.376757 2.870140
v -4.803809 -3.398116 2.870149
v -4.803809 -3.398116 2.870149
v -6.738811 -3.398115 2.870150
v -6.738811 -3.376756 2.870141
v -4.803809 -3.376757 2.870140
v -4.803809 -3.377757 -0.015324
v -4.803809 -3.399115 -0.015317
v -4.803809 -3.399115 -0.015317
v -4.803809 -3.398116 2.870149
v -4.803809 -3.376757 2.870140
v -4.803809 -3.377757 -0.015324
v -5.028931 -3.386835 -0.010529
v -5.024167 -3.399114 -0.015317
v -5.024167 -3.399114 -0.015317
v -4.803809 -3.399115 -0.015317
v -4.803809 -3.377757 -0.015324
v -6.534164 -3.633677 -0.009393
v -5.029990 -3.633678 -0.009380
v -5.024167 -3.633680 -0.015235
v -5.024167 -3.633680 -0.015235
v -6.540000 -3.633679 -0.015234
v -6.534164 -3.633677 -0.009393
v -5.028931 -3.386835 -0.010529
v -6.535233 -3.386793 -0.010548
v -6.540000 -3.399114 -0.015316
v -6.540000 -3.399114 -0.015316
v -5.024167 -3.399114 -0.015317
v -5.028931 -3.386835 -0.010529
v -5.029990 -3.633678 -0.009380
v -5.014944 -3.632758 2.653449
v -5.009078 -3.632756 2.659263
v -5.009078 -3.632756 2.659263
v -5.024167 -3.633680 -0.015235
v -5.029990 -3.633678 -0.009380
v -5.014944 -3.632758 2.653449
v -6.537212 -3.632756 2.658177
v -6.543047 -3.632754 2.664023
v -6.543047 -3.632754 2.664023
v -5.009078 -3.632756 2.659263
v -5.014944 -3.632758 2.653449
v -6.537212 -3.632756 2.658177
v -6.534164 -3.633677 -0.009393
v -6.540000 -3.633679 -0.015234
v -6.540000 -3.633679 -0.015234
v -6.543047 -3.632754 2.664023
v -6.537212 -3.632756 2.658177
vn 0.7071 0.5532 0.4404
vn 0.5774 -0.5774 -0.5773
vn 0.7070 0.5533 0.4405
vn 0.7070 -0.4405 0.5532
vn 0.7070 0.4404 -0.5533
vn 1.0000 -0.0000 -0.0000
vn 0.7071 0.7071 0.0010
vn 0.7071 -0.0001 -0.7072
vn 0.7070 0.0684 0.7039
vn 0.7070 -0.7072 -0.0000
vn 0.7071 -0.0011 0.7072
vn 0.5773 0.0525 0.8148
vn 0.7071 -0.0001 -0.7071
vn 1.0000 -0.0000 0.0001
vn 0.5773 -0.8148 0.0525
vn 0.7071 0.7072 -0.0000
vn 0.7071 0.0619 -0.7044
vn 0.7071 -0.7072 0.0001
vn 0.7071 0.7044 0.0621
vn 0.5774 0.8153 0.0445
vn 0.5773 -0.0445 0.8153
vn 0.7071 -0.0000 -0.7071
vn 0.7070 0.7039 -0.0683
vn 0.7071 0.0012 0.7072
vn 0.5774 0.8122 -0.0841
vn 0.7071 -0.7072 0.0011
vn 0.7070 -0.0000 -0.7072
vn 0.5774 -0.0842 -0.8121
vn 0.7070 0.0001 0.7072
vn -0.7071 0.5532 0.4405
vn -0.5773 -0.5773 -0.5774
vn -0.7070 0.4405 -0.5533
vn -0.7071 -0.4404 0.5532
vn -1.0000 -0.0000 -0.0000
vn -0.7071 0.0684 0.7038
vn -0.7071 -0.7072 -0.0000
vn -0.7071 -0.0010 -0.7072
vn -0.7070 0.7072 -0.0010
vn -0.7070 0.0001 0.7072
vn -0.5774 0.0525 0.8148
vn -0.7070 -0.0000 -0.7072
vn -0.5773 -0.8149 0.0523
vn -0.7070 0.7072 -0.0000
vn -1.0000 -0.0000 -0.0001
vn -0.7070 -0.7045 0.0619
vn -0.7070 -0.0620 -0.7045
vn -0.5773 0.8153 0.0443
vn -0.7070 -0.7072 -0.0001
vn -0.5774 -0.0443 0.8153
vn -0.7070 -0.0000 -0.7073
vn -0.7071 0.7038 -0.0684
vn -0.7070 0.0010 0.7072
vn -0.5773 0.8121 -0.0843
vn -0.7071 -0.7072 0.0010
vn -0.7071 -0.0000 -0.7072
vn -0.5773 -0.0844 -0.8121
vn -0.7071 -0.0000 0.7071
vn -0.1889 0.6815 -0.7070
vn 0.5773 -0.5774 -0.5774
vn -0.1889 0.6815 -0.7071
vn 0.6815 0.1889 -0.7070
vn -0.6815 -0.1889 -0.7070
vn -0.0000 -0.0000 -1.0000
vn -0.6812 0.1901 -0.7070
vn 0.0001 -0.7072 -0.7070
vn -0.0098 0.7070 -0.7071
vn -0.0000 -0.0001 -1.0000
vn 0.7072 -0.0000 -0.7070
vn 0.1903 0.6811 -0.7070
vn 0.3985 0.7126 -0.5774
vn 0.7126 -0.3985 -0.5774
vn -0.7072 -0.0000 -0.7071
vn -0.0099 -0.7071 -0.7070
vn 0.7072 0.0001 -0.7071
vn -0.7071 -0.0098 -0.7071
vn -0.7466 0.3304 -0.5774
vn 0.7072 -0.0000 -0.7071
vn -0.3303 -0.7467 -0.5774
vn -0.0000 0.7072 -0.7071
vn -0.7071 0.0102 -0.7070
vn -0.1387 -0.6934 -0.7071
vn -0.7489 -0.3253 -0.5774
vn 0.7072 0.0001 -0.7070
vn 0.6934 -0.1388 -0.7071
vn -0.3253 0.7489 -0.5774
vn -0.0000 -0.7072 -0.7071
vn -0.2326 0.7070 0.6678
vn 0.5773 0.5774 -0.5774
vn -0.2325 0.7070 0.6679
vn 0.6679 0.7070 0.2325
vn -0.6678 0.7070 -0.2326
vn -0.0000 1.0000 -0.0000
vn -0.7072 0.7070 0.0037
vn 0.0001 0.7070 -0.7072
vn -0.0122 0.7070 0.7071
vn 0.7072 0.7070 -0.0000
vn 0.0038 0.7070 0.7072
vn 0.3770 0.5774 0.7242
vn 0.7242 0.5774 -0.3770
vn -0.7072 0.7071 -0.0000
vn -0.0111 0.7071 -0.7071
vn 0.7072 0.7071 -0.0000
vn -0.7071 0.7071 0.0111
vn -0.7610 0.5774 -0.2960
vn 0.7072 0.7071 0.0001
vn -0.2961 0.5774 0.7609
vn 0.0001 0.7071 -0.7072
vn -0.7071 0.7070 -0.0122
vn -0.0027 0.7071 0.7072
vn -0.7715 0.5774 0.2673
vn 0.7072 0.7071 0.0026
vn -0.0000 0.7070 -0.7072
vn -0.2672 0.5774 -0.7715
vn -0.0001 0.7070 0.7072
vn -0.1924 -0.6805 0.7070
vn 0.5774 0.5773 0.5774
vn -0.1925 -0.6805 0.7070
vn 0.6805 -0.1923 0.7071
vn -0.6805 0.1926 0.7070
vn -0.0000 0.0002 1.0000
vn -0.6811 -0.1901 0.7071
vn 0.0001 0.7071 0.7071
vn -0.0000 -0.0000 1.0000
vn -0.0100 -0.7069 0.7072
vn -0.0000 0.0003 1.0000
vn 0.7072 0.0002 0.7070
vn 0.1901 -0.6811 0.7071
vn 0.4022 -0.7106 0.5773
vn 0.7106 0.4023 0.5773
vn -0.7071 0.0002 0.7071
vn -0.0098 0.7072 0.7069
vn 0.7072 -0.0000 0.7071
vn -0.0000 0.0001 1.0000
vn -0.7071 0.0100 0.7071
vn -0.7489 -0.3253 0.5773
vn -0.3253 0.7489 0.5773
vn -0.0001 -0.7072 0.7070
vn -0.7071 -0.0098 0.7070
vn -0.1388 0.6934 0.7070
vn -0.7467 0.3304 0.5773
vn 0.7072 0.0003 0.7071
vn 0.6934 0.1388 0.7070
vn -0.3302 -0.7468 0.5773
vn -0.0000 0.7072 0.7070
vn -0.2126 -0.7070 -0.6745
vn 0.5773 -0.5774 0.5774
vn -0.2128 -0.7071 -0.6744
vn 0.6744 -0.7070 -0.2127
vn -0.6744 -0.7071 0.2128
vn -0.0000 -1.0000 -0.0000
vn -0.7071 -0.7071 -0.0037
vn 0.0001 -0.7070 0.7072
vn 0.7071 -0.7071 0.0112
vn 0.0111 -0.7071 -0.7071
vn -0.7072 -0.7071 -0.0000
vn 0.0038 -0.7071 -0.7071
vn 0.3554 -0.5774 -0.7351
vn -0.0000 -0.7071 0.7072
vn 0.7350 -0.5774 0.3555
vn -0.7072 -0.7070 -0.0000
vn -0.0122 -0.7070 0.7071
vn 0.7072 -0.7070 -0.0001
vn -0.7071 -0.7070 -0.0123
vn -0.7715 -0.5774 0.2672
vn -0.2671 -0.5774 -0.7716
vn -0.0000 -0.7070 0.7072
vn 0.7072 -0.7071 0.0027
vn -0.0001 -0.7070 -0.7072
vn -0.0027 -0.7071 0.7072
vn -0.6473 -0.7071 -0.2847
vn 0.6473 -0.7071 0.2847
vn 0.2848 -0.7071 -0.6473
vn 0.2847 -0.7071 -0.6473
vn -0.5773 -0.5774 0.5774
vn 0.7070 0.5217 0.4775
vn 0.5774 -0.5773 -0.5774
vn 0.7070 -0.4775 0.5217
vn 0.7070 0.4775 -0.5216
vn 0.7071 0.7072 0.0011
vn 0.7070 -0.0001 -0.7072
vn 0.7070 0.0079 0.7071
vn 0.7071 -0.0014 0.7072
vn 0.5773 -0.0043 0.8165
vn 0.5774 -0.8165 -0.0043
vn 0.7071 0.7072 0.0001
vn 0.7071 0.0071 -0.7071
vn 0.7071 0.7071 0.0072
vn 0.5774 0.8158 -0.0343
vn 0.5773 0.0343 0.8158
vn 0.7070 0.7071 -0.0079
vn 0.7071 0.0013 0.7072
vn 0.5774 0.8165 -0.0058
vn 0.7070 -0.7072 -0.0001
vn 0.7071 -0.7072 0.0013
vn 0.5774 -0.0058 -0.8165
vn 0.7070 -0.0000 0.7072
vn -0.7071 0.5216 0.4775
vn -0.7070 0.4775 -0.5217
vn -0.7071 -0.4775 0.5216
vn -0.7071 0.0079 0.7071
vn -0.7071 -0.7072 -0.0001
vn -0.7071 -0.0012 -0.7072
vn -0.7071 0.7072 -0.0011
vn -0.7070 -0.0001 0.7072
vn -0.5774 -0.0043 0.8165
vn -0.5774 -0.8165 -0.0043
vn -0.7071 0.7072 -0.0000
vn -0.7071 -0.7071 0.0071
vn -0.7069 -0.0071 -0.7073
vn -0.5773 0.8158 -0.0345
vn -0.5774 0.0345 0.8157
vn -0.7071 0.7071 -0.0079
vn -0.7070 0.0015 0.7072
vn -0.5774 0.8165 -0.0061
vn -0.7070 -0.7072 0.0013
vn -0.7071 -0.0001 -0.7072
vn -0.5773 -0.0061 -0.8165
vn -0.2148 0.6737 -0.7071
vn 0.5773 -0.5774 -0.5773
vn -0.2147 0.6738 -0.7070
vn 0.6738 0.2148 -0.7070
vn -0.6738 -0.2147 -0.7071
vn -0.0000 0.0002 -1.0000
vn -0.7068 0.0225 -0.7071
vn 0.0001 -0.7072 -0.7071
vn -0.0112 0.7072 -0.7069
vn -0.0000 0.0001 -1.0000
vn 0.0225 0.7068 -0.7071
vn 0.3586 0.7336 -0.5772
vn 0.0001 -0.7071 -0.7072
vn 0.7335 -0.3586 -0.5774
vn -0.7072 0.0001 -0.7071
vn -0.0121 -0.7070 -0.7071
vn -0.7071 -0.0112 -0.7070
vn -0.7620 0.2932 -0.5773
vn -0.2931 -0.7620 -0.5774
vn -0.0000 0.7072 -0.7070
vn -0.7071 0.0121 -0.7071
vn -0.0162 -0.7070 -0.7071
vn -0.7700 -0.2716 -0.5774
vn 0.7070 -0.0162 -0.7071
vn -0.2716 0.7700 -0.5774
vn 0.0040 0.7070 0.7072
vn -0.7070 0.7071 0.0111
vn -0.2295 -0.6689 0.7071
vn -0.2296 -0.6689 0.7070
vn 0.6689 -0.2295 0.7071
vn -0.6689 0.2296 0.7070
vn -0.7068 -0.0225 0.7071
vn 0.0001 0.7072 0.7071
vn -0.0121 -0.7071 0.7070
vn 0.7072 -0.0000 0.7070
vn 0.0225 -0.7068 0.7071
vn 0.3748 -0.7255 0.5772
vn 0.0001 0.7070 0.7072
vn -0.0000 -0.0002 1.0000
vn 0.7253 0.3749 0.5774
vn -0.7072 -0.0000 0.7070
vn -0.0113 0.7071 0.7071
vn -0.7071 0.0122 0.7071
vn -0.7700 -0.2716 0.5773
vn -0.2715 0.7701 0.5773
vn -0.7071 -0.0115 0.7070
vn -0.0162 0.7070 0.7070
vn -0.7621 0.2931 0.5774
vn 0.7071 -0.0000 0.7071
vn 0.7070 0.0161 0.7070
vn -0.0000 -0.7072 0.7070
vn -0.2931 -0.7622 0.5772
vn -0.0000 0.7070 0.7072
vn -0.2128 -0.7070 -0.6744
vn -0.6744 -0.7070 0.2128
vn -0.7072 -0.7070 -0.0037
vn 0.7071 -0.7070 0.0112
vn 0.0111 -0.7070 -0.7071
vn 0.0040 -0.7070 -0.7072
vn 0.3552 -0.5774 -0.7352
vn 0.7351 -0.5774 0.3553
vn 0.7072 -0.7070 -0.0000
vn -0.7716 -0.5774 0.2670
vn -0.2669 -0.5774 -0.7716
vn -0.0001 -0.7070 0.7072
vn 0.7072 -0.7070 0.0026
vn -0.0027 -0.7070 0.7072
vn -0.6474 -0.7070 -0.2847
vn 0.6473 -0.7070 0.2847
vn 0.2846 -0.7070 -0.6474
vn 0.2847 -0.7070 -0.6474
vn -0.5774 -0.5774 0.5773
vn -0.5533 0.7071 0.4404
vn 0.5774 0.5774 -0.5773
vn -0.5533 0.7070 0.4404
vn 0.4405 0.7071 0.5532
vn -0.4404 0.7070 -0.5533
vn -0.7072 0.7071 0.0011
vn -0.0684 0.7070 0.7039
vn 0.0010 0.7071 0.7072
vn -0.0525 0.5774 0.8148
vn -0.0000 0.7071 -0.7072
vn 0.8148 0.5774 0.0524
vn -0.0619 0.7071 -0.7044
vn -0.7044 0.7071 0.0620
vn -0.8153 0.5774 0.0445
vn 0.0445 0.5774 0.8153
vn -0.7039 0.7070 -0.0684
vn -0.0000 1.0000 -0.0001
vn -0.0011 0.7071 0.7072
vn -0.8121 0.5773 -0.0843
vn 0.7072 0.7071 0.0011
vn 0.0843 0.5773 -0.8122
vn -0.0001 0.7071 0.7071
vn -0.5532 -0.7071 0.4405
vn -0.4405 -0.7071 -0.5532
vn 0.4406 -0.7070 0.5531
vn -0.0684 -0.7071 0.7038
vn 0.7072 -0.7071 -0.0000
vn 0.0011 -0.7071 -0.7072
vn -0.7072 -0.7070 -0.0010
vn -0.0524 -0.5773 0.8148
vn -0.0000 -0.7070 -0.7072
vn 0.8148 -0.5773 0.0523
vn -0.7072 -0.7070 0.0001
vn 0.7045 -0.7070 0.0619
vn 0.0620 -0.7070 -0.7045
vn -0.8153 -0.5773 0.0443
vn 0.0443 -0.5773 0.8153
vn 0.0001 -0.7070 -0.7072
vn -0.7038 -0.7071 -0.0684
vn -0.0011 -0.7070 0.7072
vn -0.8121 -0.5774 -0.0842
vn 0.7072 -0.7070 0.0010
vn -0.0000 -0.7071 -0.7072
vn 0.0844 -0.5774 -0.8121
vn -0.6007 -0.3732 -0.7070
vn 0.5774 0.5773 -0.5774
vn -0.6007 -0.3732 -0.7071
vn -0.3735 0.6005 -0.7070
vn 0.3732 -0.6006 -0.7071
vn -0.0873 -0.7018 -0.7071
vn -0.7067 -0.0245 -0.7071
vn -0.7017 0.0874 -0.7071
vn -0.7967 0.1786 -0.5774
vn 0.1786 0.7967 -0.5774
vn 0.7067 -0.0250 -0.7071
vn -0.0001 0.7072 -0.7071
vn 0.0244 -0.7068 -0.7070
vn -0.1779 -0.7969 -0.5773
vn 0.7969 -0.1778 -0.5773
vn -0.0250 -0.7067 -0.7070
vn 0.7020 -0.0855 -0.7071
vn 0.1706 -0.7985 -0.5773
vn -0.0001 0.7072 -0.7070
vn 0.0855 0.7020 -0.7071
vn -0.7072 -0.0000 -0.7070
vn -0.7985 -0.1706 -0.5773
vn -0.7072 -0.4351 0.5573
vn -0.5772 0.5773 -0.5775
vn -0.7071 -0.4350 0.5575
vn -0.7071 0.5575 0.4350
vn -0.7070 -0.5576 -0.4350
vn -0.7070 -0.7072 0.0017
vn -0.7071 0.0001 -0.7072
vn -0.7070 -0.0308 0.7065
vn -0.7070 0.0016 0.7072
vn -1.0000 -0.0001 -0.0000
vn -0.5774 0.1382 0.8047
vn -0.5774 0.8047 -0.1382
vn -0.7070 -0.7072 0.0001
vn -0.7071 -0.0278 -0.7066
vn -0.7071 0.7072 0.0001
vn -0.7071 -0.7066 0.0279
vn -0.5774 -0.8061 -0.1298
vn -0.7071 0.7071 0.0001
vn -0.5774 -0.1298 0.8061
vn -0.7070 -0.7065 -0.0307
vn -0.7071 -0.0016 0.7072
vn -0.5774 -0.8114 0.0914
vn -1.0000 -0.0000 0.0001
vn -0.7071 0.7072 0.0015
vn -0.5774 -0.0913 -0.8114
vn 0.5973 -0.3785 0.7071
vn -0.5773 0.5774 0.5773
vn 0.5974 -0.3785 0.7071
vn 0.3785 0.5973 0.7071
vn -0.3785 -0.5974 0.7070
vn 0.0873 -0.7017 0.7071
vn -0.7072 0.0001 0.7070
vn 0.7067 -0.0250 0.7070
vn 0.7017 0.0874 0.7071
vn 0.7951 0.1859 0.5773
vn -0.7072 0.0002 0.7070
vn -0.1858 0.7951 0.5774
vn -0.7068 -0.0245 0.7070
vn -0.0251 -0.7067 0.7071
vn -0.0001 -0.0000 1.0000
vn 0.1706 -0.7985 0.5773
vn -0.0001 0.7072 0.7071
vn -0.7985 -0.1707 0.5773
vn 0.7072 -0.0002 0.7070
vn 0.0245 -0.7067 0.7070
vn -0.7020 -0.0856 0.7070
vn -0.0000 -0.0001 1.0000
vn -0.1778 -0.7969 0.5773
vn -0.0000 0.7072 0.7071
vn -0.0855 0.7020 0.7070
vn 0.7970 -0.1777 0.5773
vn 0.7070 -0.4082 -0.5775
vn 0.7071 -0.4082 -0.5775
vn 0.7070 0.5775 -0.4082
vn 0.7071 -0.5775 0.4082
vn 0.7071 -0.7072 -0.0017
vn 0.7071 0.7066 0.0279
vn 0.7071 0.0278 -0.7066
vn 0.7071 -0.7072 -0.0000
vn 0.7071 0.0016 -0.7072
vn 0.5774 0.1000 -0.8103
vn 0.7071 -0.0000 0.7072
vn 0.5774 0.8103 0.1000
vn 0.7070 -0.0308 0.7065
vn 0.7070 0.7072 -0.0001
vn 0.7070 -0.7065 -0.0308
vn 0.5773 -0.8114 0.0913
vn 0.7070 0.7072 -0.0000
vn 0.5774 -0.0913 -0.8114
vn 0.7071 0.7072 0.0017
vn 0.7071 -0.0016 0.7072
vn 0.7071 -0.5732 -0.4141
vn 0.7070 0.5732 0.4142
vn 0.7071 0.4142 -0.5732
vn 0.7071 0.4141 -0.5732
vn 0.5774 -0.5773 0.5774
vn -0.5217 0.7071 0.4774
vn -0.5216 0.7071 0.4774
vn 0.4774 0.7071 0.5216
vn -0.4774 0.7070 -0.5218
vn -0.7072 0.7071 0.0013
vn -0.0164 0.7071 0.7069
vn 0.0012 0.7071 0.7072
vn 0.0043 0.5774 0.8165
vn 0.8165 0.5774 -0.0043
vn -0.0149 0.7071 -0.7070
vn -0.7070 0.7071 0.0150
vn -0.8158 0.5774 -0.0344
vn -0.0343 0.5774 0.8158
vn -0.7070 0.7071 -0.0165
vn -0.0013 0.7071 0.7072
vn -0.8165 0.5774 -0.0060
vn 0.7072 0.7071 0.0013
vn 0.0060 0.5774 -0.8165
vn -0.0001 0.7071 0.7072
vn -0.5216 -0.7071 0.4775
vn -0.4775 -0.7071 -0.5216
vn 0.4776 -0.7070 0.5215
vn -0.0164 -0.7071 0.7070
vn 0.7072 -0.7071 -0.0001
vn 0.0012 -0.7071 -0.7072
vn -0.7072 -0.7071 -0.0011
vn 0.0043 -0.5774 0.8165
vn 0.8165 -0.5774 -0.0042
vn 0.7070 -0.7071 0.0152
vn 0.0149 -0.7070 -0.7071
vn -0.8158 -0.5773 -0.0345
vn -0.0345 -0.5773 0.8158
vn -0.7070 -0.7071 -0.0165
vn -0.0015 -0.7070 0.7072
vn -0.8165 -0.5774 -0.0061
vn 0.7072 -0.7071 0.0001
vn 0.7072 -0.7071 0.0013
vn 0.0061 -0.5773 -0.8165
vn 0.5773 0.5774 -0.5773
vn -0.6738 -0.2146 -0.7071
vn 0.2148 -0.6737 -0.7071
vn -0.0471 -0.7056 -0.7071
vn -0.7065 -0.0314 -0.7070
vn -0.7056 0.0472 -0.7071
vn -0.7335 0.3587 -0.5773
vn 0.3588 0.7335 -0.5773
vn -0.0000 -0.7071 -0.7071
vn 0.7064 -0.0338 -0.7071
vn -0.0001 0.7071 -0.7071
vn 0.0314 -0.7065 -0.7070
vn -0.2932 -0.7620 -0.5774
vn 0.7621 -0.2931 -0.5774
vn -0.0336 -0.7064 -0.7070
vn 0.0001 -0.0000 -1.0000
vn 0.7063 -0.0339 -0.7071
vn 0.2717 -0.7700 -0.5773
vn 0.0339 0.7063 -0.7071
vn -0.7070 -0.2326 0.6678
vn -0.5774 0.5773 -0.5774
vn -0.7070 -0.2326 0.6679
vn -0.7070 0.6679 0.2324
vn -0.7070 -0.6678 -0.2326
vn -0.7070 -0.7072 0.0037
vn -0.7070 -0.0343 0.7064
vn -0.7070 0.0038 0.7072
vn -0.5774 0.3771 0.7242
vn -0.7070 0.0001 -0.7072
vn -0.5774 0.7242 -0.3770
vn -0.7071 -0.0311 -0.7065
vn -0.7071 -0.7065 0.0311
vn -0.5774 -0.7610 -0.2958
vn -0.7070 0.7072 0.0002
vn -0.5773 -0.2960 0.7610
vn -0.7070 -0.7064 -0.0343
vn -0.7071 -0.0027 0.7072
vn -0.5774 -0.7716 0.2671
vn -0.7071 0.7072 0.0026
vn -0.5774 -0.2672 -0.7715
vn -0.5773 0.5774 0.5774
vn 0.6689 -0.2296 0.7070
vn 0.2295 0.6689 0.7071
vn 0.0471 -0.7056 0.7071
vn -0.7072 0.0001 0.7071
vn 0.7064 -0.0339 0.7070
vn 0.7056 0.0472 0.7071
vn 0.7254 0.3748 0.5774
vn -0.3749 0.7253 0.5774
vn -0.7065 -0.0314 0.7071
vn -0.0339 -0.7064 0.7070
vn 0.2715 -0.7701 0.5773
vn -0.7700 -0.2715 0.5773
vn 0.7072 -0.0001 0.7070
vn 0.0315 -0.7065 0.7071
vn -0.7064 -0.0337 0.7070
vn -0.2929 -0.7621 0.5774
vn -0.0338 0.7064 0.7070
vn 0.7621 -0.2930 0.5774
vn 0.7070 -0.2126 -0.6745
vn 0.7071 -0.2126 -0.6744
vn 0.7070 0.6744 -0.2127
vn 0.7071 -0.6744 0.2127
vn 0.7070 -0.7072 -0.0037
vn 0.7071 0.7065 0.0311
vn 1.0000 -0.0000 -0.0002
vn 0.7069 0.0312 -0.7066
vn 0.7071 -0.7072 -0.0001
vn 0.7070 0.0037 -0.7072
vn 0.5774 0.3553 -0.7351
vn 0.5773 0.7350 0.3555
vn 0.7070 -0.0343 0.7064
vn 0.7070 0.7072 0.0001
vn 0.7071 -0.7063 -0.0343
vn 0.5774 -0.7716 0.2670
vn 0.7071 0.7072 -0.0001
vn 0.5774 -0.2670 -0.7716
vn 0.7070 0.7072 0.0026
vn 0.7070 -0.0027 0.7072
vn 0.7071 -0.6474 -0.2846
vn 0.7070 0.6474 0.2849
vn 0.7070 0.2847 -0.6474
vn 0.5774 -0.5774 0.5773
vn 0.9997 -0.0000 -0.0239
vn 0.0234 -0.0003 -0.9997
vn -0.0000 0.3609 -0.9326
vn 0.0444 0.9990 -0.0034
vn 0.0593 0.9982 -0.0048
vn -0.6635 0.7480 -0.0184
vn -0.0024 1.0000 -0.0003
vn 0.0130 0.9999 -0.0003
vn 0.0077 1.0000 -0.0000
vn -0.0002 1.0000 -0.0072
vn -0.0003 0.9999 -0.0127
vn -0.0023 0.9999 -0.0117
vn 0.0005 1.0000 -0.0072
vn 0.0017 0.9999 -0.0118
vn -0.0000 0.9999 -0.0124
vn -0.0074 1.0000 -0.0000
vn -0.0125 0.9999 -0.0003
vn 0.0015 1.0000 -0.0003
vn -0.0537 0.9985 -0.0046
vn -0.0404 0.9992 -0.0032
vn 0.6680 0.7439 -0.0212
vn -0.7089 0.0551 0.7032
vn -0.0000 0.0047 1.0000
vn -0.0856 -0.7024 0.7066
vn 0.7091 -0.0125 0.7050
vn -1.0000 0.0043 0.0056
vn -0.9998 -0.0181 0.0053
vn -0.9993 0.0356 0.0067
vn -0.9999 0.0132 0.0065
vn -0.0031 0.0128 -0.9999
vn 0.9999 0.0132 0.0011
vn 0.9994 0.0355 0.0002
vn 0.9998 -0.0180 0.0030
vn 1.0000 0.0043 0.0020
vn 0.9995 0.0303 0.0017
vn -0.0000 -1.0000 0.0003
vn 0.7074 -0.7068 0.0010
vn -0.0000 -1.0000 0.0004
vn -0.7084 -0.7058 0.0043
vn -0.0000 -0.0003 -1.0000
vn 0.6986 -0.1084 -0.7073
vn 0.0582 0.7043 -0.7075
vn -0.7059 -0.0002 -0.7083
vn 1.0000 -0.0000 -0.0056
vn 0.0031 0.0003 1.0000
vn -1.0000 -0.0000 -0.0011
vn -0.0000 0.0004 1.0000
vn -0.0506 0.8982 -0.4367
vn -0.0397 0.3575 -0.9331
vn -0.0393 0.3311 -0.9428
vn 0.0184 -0.6955 -0.7183
vn 0.0137 -0.0001 -0.9999
vn -0.0080 0.3626 -0.9319
vn -0.0000 0.3666 -0.9304
vn -0.0018 0.3544 -0.9351
vn 0.0127 0.3861 -0.9224
vn 0.0001 -1.0000 0.0003
vt 2.189291 0.397791
vt 2.189291 0.395070
vt 2.191038 0.395070
vt 2.191038 0.397790
vt 2.189291 1.873581
vt 2.213619 0.395070
vt 2.191038 1.873581
vt 2.189291 1.876045
vt 2.191038 1.876045
vt 2.213619 1.876045
vt 2.213619 1.873581
vt 2.215400 1.876045
vt 2.215400 1.873581
vt 2.213619 0.397790
vt 2.215400 0.395070
vt 2.215400 0.397790
vt -1.191038 0.395070
vt -1.189291 0.395070
vt -1.189291 0.397790
vt -1.191038 0.397791
vt -1.213619 0.395070
vt -1.191038 1.873581
vt -1.189291 1.873581
vt -1.189291 1.876045
vt -1.191038 1.876045
vt -1.213619 1.873581
vt -1.213619 1.876045
vt -1.215400 1.876045
vt -1.215400 1.873581
vt -1.213619 0.397791
vt -1.215400 0.395070
vt -1.215400 0.397791
vt 0.500046 2.191038
vt 0.500046 2.189291
vt 0.507558 2.189291
vt 0.507558 2.191038
vt 0.500046 2.213619
vt 0.657881 2.189291
vt 0.507558 2.213619
vt 0.500046 2.215400
vt 0.507558 2.215400
vt 0.657881 2.215400
vt 0.657881 2.191038
vt 0.663267 2.189291
vt 0.663267 2.191038
vt 0.657881 2.213619
vt 0.663267 2.215400
vt 0.663267 2.213619
vt 0.500046 0.397790
vt 0.500046 0.395070
vt 0.507558 0.395070
vt 0.507559 0.397790
vt 0.500046 1.873581
vt 0.657881 0.395070
vt 0.507559 1.873581
vt 0.500046 1.876045
vt 0.507559 1.876045
vt 0.657881 1.876045
vt 0.657881 1.873581
vt 0.663268 1.876045
vt 0.663267 1.873581
vt 0.657881 0.397791
vt 0.663267 0.395070
vt 0.663267 0.397791
vt 0.499954 2.213619
vt 0.499954 2.215400
vt 0.492441 2.215400
vt 0.492441 2.213619
vt 0.499954 2.191038
vt 0.342119 2.215400
vt 0.492441 2.191038
vt 0.499954 2.189291
vt 0.492441 2.189291
vt 0.342119 2.189291
vt 0.342119 2.213619
vt 0.336732 2.215400
vt 0.336732 2.213619
vt 0.342119 2.191038
vt 0.336732 2.189291
vt 0.336732 2.191038
vt 0.499954 1.873581
vt 0.499954 1.876045
vt 0.492441 1.876045
vt 0.492441 1.873581
vt 0.499954 0.397791
vt 0.342119 1.873581
vt 0.342119 1.876045
vt 0.492441 0.397791
vt 0.499954 0.395070
vt 0.492442 0.395070
vt 0.342119 0.395070
vt 0.342119 0.397791
vt 0.336733 0.395070
vt 0.336733 0.397790
vt 0.336732 1.873581
vt 0.336732 1.876045
vt 2.218842 0.397791
vt 2.218842 0.395070
vt 2.220850 0.395070
vt 2.220850 0.397790
vt 2.218842 1.873581
vt 2.418390 0.395070
vt 2.220850 1.873581
vt 2.218842 1.876045
vt 2.220850 1.876045
vt 2.418390 1.876045
vt 2.418390 1.873581
vt 2.420552 1.876045
vt 2.420552 1.873581
vt 2.418390 0.397790
vt 2.420552 0.395070
vt 2.420552 0.397790
vt -1.220850 0.395070
vt -1.218842 0.395070
vt -1.218842 0.397791
vt -1.220850 0.397791
vt -1.418390 0.395070
vt -1.220850 1.873581
vt -1.218842 1.873581
vt -1.218842 1.876045
vt -1.220850 1.876045
vt -1.418390 1.873581
vt -1.418390 1.876045
vt -1.420552 1.876045
vt -1.420552 1.873581
vt -1.418390 0.397791
vt -1.420552 0.395070
vt -1.420552 0.397791
vt 0.500046 2.220850
vt 0.500046 2.218842
vt 0.507558 2.218842
vt 0.507558 2.220850
vt 0.500046 2.418390
vt 0.657881 2.218842
vt 0.507558 2.418390
vt 0.500046 2.420552
vt 0.507558 2.420552
vt 0.657881 2.420552
vt 0.657881 2.220850
vt 0.663267 2.218842
vt 0.663267 2.220850
vt 0.657881 2.418390
vt 0.663267 2.420552
vt 0.663267 2.418390
vt 0.500046 0.397790
vt 0.500046 0.395070
vt 0.507558 0.395070
vt 0.507558 0.397790
vt 0.500046 1.873581
vt 0.657881 0.395070
vt 0.507559 1.873581
vt 0.500046 1.876045
vt 0.507559 1.876045
vt 0.657881 1.876045
vt 0.657881 1.873581
vt 0.663268 1.876045
vt 0.663267 1.873581
vt 0.657881 0.397791
vt 0.663267 0.395070
vt 0.663267 0.397791
vt 0.499954 2.418390
vt 0.499954 2.420552
vt 0.492441 2.420552
vt 0.492441 2.418390
vt 0.499954 2.220850
vt 0.342119 2.420552
vt 0.492441 2.220850
vt 0.499954 2.218842
vt 0.492441 2.218842
vt 0.342119 2.218842
vt 0.342119 2.418390
vt 0.336732 2.420552
vt 0.336732 2.418390
vt 0.342119 2.220850
vt 0.336732 2.218842
vt 0.336732 2.220850
vt 0.492441 1.876045
vt 0.492441 1.873581
vt 0.499954 0.397791
vt 0.342119 1.876045
vt 0.492441 0.397791
vt 0.492442 0.395070
vt 0.342119 0.395070
vt 0.342119 0.397791
vt 0.336733 0.395070
vt 0.336733 0.397791
vt 0.336732 1.876045
vt 2.272530 -1.263967
vt 2.272530 -1.266688
vt 2.274277 -1.266688
vt 2.274277 -1.263967
vt 2.272530 0.205010
vt 2.296857 -1.266688
vt 2.274277 0.205010
vt 2.272530 0.207474
vt 2.274277 0.207474
vt 2.296857 0.207474
vt 2.296857 0.205010
vt 2.298639 0.207474
vt 2.298639 0.205010
vt 2.296857 -1.263967
vt 2.298639 -1.266688
vt 2.298639 -1.263967
vt -1.274277 -1.266688
vt -1.272530 -1.266688
vt -1.272530 -1.263967
vt -1.274277 -1.263967
vt -1.296857 -1.266687
vt -1.274277 0.205010
vt -1.272530 0.205010
vt -1.272530 0.207474
vt -1.274277 0.207474
vt -1.296857 0.205010
vt -1.296857 0.207474
vt -1.298639 0.207474
vt -1.298639 0.205010
vt -1.296857 -1.263967
vt -1.298639 -1.266688
vt -1.298639 -1.263967
vt 1.937918 2.274277
vt 1.937918 2.272530
vt 1.941270 2.272530
vt 1.941270 2.274277
vt 1.937918 2.296857
vt 2.001292 2.272530
vt 1.941270 2.296857
vt 1.937918 2.298639
vt 1.941270 2.298639
vt 2.001292 2.298639
vt 2.001292 2.274277
vt 2.004571 2.272530
vt 2.004571 2.274277
vt 2.001292 2.296857
vt 2.004571 2.298639
vt 2.004571 2.296857
vt 1.937918 -1.263967
vt 1.937918 -1.266688
vt 1.941270 -1.266688
vt 1.941270 -1.263967
vt 1.937918 0.205010
vt 2.001292 -1.266688
vt 1.941270 0.205010
vt 1.937919 0.207474
vt 1.941270 0.207474
vt 2.001292 0.207474
vt 2.001292 0.205010
vt 2.004572 0.207474
vt 2.004571 0.205010
vt 2.001292 -1.263967
vt 2.004571 -1.266688
vt 2.004571 -1.263967
vt -0.937919 2.296857
vt -0.937919 2.298639
vt -0.941270 2.298639
vt -0.941270 2.296857
vt -0.937919 2.274277
vt -1.001292 2.298639
vt -0.941270 2.274277
vt -0.937919 2.272530
vt -0.941270 2.272530
vt -1.001292 2.272530
vt -1.001292 2.296857
vt -1.004572 2.298639
vt -1.004572 2.296857
vt -1.001293 2.274277
vt -1.004572 2.272530
vt -1.004572 2.274277
vt -0.937918 0.205010
vt -0.937919 0.207474
vt -0.941270 0.207474
vt -0.941270 0.205010
vt -0.937918 -1.263967
vt -1.001292 0.205010
vt -1.001292 0.207474
vt -0.941270 -1.263967
vt -0.937918 -1.266688
vt -0.941270 -1.266688
vt -1.001292 -1.266688
vt -1.001292 -1.263967
vt -1.004571 -1.266688
vt -1.004571 -1.263967
vt -1.004571 0.205010
vt -1.004572 0.207474
vt 2.302080 -1.263967
vt 2.302080 -1.266688
vt 2.304088 -1.266688
vt 2.304088 -1.263967
vt 2.302080 0.205010
vt 2.398259 -1.266688
vt 2.304088 0.205010
vt 2.302080 0.207474
vt 2.304088 0.207474
vt 2.398259 0.207474
vt 2.398259 0.205010
vt 2.400421 0.207474
vt 2.400421 0.205010
vt 2.398259 -1.263967
vt 2.400421 -1.266688
vt 2.400421 -1.263967
vt -1.304088 -1.266688
vt -1.302080 -1.266688
vt -1.302080 -1.263967
vt -1.304088 -1.263967
vt -1.398259 -1.266687
vt -1.304088 0.205010
vt -1.302080 0.205010
vt -1.302080 0.207474
vt -1.304088 0.207474
vt -1.398259 0.205010
vt -1.398259 0.207474
vt -1.400421 0.207474
vt -1.400421 0.205010
vt -1.398259 -1.263967
vt -1.400421 -1.266687
vt -1.400421 -1.263967
vt 1.937918 2.304088
vt 1.937918 2.302080
vt 1.945431 2.302080
vt 1.945431 2.304088
vt 1.937918 2.398259
vt 1.999185 2.302080
vt 1.945431 2.398259
vt 1.937918 2.400421
vt 1.945431 2.400421
vt 1.999184 2.400421
vt 1.999185 2.304088
vt 2.004571 2.302080
vt 2.004571 2.304088
vt 1.999184 2.398259
vt 2.004571 2.400421
vt 2.004571 2.398259
vt 1.945431 -1.266688
vt 1.945431 -1.263967
vt 1.937918 0.205010
vt 1.999184 -1.266687
vt 1.945431 0.205010
vt 1.945431 0.207474
vt 1.999185 0.207474
vt 1.999185 0.205010
vt 2.004571 0.207474
vt 2.004571 0.205010
vt 1.999184 -1.263967
vt 2.004571 -1.266687
vt 2.004571 -1.263967
vt -0.937919 2.398259
vt -0.937919 2.400421
vt -0.945431 2.400421
vt -0.945431 2.398259
vt -0.937919 2.304088
vt -0.999185 2.400421
vt -0.945431 2.304088
vt -0.937919 2.302080
vt -0.945431 2.302080
vt -0.999185 2.302080
vt -0.999185 2.398259
vt -1.004572 2.400421
vt -1.004572 2.398259
vt -0.999185 2.304088
vt -1.004572 2.302080
vt -1.004572 2.304088
vt -0.945431 0.207474
vt -0.945431 0.205010
vt -0.937918 -1.263967
vt -0.999185 0.205010
vt -0.999185 0.207474
vt -0.945431 -1.263967
vt -0.945431 -1.266688
vt -0.999185 -1.266688
vt -0.999185 -1.263967
vt -1.004572 0.205010
vt -1.004572 0.207474
vt 2.966443 -1.263696
vt 3.043442 -1.263696
vt 2.967623 -0.184584
vt 3.043442 -0.101531
vt 2.373519 -0.186501
vt 2.294018 -0.101531
vt 2.294018 -1.263696
vt 2.379362 -1.263696
vt -1.966443 -1.374863
vt -1.966443 -1.451053
vt -1.379362 -1.451053
vt -1.379362 -1.374863
vt 2.374863 -1.263696
vt 2.451053 -1.263696
vt 2.451053 -0.186501
vt 2.374863 -0.186501
vt 2.373519 -1.374863
vt 2.373519 -1.451053
vt 2.967623 -1.451053
vt 2.967623 -1.374863
vt -1.374863 -0.184584
vt -1.451053 -0.184584
vt -1.451053 -1.263696
vt -1.374863 -1.263696
s 1
f 1/1/1 3/2/2 2/3/3
f 4/1/4 6/3/5 5/4/6
f 7/5/7 9/1/8 8/4/6
f 10/6/9 12/4/6 11/3/10
f 13/5/11 15/4/6 14/7/6
f 16/8/12 18/5/13 17/7/14
f 19/8/15 21/7/6 20/9/16
f 22/10/17 24/9/18 23/7/14
f 25/10/19 27/7/6 26/11/6
s 0
f 28/11/6 30/7/6 29/4/6
s 1
f 31/12/20 33/10/18 32/11/6
f 34/12/21 36/11/6 35/13/22
f 37/6/23 39/14/6 38/4/6
s 0
f 40/11/6 42/4/6 41/14/6
s 1
f 43/13/24 45/11/6 44/14/6
f 46/15/25 48/14/6 47/6/10
f 49/13/26 51/14/6 50/16/27
f 52/15/28 54/16/29 53/14/6
f 55/17/30 57/18/31 56/19/30
f 58/17/32 60/19/33 59/20/34
f 61/21/35 63/17/36 62/20/34
f 64/22/34 66/20/34 65/19/37
f 67/22/34 69/19/38 68/23/39
f 70/24/40 72/22/34 71/23/41
f 73/24/42 75/25/43 74/22/44
f 76/25/45 78/26/44 77/22/44
s 0
f 79/26/34 81/20/34 80/22/34
s 1
f 82/25/46 84/27/43 83/26/44
f 85/28/47 87/26/44 86/27/48
f 88/28/49 90/29/50 89/26/44
f 91/21/51 93/20/34 92/30/34
s 0
f 94/26/34 96/30/34 95/20/34
s 1
f 97/29/52 99/30/34 98/26/34
f 100/31/53 102/21/36 101/30/34
f 103/29/54 105/32/55 104/30/34
f 106/31/56 108/30/34 107/32/57
f 109/33/58 111/34/59 110/35/60
f 112/33/61 114/35/62 113/36/63
f 115/37/64 117/33/65 116/36/63
f 118/38/66 120/36/67 119/35/68
f 121/37/69 123/36/63 122/39/63
f 124/40/70 126/37/65 125/39/63
f 127/40/71 129/39/63 128/41/72
f 130/42/73 132/41/74 131/39/63
f 133/38/75 135/43/63 134/36/63
s 0
f 136/43/63 138/39/63 137/36/63
s 1
f 139/44/76 141/43/63 140/38/77
f 142/44/78 144/45/79 143/43/63
f 145/42/80 147/39/63 146/46/63
s 0
f 148/43/63 150/46/63 149/39/63
s 1
f 151/45/81 153/46/63 152/43/63
f 154/47/82 156/42/83 155/46/63
f 157/45/84 159/48/79 158/46/63
f 160/47/85 162/46/63 161/48/86
f 163/49/87 165/50/88 164/51/89
f 166/49/90 168/51/91 167/52/92
f 169/53/93 171/49/94 170/52/92
f 172/54/95 174/52/92 173/51/96
f 175/53/97 177/52/92 176/55/92
f 178/56/98 180/53/94 179/55/92
f 181/56/99 183/55/92 182/57/100
f 184/58/101 186/57/102 185/55/92
f 187/58/103 189/55/92 188/59/92
s 0
f 190/59/92 192/55/92 191/52/92
s 1
f 193/60/104 195/58/105 194/59/92
f 196/60/106 198/59/92 197/61/107
f 199/54/108 201/62/92 200/52/92
s 0
f 202/59/92 204/52/92 203/62/92
s 1
f 205/61/109 207/59/92 206/62/92
f 208/63/110 210/62/92 209/54/96
f 211/61/111 213/62/92 212/64/112
f 214/63/113 216/64/114 215/62/92
f 217/65/115 219/66/116 218/67/117
f 220/65/118 222/67/119 221/68/120
f 223/69/121 225/65/122 224/68/123
f 226/70/124 228/68/125 227/67/126
f 229/69/127 231/68/123 230/71/123
f 232/72/128 234/69/122 233/71/123
f 235/72/129 237/71/125 236/73/130
f 238/74/131 240/73/132 239/71/133
f 241/70/134 243/75/123 242/68/123
s 0
f 244/75/123 246/71/123 245/68/123
s 1
f 247/76/135 249/75/123 248/70/132
f 250/76/136 252/77/137 251/75/123
f 253/74/138 255/71/123 254/78/123
s 0
f 256/75/123 258/78/123 257/71/123
s 1
f 259/77/139 261/78/123 260/75/123
f 262/79/140 264/74/141 263/78/125
f 265/77/142 267/80/137 266/78/123
f 268/79/143 270/78/123 269/80/144
f 271/81/145 273/82/146 272/83/147
f 274/81/148 276/83/149 275/84/150
f 277/85/151 279/81/152 278/84/150
f 280/86/150 282/84/150 281/83/153
f 283/86/150 285/83/154 284/87/155
f 286/85/156 288/84/150 287/88/150
s 0
f 289/86/150 291/88/150 290/84/150
s 1
f 292/89/157 294/85/158 293/88/150
f 295/89/159 297/88/150 296/90/160
f 298/91/161 300/90/162 299/88/150
f 301/91/163 303/88/150 302/92/150
s 0
f 304/86/150 306/92/150 305/88/150
s 1
f 307/93/164 309/91/162 308/92/150
f 310/93/165 312/92/150 311/94/166
f 313/95/167 315/94/168 314/92/150
f 316/95/169 318/92/150 317/86/150
f 319/95/170 321/86/150 320/87/171
f 322/95/172 324/87/173 323/96/174
f 325/97/175 327/98/176 326/99/175
f 328/97/177 330/99/178 329/100/6
f 331/101/179 333/97/180 332/100/6
f 334/102/181 336/100/6 335/99/10
f 337/101/182 339/100/6 338/103/6
f 340/104/183 342/101/22 341/103/6
f 343/104/184 345/103/6 344/105/185
f 346/106/186 348/105/18 347/103/6
f 349/106/187 351/103/6 350/107/6
s 0
f 352/107/6 354/103/6 353/100/6
s 1
f 355/108/188 357/106/18 356/107/6
f 358/108/189 360/107/6 359/109/22
f 361/102/190 363/110/6 362/100/6
s 0
f 364/107/6 366/100/6 365/110/6
s 1
f 367/109/191 369/107/6 368/110/6
f 370/111/192 372/110/6 371/102/193
f 373/109/194 375/110/6 374/112/27
f 376/111/195 378/112/196 377/110/6
f 379/113/197 381/114/31 380/115/197
f 382/113/198 384/115/199 383/116/34
f 385/117/200 387/113/201 386/116/34
f 388/118/34 390/116/34 389/115/202
f 391/118/34 393/115/203 392/119/204
f 394/120/205 396/118/34 395/119/41
f 397/120/206 399/121/207 398/118/34
f 400/121/208 402/122/34 401/118/34
s 0
f 403/122/34 405/116/34 404/118/34
s 1
f 406/121/209 408/123/43 407/122/44
f 409/124/210 411/122/44 410/123/48
f 412/124/211 414/125/50 413/122/44
f 415/117/212 417/116/34 416/126/34
s 0
f 418/122/34 420/126/34 419/116/34
s 1
f 421/125/213 423/126/34 422/122/34
f 424/127/214 426/117/36 425/126/34
f 427/125/215 429/128/216 428/126/34
f 430/127/217 432/126/34 431/128/57
f 433/129/218 435/130/219 434/131/220
f 436/129/221 438/131/222 437/132/223
f 439/133/224 441/129/225 440/132/63
f 442/134/226 444/132/227 443/131/83
f 445/133/228 447/132/63 446/135/63
f 448/136/229 450/133/230 449/135/227
f 451/136/231 453/135/227 452/137/232
f 454/138/233 456/137/74 455/135/227
f 457/134/234 459/139/227 458/132/227
s 0
f 460/139/63 462/135/63 461/132/63
s 1
f 463/140/235 465/139/227 464/134/83
f 466/140/236 468/141/237 467/139/227
f 469/138/238 471/135/63 470/142/63
s 0
f 472/139/63 474/142/63 473/135/63
s 1
f 475/141/239 477/142/63 476/139/63
f 478/143/240 480/138/74 479/142/63
f 481/141/241 483/144/79 482/142/63
f 484/143/242 486/142/63 485/144/86
f 487/145/87 489/146/88 488/147/89
f 490/145/90 492/147/91 491/148/92
f 493/149/93 495/145/94 494/148/92
f 496/150/95 498/148/92 497/147/96
f 499/149/243 501/148/92 500/151/92
f 502/152/98 504/149/94 503/151/92
f 505/152/99 507/151/92 506/153/100
f 508/154/101 510/153/102 509/151/92
f 511/154/244 513/151/92 512/155/92
s 0
f 514/155/92 516/151/92 515/148/92
s 1
f 517/156/104 519/154/105 518/155/92
f 520/156/106 522/155/92 521/157/107
f 523/150/108 525/158/92 524/148/92
s 0
f 526/155/92 528/148/92 527/158/92
s 1
f 529/157/109 531/155/92 530/158/92
f 532/159/110 534/158/92 533/150/96
f 535/157/111 537/158/92 536/160/112
f 538/159/113 540/160/114 539/158/92
f 541/161/245 543/162/116 542/163/246
f 544/161/247 546/163/248 545/164/123
f 547/165/249 549/161/250 548/164/123
f 550/166/251 552/164/123 551/163/252
f 553/165/253 555/164/123 554/167/123
f 556/168/254 558/165/255 557/167/256
f 559/168/257 561/167/123 560/169/258
f 562/170/259 564/169/252 563/167/123
f 565/166/260 567/171/123 566/164/123
s 0
f 568/171/123 570/167/123 569/164/123
s 1
f 571/172/261 573/171/123 572/166/132
f 574/172/262 576/173/137 575/171/123
f 577/170/263 579/167/256 578/174/256
s 0
f 580/171/123 582/174/123 581/167/123
s 1
f 583/173/264 585/174/123 584/171/123
f 586/175/265 588/170/266 587/174/123
f 589/173/267 591/176/268 590/174/123
f 592/175/269 594/174/256 593/176/270
f 595/81/145 597/82/146 596/177/271
f 598/81/148 600/177/272 599/178/150
f 601/179/273 603/81/152 602/178/150
f 604/86/150 606/178/150 605/177/274
f 607/86/150 609/177/275 608/180/160
f 610/179/276 612/178/150 611/181/150
s 0
f 613/86/150 615/181/150 614/178/150
s 1
f 616/89/277 618/179/152 617/181/150
f 619/89/278 621/181/150 620/182/160
f 622/183/161 624/182/279 623/181/150
f 625/183/163 627/181/150 626/184/150
s 0
f 628/86/150 630/184/150 629/181/150
s 1
f 631/185/280 633/183/162 632/184/150
f 634/185/281 636/184/150 635/186/282
f 637/95/283 639/186/168 638/184/150
f 640/95/284 642/184/150 641/86/150
f 643/95/285 645/86/150 644/180/286
f 646/95/287 648/180/288 647/187/289
f 649/188/290 651/189/291 650/190/292
f 652/188/293 654/190/294 653/191/92
f 655/192/295 657/188/107 656/191/92
f 658/193/296 660/191/92 659/190/96
f 661/192/297 663/191/92 662/194/92
f 664/195/298 666/192/299 665/194/92
f 667/195/300 669/194/92 668/196/100
f 670/197/301 672/196/105 671/194/92
f 673/197/302 675/194/92 674/198/92
s 0
f 676/198/92 678/194/92 677/191/92
s 1
f 679/199/303 681/197/105 680/198/92
f 682/199/304 684/198/92 683/200/299
f 685/193/305 687/201/306 686/191/306
s 0
f 688/198/92 690/191/92 689/201/92
s 1
f 691/200/307 693/198/92 692/201/92
f 694/202/308 696/201/306 695/193/96
f 697/200/309 699/201/92 698/203/112
f 700/202/310 702/203/311 701/201/306
f 703/204/312 705/205/59 704/206/312
f 706/204/313 708/206/314 707/207/150
f 709/208/315 711/204/316 710/207/150
f 712/209/150 714/207/150 713/206/317
f 715/209/150 717/206/318 716/210/166
f 718/211/319 720/209/150 719/210/320
f 721/211/321 723/212/322 722/209/150
f 724/212/323 726/213/150 725/209/150
s 0
f 727/213/150 729/207/150 728/209/150
s 1
f 730/212/324 732/214/322 731/213/150
f 733/215/325 735/213/150 734/214/279
f 736/215/326 738/216/327 737/213/150
f 739/208/328 741/207/150 740/217/150
s 0
f 742/213/150 744/217/150 743/207/150
s 1
f 745/216/329 747/217/150 746/213/150
f 748/218/330 750/208/316 749/217/150
f 751/216/331 753/219/332 752/217/150
f 754/218/333 756/217/150 755/219/158
f 757/220/334 759/221/335 758/222/336
f 760/220/337 762/222/338 761/223/63
f 763/224/339 765/220/68 764/223/63
f 766/225/340 768/223/63 767/222/79
f 769/224/341 771/223/63 770/226/63
f 772/227/342 774/224/74 773/226/63
f 775/227/343 777/226/63 776/228/86
f 778/229/344 780/228/345 779/226/63
f 781/225/346 783/230/63 782/223/63
s 0
f 784/230/63 786/226/63 785/223/63
s 1
f 787/231/347 789/230/63 788/225/237
f 790/231/348 792/232/72 791/230/63
f 793/229/349 795/226/63 794/233/63
s 0
f 796/230/63 798/233/63 797/226/63
s 1
f 799/232/350 801/233/63 800/230/63
f 802/234/351 804/229/352 803/233/63
f 805/232/353 807/235/354 806/233/63
f 808/234/355 810/233/63 809/235/68
f 811/236/356 813/237/357 812/238/358
f 814/236/359 816/238/360 815/239/34
f 817/240/361 819/236/362 818/239/34
f 820/241/363 822/239/34 821/238/43
f 823/240/364 825/239/365 824/242/365
f 826/243/366 828/240/41 827/242/365
f 829/243/367 831/242/365 830/244/368
f 832/245/369 834/244/370 833/242/34
f 835/245/371 837/242/34 836/246/34
s 0
f 838/246/34 840/242/34 839/239/34
s 1
f 841/247/372 843/245/373 842/246/44
f 844/247/374 846/246/34 845/248/55
f 847/241/375 849/249/34 848/239/34
s 0
f 850/246/34 852/239/34 851/249/34
s 1
f 853/248/376 855/246/34 854/249/34
f 856/250/377 858/249/378 857/241/43
f 859/248/379 861/249/34 860/251/41
f 862/250/380 864/251/204 863/249/34
f 865/252/381 867/253/382 866/254/383
f 868/252/384 870/254/385 869/255/123
f 871/256/386 873/252/387 872/255/133
f 874/257/388 876/255/123 875/254/144
f 877/256/389 879/255/123 878/258/123
f 880/259/390 882/256/391 881/258/120
f 883/259/392 885/258/123 884/260/268
f 886/261/393 888/260/250 887/258/123
f 889/257/394 891/262/395 890/255/395
s 0
f 892/262/123 894/258/123 893/255/123
s 1
f 895/263/396 897/262/395 896/257/397
f 898/263/398 900/264/399 899/262/256
f 901/261/400 903/258/123 902/265/123
s 0
f 904/262/123 906/265/123 905/258/123
s 1
f 907/264/401 909/265/402 908/262/402
f 910/266/403 912/261/404 911/265/123
f 913/264/405 915/267/252 914/265/123
f 916/266/406 918/265/123 917/267/258
f 919/268/407 921/269/116 920/270/408
f 922/268/409 924/270/410 923/271/6
f 925/272/411 927/268/29 926/271/6
f 928/273/6 930/271/6 929/270/412
f 931/273/6 933/270/413 932/274/414
f 934/272/415 936/271/6 935/275/6
s 0
f 937/273/6 939/275/6 938/271/6
s 1
f 940/276/416 942/272/417 941/275/6
f 943/276/418 945/275/6 944/277/10
f 946/278/419 948/277/420 947/275/6
f 949/278/421 951/275/6 950/279/6
s 0
f 952/273/6 954/279/6 953/275/6
s 1
f 955/280/422 957/278/423 956/279/6
f 958/280/424 960/279/6 959/281/196
f 961/282/425 963/281/180 962/279/6
f 964/282/426 966/279/6 965/273/6
f 967/282/427 969/273/6 968/274/428
f 970/282/429 972/274/430 971/283/431
f 973/284/432 975/285/335 974/286/433
f 976/284/434 978/286/435 977/287/306
f 979/288/436 981/284/299 980/287/92
f 982/289/437 984/287/306 983/286/102
f 985/288/438 987/287/92 986/290/92
f 988/291/439 990/288/299 989/290/92
f 991/291/440 993/290/92 992/292/100
f 994/293/441 996/292/105 995/290/92
f 997/293/442 999/290/92 998/294/92
s 0
f 1000/294/92 1002/290/92 1001/287/92
s 1
f 1003/295/443 1005/293/105 1004/294/92
f 1006/295/444 1008/294/92 1007/296/299
f 1009/289/445 1011/297/92 1010/287/92
s 0
f 1012/294/92 1014/287/92 1013/297/92
s 1
f 1015/296/446 1017/294/92 1016/297/92
f 1018/298/447 1020/297/92 1019/289/102
f 1021/296/448 1023/297/92 1022/299/299
f 1024/298/449 1026/299/450 1025/297/92
f 1027/300/451 1029/301/59 1028/302/451
f 1030/300/452 1032/302/453 1031/303/150
f 1033/304/454 1035/300/455 1034/303/150
f 1036/305/150 1038/303/150 1037/302/456
f 1039/305/150 1041/302/457 1040/306/152
f 1042/307/458 1044/305/150 1043/306/320
f 1045/307/459 1047/308/155 1046/305/150
f 1048/308/460 1050/309/150 1049/305/150
s 0
f 1051/309/150 1053/303/150 1052/305/150
s 1
f 1054/308/461 1056/310/322 1055/309/150
f 1057/311/462 1059/309/150 1058/310/279
f 1060/311/463 1062/312/320 1061/309/150
f 1063/304/464 1065/303/150 1064/313/150
s 0
f 1066/309/150 1068/313/150 1067/303/150
s 1
f 1069/312/465 1071/313/150 1070/309/150
f 1072/314/466 1074/304/467 1073/313/150
f 1075/312/468 1077/315/332 1076/313/150
f 1078/314/469 1080/313/150 1079/315/158
f 1081/316/222 1083/317/470 1082/318/471
f 1084/316/220 1086/318/472 1085/319/63
f 1087/320/473 1089/316/74 1088/319/227
f 1090/321/474 1092/319/63 1091/318/79
f 1093/320/475 1095/319/63 1094/322/63
f 1096/323/476 1098/320/74 1097/322/63
f 1099/323/477 1101/322/63 1100/324/478
f 1102/325/479 1104/324/480 1103/322/63
f 1105/321/481 1107/326/63 1106/319/63
s 0
f 1108/326/63 1110/322/63 1109/319/63
s 1
f 1111/327/482 1113/326/63 1112/321/237
f 1114/327/483 1116/328/72 1115/326/63
f 1117/325/484 1119/322/485 1118/329/485
s 0
f 1120/326/63 1122/329/63 1121/322/63
s 1
f 1123/328/486 1125/329/63 1124/326/63
f 1126/330/487 1128/325/237 1127/329/485
f 1129/328/488 1131/331/354 1130/329/63
f 1132/330/240 1134/329/485 1133/331/68
f 1135/236/489 1137/237/490 1136/332/491
f 1138/236/492 1140/332/493 1139/333/34
f 1141/334/494 1143/236/41 1142/333/34
f 1144/335/495 1146/333/34 1145/332/43
f 1147/334/496 1149/333/34 1148/336/34
f 1150/243/497 1152/334/498 1151/336/34
f 1153/243/499 1155/336/34 1154/337/36
f 1156/338/500 1158/337/207 1157/336/34
f 1159/338/501 1161/336/34 1160/339/34
s 0
f 1162/339/34 1164/336/34 1163/333/34
s 1
f 1165/340/502 1167/338/503 1166/339/378
f 1168/340/504 1170/339/34 1169/341/55
f 1171/335/505 1173/342/34 1172/333/34
s 0
f 1174/339/34 1176/333/34 1175/342/34
s 1
f 1177/341/506 1179/339/34 1178/342/34
f 1180/343/507 1182/342/34 1181/335/43
f 1183/341/508 1185/342/34 1184/344/41
f 1186/343/509 1188/344/204 1187/342/34
f 1189/345/247 1191/346/510 1190/347/511
f 1192/345/512 1194/347/246 1193/348/123
f 1195/349/513 1197/345/514 1196/348/123
f 1198/350/515 1200/348/123 1199/347/144
f 1201/349/516 1203/348/123 1202/351/123
f 1204/352/517 1206/349/514 1205/351/123
f 1207/352/518 1209/351/123 1208/353/268
f 1210/354/519 1212/353/144 1211/351/123
f 1213/350/520 1215/355/395 1214/348/395
s 0
f 1216/355/123 1218/351/123 1217/348/123
s 1
f 1219/356/521 1221/355/395 1220/350/144
f 1222/356/522 1224/357/523 1223/355/123
f 1225/354/524 1227/351/123 1226/358/123
s 0
f 1228/355/123 1230/358/123 1229/351/123
s 1
f 1231/357/525 1233/358/123 1232/355/123
f 1234/359/526 1236/354/404 1235/358/123
f 1237/357/527 1239/360/252 1238/358/123
f 1240/359/528 1242/358/123 1241/360/258
f 1243/268/529 1245/269/116 1244/361/530
f 1246/268/531 1248/361/532 1247/362/6
f 1249/363/533 1251/268/29 1250/362/6
f 1252/364/6 1254/362/6 1253/361/534
f 1255/364/535 1257/361/536 1256/365/537
f 1258/363/538 1260/362/6 1259/366/6
s 0
f 1261/364/6 1263/366/6 1262/362/6
s 1
f 1264/276/539 1266/363/29 1265/366/6
f 1267/276/540 1269/366/14 1268/367/10
f 1270/368/541 1272/367/542 1271/366/14
f 1273/368/543 1275/366/6 1274/369/6
s 0
f 1276/364/6 1278/369/6 1277/366/6
s 1
f 1279/280/544 1281/368/545 1280/369/6
f 1282/280/546 1284/369/6 1283/281/196
f 1285/370/547 1287/281/27 1286/369/6
f 1288/370/548 1290/369/6 1289/364/6
f 1291/370/549 1293/364/14 1292/365/550
f 1294/370/551 1296/365/551 1295/371/552
f 1297/372/553 1299/373/554 1298/373/554
s 0
f 1300/373/555 1302/372/555 1301/372/555
s 1
f 1303/373/556 1305/374/557 1304/372/558
f 1306/373/559 1308/375/560 1307/374/561
f 1309/374/562 1311/375/563 1310/376/564
f 1312/376/565 1314/375/566 1313/377/567
f 1315/376/568 1317/377/569 1316/378/570
f 1318/376/571 1320/378/572 1319/379/573
f 1321/380/574 1323/381/575 1322/382/575
f 1324/380/576 1326/382/575 1325/383/577
f 1327/384/578 1329/385/578 1328/386/579
f 1330/384/580 1332/386/581 1331/387/581
s 0
f 1333/388/582 1335/389/582 1334/390/582
f 1336/388/582 1338/390/582 1337/391/582
s 1
f 1339/392/583 1341/393/583 1340/394/584
f 1342/392/585 1344/394/586 1343/395/587
f 1345/374/588 1347/373/588 1346/372/589
s 0
f 1348/375/588 1350/373/588 1349/374/588
f 1351/375/590 1353/374/590 1352/376/590
f 1354/375/588 1356/376/588 1355/377/588
f 1357/377/588 1359/376/588 1358/378/588
s 1
f 1360/378/588 1362/376/588 1361/379/591
f 1363/381/592 1365/380/593 1364/382/592
f 1366/382/592 1368/380/594 1367/383/595
s 0
f 1369/385/596 1371/384/596 1370/386/596
f 1372/386/596 1374/384/596 1373/387/596
f 1375/389/597 1377/388/597 1376/390/597
f 1378/390/597 1380/388/597 1379/391/597
f 1381/393/598 1383/392/598 1382/394/598
f 1384/394/598 1386/392/598 1385/395/598
f 1387/373/34 1389/375/34 1388/375/34
f 1390/375/34 1392/373/34 1391/373/34
f 1393/375/599 1395/377/599 1394/377/599
f 1396/377/599 1398/375/599 1397/375/599
f 1399/377/6 1401/378/6 1400/378/6
f 1402/378/6 1404/377/6 1403/377/6
s 1
f 1405/378/600 1407/379/601 1406/379/602
f 1408/379/603 1410/378/604 1409/378/592
s 0
f 1411/381/588 1413/382/588 1412/382/588
f 1414/382/588 1416/381/588 1415/381/588
s 1
f 1417/383/605 1419/380/555 1418/380/555
f 1420/380/606 1422/383/607 1421/383/608
s 0
f 1423/385/609 1425/386/609 1424/386/609
f 1426/386/609 1428/385/609 1427/385/609
f 1429/389/588 1431/390/588 1430/390/588
f 1432/390/590 1434/389/590 1433/389/590
f 1435/393/588 1437/394/588 1436/394/588
f 1438/394/609 1440/393/609 1439/393/609
