# Blender 5.2.0 LTS
# www.blender.org
o demo5_background.009
v -8.411774 -3.464724 -0.089233
v 4.970466 6.051726 -0.025010
v -8.411771 6.051733 -0.025008
v -8.411774 -3.464724 -0.089233
v 4.970462 -3.464732 -0.089236
v 4.970466 6.051726 -0.025010
v 7.313267 -3.464733 -0.089236
v 4.970466 6.051726 -0.025010
v 4.970462 -3.464732 -0.089236
v 7.313267 -3.464733 -0.089236
v 4.970462 -3.464732 -0.089236
v 4.970461 -6.051810 -0.106695
v 7.313267 -3.464733 -0.089236
v 4.970461 -6.051810 -0.106695
v 7.313266 -6.051811 -0.106696
v 7.313267 -3.464733 -0.089236
v 7.313271 6.051725 -0.025011
v 4.970466 6.051726 -0.025010
v 8.411790 -3.464732 -0.089237
v 7.313271 6.051725 -0.025011
v 7.313267 -3.464733 -0.089236
v 8.411790 -3.464732 -0.089237
v 8.411793 6.051726 -0.025011
v 7.313271 6.051725 -0.025011
vn -0.0000 -0.0067 1.0000
vt 1.000000 0.786255
vt 0.204554 0.000000
vt 1.000000 0.000000
vt 0.204554 0.786255
vt 0.065297 0.786255
vt 0.204554 1.000000
vt 0.065297 1.000000
vt 0.065297 0.000000
vt 0.000000 0.786255
vt 0.000000 0.000000
s 0
f 1/1/1 2/2/1 3/3/1
f 4/1/1 5/4/1 6/2/1
f 7/5/1 8/2/1 9/4/1
f 10/5/1 11/4/1 12/6/1
f 13/5/1 14/6/1 15/7/1
f 16/5/1 17/8/1 18/2/1
f 19/9/1 20/8/1 21/5/1
f 22/9/1 23/10/1 24/8/1
