# Blender 5.2.0 LTS
# www.blender.org
o demo5_background.011
v 8.106519 5.925038 4.069919
v 8.106515 -3.549054 -0.025585
v 8.106518 5.968852 -0.025585
v 8.106519 5.925038 4.069919
v 8.106516 -3.549054 4.069918
v 8.106515 -3.549054 -0.025585
v 8.114777 5.925038 4.069919
v 8.114776 5.968852 -0.025585
v 8.114774 -3.549054 -0.025585
v 8.114777 5.925038 4.069919
v 8.114774 -3.549054 -0.025585
v 8.114775 -3.549054 4.069918
v 8.106518 5.968852 -0.025585
v 8.114774 -3.549054 -0.025585
v 8.114776 5.968852 -0.025585
v 8.106518 5.968852 -0.025585
v 8.106515 -3.549054 -0.025585
v 8.114774 -3.549054 -0.025585
v 8.106519 5.925038 4.069919
v 8.114776 5.968852 -0.025585
v 8.114777 5.925038 4.069919
v 8.106519 5.925038 4.069919
v 8.106518 5.968852 -0.025585
v 8.114776 5.968852 -0.025585
v 8.106516 -3.549054 4.069918
v 8.114777 5.925038 4.069919
v 8.114775 -3.549054 4.069918
v 8.106516 -3.549054 4.069918
v 8.106519 5.925038 4.069919
v 8.114777 5.925038 4.069919
v 8.106515 -3.549054 -0.025585
v 8.114775 -3.549054 4.069918
v 8.114774 -3.549054 -0.025585
v 8.106515 -3.549054 -0.025585
v 8.106516 -3.549054 4.069918
v 8.114775 -3.549054 4.069918
vn -1.0000 -0.0000 -0.0000
vn 1.0000 -0.0000 -0.0000
vn -0.0000 -0.0000 -1.0000
vn -0.0000 0.9999 0.0107
vn -0.0000 -0.0000 1.0000
vn -0.0000 -1.0000 -0.0000
vt -0.408476 -0.056434
vt -0.416918 1.056434
vt 1.416918 1.056434
vt 1.416918 -0.056434
s 0
f 1/1/1 3/2/1 2/3/1
f 4/1/1 6/3/1 5/4/1
f 7/1/2 9/3/2 8/2/2
f 10/1/2 12/4/2 11/3/2
f 13/2/3 15/2/3 14/3/3
f 16/2/3 18/3/3 17/3/3
f 19/1/4 21/1/4 20/2/4
f 22/1/4 24/2/4 23/2/4
f 25/4/5 27/4/5 26/1/5
f 28/4/5 30/1/5 29/1/5
f 31/3/6 33/3/6 32/4/6
f 34/3/6 36/4/6 35/4/6
