# Blender 5.2.0 LTS
# www.blender.org
o demo5_background.012
v -6.543044 -5.366528 2.653674
v -5.024163 -5.366530 -0.025583
v -5.009075 -5.366530 2.648915
v -6.543044 -5.366528 2.653674
v -6.539997 -5.366529 -0.025583
v -5.024163 -5.366530 -0.025583
v -6.543044 -5.387886 2.653674
v -5.009075 -5.387888 2.648914
v -5.024163 -5.387887 -0.025585
v -6.543044 -5.387886 2.653674
v -5.024163 -5.387887 -0.025585
v -6.539997 -5.387887 -0.025585
v -5.009075 -5.366530 2.648915
v -5.024163 -5.387887 -0.025585
v -5.009075 -5.387888 2.648914
v -5.009075 -5.366530 2.648915
v -5.024163 -5.366530 -0.025583
v -5.024163 -5.387887 -0.025585
v -6.543044 -5.366528 2.653674
v -5.009075 -5.387888 2.648914
v -6.543044 -5.387886 2.653674
v -6.543044 -5.366528 2.653674
v -5.009075 -5.366530 2.648915
v -5.009075 -5.387888 2.648914
v -6.539997 -5.366529 -0.025583
v -6.543044 -5.387886 2.653674
v -6.539997 -5.387887 -0.025585
v -6.539997 -5.366529 -0.025583
v -6.543044 -5.366528 2.653674
v -6.543044 -5.387886 2.653674
v -5.024163 -5.366530 -0.025583
v -6.539997 -5.387887 -0.025585
v -5.024163 -5.387887 -0.025585
v -5.024163 -5.366530 -0.025583
v -6.539997 -5.366529 -0.025583
v -6.539997 -5.387887 -0.025585
vn -0.0000 1.0000 -0.0000
vn -0.0000 -1.0000 -0.0000
vn 1.0000 -0.0000 -0.0056
vn 0.0031 -0.0000 1.0000
vn -1.0000 -0.0000 -0.0011
vn -0.0000 0.0001 -1.0000
vt 0.546727 0.996055
vt 0.999823 0.994737
vt 0.995366 0.254098
vt 0.547628 0.254098
s 0
f 1/1/1 3/2/1 2/3/1
f 4/1/1 6/3/1 5/4/1
f 7/1/2 9/3/2 8/2/2
f 10/1/2 12/4/2 11/3/2
f 13/2/3 15/2/3 14/3/3
f 16/2/3 18/3/3 17/3/3
f 19/1/4 21/1/4 20/2/4
f 22/1/4 24/2/4 23/2/4
f 25/4/5 27/4/5 26/1/5
f 28/4/5 30/1/5 29/1/5
f 31/3/6 33/3/6 32/4/6
f 34/3/6 36/4/6 35/4/6
