# Blender 5.2.0 LTS
# www.blender.org
o demo5_background.013
v -1.776095 6.307537 1.702599
v -0.191446 6.307536 3.596119
v -1.776095 6.307537 3.596119
v -1.776095 6.307537 1.702599
v -0.191446 6.307536 1.702599
v -0.191446 6.307536 3.596119
v -1.776095 6.307537 0.478541
v -0.191446 6.307536 1.573972
v -1.776095 6.307537 1.573972
v -1.776095 6.307537 0.478541
v -0.191446 6.307536 0.478541
v -0.191446 6.307536 1.573972
v -3.576343 6.307538 0.478542
v -1.991694 6.307537 1.573972
v -3.576343 6.307538 1.573973
v -3.576343 6.307538 0.478542
v -1.991694 6.307537 0.478542
v -1.991694 6.307537 1.573972
v -3.576343 6.307538 1.702600
v -1.991694 6.307537 3.596119
v -3.576343 6.307538 3.596120
v -3.576343 6.307538 1.702600
v -1.991694 6.307537 1.702599
v -1.991694 6.307537 3.596119
v -0.191446 6.333529 3.596120
v -1.776095 6.333529 1.702599
v -1.776095 6.333529 3.596120
v -0.191446 6.333529 3.596120
v -0.191446 6.333528 1.702599
v -1.776095 6.333529 1.702599
v -0.191446 6.333528 1.573973
v -1.776095 6.333529 0.478541
v -1.776095 6.333529 1.573974
v -0.191446 6.333528 1.573973
v -0.191446 6.333528 0.478541
v -1.776095 6.333529 0.478541
v -1.991694 6.333529 1.573974
v -3.576343 6.333529 0.478542
v -3.576343 6.333529 1.573974
v -1.991694 6.333529 1.573974
v -1.991694 6.333529 0.478542
v -3.576343 6.333529 0.478542
v -1.991694 6.333529 3.596118
v -3.576343 6.333530 1.702600
v -3.576343 6.333530 3.596119
v -1.991694 6.333529 3.596118
v -1.991694 6.333529 1.702599
v -3.576343 6.333530 1.702600
v -1.776095 6.307537 1.702599
v -1.776095 6.333529 3.596120
v -1.776095 6.333529 1.702599
v -1.776095 6.307537 1.702599
v -1.776095 6.307537 3.596119
v -1.776095 6.333529 3.596120
v -1.776095 6.307537 3.596119
v -0.191446 6.333529 3.596120
v -1.776095 6.333529 3.596120
v -1.776095 6.307537 3.596119
v -0.191446 6.307536 3.596119
v -0.191446 6.333529 3.596120
v -0.191446 6.307536 3.596119
v -0.191446 6.333528 1.702599
v -0.191446 6.333529 3.596120
v -0.191446 6.307536 3.596119
v -0.191446 6.307536 1.702599
v -0.191446 6.333528 1.702599
v -0.191446 6.307536 1.702599
v -1.776095 6.333529 1.702599
v -0.191446 6.333528 1.702599
v -0.191446 6.307536 1.702599
v -1.776095 6.307537 1.702599
v -1.776095 6.333529 1.702599
v -0.191446 6.307536 0.478541
v -1.776095 6.333529 0.478541
v -0.191446 6.333528 0.478541
v -0.191446 6.307536 0.478541
v -1.776095 6.307537 0.478541
v -1.776095 6.333529 0.478541
v -0.191446 6.307536 1.573972
v -0.191446 6.333528 0.478541
v -0.191446 6.333528 1.573973
v -0.191446 6.307536 1.573972
v -0.191446 6.307536 0.478541
v -0.191446 6.333528 0.478541
v -1.776095 6.307537 1.573972
v -0.191446 6.333528 1.573973
v -1.776095 6.333529 1.573974
v -1.776095 6.307537 1.573972
v -0.191446 6.307536 1.573972
v -0.191446 6.333528 1.573973
v -1.776095 6.307537 0.478541
v -1.776095 6.333529 1.573974
v -1.776095 6.333529 0.478541
v -1.776095 6.307537 0.478541
v -1.776095 6.307537 1.573972
v -1.776095 6.333529 1.573974
v -1.991694 6.307537 0.478542
v -3.576343 6.333529 0.478542
v -1.991694 6.333529 0.478542
v -1.991694 6.307537 0.478542
v -3.576343 6.307538 0.478542
v -3.576343 6.333529 0.478542
v -1.991694 6.307537 1.573972
v -1.991694 6.333529 0.478542
v -1.991694 6.333529 1.573974
v -1.991694 6.307537 1.573972
v -1.991694 6.307537 0.478542
v -1.991694 6.333529 0.478542
v -3.576343 6.307538 1.573973
v -1.991694 6.333529 1.573974
v -3.576343 6.333529 1.573974
v -3.576343 6.307538 1.573973
v -1.991694 6.307537 1.573972
v -1.991694 6.333529 1.573974
v -3.576343 6.307538 0.478542
v -3.576343 6.333529 1.573974
v -3.576343 6.333529 0.478542
v -3.576343 6.307538 0.478542
v -3.576343 6.307538 1.573973
v -3.576343 6.333529 1.573974
v -3.576343 6.307538 1.702600
v -3.576343 6.333530 3.596119
v -3.576343 6.333530 1.702600
v -3.576343 6.307538 1.702600
v -3.576343 6.307538 3.596120
v -3.576343 6.333530 3.596119
v -3.576343 6.307538 3.596120
v -1.991694 6.333529 3.596118
v -3.576343 6.333530 3.596119
v -3.576343 6.307538 3.596120
v -1.991694 6.307537 3.596119
v -1.991694 6.333529 3.596118
v -1.991694 6.307537 3.596119
v -1.991694 6.333529 1.702599
v -1.991694 6.333529 3.596118
v -1.991694 6.307537 3.596119
v -1.991694 6.307537 1.702599
v -1.991694 6.333529 1.702599
v -1.991694 6.307537 1.702599
v -3.576343 6.333530 1.702600
v -1.991694 6.333529 1.702599
v -1.991694 6.307537 1.702599
v -3.576343 6.307538 1.702600
v -3.576343 6.333530 1.702600
v 2.099729 6.307535 1.702598
v 3.684378 6.307535 3.596118
v 2.099730 6.307536 3.596118
v 2.099729 6.307535 1.702598
v 3.684378 6.307535 1.702598
v 3.684378 6.307535 3.596118
v 2.099729 6.307535 0.478541
v 3.684378 6.307534 1.573971
v 2.099730 6.307535 1.573972
v 2.099729 6.307535 0.478541
v 3.684378 6.307535 0.478540
v 3.684378 6.307534 1.573971
v 0.299481 6.307536 0.478541
v 1.884131 6.307535 1.573972
v 0.299481 6.307536 1.573972
v 0.299481 6.307536 0.478541
v 1.884130 6.307535 0.478541
v 1.884131 6.307535 1.573972
v 0.299481 6.307536 1.702599
v 1.884131 6.307536 3.596118
v 0.299482 6.307536 3.596119
v 0.299481 6.307536 1.702599
v 1.884131 6.307535 1.702598
v 1.884131 6.307536 3.596118
v 3.684378 6.333528 3.596119
v 2.099729 6.333528 1.702598
v 2.099730 6.333529 3.596119
v 3.684378 6.333528 3.596119
v 3.684378 6.333528 1.702598
v 2.099729 6.333528 1.702598
v 3.684378 6.333527 1.573973
v 2.099729 6.333527 0.478541
v 2.099730 6.333527 1.573973
v 3.684378 6.333527 1.573973
v 3.684378 6.333527 0.478540
v 2.099729 6.333527 0.478541
v 1.884131 6.333527 1.573973
v 0.299481 6.333528 0.478541
v 0.299481 6.333528 1.573973
v 1.884131 6.333527 1.573973
v 1.884131 6.333527 0.478541
v 0.299481 6.333528 0.478541
v 1.884131 6.333529 3.596117
v 0.299481 6.333529 1.702599
v 0.299482 6.333529 3.596118
v 1.884131 6.333529 3.596117
v 1.884131 6.333528 1.702598
v 0.299481 6.333529 1.702599
v 2.099729 6.307535 1.702598
v 2.099730 6.333529 3.596119
v 2.099729 6.333528 1.702598
v 2.099729 6.307535 1.702598
v 2.099730 6.307536 3.596118
v 2.099730 6.333529 3.596119
v 2.099730 6.307536 3.596118
v 3.684378 6.333528 3.596119
v 2.099730 6.333529 3.596119
v 2.099730 6.307536 3.596118
v 3.684378 6.307535 3.596118
v 3.684378 6.333528 3.596119
v 3.684378 6.307535 3.596118
v 3.684378 6.333528 1.702598
v 3.684378 6.333528 3.596119
v 3.684378 6.307535 3.596118
v 3.684378 6.307535 1.702598
v 3.684378 6.333528 1.702598
v 3.684378 6.307535 1.702598
v 2.099729 6.333528 1.702598
v 3.684378 6.333528 1.702598
v 3.684378 6.307535 1.702598
v 2.099729 6.307535 1.702598
v 2.099729 6.333528 1.702598
v 3.684378 6.307535 0.478540
v 2.099729 6.333527 0.478541
v 3.684378 6.333527 0.478540
v 3.684378 6.307535 0.478540
v 2.099729 6.307535 0.478541
v 2.099729 6.333527 0.478541
v 3.684378 6.307534 1.573971
v 3.684378 6.333527 0.478540
v 3.684378 6.333527 1.573973
v 3.684378 6.307534 1.573971
v 3.684378 6.307535 0.478540
v 3.684378 6.333527 0.478540
v 2.099730 6.307535 1.573972
v 3.684378 6.333527 1.573973
v 2.099730 6.333527 1.573973
v 2.099730 6.307535 1.573972
v 3.684378 6.307534 1.573971
v 3.684378 6.333527 1.573973
v 2.099729 6.307535 0.478541
v 2.099730 6.333527 1.573973
v 2.099729 6.333527 0.478541
v 2.099729 6.307535 0.478541
v 2.099730 6.307535 1.573972
v 2.099730 6.333527 1.573973
v 1.884130 6.307535 0.478541
v 0.299481 6.333528 0.478541
v 1.884131 6.333527 0.478541
v 1.884130 6.307535 0.478541
v 0.299481 6.307536 0.478541
v 0.299481 6.333528 0.478541
v 1.884131 6.307535 1.573972
v 1.884131 6.333527 0.478541
v 1.884131 6.333527 1.573973
v 1.884131 6.307535 1.573972
v 1.884130 6.307535 0.478541
v 1.884131 6.333527 0.478541
v 0.299481 6.307536 1.573972
v 1.884131 6.333527 1.573973
v 0.299481 6.333528 1.573973
v 0.299481 6.307536 1.573972
v 1.884131 6.307535 1.573972
v 1.884131 6.333527 1.573973
v 0.299481 6.307536 0.478541
v 0.299481 6.333528 1.573973
v 0.299481 6.333528 0.478541
v 0.299481 6.307536 0.478541
v 0.299481 6.307536 1.573972
v 0.299481 6.333528 1.573973
v 0.299481 6.307536 1.702599
v 0.299482 6.333529 3.596118
v 0.299481 6.333529 1.702599
v 0.299481 6.307536 1.702599
v 0.299482 6.307536 3.596119
v 0.299482 6.333529 3.596118
v 0.299482 6.307536 3.596119
v 1.884131 6.333529 3.596117
v 0.299482 6.333529 3.596118
v 0.299482 6.307536 3.596119
v 1.884131 6.307536 3.596118
v 1.884131 6.333529 3.596117
v 1.884131 6.307536 3.596118
v 1.884131 6.333528 1.702598
v 1.884131 6.333529 3.596117
v 1.884131 6.307536 3.596118
v 1.884131 6.307535 1.702598
v 1.884131 6.333528 1.702598
v 1.884131 6.307535 1.702598
v 0.299481 6.333529 1.702599
v 1.884131 6.333528 1.702598
v 1.884131 6.307535 1.702598
v 0.299481 6.307536 1.702599
v 0.299481 6.333529 1.702599
v 5.993847 6.307534 1.702598
v 7.578496 6.307533 3.596117
v 5.993847 6.307534 3.596118
v 5.993847 6.307534 1.702598
v 7.578496 6.307533 1.702597
v 7.578496 6.307533 3.596117
v 5.993848 6.307533 0.478540
v 7.578496 6.307532 1.573970
v 5.993848 6.307533 1.573971
v 5.993848 6.307533 0.478540
v 7.578496 6.307533 0.478540
v 7.578496 6.307532 1.573970
v 4.193600 6.307534 0.478540
v 5.778248 6.307533 1.573971
v 4.193600 6.307534 1.573971
v 4.193600 6.307534 0.478540
v 5.778248 6.307534 0.478540
v 5.778248 6.307533 1.573971
v 4.193600 6.307534 1.702598
v 5.778249 6.307534 3.596118
v 4.193600 6.307535 3.596118
v 4.193600 6.307534 1.702598
v 5.778248 6.307534 1.702598
v 5.778249 6.307534 3.596118
v 7.578496 6.333526 3.596118
v 5.993847 6.333527 1.702598
v 5.993847 6.333527 3.596118
v 7.578496 6.333526 3.596118
v 7.578496 6.333526 1.702597
v 5.993847 6.333527 1.702598
v 7.578496 6.333525 1.573972
v 5.993848 6.333525 0.478540
v 5.993848 6.333525 1.573972
v 7.578496 6.333525 1.573972
v 7.578496 6.333525 0.478540
v 5.993848 6.333525 0.478540
v 5.778248 6.333526 1.573972
v 4.193600 6.333526 0.478540
v 4.193600 6.333526 1.573973
v 5.778248 6.333526 1.573972
v 5.778248 6.333526 0.478540
v 4.193600 6.333526 0.478540
v 5.778249 6.333527 3.596117
v 4.193600 6.333527 1.702598
v 4.193600 6.333528 3.596117
v 5.778249 6.333527 3.596117
v 5.778248 6.333527 1.702598
v 4.193600 6.333527 1.702598
v 5.993847 6.307534 1.702598
v 5.993847 6.333527 3.596118
v 5.993847 6.333527 1.702598
v 5.993847 6.307534 1.702598
v 5.993847 6.307534 3.596118
v 5.993847 6.333527 3.596118
v 5.993847 6.307534 3.596118
v 7.578496 6.333526 3.596118
v 5.993847 6.333527 3.596118
v 5.993847 6.307534 3.596118
v 7.578496 6.307533 3.596117
v 7.578496 6.333526 3.596118
v 7.578496 6.307533 3.596117
v 7.578496 6.333526 1.702597
v 7.578496 6.333526 3.596118
v 7.578496 6.307533 3.596117
v 7.578496 6.307533 1.702597
v 7.578496 6.333526 1.702597
v 7.578496 6.307533 1.702597
v 5.993847 6.333527 1.702598
v 7.578496 6.333526 1.702597
v 7.578496 6.307533 1.702597
v 5.993847 6.307534 1.702598
v 5.993847 6.333527 1.702598
v 7.578496 6.307533 0.478540
v 5.993848 6.333525 0.478540
v 7.578496 6.333525 0.478540
v 7.578496 6.307533 0.478540
v 5.993848 6.307533 0.478540
v 5.993848 6.333525 0.478540
v 7.578496 6.307532 1.573970
v 7.578496 6.333525 0.478540
v 7.578496 6.333525 1.573972
v 7.578496 6.307532 1.573970
v 7.578496 6.307533 0.478540
v 7.578496 6.333525 0.478540
v 5.993848 6.307533 1.573971
v 7.578496 6.333525 1.573972
v 5.993848 6.333525 1.573972
v 5.993848 6.307533 1.573971
v 7.578496 6.307532 1.573970
v 7.578496 6.333525 1.573972
v 5.993848 6.307533 0.478540
v 5.993848 6.333525 1.573972
v 5.993848 6.333525 0.478540
v 5.993848 6.307533 0.478540
v 5.993848 6.307533 1.573971
v 5.993848 6.333525 1.573972
v 5.778248 6.307534 0.478540
v 4.193600 6.333526 0.478540
v 5.778248 6.333526 0.478540
v 5.778248 6.307534 0.478540
v 4.193600 6.307534 0.478540
v 4.193600 6.333526 0.478540
v 5.778248 6.307533 1.573971
v 5.778248 6.333526 0.478540
v 5.778248 6.333526 1.573972
v 5.778248 6.307533 1.573971
v 5.778248 6.307534 0.478540
v 5.778248 6.333526 0.478540
v 4.193600 6.307534 1.573971
v 5.778248 6.333526 1.573972
v 4.193600 6.333526 1.573973
v 4.193600 6.307534 1.573971
v 5.778248 6.307533 1.573971
v 5.778248 6.333526 1.573972
v 4.193600 6.307534 0.478540
v 4.193600 6.333526 1.573973
v 4.193600 6.333526 0.478540
v 4.193600 6.307534 0.478540
v 4.193600 6.307534 1.573971
v 4.193600 6.333526 1.573973
v 4.193600 6.307534 1.702598
v 4.193600 6.333528 3.596117
v 4.193600 6.333527 1.702598
v 4.193600 6.307534 1.702598
v 4.193600 6.307535 3.596118
v 4.193600 6.333528 3.596117
v 4.193600 6.307535 3.596118
v 5.778249 6.333527 3.596117
v 4.193600 6.333528 3.596117
v 4.193600 6.307535 3.596118
v 5.778249 6.307534 3.596118
v 5.778249 6.333527 3.596117
v 5.778249 6.307534 3.596118
v 5.778248 6.333527 1.702598
v 5.778249 6.333527 3.596117
v 5.778249 6.307534 3.596118
v 5.778248 6.307534 1.702598
v 5.778248 6.333527 1.702598
v 5.778248 6.307534 1.702598
v 4.193600 6.333527 1.702598
v 5.778248 6.333527 1.702598
v 5.778248 6.307534 1.702598
v 4.193600 6.307534 1.702598
v 4.193600 6.333527 1.702598
v -5.697744 6.307539 1.702601
v -4.113095 6.307539 3.596120
v -5.697744 6.307539 3.596121
v -5.697744 6.307539 1.702601
v -4.113095 6.307538 1.702601
v -4.113095 6.307539 3.596120
v -5.697744 6.307539 0.478544
v -4.113096 6.307538 1.573974
v -5.697744 6.307539 1.573975
v -5.697744 6.307539 0.478544
v -4.113096 6.307538 0.478543
v -4.113096 6.307538 1.573974
v -7.497992 6.307539 0.478544
v -5.913343 6.307539 1.573975
v -7.497992 6.307539 1.573975
v -7.497992 6.307539 0.478544
v -5.913343 6.307539 0.478544
v -5.913343 6.307539 1.573975
v -7.497992 6.307539 1.702602
v -5.913343 6.307539 3.596121
v -7.497992 6.307540 3.596121
v -7.497992 6.307539 1.702602
v -5.913343 6.307539 1.702601
v -5.913343 6.307539 3.596121
v -4.113095 6.333531 3.596121
v -5.697744 6.333532 1.702600
v -5.697744 6.333532 3.596122
v -4.113095 6.333531 3.596121
v -4.113095 6.333531 1.702600
v -5.697744 6.333532 1.702600
v -4.113096 6.333530 1.573974
v -5.697744 6.333531 0.478544
v -5.697744 6.333531 1.573975
v -4.113096 6.333530 1.573974
v -4.113096 6.333530 0.478543
v -5.697744 6.333531 0.478544
v -5.913343 6.333531 1.573975
v -7.497992 6.333531 0.478544
v -7.497992 6.333531 1.573975
v -5.913343 6.333531 1.573975
v -5.913343 6.333531 0.478544
v -7.497992 6.333531 0.478544
v -5.913343 6.333532 3.596121
v -7.497992 6.333532 1.702600
v -7.497992 6.333533 3.596121
v -5.913343 6.333532 3.596121
v -5.913343 6.333532 1.702600
v -7.497992 6.333532 1.702600
v -5.697744 6.307539 1.702601
v -5.697744 6.333532 3.596122
v -5.697744 6.333532 1.702600
v -5.697744 6.307539 1.702601
v -5.697744 6.307539 3.596121
v -5.697744 6.333532 3.596122
v -5.697744 6.307539 3.596121
v -4.113095 6.333531 3.596121
v -5.697744 6.333532 3.596122
v -5.697744 6.307539 3.596121
v -4.113095 6.307539 3.596120
v -4.113095 6.333531 3.596121
v -4.113095 6.307539 3.596120
v -4.113095 6.333531 1.702600
v -4.113095 6.333531 3.596121
v -4.113095 6.307539 3.596120
v -4.113095 6.307538 1.702601
v -4.113095 6.333531 1.702600
v -4.113095 6.307538 1.702601
v -5.697744 6.333532 1.702600
v -4.113095 6.333531 1.702600
v -4.113095 6.307538 1.702601
v -5.697744 6.307539 1.702601
v -5.697744 6.333532 1.702600
v -4.113096 6.307538 0.478543
v -5.697744 6.333531 0.478544
v -4.113096 6.333530 0.478543
v -4.113096 6.307538 0.478543
v -5.697744 6.307539 0.478544
v -5.697744 6.333531 0.478544
v -4.113096 6.307538 1.573974
v -4.113096 6.333530 0.478543
v -4.113096 6.333530 1.573974
v -4.113096 6.307538 1.573974
v -4.113096 6.307538 0.478543
v -4.113096 6.333530 0.478543
v -5.697744 6.307539 1.573975
v -4.113096 6.333530 1.573974
v -5.697744 6.333531 1.573975
v -5.697744 6.307539 1.573975
v -4.113096 6.307538 1.573974
v -4.113096 6.333530 1.573974
v -5.697744 6.307539 0.478544
v -5.697744 6.333531 1.573975
v -5.697744 6.333531 0.478544
v -5.697744 6.307539 0.478544
v -5.697744 6.307539 1.573975
v -5.697744 6.333531 1.573975
v -5.913343 6.307539 0.478544
v -7.497992 6.333531 0.478544
v -5.913343 6.333531 0.478544
v -5.913343 6.307539 0.478544
v -7.497992 6.307539 0.478544
v -7.497992 6.333531 0.478544
v -5.913343 6.307539 1.573975
v -5.913343 6.333531 0.478544
v -5.913343 6.333531 1.573975
v -5.913343 6.307539 1.573975
v -5.913343 6.307539 0.478544
v -5.913343 6.333531 0.478544
v -7.497992 6.307539 1.573975
v -5.913343 6.333531 1.573975
v -7.497992 6.333531 1.573975
v -7.497992 6.307539 1.573975
v -5.913343 6.307539 1.573975
v -5.913343 6.333531 1.573975
v -7.497992 6.307539 0.478544
v -7.497992 6.333531 1.573975
v -7.497992 6.333531 0.478544
v -7.497992 6.307539 0.478544
v -7.497992 6.307539 1.573975
v -7.497992 6.333531 1.573975
v -7.497992 6.307539 1.702602
v -7.497992 6.333533 3.596121
v -7.497992 6.333532 1.702600
v -7.497992 6.307539 1.702602
v -7.497992 6.307540 3.596121
v -7.497992 6.333533 3.596121
v -7.497992 6.307540 3.596121
v -5.913343 6.333532 3.596121
v -7.497992 6.333533 3.596121
v -7.497992 6.307540 3.596121
v -5.913343 6.307539 3.596121
v -5.913343 6.333532 3.596121
v -5.913343 6.307539 3.596121
v -5.913343 6.333532 1.702600
v -5.913343 6.333532 3.596121
v -5.913343 6.307539 3.596121
v -5.913343 6.307539 1.702601
v -5.913343 6.333532 1.702600
v -5.913343 6.307539 1.702601
v -7.497992 6.333532 1.702600
v -5.913343 6.333532 1.702600
v -5.913343 6.307539 1.702601
v -7.497992 6.307539 1.702602
v -7.497992 6.333532 1.702600
v -5.697744 6.307540 5.878410
v -4.113095 6.307539 7.771931
v -5.697744 6.307540 7.771931
v -5.697744 6.307540 5.878410
v -4.113095 6.307539 5.878410
v -4.113095 6.307539 7.771931
v -5.697744 6.307540 4.654354
v -4.113095 6.307539 5.749784
v -5.697743 6.307539 5.749784
v -5.697744 6.307540 4.654354
v -4.113096 6.307539 4.654354
v -4.113095 6.307539 5.749784
v -7.497993 6.307541 4.654355
v -5.913343 6.307539 5.749784
v -7.497993 6.307540 5.749784
v -7.497993 6.307541 4.654355
v -5.913343 6.307540 4.654354
v -5.913343 6.307539 5.749784
v -7.497993 6.307541 5.878411
v -5.913343 6.307540 7.771931
v -7.497993 6.307541 7.771932
v -7.497993 6.307541 5.878411
v -5.913343 6.307540 5.878410
v -5.913343 6.307540 7.771931
v -4.113095 6.333531 7.771931
v -5.697744 6.333532 5.878410
v -5.697744 6.333532 7.771931
v -4.113095 6.333531 7.771931
v -4.113095 6.333531 5.878410
v -5.697744 6.333532 5.878410
v -4.113095 6.333531 5.749784
v -5.697744 6.333532 4.654354
v -5.697743 6.333532 5.749784
v -4.113095 6.333531 5.749784
v -4.113096 6.333531 4.654354
v -5.697744 6.333532 4.654354
v -5.913343 6.333532 5.749784
v -7.497993 6.333533 4.654355
v -7.497993 6.333533 5.749785
v -5.913343 6.333532 5.749784
v -5.913343 6.333532 4.654354
v -7.497993 6.333533 4.654355
v -5.913343 6.333532 7.771931
v -7.497993 6.333533 5.878411
v -7.497993 6.333533 7.771932
v -5.913343 6.333532 7.771931
v -5.913343 6.333532 5.878410
v -7.497993 6.333533 5.878411
v -5.697744 6.307540 5.878410
v -5.697744 6.333532 7.771931
v -5.697744 6.333532 5.878410
v -5.697744 6.307540 5.878410
v -5.697744 6.307540 7.771931
v -5.697744 6.333532 7.771931
v -5.697744 6.307540 7.771931
v -4.113095 6.333531 7.771931
v -5.697744 6.333532 7.771931
v -5.697744 6.307540 7.771931
v -4.113095 6.307539 7.771931
v -4.113095 6.333531 7.771931
v -4.113095 6.307539 7.771931
v -4.113095 6.333531 5.878410
v -4.113095 6.333531 7.771931
v -4.113095 6.307539 7.771931
v -4.113095 6.307539 5.878410
v -4.113095 6.333531 5.878410
v -4.113095 6.307539 5.878410
v -5.697744 6.333532 5.878410
v -4.113095 6.333531 5.878410
v -4.113095 6.307539 5.878410
v -5.697744 6.307540 5.878410
v -5.697744 6.333532 5.878410
v -4.113096 6.307539 4.654354
v -5.697744 6.333532 4.654354
v -4.113096 6.333531 4.654354
v -4.113096 6.307539 4.654354
v -5.697744 6.307540 4.654354
v -5.697744 6.333532 4.654354
v -4.113095 6.307539 5.749784
v -4.113096 6.333531 4.654354
v -4.113095 6.333531 5.749784
v -4.113095 6.307539 5.749784
v -4.113096 6.307539 4.654354
v -4.113096 6.333531 4.654354
v -5.697743 6.307539 5.749784
v -4.113095 6.333531 5.749784
v -5.697743 6.333532 5.749784
v -5.697743 6.307539 5.749784
v -4.113095 6.307539 5.749784
v -4.113095 6.333531 5.749784
v -5.697744 6.307540 4.654354
v -5.697743 6.333532 5.749784
v -5.697744 6.333532 4.654354
v -5.697744 6.307540 4.654354
v -5.697743 6.307539 5.749784
v -5.697743 6.333532 5.749784
v -5.913343 6.307540 4.654354
v -7.497993 6.333533 4.654355
v -5.913343 6.333532 4.654354
v -5.913343 6.307540 4.654354
v -7.497993 6.307541 4.654355
v -7.497993 6.333533 4.654355
v -5.913343 6.307539 5.749784
v -5.913343 6.333532 4.654354
v -5.913343 6.333532 5.749784
v -5.913343 6.307539 5.749784
v -5.913343 6.307540 4.654354
v -5.913343 6.333532 4.654354
v -7.497993 6.307540 5.749784
v -5.913343 6.333532 5.749784
v -7.497993 6.333533 5.749785
v -7.497993 6.307540 5.749784
v -5.913343 6.307539 5.749784
v -5.913343 6.333532 5.749784
v -7.497993 6.307541 4.654355
v -7.497993 6.333533 5.749785
v -7.497993 6.333533 4.654355
v -7.497993 6.307541 4.654355
v -7.497993 6.307540 5.749784
v -7.497993 6.333533 5.749785
v -7.497993 6.307541 5.878411
v -7.497993 6.333533 7.771932
v -7.497993 6.333533 5.878411
v -7.497993 6.307541 5.878411
v -7.497993 6.307541 7.771932
v -7.497993 6.333533 7.771932
v -7.497993 6.307541 7.771932
v -5.913343 6.333532 7.771931
v -7.497993 6.333533 7.771932
v -7.497993 6.307541 7.771932
v -5.913343 6.307540 7.771931
v -5.913343 6.333532 7.771931
v -5.913343 6.307540 7.771931
v -5.913343 6.333532 5.878410
v -5.913343 6.333532 7.771931
v -5.913343 6.307540 7.771931
v -5.913343 6.307540 5.878410
v -5.913343 6.333532 5.878410
v -5.913343 6.307540 5.878410
v -7.497993 6.333533 5.878411
v -5.913343 6.333532 5.878410
v -5.913343 6.307540 5.878410
v -7.497993 6.307541 5.878411
v -7.497993 6.333533 5.878411
v -1.771644 6.307536 5.878410
v -0.186995 6.307535 7.771930
v -1.771644 6.307536 7.771931
v -1.771644 6.307536 5.878410
v -0.186995 6.307535 5.878409
v -0.186995 6.307535 7.771930
v -1.771644 6.307536 4.654354
v -0.186995 6.307535 5.749783
v -1.771644 6.307536 5.749783
v -1.771644 6.307536 4.654354
v -0.186995 6.307535 4.654353
v -0.186995 6.307535 5.749783
v -3.571892 6.307537 4.654354
v -1.987243 6.307536 5.749783
v -3.571892 6.307537 5.749784
v -3.571892 6.307537 4.654354
v -1.987243 6.307536 4.654354
v -1.987243 6.307536 5.749783
v -3.571892 6.307537 5.878410
v -1.987242 6.307536 7.771931
v -3.571892 6.307537 7.771931
v -3.571892 6.307537 5.878410
v -1.987243 6.307536 5.878410
v -1.987242 6.307536 7.771931
v -0.186995 6.333528 7.771930
v -1.771644 6.333529 5.878410
v -1.771643 6.333529 7.771931
v -0.186995 6.333528 7.771930
v -0.186995 6.333528 5.878409
v -1.771644 6.333529 5.878410
v -0.186995 6.333527 5.749784
v -1.771644 6.333528 4.654354
v -1.771644 6.333528 5.749784
v -0.186995 6.333527 5.749784
v -0.186995 6.333527 4.654353
v -1.771644 6.333528 4.654354
v -1.987243 6.333528 5.749784
v -3.571892 6.333529 4.654354
v -3.571892 6.333529 5.749784
v -1.987243 6.333528 5.749784
v -1.987243 6.333528 4.654354
v -3.571892 6.333529 4.654354
v -1.987242 6.333529 7.771931
v -3.571892 6.333529 5.878410
v -3.571892 6.333530 7.771931
v -1.987242 6.333529 7.771931
v -1.987243 6.333529 5.878410
v -3.571892 6.333529 5.878410
v -1.771644 6.307536 5.878410
v -1.771643 6.333529 7.771931
v -1.771644 6.333529 5.878410
v -1.771644 6.307536 5.878410
v -1.771644 6.307536 7.771931
v -1.771643 6.333529 7.771931
v -1.771644 6.307536 7.771931
v -0.186995 6.333528 7.771930
v -1.771643 6.333529 7.771931
v -1.771644 6.307536 7.771931
v -0.186995 6.307535 7.771930
v -0.186995 6.333528 7.771930
v -0.186995 6.307535 7.771930
v -0.186995 6.333528 5.878409
v -0.186995 6.333528 7.771930
v -0.186995 6.307535 7.771930
v -0.186995 6.307535 5.878409
v -0.186995 6.333528 5.878409
v -0.186995 6.307535 5.878409
v -1.771644 6.333529 5.878410
v -0.186995 6.333528 5.878409
v -0.186995 6.307535 5.878409
v -1.771644 6.307536 5.878410
v -1.771644 6.333529 5.878410
v -0.186995 6.307535 4.654353
v -1.771644 6.333528 4.654354
v -0.186995 6.333527 4.654353
v -0.186995 6.307535 4.654353
v -1.771644 6.307536 4.654354
v -1.771644 6.333528 4.654354
v -0.186995 6.307535 5.749783
v -0.186995 6.333527 4.654353
v -0.186995 6.333527 5.749784
v -0.186995 6.307535 5.749783
v -0.186995 6.307535 4.654353
v -0.186995 6.333527 4.654353
v -1.771644 6.307536 5.749783
v -0.186995 6.333527 5.749784
v -1.771644 6.333528 5.749784
v -1.771644 6.307536 5.749783
v -0.186995 6.307535 5.749783
v -0.186995 6.333527 5.749784
v -1.771644 6.307536 4.654354
v -1.771644 6.333528 5.749784
v -1.771644 6.333528 4.654354
v -1.771644 6.307536 4.654354
v -1.771644 6.307536 5.749783
v -1.771644 6.333528 5.749784
v -1.987243 6.307536 4.654354
v -3.571892 6.333529 4.654354
v -1.987243 6.333528 4.654354
v -1.987243 6.307536 4.654354
v -3.571892 6.307537 4.654354
v -3.571892 6.333529 4.654354
v -1.987243 6.307536 5.749783
v -1.987243 6.333528 4.654354
v -1.987243 6.333528 5.749784
v -1.987243 6.307536 5.749783
v -1.987243 6.307536 4.654354
v -1.987243 6.333528 4.654354
v -3.571892 6.307537 5.749784
v -1.987243 6.333528 5.749784
v -3.571892 6.333529 5.749784
v -3.571892 6.307537 5.749784
v -1.987243 6.307536 5.749783
v -1.987243 6.333528 5.749784
v -3.571892 6.307537 4.654354
v -3.571892 6.333529 5.749784
v -3.571892 6.333529 4.654354
v -3.571892 6.307537 4.654354
v -3.571892 6.307537 5.749784
v -3.571892 6.333529 5.749784
v -3.571892 6.307537 5.878410
v -3.571892 6.333530 7.771931
v -3.571892 6.333529 5.878410
v -3.571892 6.307537 5.878410
v -3.571892 6.307537 7.771931
v -3.571892 6.333530 7.771931
v -3.571892 6.307537 7.771931
v -1.987242 6.333529 7.771931
v -3.571892 6.333530 7.771931
v -3.571892 6.307537 7.771931
v -1.987242 6.307536 7.771931
v -1.987242 6.333529 7.771931
v -1.987242 6.307536 7.771931
v -1.987243 6.333529 5.878410
v -1.987242 6.333529 7.771931
v -1.987242 6.307536 7.771931
v -1.987243 6.307536 5.878410
v -1.987243 6.333529 5.878410
v -1.987243 6.307536 5.878410
v -3.571892 6.333529 5.878410
v -1.987243 6.333529 5.878410
v -1.987243 6.307536 5.878410
v -3.571892 6.307537 5.878410
v -3.571892 6.333529 5.878410
v -8.194623 3.166102 5.878411
v -8.194622 4.750751 7.771933
v -8.194622 3.166102 7.771933
v -8.194623 3.166102 5.878411
v -8.194622 4.750751 5.878410
v -8.194622 4.750751 7.771933
v -8.194622 4.750751 5.749785
v -8.194623 3.166102 4.654355
v -8.194622 4.750751 4.654356
v -8.194622 4.750751 5.749785
v -8.194622 3.166102 5.749786
v -8.194623 3.166102 4.654355
v -8.194622 2.950503 5.749786
v -8.194622 1.365853 4.654356
v -8.194623 2.950503 4.654355
v -8.194622 2.950503 5.749786
v -8.194622 1.365853 5.749786
v -8.194622 1.365853 4.654356
v -8.194623 1.365853 5.878412
v -8.194622 2.950503 7.771932
v -8.194622 1.365853 7.771934
v -8.194623 1.365853 5.878412
v -8.194623 2.950503 5.878411
v -8.194622 2.950503 7.771932
v -8.220614 4.750751 7.771933
v -8.220615 3.166102 5.878411
v -8.220615 3.166102 7.771933
v -8.220614 4.750751 7.771933
v -8.220614 4.750751 5.878410
v -8.220615 3.166102 5.878411
v -8.220615 3.166102 4.654355
v -8.220614 4.750751 5.749785
v -8.220614 4.750751 4.654356
v -8.220615 3.166102 4.654355
v -8.220615 3.166102 5.749786
v -8.220614 4.750751 5.749785
v -8.220615 1.365853 4.654356
v -8.220615 2.950503 5.749786
v -8.220615 2.950503 4.654355
v -8.220615 1.365853 4.654356
v -8.220615 1.365853 5.749786
v -8.220615 2.950503 5.749786
v -8.220615 2.950503 7.771932
v -8.220615 1.365853 5.878412
v -8.220615 1.365853 7.771934
v -8.220615 2.950503 7.771932
v -8.220615 2.950503 5.878411
v -8.220615 1.365853 5.878412
v -8.194622 4.750751 5.878410
v -8.220615 3.166102 5.878411
v -8.220614 4.750751 5.878410
v -8.194622 4.750751 5.878410
v -8.194623 3.166102 5.878411
v -8.220615 3.166102 5.878411
v -8.194622 4.750751 7.771933
v -8.220614 4.750751 5.878410
v -8.220614 4.750751 7.771933
v -8.194622 4.750751 7.771933
v -8.194622 4.750751 5.878410
v -8.220614 4.750751 5.878410
v -8.194622 3.166102 7.771933
v -8.220614 4.750751 7.771933
v -8.220615 3.166102 7.771933
v -8.194622 3.166102 7.771933
v -8.194622 4.750751 7.771933
v -8.220614 4.750751 7.771933
v -8.194623 3.166102 5.878411
v -8.220615 3.166102 7.771933
v -8.220615 3.166102 5.878411
v -8.194623 3.166102 5.878411
v -8.194622 3.166102 7.771933
v -8.220615 3.166102 7.771933
v -8.194622 3.166102 5.749786
v -8.220614 4.750751 5.749785
v -8.220615 3.166102 5.749786
v -8.194622 3.166102 5.749786
v -8.194622 4.750751 5.749785
v -8.220614 4.750751 5.749785
v -8.194623 3.166102 4.654355
v -8.220615 3.166102 5.749786
v -8.220615 3.166102 4.654355
v -8.194623 3.166102 4.654355
v -8.194622 3.166102 5.749786
v -8.220615 3.166102 5.749786
v -8.194622 4.750751 4.654356
v -8.220615 3.166102 4.654355
v -8.220614 4.750751 4.654356
v -8.194622 4.750751 4.654356
v -8.194623 3.166102 4.654355
v -8.220615 3.166102 4.654355
v -8.194622 4.750751 5.749785
v -8.220614 4.750751 4.654356
v -8.220614 4.750751 5.749785
v -8.194622 4.750751 5.749785
v -8.194622 4.750751 4.654356
v -8.220614 4.750751 4.654356
v -8.194622 1.365853 5.749786
v -8.220615 2.950503 5.749786
v -8.220615 1.365853 5.749786
v -8.194622 1.365853 5.749786
v -8.194622 2.950503 5.749786
v -8.220615 2.950503 5.749786
v -8.194622 1.365853 4.654356
v -8.220615 1.365853 5.749786
v -8.220615 1.365853 4.654356
v -8.194622 1.365853 4.654356
v -8.194622 1.365853 5.749786
v -8.220615 1.365853 5.749786
v -8.194623 2.950503 4.654355
v -8.220615 1.365853 4.654356
v -8.220615 2.950503 4.654355
v -8.194623 2.950503 4.654355
v -8.194622 1.365853 4.654356
v -8.220615 1.365853 4.654356
v -8.194622 2.950503 5.749786
v -8.220615 2.950503 4.654355
v -8.220615 2.950503 5.749786
v -8.194622 2.950503 5.749786
v -8.194623 2.950503 4.654355
v -8.220615 2.950503 4.654355
v -8.194623 2.950503 5.878411
v -8.220615 1.365853 5.878412
v -8.220615 2.950503 5.878411
v -8.194623 2.950503 5.878411
v -8.194623 1.365853 5.878412
v -8.220615 1.365853 5.878412
v -8.194622 2.950503 7.771932
v -8.220615 2.950503 5.878411
v -8.220615 2.950503 7.771932
v -8.194622 2.950503 7.771932
v -8.194623 2.950503 5.878411
v -8.220615 2.950503 5.878411
v -8.194622 1.365853 7.771934
v -8.220615 2.950503 7.771932
v -8.220615 1.365853 7.771934
v -8.194622 1.365853 7.771934
v -8.194622 2.950503 7.771932
v -8.220615 2.950503 7.771932
v -8.194623 1.365853 5.878412
v -8.220615 1.365853 7.771934
v -8.220615 1.365853 5.878412
v -8.194623 1.365853 5.878412
v -8.194622 1.365853 7.771934
v -8.220615 1.365853 7.771934
v -8.194623 -0.793147 5.878411
v -8.194623 0.791503 7.771934
v -8.194623 -0.793146 7.771934
v -8.194623 -0.793147 5.878411
v -8.194624 0.791503 5.878412
v -8.194623 0.791503 7.771934
v -8.194623 0.791503 5.749786
v -8.194623 -0.793147 4.654356
v -8.194623 0.791502 4.654356
v -8.194623 0.791503 5.749786
v -8.194623 -0.793147 5.749786
v -8.194623 -0.793147 4.654356
v -8.194623 -1.008746 5.749786
v -8.194624 -2.593396 4.654357
v -8.194623 -1.008746 4.654356
v -8.194623 -1.008746 5.749786
v -8.194624 -2.593395 5.749786
v -8.194624 -2.593396 4.654357
v -8.194624 -2.593395 5.878412
v -8.194623 -1.008745 7.771934
v -8.194624 -2.593395 7.771934
v -8.194624 -2.593395 5.878412
v -8.194623 -1.008746 5.878411
v -8.194623 -1.008745 7.771934
v -8.220616 0.791503 7.771934
v -8.220616 -0.793147 5.878411
v -8.220615 -0.793146 7.771934
v -8.220616 0.791503 7.771934
v -8.220616 0.791503 5.878412
v -8.220616 -0.793147 5.878411
v -8.220616 -0.793147 4.654356
v -8.220616 0.791503 5.749786
v -8.220616 0.791502 4.654356
v -8.220616 -0.793147 4.654356
v -8.220615 -0.793147 5.749786
v -8.220616 0.791503 5.749786
v -8.220616 -2.593396 4.654357
v -8.220615 -1.008746 5.749786
v -8.220616 -1.008746 4.654356
v -8.220616 -2.593396 4.654357
v -8.220616 -2.593395 5.749786
v -8.220615 -1.008746 5.749786
v -8.220615 -1.008745 7.771934
v -8.220616 -2.593395 5.878412
v -8.220616 -2.593395 7.771934
v -8.220615 -1.008745 7.771934
v -8.220616 -1.008746 5.878411
v -8.220616 -2.593395 5.878412
v -8.194624 0.791503 5.878412
v -8.220616 -0.793147 5.878411
v -8.220616 0.791503 5.878412
v -8.194624 0.791503 5.878412
v -8.194623 -0.793147 5.878411
v -8.220616 -0.793147 5.878411
v -8.194623 0.791503 7.771934
v -8.220616 0.791503 5.878412
v -8.220616 0.791503 7.771934
v -8.194623 0.791503 7.771934
v -8.194624 0.791503 5.878412
v -8.220616 0.791503 5.878412
v -8.194623 -0.793146 7.771934
v -8.220616 0.791503 7.771934
v -8.220615 -0.793146 7.771934
v -8.194623 -0.793146 7.771934
v -8.194623 0.791503 7.771934
v -8.220616 0.791503 7.771934
v -8.194623 -0.793147 5.878411
v -8.220615 -0.793146 7.771934
v -8.220616 -0.793147 5.878411
v -8.194623 -0.793147 5.878411
v -8.194623 -0.793146 7.771934
v -8.220615 -0.793146 7.771934
v -8.194623 -0.793147 5.749786
v -8.220616 0.791503 5.749786
v -8.220615 -0.793147 5.749786
v -8.194623 -0.793147 5.749786
v -8.194623 0.791503 5.749786
v -8.220616 0.791503 5.749786
v -8.194623 -0.793147 4.654356
v -8.220615 -0.793147 5.749786
v -8.220616 -0.793147 4.654356
v -8.194623 -0.793147 4.654356
v -8.194623 -0.793147 5.749786
v -8.220615 -0.793147 5.749786
v -8.194623 0.791502 4.654356
v -8.220616 -0.793147 4.654356
v -8.220616 0.791502 4.654356
v -8.194623 0.791502 4.654356
v -8.194623 -0.793147 4.654356
v -8.220616 -0.793147 4.654356
v -8.194623 0.791503 5.749786
v -8.220616 0.791502 4.654356
v -8.220616 0.791503 5.749786
v -8.194623 0.791503 5.749786
v -8.194623 0.791502 4.654356
v -8.220616 0.791502 4.654356
v -8.194624 -2.593395 5.749786
v -8.220615 -1.008746 5.749786
v -8.220616 -2.593395 5.749786
v -8.194624 -2.593395 5.749786
v -8.194623 -1.008746 5.749786
v -8.220615 -1.008746 5.749786
v -8.194624 -2.593396 4.654357
v -8.220616 -2.593395 5.749786
v -8.220616 -2.593396 4.654357
v -8.194624 -2.593396 4.654357
v -8.194624 -2.593395 5.749786
v -8.220616 -2.593395 5.749786
v -8.194623 -1.008746 4.654356
v -8.220616 -2.593396 4.654357
v -8.220616 -1.008746 4.654356
v -8.194623 -1.008746 4.654356
v -8.194624 -2.593396 4.654357
v -8.220616 -2.593396 4.654357
v -8.194623 -1.008746 5.749786
v -8.220616 -1.008746 4.654356
v -8.220615 -1.008746 5.749786
v -8.194623 -1.008746 5.749786
v -8.194623 -1.008746 4.654356
v -8.220616 -1.008746 4.654356
v -8.194623 -1.008746 5.878411
v -8.220616 -2.593395 5.878412
v -8.220616 -1.008746 5.878411
v -8.194623 -1.008746 5.878411
v -8.194624 -2.593395 5.878412
v -8.220616 -2.593395 5.878412
v -8.194623 -1.008745 7.771934
v -8.220616 -1.008746 5.878411
v -8.220615 -1.008745 7.771934
v -8.194623 -1.008745 7.771934
v -8.194623 -1.008746 5.878411
v -8.220616 -1.008746 5.878411
v -8.194624 -2.593395 7.771934
v -8.220615 -1.008745 7.771934
v -8.220616 -2.593395 7.771934
v -8.194624 -2.593395 7.771934
v -8.194623 -1.008745 7.771934
v -8.220615 -1.008745 7.771934
v -8.194624 -2.593395 5.878412
v -8.220616 -2.593395 7.771934
v -8.220616 -2.593395 5.878412
v -8.194624 -2.593395 5.878412
v -8.194624 -2.593395 7.771934
v -8.220616 -2.593395 7.771934
v -8.194623 3.149591 1.725708
v -8.194621 4.779006 3.619228
v -8.194622 3.149591 3.619229
v -8.194623 3.149591 1.725708
v -8.194623 4.779006 1.725705
v -8.194621 4.779006 3.619228
v -8.194623 3.149591 0.501652
v -8.194622 4.779006 1.597080
v -8.194623 3.149591 1.597081
v -8.194623 3.149591 0.501652
v -8.194622 4.779006 0.501650
v -8.194622 4.779006 1.597080
v -8.194623 1.298487 0.501652
v -8.194623 2.927902 1.597080
v -8.194623 1.298487 1.597082
v -8.194623 1.298487 0.501652
v -8.194623 2.927902 0.501651
v -8.194623 2.927902 1.597080
v -8.194623 1.298487 1.725708
v -8.194622 2.927902 3.619228
v -8.194622 1.298487 3.619228
v -8.194623 1.298487 1.725708
v -8.194623 2.927902 1.725707
v -8.194622 2.927902 3.619228
v -8.220614 4.779006 3.619228
v -8.220616 3.149591 1.725708
v -8.220614 3.149591 3.619229
v -8.220614 4.779006 3.619228
v -8.220615 4.779006 1.725705
v -8.220616 3.149591 1.725708
v -8.220615 4.779006 1.597080
v -8.220616 3.149591 0.501652
v -8.220615 3.149591 1.597081
v -8.220615 4.779006 1.597080
v -8.220615 4.779006 0.501650
v -8.220616 3.149591 0.501652
v -8.220615 2.927902 1.597080
v -8.220615 1.298487 0.501652
v -8.220615 1.298487 1.597082
v -8.220615 2.927902 1.597080
v -8.220616 2.927902 0.501651
v -8.220615 1.298487 0.501652
v -8.220614 2.927902 3.619228
v -8.220615 1.298487 1.725708
v -8.220614 1.298487 3.619228
v -8.220614 2.927902 3.619228
v -8.220616 2.927902 1.725707
v -8.220615 1.298487 1.725708
v -8.194623 3.149591 1.725708
v -8.220614 3.149591 3.619229
v -8.220616 3.149591 1.725708
v -8.194623 3.149591 1.725708
v -8.194622 3.149591 3.619229
v -8.220614 3.149591 3.619229
v -8.194622 3.149591 3.619229
v -8.220614 4.779006 3.619228
v -8.220614 3.149591 3.619229
v -8.194622 3.149591 3.619229
v -8.194621 4.779006 3.619228
v -8.220614 4.779006 3.619228
v -8.194621 4.779006 3.619228
v -8.220615 4.779006 1.725705
v -8.220614 4.779006 3.619228
v -8.194621 4.779006 3.619228
v -8.194623 4.779006 1.725705
v -8.220615 4.779006 1.725705
v -8.194623 4.779006 1.725705
v -8.220616 3.149591 1.725708
v -8.220615 4.779006 1.725705
v -8.194623 4.779006 1.725705
v -8.194623 3.149591 1.725708
v -8.220616 3.149591 1.725708
v -8.194622 4.779006 0.501650
v -8.220616 3.149591 0.501652
v -8.220615 4.779006 0.501650
v -8.194622 4.779006 0.501650
v -8.194623 3.149591 0.501652
v -8.220616 3.149591 0.501652
v -8.194622 4.779006 1.597080
v -8.220615 4.779006 0.501650
v -8.220615 4.779006 1.597080
v -8.194622 4.779006 1.597080
v -8.194622 4.779006 0.501650
v -8.220615 4.779006 0.501650
v -8.194623 3.149591 1.597081
v -8.220615 4.779006 1.597080
v -8.220615 3.149591 1.597081
v -8.194623 3.149591 1.597081
v -8.194622 4.779006 1.597080
v -8.220615 4.779006 1.597080
v -8.194623 3.149591 0.501652
v -8.220615 3.149591 1.597081
v -8.220616 3.149591 0.501652
v -8.194623 3.149591 0.501652
v -8.194623 3.149591 1.597081
v -8.220615 3.149591 1.597081
v -8.194623 2.927902 0.501651
v -8.220615 1.298487 0.501652
v -8.220616 2.927902 0.501651
v -8.194623 2.927902 0.501651
v -8.194623 1.298487 0.501652
v -8.220615 1.298487 0.501652
v -8.194623 2.927902 1.597080
v -8.220616 2.927902 0.501651
v -8.220615 2.927902 1.597080
v -8.194623 2.927902 1.597080
v -8.194623 2.927902 0.501651
v -8.220616 2.927902 0.501651
v -8.194623 1.298487 1.597082
v -8.220615 2.927902 1.597080
v -8.220615 1.298487 1.597082
v -8.194623 1.298487 1.597082
v -8.194623 2.927902 1.597080
v -8.220615 2.927902 1.597080
v -8.194623 1.298487 0.501652
v -8.220615 1.298487 1.597082
v -8.220615 1.298487 0.501652
v -8.194623 1.298487 0.501652
v -8.194623 1.298487 1.597082
v -8.220615 1.298487 1.597082
v -8.194623 1.298487 1.725708
v -8.220614 1.298487 3.619228
v -8.220615 1.298487 1.725708
v -8.194623 1.298487 1.725708
v -8.194622 1.298487 3.619228
v -8.220614 1.298487 3.619228
v -8.194622 1.298487 3.619228
v -8.220614 2.927902 3.619228
v -8.220614 1.298487 3.619228
v -8.194622 1.298487 3.619228
v -8.194622 2.927902 3.619228
v -8.220614 2.927902 3.619228
v -8.194622 2.927902 3.619228
v -8.220616 2.927902 1.725707
v -8.220614 2.927902 3.619228
v -8.194622 2.927902 3.619228
v -8.194623 2.927902 1.725707
v -8.220616 2.927902 1.725707
v -8.194623 2.927902 1.725707
v -8.220615 1.298487 1.725708
v -8.220616 2.927902 1.725707
v -8.194623 2.927902 1.725707
v -8.194623 1.298487 1.725708
v -8.220615 1.298487 1.725708
vn -0.0000 1.0000 -0.0000
vn -0.0000 -1.0000 -0.0000
vn 1.0000 -0.0000 -0.0000
vn -0.0000 -0.0000 -1.0000
vn -1.0000 -0.0000 -0.0000
vn -0.0000 -0.0000 1.0000
vn -0.0000 0.0001 -1.0000
vn -0.0000 0.0001 1.0000
vt -0.753798 -1.428806
vt -0.753798 0.078739
vt 0.611688 0.078739
vt 0.611688 -1.428806
vt -0.753798 -2.403350
vt -0.753798 -1.531213
vt 0.611688 -1.531213
vt 0.611688 -2.403350
vt -2.305066 -2.403350
vt -2.305066 -1.531213
vt -0.939579 -1.531213
vt -0.939579 -2.403350
vt -2.305066 -1.428806
vt -2.305066 0.078739
vt -0.939579 0.078739
vt -0.939579 -1.428806
vt 0.388312 0.078739
vt 1.753798 0.078739
vt 1.753798 -1.428806
vt 0.388312 -1.428806
vt 0.388312 -1.531213
vt 1.753798 -1.531213
vt 1.753798 -2.403350
vt 0.388312 -2.403350
vt 1.939579 -1.531213
vt 3.305066 -1.531213
vt 3.305066 -2.403350
vt 1.939579 -2.403350
vt 1.939579 0.078739
vt 3.305066 0.078739
vt 3.305066 -1.428806
vt 1.939579 -1.428806
vt -2.872636 -1.428806
vt -2.892391 -1.428806
vt -2.892391 0.078739
vt -2.872636 0.078739
vt -0.753798 3.872636
vt -0.753798 3.892391
vt 0.611688 3.892390
vt 0.611688 3.872635
vt 3.872635 0.078739
vt 3.892390 0.078739
vt 3.892391 -1.428806
vt 3.872636 -1.428806
vt 0.388312 3.872636
vt 0.388312 3.892391
vt 1.753798 3.892391
vt 1.753798 3.872636
vt 0.388312 3.872636
vt 0.388312 3.892391
vt 1.753798 3.892391
vt 1.753798 3.872636
vt 3.872635 -1.531213
vt 3.892390 -1.531213
vt 3.892391 -2.403350
vt 3.872636 -2.403350
vt -0.753798 3.872636
vt -0.753798 3.892391
vt 0.611688 3.892390
vt 0.611688 3.872635
vt -2.872636 -2.403350
vt -2.892391 -2.403350
vt -2.892391 -1.531213
vt -2.872636 -1.531213
vt 1.939579 3.872636
vt 1.939579 3.892391
vt 3.305066 3.892391
vt 3.305066 3.872636
vt 3.872636 -1.531213
vt 3.892391 -1.531213
vt 3.892391 -2.403350
vt 3.872636 -2.403350
vt -2.305066 3.872636
vt -2.305066 3.892391
vt -0.939579 3.892391
vt -0.939579 3.872636
vt -2.872636 -2.403350
vt -2.892391 -2.403350
vt -2.892391 -1.531213
vt -2.872636 -1.531213
vt -2.872636 -1.428806
vt -2.892391 -1.428806
vt -2.892391 0.078739
vt -2.872636 0.078739
vt -0.939579 3.892391
vt 3.872636 0.078739
vt 3.892391 0.078739
vt 3.892391 -1.428806
vt 3.872636 -1.428806
vt 1.939579 3.892391
vt 3.305066 3.892391
vt 2.585986 -1.428806
vt 2.585986 0.078739
vt 3.951472 0.078739
vt 3.951472 -1.428806
vt 2.585986 -2.403350
vt 2.585986 -1.531213
vt 3.951472 -1.531213
vt 3.951472 -2.403350
vt 1.034719 -2.403350
vt 1.034719 -1.531213
vt 2.400205 -1.531213
vt 2.400205 -2.403350
vt 1.034719 -1.428806
vt 1.034719 0.078739
vt 2.400205 0.078739
vt 2.400205 -1.428806
vt -2.951472 0.078739
vt -1.585986 0.078739
vt -1.585986 -1.428806
vt -2.951472 -1.428806
vt -2.951472 -1.531213
vt -1.585986 -1.531213
vt -1.585986 -2.403350
vt -2.951472 -2.403350
vt -1.400205 -1.531213
vt -0.034719 -1.531213
vt -0.034719 -2.403350
vt -1.400205 -2.403350
vt -1.400205 0.078739
vt -0.034719 0.078739
vt -0.034719 -1.428806
vt -1.400205 -1.428806
vt -2.872635 -1.428806
vt -2.892390 -1.428806
vt -2.892390 0.078739
vt -2.872635 0.078739
vt 2.585986 3.872635
vt 2.585986 3.892390
vt 3.951472 3.892390
vt 3.951472 3.872635
vt 3.872635 0.078739
vt 3.892390 0.078739
vt 3.892390 -1.428806
vt 3.872635 -1.428806
vt -2.951472 3.872635
vt -2.951472 3.892390
vt -1.585986 3.892390
vt -1.585986 3.872635
vt 3.872635 -1.531213
vt 3.892390 -1.531213
vt 3.892390 -2.403350
vt 3.872635 -2.403350
vt -2.872635 -2.403350
vt -2.892390 -2.403350
vt -2.892390 -1.531213
vt -2.872635 -1.531213
vt -1.400205 3.872635
vt -1.400205 3.892390
vt -0.034719 3.892390
vt -0.034719 3.872635
vt 3.872635 -1.531213
vt 3.892390 -1.531213
vt 3.892390 -2.403350
vt 3.872635 -2.403350
vt 1.034719 3.872635
vt 1.034719 3.892390
vt 2.400205 3.892390
vt 2.400205 3.872635
vt -2.872635 -2.403350
vt -2.892390 -2.403350
vt -2.892390 -1.531213
vt -2.872635 -1.531213
vt -2.872635 -1.428806
vt -2.892391 -1.428806
vt -2.892390 0.078739
vt -2.872635 0.078739
vt 2.400205 3.892390
vt 3.872635 0.078739
vt 3.892390 0.078739
vt 3.892390 -1.428806
vt 3.872635 -1.428806
vt -1.400205 3.892390
vt -0.034719 3.892391
vt 5.941533 -1.428806
vt 5.941533 0.078739
vt 7.307019 0.078739
vt 7.307019 -1.428806
vt 5.941533 -2.403350
vt 5.941533 -1.531213
vt 7.307019 -1.531213
vt 7.307019 -2.403350
vt 4.390265 -2.403350
vt 4.390265 -1.531213
vt 5.755752 -1.531213
vt 5.755752 -2.403350
vt 4.390265 -1.428806
vt 4.390265 0.078739
vt 5.755752 0.078739
vt 5.755752 -1.428806
vt -6.307019 0.078739
vt -4.941533 0.078739
vt -4.941533 -1.428806
vt -6.307019 -1.428806
vt -6.307019 -1.531213
vt -4.941533 -1.531213
vt -4.941533 -2.403350
vt -6.307019 -2.403350
vt -4.755752 -1.531213
vt -3.390265 -1.531213
vt -3.390265 -2.403350
vt -4.755752 -2.403350
vt -4.755752 0.078739
vt -3.390265 0.078739
vt -3.390265 -1.428806
vt -4.755752 -1.428806
vt -2.872634 -1.428806
vt -2.892390 -1.428806
vt -2.892389 0.078739
vt -2.872634 0.078739
vt 5.941533 3.872634
vt 5.941533 3.892389
vt 7.307019 3.892389
vt 7.307019 3.872634
vt 3.872634 0.078739
vt 3.892389 0.078739
vt 3.892389 -1.428806
vt 3.872634 -1.428806
vt -6.307019 3.872634
vt -6.307019 3.892389
vt -4.941533 3.892390
vt -4.941533 3.872634
vt 3.872634 -1.531213
vt 3.892389 -1.531213
vt 3.892389 -2.403350
vt 3.872634 -2.403350
vt -2.872634 -2.403350
vt -2.892390 -2.403350
vt -2.892389 -1.531213
vt -2.872634 -1.531213
vt -4.755752 3.872634
vt -4.755752 3.892390
vt -3.390265 3.892390
vt -3.390265 3.872635
vt 3.872634 -1.531213
vt 3.892389 -1.531213
vt 3.892390 -2.403350
vt 3.872634 -2.403350
vt 4.390265 3.872634
vt 4.390265 3.892390
vt 5.755752 3.892389
vt 5.755752 3.872634
vt -2.872635 -2.403350
vt -2.892390 -2.403350
vt -2.892390 -1.531213
vt -2.872634 -1.531213
vt -2.872635 -1.428806
vt -2.892390 -1.428806
vt -2.892390 0.078739
vt -2.872634 0.078739
vt 5.755752 3.892390
vt 3.872634 0.078739
vt 3.892390 0.078739
vt 3.892390 -1.428806
vt 3.872634 -1.428806
vt -4.755752 3.892390
vt -3.390265 3.892390
vt -4.133068 -1.428806
vt -4.133068 0.078739
vt -2.767582 0.078739
vt -2.767582 -1.428806
vt -4.133068 -2.403350
vt -4.133068 -1.531213
vt -2.767582 -1.531213
vt -2.767582 -2.403350
vt -5.684336 -2.403350
vt -5.684336 -1.531213
vt -4.318849 -1.531213
vt -4.318849 -2.403350
vt -5.684336 -1.428806
vt -5.684336 0.078739
vt -4.318849 0.078739
vt -4.318849 -1.428806
vt 3.767582 0.078739
vt 5.133068 0.078739
vt 5.133068 -1.428806
vt 3.767582 -1.428806
vt 3.767582 -1.531213
vt 5.133068 -1.531213
vt 5.133068 -2.403350
vt 3.767582 -2.403350
vt 5.318849 -1.531213
vt 6.684336 -1.531213
vt 6.684336 -2.403350
vt 5.318849 -2.403350
vt 5.318849 0.078739
vt 6.684336 0.078739
vt 6.684336 -1.428806
vt 5.318849 -1.428806
vt -2.872637 -1.428806
vt -2.892392 -1.428806
vt -2.892391 0.078739
vt -2.872636 0.078739
vt -4.133068 3.872636
vt -4.133068 3.892391
vt -2.767582 3.892391
vt -2.767582 3.872636
vt 3.872636 0.078739
vt 3.892391 0.078739
vt 3.892391 -1.428806
vt 3.872636 -1.428806
vt 3.767582 3.872636
vt 3.767582 3.892391
vt 5.133068 3.892392
vt 5.133068 3.872637
vt 3.872636 -1.531213
vt 3.892391 -1.531213
vt 3.892391 -2.403350
vt 3.872636 -2.403350
vt -2.872637 -2.403350
vt -2.892392 -2.403350
vt -2.892391 -1.531213
vt -2.872636 -1.531213
vt 5.318849 3.872637
vt 5.318849 3.892392
vt 6.684336 3.892392
vt 6.684336 3.872637
vt 3.872636 -1.531213
vt 3.892391 -1.531213
vt 3.892392 -2.403350
vt 3.872637 -2.403350
vt -5.684336 3.872637
vt -5.684336 3.892392
vt -4.318849 3.892391
vt -4.318849 3.872636
vt -2.872637 -2.403350
vt -2.892392 -2.403350
vt -2.892392 -1.531213
vt -2.872637 -1.531213
vt -2.872637 -1.428806
vt -2.892392 -1.428806
vt -2.892392 0.078739
vt -2.872637 0.078739
vt -4.318849 3.892392
vt 3.872636 0.078739
vt 3.892392 0.078739
vt 3.892392 -1.428806
vt 3.872637 -1.428806
vt 5.318849 3.892392
vt 6.684336 3.892392
vt -4.133068 1.895805
vt -4.133068 3.403350
vt -2.767582 3.403350
vt -2.767582 1.895805
vt -4.133068 0.921262
vt -4.133068 1.793398
vt -2.767582 1.793398
vt -2.767582 0.921262
vt -5.684336 0.921262
vt -5.684336 1.793398
vt -4.318849 1.793398
vt -4.318849 0.921262
vt -5.684336 1.895805
vt -5.684336 3.403350
vt -4.318849 3.403350
vt -4.318849 1.895805
vt 3.767582 3.403350
vt 5.133068 3.403350
vt 5.133068 1.895805
vt 3.767582 1.895805
vt 3.767582 1.793398
vt 5.133068 1.793398
vt 5.133068 0.921262
vt 3.767582 0.921262
vt 5.318849 1.793398
vt 6.684336 1.793398
vt 6.684336 0.921262
vt 5.318849 0.921262
vt 5.318849 3.403350
vt 6.684336 3.403350
vt 6.684336 1.895805
vt 5.318849 1.895805
vt -2.872637 1.895805
vt -2.892392 1.895805
vt -2.892391 3.403350
vt -2.872636 3.403350
vt 3.872636 3.403350
vt 3.892391 3.403350
vt 3.892391 1.895805
vt 3.872636 1.895805
vt 3.872636 1.793398
vt 3.892391 1.793398
vt 3.892391 0.921262
vt 3.872636 0.921262
vt -2.872637 0.921262
vt -2.892392 0.921262
vt -2.892391 1.793398
vt -2.872636 1.793398
vt 3.872636 1.793398
vt 3.892391 1.793398
vt 3.892392 0.921262
vt 3.872637 0.921262
vt -2.872637 0.921262
vt -2.892392 0.921262
vt -2.892392 1.793398
vt -2.872637 1.793398
vt -2.872637 1.895805
vt -2.892392 1.895805
vt -2.892392 3.403350
vt -2.872637 3.403350
vt 3.872636 3.403350
vt 3.892392 3.403350
vt 3.892392 1.895805
vt 3.872637 1.895805
vt -0.749963 1.895805
vt -0.749963 3.403350
vt 0.615523 3.403350
vt 0.615523 1.895805
vt -0.749963 0.921262
vt -0.749963 1.793398
vt 0.615523 1.793398
vt 0.615523 0.921262
vt -2.301230 0.921262
vt -2.301230 1.793398
vt -0.935744 1.793398
vt -0.935744 0.921262
vt -2.301230 1.895805
vt -2.301230 3.403350
vt -0.935744 3.403350
vt -0.935744 1.895805
vt 0.384477 3.403350
vt 1.749963 3.403350
vt 1.749963 1.895805
vt 0.384477 1.895805
vt 0.384477 1.793398
vt 1.749963 1.793398
vt 1.749963 0.921262
vt 0.384477 0.921262
vt 1.935744 1.793398
vt 3.301230 1.793398
vt 3.301230 0.921262
vt 1.935744 0.921262
vt 1.935744 3.403350
vt 3.301230 3.403350
vt 3.301230 1.895805
vt 1.935744 1.895805
vt -2.872636 1.895805
vt -2.892391 1.895805
vt -2.892391 3.403350
vt -2.872636 3.403350
vt -0.749963 3.872636
vt -0.749963 3.892391
vt 0.615523 3.892390
vt 0.615523 3.872635
vt 3.872635 3.403350
vt 3.892390 3.403350
vt 3.892391 1.895805
vt 3.872636 1.895805
vt 0.384477 3.872636
vt 0.384477 3.892391
vt 1.749963 3.892391
vt 1.749963 3.872636
vt 0.384477 3.872636
vt 0.384477 3.892391
vt 1.749963 3.892391
vt 1.749963 3.872636
vt 3.872635 1.793398
vt 3.892390 1.793398
vt 3.892391 0.921262
vt 3.872636 0.921262
vt -0.749963 3.872636
vt -0.749963 3.892391
vt 0.615523 3.892390
vt 0.615523 3.872635
vt -2.872636 0.921262
vt -2.892391 0.921262
vt -2.892391 1.793398
vt -2.872636 1.793398
vt 1.935744 3.872636
vt 1.935744 3.892391
vt 3.301230 3.892391
vt 3.301230 3.872636
vt 3.872636 1.793398
vt 3.892391 1.793398
vt 3.892391 0.921262
vt 3.872636 0.921262
vt -2.301230 3.872636
vt -2.301230 3.892391
vt -0.935744 3.892391
vt -0.935744 3.872636
vt -2.872636 0.921262
vt -2.892391 0.921262
vt -2.892391 1.793398
vt -2.872636 1.793398
vt -2.872636 1.895805
vt -2.892391 1.895805
vt -2.892391 3.403350
vt -2.872636 3.403350
vt -0.935744 3.892391
vt 3.872636 3.403350
vt 3.892391 3.403350
vt 3.892391 1.895805
vt 3.872636 1.895805
vt 1.935744 3.892391
vt 3.301230 3.892391
vt 1.485032 1.895805
vt 1.485032 3.403350
vt 2.689422 3.403350
vt 2.689422 1.895805
vt 2.689422 1.793398
vt 2.689422 0.921261
vt 1.485032 0.921261
vt 1.485032 1.793398
vt 1.321170 1.793398
vt 1.321170 0.921261
vt 0.116780 0.921261
vt 0.116780 1.793398
vt 0.116780 1.895805
vt 0.116780 3.403350
vt 1.321170 3.403350
vt 1.321170 1.895805
vt -1.689422 3.403350
vt -0.485032 3.403350
vt -0.485032 1.895805
vt -1.689422 1.895805
vt -0.485032 0.921261
vt -1.689422 0.921261
vt -1.689422 1.793398
vt -0.485032 1.793398
vt 0.883220 0.921261
vt -0.321170 0.921261
vt -0.321170 1.793398
vt 0.883220 1.793398
vt -0.321170 3.403350
vt 0.883220 3.403350
vt 0.883220 1.895805
vt -0.321170 1.895805
vt 7.284620 2.689422
vt 7.307017 2.689422
vt 7.307018 1.485032
vt 7.284620 1.485032
vt 7.284619 3.403350
vt 7.307017 3.403350
vt 7.307017 1.895805
vt 7.284620 1.895805
vt -6.284620 1.485032
vt -6.307017 1.485032
vt -6.307017 2.689422
vt -6.284619 2.689422
vt -6.284620 1.895805
vt -6.307018 1.895805
vt -6.307017 3.403350
vt -6.284620 3.403350
vt -6.284620 1.485032
vt -6.307017 1.485032
vt -6.307017 2.689422
vt -6.284620 0.921261
vt -6.307018 0.921261
vt -6.307017 1.793398
vt -6.284620 1.793398
vt 7.307018 1.485032
vt 7.284620 1.485032
vt 7.284619 1.793398
vt 7.307017 1.793398
vt 7.307017 0.921261
vt 7.284620 0.921261
vt -6.284620 0.116780
vt -6.307018 0.116780
vt -6.307017 1.321170
vt -6.284620 1.321170
vt -6.284620 0.921261
vt -6.307018 1.793398
vt 7.284620 1.321170
vt 7.307018 1.321170
vt 7.307018 0.116780
vt 7.284620 0.116780
vt 7.284620 1.793398
vt 7.307017 1.793398
vt 7.307018 0.921261
vt 7.284620 1.321170
vt 7.284620 3.403350
vt 7.307017 3.403350
vt 7.307018 1.895805
vt 7.284620 1.895805
vt -6.284620 0.116780
vt -6.307018 3.403350
vt -6.284620 3.403350
vt -1.524137 1.895805
vt -1.524137 3.403350
vt -0.319747 3.403350
vt -0.319747 1.895805
vt -0.319747 1.793398
vt -0.319747 0.921261
vt -1.524137 0.921261
vt -1.524137 1.793398
vt -1.688000 1.793398
vt -1.688000 0.921261
vt -2.892390 0.921261
vt -2.892390 1.793398
vt -2.892390 1.895805
vt -2.892390 3.403350
vt -1.688000 3.403350
vt -1.688000 1.895805
vt 1.319747 3.403350
vt 2.524137 3.403350
vt 2.524137 1.895805
vt 1.319747 1.895805
vt 2.524137 0.921261
vt 1.319747 0.921261
vt 1.319747 1.793398
vt 2.524137 1.793398
vt 3.892390 0.921261
vt 2.688000 0.921261
vt 2.688000 1.793398
vt 3.892390 1.793398
vt 2.688000 3.403350
vt 3.892390 3.403350
vt 3.892390 1.895805
vt 2.688000 1.895805
vt 7.284621 -0.319747
vt 7.307018 -0.319747
vt 7.307019 -1.524137
vt 7.284621 -1.524137
vt 7.284620 3.403350
vt 7.307018 3.403350
vt 7.307018 1.895805
vt 7.284621 1.895805
vt -6.284621 -1.524137
vt -6.307018 -1.524137
vt -6.307018 -0.319747
vt -6.284620 -0.319747
vt -6.284621 1.895805
vt -6.307019 1.895805
vt -6.307018 3.403350
vt -6.284621 3.403350
vt -6.307018 -0.319747
vt -6.284621 0.921261
vt -6.307019 0.921261
vt -6.307018 1.793398
vt -6.284621 1.793398
vt 7.284621 -1.524137
vt 7.284620 1.793398
vt 7.307018 1.793398
vt 7.307018 0.921261
vt 7.284621 0.921261
vt -6.284621 -2.892390
vt -6.307019 -2.892390
vt -6.307018 -1.688000
vt -6.284621 -1.688000
vt -6.284621 0.921261
vt -6.307019 1.793398
vt 7.284621 -1.688000
vt 7.307019 -1.688000
vt 7.307019 -2.892390
vt 7.284621 -2.892390
vt 7.284621 1.793398
vt 7.307018 1.793398
vt 7.307019 0.921261
vt 7.284621 -1.688000
vt 7.284621 3.403350
vt 7.307018 3.403350
vt 7.307019 1.895805
vt 7.284621 1.895805
vt -6.284621 -2.892390
vt -6.307019 3.403350
vt -6.284621 3.403350
vt 1.485032 -1.371336
vt 1.485032 0.136210
vt 2.689422 0.136210
vt 2.689422 -1.371336
vt 1.485032 -2.345879
vt 1.485032 -1.473742
vt 2.689422 -1.473742
vt 2.689422 -2.345879
vt 0.116780 -2.345879
vt 0.116780 -1.473742
vt 1.321170 -1.473742
vt 1.321170 -2.345879
vt 0.116780 -1.371336
vt 0.116780 0.136210
vt 1.321170 0.136210
vt 1.321170 -1.371336
vt -1.689422 0.136210
vt -0.485032 0.136210
vt -0.485032 -1.371336
vt -1.689422 -1.371336
vt -1.689422 -1.473742
vt -0.485032 -1.473742
vt -0.485032 -2.345879
vt -1.689422 -2.345879
vt -0.321170 -1.473742
vt 0.883220 -1.473742
vt 0.883220 -2.345879
vt -0.321170 -2.345879
vt -0.321170 0.136210
vt 0.883220 0.136210
vt 0.883220 -1.371336
vt -0.321170 -1.371336
vt -6.284620 -1.371336
vt -6.307018 -1.371336
vt -6.307017 0.136210
vt -6.284620 0.136210
vt 7.284619 0.136210
vt 7.307017 0.136210
vt 7.307017 -1.371336
vt 7.284620 -1.371336
vt 7.284619 -1.473742
vt 7.307017 -1.473742
vt 7.307017 -2.345879
vt 7.284620 -2.345879
vt -6.284620 -2.345879
vt -6.307018 -2.345879
vt -6.307017 -1.473742
vt -6.284620 -1.473742
vt 7.284620 -1.473742
vt 7.307017 -1.473742
vt 7.307018 -2.345879
vt -6.284620 -2.345879
vt -6.307018 -1.473742
vt -6.307018 0.136210
vt -6.284620 0.136210
vt 7.284620 0.136210
vt 7.307017 0.136210
vt 7.307018 -1.371336
vt 7.284620 -1.371336
s 0
f 1/1/1 3/2/1 2/3/1
f 4/1/1 6/3/1 5/4/1
f 7/5/1 9/6/1 8/7/1
f 10/5/1 12/7/1 11/8/1
f 13/9/1 15/10/1 14/11/1
f 16/9/1 18/11/1 17/12/1
f 19/13/1 21/14/1 20/15/1
f 22/13/1 24/15/1 23/16/1
f 25/17/2 27/18/2 26/19/2
f 28/17/2 30/19/2 29/20/2
f 31/21/2 33/22/2 32/23/2
f 34/21/2 36/23/2 35/24/2
f 37/25/2 39/26/2 38/27/2
f 40/25/2 42/27/2 41/28/2
f 43/29/2 45/30/2 44/31/2
f 46/29/2 48/31/2 47/32/2
f 49/33/3 51/34/3 50/35/3
f 52/33/3 54/35/3 53/36/3
f 55/37/4 57/38/4 56/39/4
f 58/37/4 60/39/4 59/40/4
f 61/41/5 63/42/5 62/43/5
f 64/41/5 66/43/5 65/44/5
f 67/45/6 69/46/6 68/47/6
f 70/45/6 72/47/6 71/48/6
f 73/49/6 75/50/6 74/51/6
f 76/49/6 78/51/6 77/52/6
f 79/53/5 81/54/5 80/55/5
f 82/53/5 84/55/5 83/56/5
f 85/57/7 87/58/7 86/59/7
f 88/57/7 90/59/7 89/60/7
f 91/61/3 93/62/3 92/63/3
f 94/61/3 96/63/3 95/64/3
f 97/65/6 99/66/6 98/67/6
f 100/65/6 102/67/6 101/68/6
f 103/69/5 105/70/5 104/71/5
f 106/69/5 108/71/5 107/72/5
f 109/73/7 111/74/7 110/75/7
f 112/73/7 114/75/7 113/76/7
f 115/77/3 117/78/3 116/79/3
f 118/77/3 120/79/3 119/80/3
f 121/81/3 123/82/3 122/83/3
f 124/81/3 126/83/3 125/84/3
f 127/73/4 129/74/4 128/85/4
f 130/73/4 132/85/4 131/76/4
f 133/86/5 135/87/5 134/88/5
f 136/86/5 138/88/5 137/89/5
f 139/65/6 141/90/6 140/91/6
f 142/65/6 144/91/6 143/68/6
f 145/92/1 147/93/1 146/94/1
f 148/92/1 150/94/1 149/95/1
f 151/96/1 153/97/1 152/98/1
f 154/96/1 156/98/1 155/99/1
f 157/100/1 159/101/1 158/102/1
f 160/100/1 162/102/1 161/103/1
f 163/104/1 165/105/1 164/106/1
f 166/104/1 168/106/1 167/107/1
f 169/108/2 171/109/2 170/110/2
f 172/108/2 174/110/2 173/111/2
f 175/112/2 177/113/2 176/114/2
f 178/112/2 180/114/2 179/115/2
f 181/116/2 183/117/2 182/118/2
f 184/116/2 186/118/2 185/119/2
f 187/120/2 189/121/2 188/122/2
f 190/120/2 192/122/2 191/123/2
f 193/124/3 195/125/3 194/126/3
f 196/124/3 198/126/3 197/127/3
f 199/128/4 201/129/4 200/130/4
f 202/128/4 204/130/4 203/131/4
f 205/132/5 207/133/5 206/134/5
f 208/132/5 210/134/5 209/135/5
f 211/136/6 213/137/6 212/138/6
f 214/136/6 216/138/6 215/139/6
f 217/136/6 219/137/6 218/138/6
f 220/136/6 222/138/6 221/139/6
f 223/140/5 225/141/5 224/142/5
f 226/140/5 228/142/5 227/143/5
f 229/128/7 231/129/7 230/130/7
f 232/128/7 234/130/7 233/131/7
f 235/144/3 237/145/3 236/146/3
f 238/144/3 240/146/3 239/147/3
f 241/148/6 243/149/6 242/150/6
f 244/148/6 246/150/6 245/151/6
f 247/152/5 249/153/5 248/154/5
f 250/152/5 252/154/5 251/155/5
f 253/156/7 255/157/7 254/158/7
f 256/156/7 258/158/7 257/159/7
f 259/160/3 261/161/3 260/162/3
f 262/160/3 264/162/3 263/163/3
f 265/164/3 267/165/3 266/166/3
f 268/164/3 270/166/3 269/167/3
f 271/156/4 273/157/4 272/168/4
f 274/156/4 276/168/4 275/159/4
f 277/169/5 279/170/5 278/171/5
f 280/169/5 282/171/5 281/172/5
f 283/148/6 285/173/6 284/174/6
f 286/148/6 288/174/6 287/151/6
f 289/175/1 291/176/1 290/177/1
f 292/175/1 294/177/1 293/178/1
f 295/179/1 297/180/1 296/181/1
f 298/179/1 300/181/1 299/182/1
f 301/183/1 303/184/1 302/185/1
f 304/183/1 306/185/1 305/186/1
f 307/187/1 309/188/1 308/189/1
f 310/187/1 312/189/1 311/190/1
f 313/191/2 315/192/2 314/193/2
f 316/191/2 318/193/2 317/194/2
f 319/195/2 321/196/2 320/197/2
f 322/195/2 324/197/2 323/198/2
f 325/199/2 327/200/2 326/201/2
f 328/199/2 330/201/2 329/202/2
f 331/203/2 333/204/2 332/205/2
f 334/203/2 336/205/2 335/206/2
f 337/207/3 339/208/3 338/209/3
f 340/207/3 342/209/3 341/210/3
f 343/211/4 345/212/4 344/213/4
f 346/211/4 348/213/4 347/214/4
f 349/215/5 351/216/5 350/217/5
f 352/215/5 354/217/5 353/218/5
f 355/219/6 357/220/6 356/221/6
f 358/219/6 360/221/6 359/222/6
f 361/219/6 363/220/6 362/221/6
f 364/219/6 366/221/6 365/222/6
f 367/223/5 369/224/5 368/225/5
f 370/223/5 372/225/5 371/226/5
f 373/211/7 375/212/7 374/213/7
f 376/211/7 378/213/7 377/214/7
f 379/227/3 381/228/3 380/229/3
f 382/227/3 384/229/3 383/230/3
f 385/231/6 387/232/6 386/233/6
f 388/231/6 390/233/6 389/234/6
f 391/235/5 393/236/5 392/237/5
f 394/235/5 396/237/5 395/238/5
f 397/239/7 399/240/7 398/241/7
f 400/239/7 402/241/7 401/242/7
f 403/243/3 405/244/3 404/245/3
f 406/243/3 408/245/3 407/246/3
f 409/247/3 411/248/3 410/249/3
f 412/247/3 414/249/3 413/250/3
f 415/239/4 417/240/4 416/251/4
f 418/239/4 420/251/4 419/242/4
f 421/252/5 423/253/5 422/254/5
f 424/252/5 426/254/5 425/255/5
f 427/231/6 429/256/6 428/257/6
f 430/231/6 432/257/6 431/234/6
f 433/258/1 435/259/1 434/260/1
f 436/258/1 438/260/1 437/261/1
f 439/262/1 441/263/1 440/264/1
f 442/262/1 444/264/1 443/265/1
f 445/266/1 447/267/1 446/268/1
f 448/266/1 450/268/1 449/269/1
f 451/270/1 453/271/1 452/272/1
f 454/270/1 456/272/1 455/273/1
f 457/274/2 459/275/2 458/276/2
f 460/274/2 462/276/2 461/277/2
f 463/278/2 465/279/2 464/280/2
f 466/278/2 468/280/2 467/281/2
f 469/282/2 471/283/2 470/284/2
f 472/282/2 474/284/2 473/285/2
f 475/286/2 477/287/2 476/288/2
f 478/286/2 480/288/2 479/289/2
f 481/290/3 483/291/3 482/292/3
f 484/290/3 486/292/3 485/293/3
f 487/294/4 489/295/4 488/296/4
f 490/294/4 492/296/4 491/297/4
f 493/298/5 495/299/5 494/300/5
f 496/298/5 498/300/5 497/301/5
f 499/302/8 501/303/8 500/304/8
f 502/302/8 504/304/8 503/305/8
f 505/302/6 507/303/6 506/304/6
f 508/302/6 510/304/6 509/305/6
f 511/306/5 513/307/5 512/308/5
f 514/306/5 516/308/5 515/309/5
f 517/294/4 519/295/4 518/296/4
f 520/294/4 522/296/4 521/297/4
f 523/310/3 525/311/3 524/312/3
f 526/310/3 528/312/3 527/313/3
f 529/314/6 531/315/6 530/316/6
f 532/314/6 534/316/6 533/317/6
f 535/318/5 537/319/5 536/320/5
f 538/318/5 540/320/5 539/321/5
f 541/322/4 543/323/4 542/324/4
f 544/322/4 546/324/4 545/325/4
f 547/326/3 549/327/3 548/328/3
f 550/326/3 552/328/3 551/329/3
f 553/330/3 555/331/3 554/332/3
f 556/330/3 558/332/3 557/333/3
f 559/322/4 561/323/4 560/334/4
f 562/322/4 564/334/4 563/325/4
f 565/335/5 567/336/5 566/337/5
f 568/335/5 570/337/5 569/338/5
f 571/314/8 573/339/8 572/340/8
f 574/314/8 576/340/8 575/317/8
f 577/341/1 579/342/1 578/343/1
f 580/341/1 582/343/1 581/344/1
f 583/345/1 585/346/1 584/347/1
f 586/345/1 588/347/1 587/348/1
f 589/349/1 591/350/1 590/351/1
f 592/349/1 594/351/1 593/352/1
f 595/353/1 597/354/1 596/355/1
f 598/353/1 600/355/1 599/356/1
f 601/357/2 603/358/2 602/359/2
f 604/357/2 606/359/2 605/360/2
f 607/361/2 609/362/2 608/363/2
f 610/361/2 612/363/2 611/364/2
f 613/365/2 615/366/2 614/367/2
f 616/365/2 618/367/2 617/368/2
f 619/369/2 621/370/2 620/371/2
f 622/369/2 624/371/2 623/372/2
f 625/373/3 627/374/3 626/375/3
f 628/373/3 630/375/3 629/376/3
f 631/294/4 633/295/4 632/296/4
f 634/294/4 636/296/4 635/297/4
f 637/377/5 639/378/5 638/379/5
f 640/377/5 642/379/5 641/380/5
f 643/302/6 645/303/6 644/304/6
f 646/302/6 648/304/6 647/305/6
f 649/302/6 651/303/6 650/304/6
f 652/302/6 654/304/6 653/305/6
f 655/381/5 657/382/5 656/383/5
f 658/381/5 660/383/5 659/384/5
f 661/294/4 663/295/4 662/296/4
f 664/294/4 666/296/4 665/297/4
f 667/385/3 669/386/3 668/387/3
f 670/385/3 672/387/3 671/388/3
f 673/314/6 675/315/6 674/316/6
f 676/314/6 678/316/6 677/317/6
f 679/389/5 681/390/5 680/391/5
f 682/389/5 684/391/5 683/392/5
f 685/322/4 687/323/4 686/324/4
f 688/322/4 690/324/4 689/325/4
f 691/393/3 693/394/3 692/395/3
f 694/393/3 696/395/3 695/396/3
f 697/397/3 699/398/3 698/399/3
f 700/397/3 702/399/3 701/400/3
f 703/322/4 705/323/4 704/334/4
f 706/322/4 708/334/4 707/325/4
f 709/401/5 711/402/5 710/403/5
f 712/401/5 714/403/5 713/404/5
f 715/314/6 717/339/6 716/340/6
f 718/314/6 720/340/6 719/317/6
f 721/405/1 723/406/1 722/407/1
f 724/405/1 726/407/1 725/408/1
f 727/409/1 729/410/1 728/411/1
f 730/409/1 732/411/1 731/412/1
f 733/413/1 735/414/1 734/415/1
f 736/413/1 738/415/1 737/416/1
f 739/417/1 741/418/1 740/419/1
f 742/417/1 744/419/1 743/420/1
f 745/421/2 747/422/2 746/423/2
f 748/421/2 750/423/2 749/424/2
f 751/425/2 753/426/2 752/427/2
f 754/425/2 756/427/2 755/428/2
f 757/429/2 759/430/2 758/431/2
f 760/429/2 762/431/2 761/432/2
f 763/433/2 765/434/2 764/435/2
f 766/433/2 768/435/2 767/436/2
f 769/437/3 771/438/3 770/439/3
f 772/437/3 774/439/3 773/440/3
f 775/441/4 777/442/4 776/443/4
f 778/441/4 780/443/4 779/444/4
f 781/445/5 783/446/5 782/447/5
f 784/445/5 786/447/5 785/448/5
f 787/449/6 789/450/6 788/451/6
f 790/449/6 792/451/6 791/452/6
f 793/453/6 795/454/6 794/455/6
f 796/453/6 798/455/6 797/456/6
f 799/457/5 801/458/5 800/459/5
f 802/457/5 804/459/5 803/460/5
f 805/461/4 807/462/4 806/463/4
f 808/461/4 810/463/4 809/464/4
f 811/465/3 813/466/3 812/467/3
f 814/465/3 816/467/3 815/468/3
f 817/469/6 819/470/6 818/471/6
f 820/469/6 822/471/6 821/472/6
f 823/473/5 825/474/5 824/475/5
f 826/473/5 828/475/5 827/476/5
f 829/477/4 831/478/4 830/479/4
f 832/477/4 834/479/4 833/480/4
f 835/481/3 837/482/3 836/483/3
f 838/481/3 840/483/3 839/484/3
f 841/485/3 843/486/3 842/487/3
f 844/485/3 846/487/3 845/488/3
f 847/477/4 849/478/4 848/489/4
f 850/477/4 852/489/4 851/480/4
f 853/490/5 855/491/5 854/492/5
f 856/490/5 858/492/5 857/493/5
f 859/469/6 861/494/6 860/495/6
f 862/469/6 864/495/6 863/472/6
f 865/496/5 867/497/5 866/498/5
f 868/496/5 870/498/5 869/499/5
f 871/500/5 873/501/5 872/502/5
f 874/500/5 876/502/5 875/503/5
f 877/504/5 879/505/5 878/506/5
f 880/504/5 882/506/5 881/507/5
f 883/508/5 885/509/5 884/510/5
f 886/508/5 888/510/5 887/511/5
f 889/512/3 891/513/3 890/514/3
f 892/512/3 894/514/3 893/515/3
f 895/516/3 897/517/3 896/518/3
f 898/516/3 900/518/3 899/519/3
f 901/520/3 903/521/3 902/522/3
f 904/520/3 906/522/3 905/523/3
f 907/524/3 909/525/3 908/526/3
f 910/524/3 912/526/3 911/527/3
f 913/528/6 915/529/6 914/530/6
f 916/528/6 918/530/6 917/531/6
f 919/532/2 921/533/2 920/534/2
f 922/532/2 924/534/2 923/535/2
f 925/536/4 927/537/4 926/538/4
f 928/536/4 930/538/4 929/539/4
f 931/540/1 933/541/1 932/542/1
f 934/540/1 936/542/1 935/543/1
f 937/544/4 939/545/4 938/546/4
f 940/544/4 942/546/4 941/539/4
f 943/547/1 945/548/1 944/549/1
f 946/547/1 948/549/1 947/550/1
f 949/528/6 951/529/6 950/551/6
f 952/528/6 954/551/6 953/552/6
f 955/553/2 957/554/2 956/555/2
f 958/553/2 960/555/2 959/556/2
f 961/557/4 963/558/4 962/559/4
f 964/557/4 966/559/4 965/560/4
f 967/561/1 969/548/1 968/562/1
f 970/561/1 972/562/1 971/550/1
f 973/563/6 975/564/6 974/565/6
f 976/563/6 978/565/6 977/566/6
f 979/567/2 981/568/2 980/569/2
f 982/567/2 984/569/2 983/556/2
f 985/570/6 987/564/6 986/565/6
f 988/570/6 990/565/6 989/566/6
f 991/571/2 993/572/2 992/573/2
f 994/571/2 996/573/2 995/574/2
f 997/575/4 999/558/4 998/559/4
f 1000/575/4 1002/559/4 1001/560/4
f 1003/540/1 1005/541/1 1004/576/1
f 1006/540/1 1008/576/1 1007/577/1
f 1009/578/5 1011/579/5 1010/580/5
f 1012/578/5 1014/580/5 1013/581/5
f 1015/582/5 1017/583/5 1016/584/5
f 1018/582/5 1020/584/5 1019/585/5
f 1021/586/5 1023/587/5 1022/588/5
f 1024/586/5 1026/588/5 1025/589/5
f 1027/590/5 1029/591/5 1028/592/5
f 1030/590/5 1032/592/5 1031/593/5
f 1033/594/3 1035/595/3 1034/596/3
f 1036/594/3 1038/596/3 1037/597/3
f 1039/598/3 1041/599/3 1040/600/3
f 1042/598/3 1044/600/3 1043/601/3
f 1045/602/3 1047/603/3 1046/604/3
f 1048/602/3 1050/604/3 1049/605/3
f 1051/606/3 1053/607/3 1052/608/3
f 1054/606/3 1056/608/3 1055/609/3
f 1057/610/6 1059/611/6 1058/612/6
f 1060/610/6 1062/612/6 1061/613/6
f 1063/614/2 1065/615/2 1064/616/2
f 1066/614/2 1068/616/2 1067/617/2
f 1069/618/4 1071/619/4 1070/620/4
f 1072/618/4 1074/620/4 1073/621/4
f 1075/622/1 1077/623/1 1076/624/1
f 1078/622/1 1080/624/1 1079/625/1
f 1081/618/4 1083/619/4 1082/626/4
f 1084/618/4 1086/626/4 1085/621/4
f 1087/627/1 1089/628/1 1088/629/1
f 1090/627/1 1092/629/1 1091/630/1
f 1093/610/6 1095/611/6 1094/612/6
f 1096/610/6 1098/612/6 1097/631/6
f 1099/632/2 1101/633/2 1100/634/2
f 1102/632/2 1104/634/2 1103/635/2
f 1105/636/4 1107/637/4 1106/638/4
f 1108/636/4 1110/638/4 1109/639/4
f 1111/640/1 1113/628/1 1112/641/1
f 1114/640/1 1116/641/1 1115/630/1
f 1117/642/6 1119/643/6 1118/644/6
f 1120/642/6 1122/644/6 1121/645/6
f 1123/646/2 1125/647/2 1124/648/2
f 1126/646/2 1128/648/2 1127/635/2
f 1129/649/6 1131/643/6 1130/644/6
f 1132/649/6 1134/644/6 1133/645/6
f 1135/650/2 1137/651/2 1136/652/2
f 1138/650/2 1140/652/2 1139/653/2
f 1141/654/4 1143/637/4 1142/638/4
f 1144/654/4 1146/638/4 1145/639/4
f 1147/622/1 1149/623/1 1148/655/1
f 1150/622/1 1152/655/1 1151/656/1
f 1153/657/5 1155/658/5 1154/659/5
f 1156/657/5 1158/659/5 1157/660/5
f 1159/661/5 1161/662/5 1160/663/5
f 1162/661/5 1164/663/5 1163/664/5
f 1165/665/5 1167/666/5 1166/667/5
f 1168/665/5 1170/667/5 1169/668/5
f 1171/669/5 1173/670/5 1172/671/5
f 1174/669/5 1176/671/5 1175/672/5
f 1177/673/3 1179/674/3 1178/675/3
f 1180/673/3 1182/675/3 1181/676/3
f 1183/677/3 1185/678/3 1184/679/3
f 1186/677/3 1188/679/3 1187/680/3
f 1189/681/3 1191/682/3 1190/683/3
f 1192/681/3 1194/683/3 1193/684/3
f 1195/685/3 1197/686/3 1196/687/3
f 1198/685/3 1200/687/3 1199/688/3
f 1201/689/1 1203/690/1 1202/691/1
f 1204/689/1 1206/691/1 1205/692/1
f 1207/536/4 1209/537/4 1208/538/4
f 1210/536/4 1212/538/4 1211/539/4
f 1213/693/2 1215/694/2 1214/695/2
f 1216/693/2 1218/695/2 1217/696/2
f 1219/528/6 1221/529/6 1220/530/6
f 1222/528/6 1224/530/6 1223/531/6
f 1225/528/6 1227/529/6 1226/551/6
f 1228/528/6 1230/551/6 1229/552/6
f 1231/697/2 1233/698/2 1232/699/2
f 1234/697/2 1236/699/2 1235/700/2
f 1237/544/4 1239/545/4 1238/546/4
f 1240/544/4 1242/546/4 1241/539/4
f 1243/701/1 1245/702/1 1244/703/1
f 1246/701/1 1248/703/1 1247/704/1
f 1249/563/6 1251/564/6 1250/565/6
f 1252/563/6 1254/565/6 1253/566/6
f 1255/705/2 1257/706/2 1256/707/2
f 1258/705/2 1260/707/2 1259/700/2
f 1261/557/4 1263/558/4 1262/559/4
f 1264/557/4 1266/559/4 1265/560/4
f 1267/708/1 1269/702/1 1268/709/1
f 1270/708/1 1272/709/1 1271/704/1
f 1273/689/1 1275/690/1 1274/710/1
f 1276/689/1 1278/710/1 1277/711/1
f 1279/575/4 1281/558/4 1280/559/4
f 1282/575/4 1284/559/4 1283/560/4
f 1285/712/2 1287/713/2 1286/714/2
f 1288/712/2 1290/714/2 1289/715/2
f 1291/570/6 1293/564/6 1292/565/6
f 1294/570/6 1296/565/6 1295/566/6
