# Blender 5.2.0 LTS
# www.blender.org
o demo5_background.014
v -1.000216 0.706747 -0.024131
v -1.000216 1.019434 -0.024131
v -0.667587 1.019434 -0.024131
v -0.667587 1.019434 -0.024131
v -0.667587 0.706747 -0.024131
v -1.000216 0.706747 -0.024131
v -1.000216 0.706747 0.855352
v -0.667587 0.706747 0.855352
v -0.667587 1.019433 0.855351
v -0.667587 1.019433 0.855351
v -1.000216 1.019433 0.855351
v -1.000216 0.706747 0.855352
v -1.000216 0.706747 -0.024131
v -0.667587 0.706747 -0.024131
v -0.667587 0.706747 0.855352
v -0.667587 0.706747 0.855352
v -1.000216 0.706747 0.855352
v -1.000216 0.706747 -0.024131
v -0.667587 0.706747 -0.024131
v -0.667587 1.019434 -0.024131
v -0.667587 1.019433 0.855351
v -0.667587 1.019433 0.855351
v -0.667587 0.706747 0.855352
v -0.667587 0.706747 -0.024131
v -0.667587 1.019434 -0.024131
v -1.000216 1.019434 -0.024131
v -1.000216 1.019433 0.855351
v -1.000216 1.019433 0.855351
v -0.667587 1.019433 0.855351
v -0.667587 1.019434 -0.024131
v -1.000216 1.019434 -0.024131
v -1.000216 0.706747 -0.024131
v -1.000216 0.706747 0.855352
v -1.000216 0.706747 0.855352
v -1.000216 1.019433 0.855351
v -1.000216 1.019434 -0.024131
v -1.039531 0.666623 0.823023
v -1.039531 1.059558 0.823021
v -0.628272 1.059558 0.823021
v -0.628272 1.059558 0.823021
v -0.628272 0.666623 0.823023
v -1.039531 0.666623 0.823023
v -1.039531 0.666623 0.884602
v -0.628272 0.666623 0.884602
v -0.628272 1.059558 0.884602
v -0.628272 1.059558 0.884602
v -1.039531 1.059558 0.884602
v -1.039531 0.666623 0.884602
v -1.039531 0.666623 0.823023
v -0.628272 0.666623 0.823023
v -0.628272 0.666623 0.884602
v -0.628272 0.666623 0.884602
v -1.039531 0.666623 0.884602
v -1.039531 0.666623 0.823023
v -0.628272 0.666623 0.823023
v -0.628272 1.059558 0.823021
v -0.628272 1.059558 0.884602
v -0.628272 1.059558 0.884602
v -0.628272 0.666623 0.884602
v -0.628272 0.666623 0.823023
v -0.628272 1.059558 0.823021
v -1.039531 1.059558 0.823021
v -1.039531 1.059558 0.884602
v -1.039531 1.059558 0.884602
v -0.628272 1.059558 0.884602
v -0.628272 1.059558 0.823021
v -1.039531 1.059558 0.823021
v -1.039531 0.666623 0.823023
v -1.039531 0.666623 0.884602
v -1.039531 0.666623 0.884602
v -1.039531 1.059558 0.884602
v -1.039531 1.059558 0.823021
v -1.039531 0.666623 -0.044341
v -1.039531 1.059558 -0.044341
v -0.628272 1.059558 -0.044341
v -0.628272 1.059558 -0.044341
v -0.628272 0.666622 -0.044341
v -1.039531 0.666623 -0.044341
v -1.039531 0.666623 0.017238
v -0.628272 0.666622 0.017238
v -0.628272 1.059558 0.017239
v -0.628272 1.059558 0.017239
v -1.039531 1.059558 0.017239
v -1.039531 0.666623 0.017238
v -1.039531 0.666623 -0.044341
v -0.628272 0.666622 -0.044341
v -0.628272 0.666622 0.017238
v -0.628272 0.666622 0.017238
v -1.039531 0.666623 0.017238
v -1.039531 0.666623 -0.044341
v -0.628272 0.666622 -0.044341
v -0.628272 1.059558 -0.044341
v -0.628272 1.059558 0.017239
v -0.628272 1.059558 0.017239
v -0.628272 0.666622 0.017238
v -0.628272 0.666622 -0.044341
v -0.628272 1.059558 -0.044341
v -1.039531 1.059558 -0.044341
v -1.039531 1.059558 0.017239
v -1.039531 1.059558 0.017239
v -0.628272 1.059558 0.017239
v -0.628272 1.059558 -0.044341
v -1.039531 1.059558 -0.044341
v -1.039531 0.666623 -0.044341
v -1.039531 0.666623 0.017238
v -1.039531 0.666623 0.017238
v -1.039531 1.059558 0.017239
v -1.039531 1.059558 -0.044341
v -0.676853 1.010167 -0.014864
v -0.990949 1.010167 -0.014864
v -0.990949 0.716014 -0.014865
v -0.990949 0.716014 -0.014865
v -0.676853 0.716013 -0.014865
v -0.676853 1.010167 -0.014864
v -0.676853 1.010167 0.846085
v -0.676853 0.716014 0.846085
v -0.990949 0.716014 0.846085
v -0.990949 0.716014 0.846085
v -0.990949 1.010167 0.846085
v -0.676853 1.010167 0.846085
v -0.676853 0.716014 0.846085
v -0.676853 0.716013 -0.014865
v -0.990949 0.716014 -0.014865
v -0.990949 0.716014 -0.014865
v -0.990949 0.716014 0.846085
v -0.676853 0.716014 0.846085
v -0.676853 1.010167 0.846085
v -0.676853 1.010167 -0.014864
v -0.676853 0.716013 -0.014865
v -0.676853 0.716013 -0.014865
v -0.676853 0.716014 0.846085
v -0.676853 1.010167 0.846085
v -0.990949 1.010167 0.846085
v -0.990949 1.010167 -0.014864
v -0.676853 1.010167 -0.014864
v -0.676853 1.010167 -0.014864
v -0.676853 1.010167 0.846085
v -0.990949 1.010167 0.846085
v -0.990949 0.716014 0.846085
v -0.990949 0.716014 -0.014865
v -0.990949 1.010167 -0.014864
v -0.990949 1.010167 -0.014864
v -0.990949 1.010167 0.846085
v -0.990949 0.716014 0.846085
v -0.637538 1.050292 0.832288
v -1.030265 1.050292 0.832288
v -1.030265 0.675889 0.832290
v -1.030265 0.675889 0.832290
v -0.637538 0.675889 0.832290
v -0.637538 1.050292 0.832288
v -0.637538 1.050292 0.875336
v -0.637538 0.675889 0.875338
v -1.030265 0.675889 0.875338
v -1.030265 0.675889 0.875338
v -1.030265 1.050292 0.875336
v -0.637538 1.050292 0.875336
v -0.637538 0.675889 0.875338
v -0.637538 0.675889 0.832290
v -1.030265 0.675889 0.832290
v -1.030265 0.675889 0.832290
v -1.030265 0.675889 0.875338
v -0.637538 0.675889 0.875338
v -0.637538 1.050292 0.875336
v -0.637538 1.050292 0.832288
v -0.637538 0.675889 0.832290
v -0.637538 0.675889 0.832290
v -0.637538 0.675889 0.875338
v -0.637538 1.050292 0.875336
v -1.030265 1.050292 0.875336
v -1.030265 1.050292 0.832288
v -0.637538 1.050292 0.832288
v -0.637538 1.050292 0.832288
v -0.637538 1.050292 0.875336
v -1.030265 1.050292 0.875336
v -1.030265 0.675889 0.875338
v -1.030265 0.675889 0.832290
v -1.030265 1.050292 0.832288
v -1.030265 1.050292 0.832288
v -1.030265 1.050292 0.875336
v -1.030265 0.675889 0.875338
v -0.637538 1.050291 -0.035074
v -1.030265 1.050291 -0.035074
v -1.030265 0.675889 -0.035074
v -1.030265 0.675889 -0.035074
v -0.637538 0.675889 -0.035074
v -0.637538 1.050291 -0.035074
v -0.637538 1.050291 0.007972
v -0.637538 0.675889 0.007974
v -1.030265 0.675889 0.007974
v -1.030265 0.675889 0.007974
v -1.030265 1.050291 0.007972
v -0.637538 1.050291 0.007972
v -0.637538 0.675889 0.007974
v -0.637538 0.675889 -0.035074
v -1.030265 0.675889 -0.035074
v -1.030265 0.675889 -0.035074
v -1.030265 0.675889 0.007974
v -0.637538 0.675889 0.007974
v -0.637538 1.050291 0.007972
v -0.637538 1.050291 -0.035074
v -0.637538 0.675889 -0.035074
v -0.637538 0.675889 -0.035074
v -0.637538 0.675889 0.007974
v -0.637538 1.050291 0.007972
v -1.030265 1.050291 0.007972
v -1.030265 1.050291 -0.035074
v -0.637538 1.050291 -0.035074
v -0.637538 1.050291 -0.035074
v -0.637538 1.050291 0.007972
v -1.030265 1.050291 0.007972
v -1.030265 0.675889 0.007974
v -1.030265 0.675889 -0.035074
v -1.030265 1.050291 -0.035074
v -1.030265 1.050291 -0.035074
v -1.030265 1.050291 0.007972
v -1.030265 0.675889 0.007974
v -1.026208 0.706747 -0.024131
v -1.026208 1.019434 -0.024131
v -0.693579 1.019434 -0.024131
v -0.693579 1.019434 -0.024131
v -0.693580 0.706747 -0.024131
v -1.026208 0.706747 -0.024131
v -1.026208 0.706747 0.855352
v -0.693579 0.706747 0.855352
v -0.693579 1.019433 0.855351
v -0.693579 1.019433 0.855351
v -1.026208 1.019433 0.855351
v -1.026208 0.706747 0.855352
v -1.026208 0.706747 -0.024131
v -0.693580 0.706747 -0.024131
v -0.693579 0.706747 0.855352
v -0.693579 0.706747 0.855352
v -1.026208 0.706747 0.855352
v -1.026208 0.706747 -0.024131
v -0.693580 0.706747 -0.024131
v -0.693579 1.019434 -0.024131
v -0.693579 1.019433 0.855351
v -0.693579 1.019433 0.855351
v -0.693579 0.706747 0.855352
v -0.693580 0.706747 -0.024131
v -0.693579 1.019434 -0.024131
v -1.026208 1.019434 -0.024131
v -1.026208 1.019433 0.855351
v -1.026208 1.019433 0.855351
v -0.693579 1.019433 0.855351
v -0.693579 1.019434 -0.024131
v -1.026208 1.019434 -0.024131
v -1.026208 0.706747 -0.024131
v -1.026208 0.706747 0.855352
v -1.026208 0.706747 0.855352
v -1.026208 1.019433 0.855351
v -1.026208 1.019434 -0.024131
v -1.065524 0.666623 0.823023
v -1.065523 1.059558 0.823021
v -0.654264 1.059558 0.823021
v -0.654264 1.059558 0.823021
v -0.654264 0.666623 0.823023
v -1.065524 0.666623 0.823023
v -1.065524 0.666623 0.884602
v -0.654264 0.666623 0.884602
v -0.654264 1.059558 0.884602
v -0.654264 1.059558 0.884602
v -1.065523 1.059558 0.884602
v -1.065524 0.666623 0.884602
v -1.065524 0.666623 0.823023
v -0.654264 0.666623 0.823023
v -0.654264 0.666623 0.884602
v -0.654264 0.666623 0.884602
v -1.065524 0.666623 0.884602
v -1.065524 0.666623 0.823023
v -0.654264 0.666623 0.823023
v -0.654264 1.059558 0.823021
v -0.654264 1.059558 0.884602
v -0.654264 1.059558 0.884602
v -0.654264 0.666623 0.884602
v -0.654264 0.666623 0.823023
v -0.654264 1.059558 0.823021
v -1.065523 1.059558 0.823021
v -1.065523 1.059558 0.884602
v -1.065523 1.059558 0.884602
v -0.654264 1.059558 0.884602
v -0.654264 1.059558 0.823021
v -1.065523 1.059558 0.823021
v -1.065524 0.666623 0.823023
v -1.065524 0.666623 0.884602
v -1.065524 0.666623 0.884602
v -1.065523 1.059558 0.884602
v -1.065523 1.059558 0.823021
v -1.065524 0.666623 -0.044341
v -1.065524 1.059558 -0.044341
v -0.654264 1.059558 -0.044341
v -0.654264 1.059558 -0.044341
v -0.654264 0.666622 -0.044341
v -1.065524 0.666623 -0.044341
v -1.065524 0.666623 0.017238
v -0.654264 0.666622 0.017238
v -0.654264 1.059558 0.017239
v -0.654264 1.059558 0.017239
v -1.065524 1.059558 0.017239
v -1.065524 0.666623 0.017238
v -1.065524 0.666623 -0.044341
v -0.654264 0.666622 -0.044341
v -0.654264 0.666622 0.017238
v -0.654264 0.666622 0.017238
v -1.065524 0.666623 0.017238
v -1.065524 0.666623 -0.044341
v -0.654264 0.666622 -0.044341
v -0.654264 1.059558 -0.044341
v -0.654264 1.059558 0.017239
v -0.654264 1.059558 0.017239
v -0.654264 0.666622 0.017238
v -0.654264 0.666622 -0.044341
v -0.654264 1.059558 -0.044341
v -1.065524 1.059558 -0.044341
v -1.065524 1.059558 0.017239
v -1.065524 1.059558 0.017239
v -0.654264 1.059558 0.017239
v -0.654264 1.059558 -0.044341
v -1.065524 1.059558 -0.044341
v -1.065524 0.666623 -0.044341
v -1.065524 0.666623 0.017238
v -1.065524 0.666623 0.017238
v -1.065524 1.059558 0.017239
v -1.065524 1.059558 -0.044341
v -0.702846 1.010167 -0.014864
v -1.016942 1.010167 -0.014864
v -1.016942 0.716014 -0.014865
v -1.016942 0.716014 -0.014865
v -0.702846 0.716013 -0.014865
v -0.702846 1.010167 -0.014864
v -0.702846 1.010167 0.846085
v -0.702846 0.716014 0.846085
v -1.016942 0.716014 0.846085
v -1.016942 0.716014 0.846085
v -1.016942 1.010167 0.846085
v -0.702846 1.010167 0.846085
v -0.702846 0.716014 0.846085
v -0.702846 0.716013 -0.014865
v -1.016942 0.716014 -0.014865
v -1.016942 0.716014 -0.014865
v -1.016942 0.716014 0.846085
v -0.702846 0.716014 0.846085
v -0.702846 1.010167 0.846085
v -0.702846 1.010167 -0.014864
v -0.702846 0.716013 -0.014865
v -0.702846 0.716013 -0.014865
v -0.702846 0.716014 0.846085
v -0.702846 1.010167 0.846085
v -1.016942 1.010167 0.846085
v -1.016942 1.010167 -0.014864
v -0.702846 1.010167 -0.014864
v -0.702846 1.010167 -0.014864
v -0.702846 1.010167 0.846085
v -1.016942 1.010167 0.846085
v -1.016942 0.716014 0.846085
v -1.016942 0.716014 -0.014865
v -1.016942 1.010167 -0.014864
v -1.016942 1.010167 -0.014864
v -1.016942 1.010167 0.846085
v -1.016942 0.716014 0.846085
v -0.663530 1.050292 0.832288
v -1.056257 1.050292 0.832288
v -1.056257 0.675889 0.832290
v -1.056257 0.675889 0.832290
v -0.663530 0.675889 0.832290
v -0.663530 1.050292 0.832288
v -0.663530 1.050292 0.875336
v -0.663530 0.675889 0.875338
v -1.056257 0.675889 0.875338
v -1.056257 0.675889 0.875338
v -1.056257 1.050292 0.875336
v -0.663530 1.050292 0.875336
v -0.663530 0.675889 0.875338
v -0.663530 0.675889 0.832290
v -1.056257 0.675889 0.832290
v -1.056257 0.675889 0.832290
v -1.056257 0.675889 0.875338
v -0.663530 0.675889 0.875338
v -0.663530 1.050292 0.875336
v -0.663530 1.050292 0.832288
v -0.663530 0.675889 0.832290
v -0.663530 0.675889 0.832290
v -0.663530 0.675889 0.875338
v -0.663530 1.050292 0.875336
v -1.056257 1.050292 0.875336
v -1.056257 1.050292 0.832288
v -0.663530 1.050292 0.832288
v -0.663530 1.050292 0.832288
v -0.663530 1.050292 0.875336
v -1.056257 1.050292 0.875336
v -1.056257 0.675889 0.875338
v -1.056257 0.675889 0.832290
v -1.056257 1.050292 0.832288
v -1.056257 1.050292 0.832288
v -1.056257 1.050292 0.875336
v -1.056257 0.675889 0.875338
v -0.663530 1.050291 -0.035074
v -1.056257 1.050291 -0.035074
v -1.056257 0.675889 -0.035074
v -1.056257 0.675889 -0.035074
v -0.663531 0.675889 -0.035074
v -0.663530 1.050291 -0.035074
v -0.663530 1.050291 0.007972
v -0.663531 0.675889 0.007974
v -1.056257 0.675889 0.007974
v -1.056257 0.675889 0.007974
v -1.056257 1.050291 0.007972
v -0.663530 1.050291 0.007972
v -0.663531 0.675889 0.007974
v -0.663531 0.675889 -0.035074
v -1.056257 0.675889 -0.035074
v -1.056257 0.675889 -0.035074
v -1.056257 0.675889 0.007974
v -0.663531 0.675889 0.007974
v -0.663530 1.050291 0.007972
v -0.663530 1.050291 -0.035074
v -0.663531 0.675889 -0.035074
v -0.663531 0.675889 -0.035074
v -0.663531 0.675889 0.007974
v -0.663530 1.050291 0.007972
v -1.056257 1.050291 0.007972
v -1.056257 1.050291 -0.035074
v -0.663530 1.050291 -0.035074
v -0.663530 1.050291 -0.035074
v -0.663530 1.050291 0.007972
v -1.056257 1.050291 0.007972
v -1.056257 0.675889 0.007974
v -1.056257 0.675889 -0.035074
v -1.056257 1.050291 -0.035074
v -1.056257 1.050291 -0.035074
v -1.056257 1.050291 0.007972
v -1.056257 0.675889 0.007974
v -4.465877 2.439580 -0.022049
v -4.465877 2.752266 -0.022047
v -4.133248 2.752266 -0.022047
v -4.133248 2.752266 -0.022047
v -4.133248 2.439580 -0.022049
v -4.465877 2.439580 -0.022049
v -4.465877 2.439580 0.659815
v -4.133248 2.439580 0.659815
v -4.133248 2.752266 0.659815
v -4.133248 2.752266 0.659815
v -4.465877 2.752266 0.659815
v -4.465877 2.439580 0.659815
v -4.465877 2.439580 -0.022049
v -4.133248 2.439580 -0.022049
v -4.133248 2.439580 0.659815
v -4.133248 2.439580 0.659815
v -4.465877 2.439580 0.659815
v -4.465877 2.439580 -0.022049
v -4.133248 2.439580 -0.022049
v -4.133248 2.752266 -0.022047
v -4.133248 2.752266 0.659815
v -4.133248 2.752266 0.659815
v -4.133248 2.439580 0.659815
v -4.133248 2.439580 -0.022049
v -4.133248 2.752266 -0.022047
v -4.465877 2.752266 -0.022047
v -4.465877 2.752266 0.659815
v -4.465877 2.752266 0.659815
v -4.133248 2.752266 0.659815
v -4.133248 2.752266 -0.022047
v -4.465877 2.752266 -0.022047
v -4.465877 2.439580 -0.022049
v -4.465877 2.439580 0.659815
v -4.465877 2.439580 0.659815
v -4.465877 2.752266 0.659815
v -4.465877 2.752266 -0.022047
v -4.505192 2.399455 0.634750
v -4.505192 2.792391 0.634750
v -4.093933 2.792390 0.634750
v -4.093933 2.792390 0.634750
v -4.093933 2.399455 0.634750
v -4.505192 2.399455 0.634750
v -4.505192 2.399456 0.682493
v -4.093933 2.399455 0.682493
v -4.093933 2.792390 0.682493
v -4.093933 2.792390 0.682493
v -4.505192 2.792391 0.682493
v -4.505192 2.399456 0.682493
v -4.505192 2.399455 0.634750
v -4.093933 2.399455 0.634750
v -4.093933 2.399455 0.682493
v -4.093933 2.399455 0.682493
v -4.505192 2.399456 0.682493
v -4.505192 2.399455 0.634750
v -4.093933 2.399455 0.634750
v -4.093933 2.792390 0.634750
v -4.093933 2.792390 0.682493
v -4.093933 2.792390 0.682493
v -4.093933 2.399455 0.682493
v -4.093933 2.399455 0.634750
v -4.093933 2.792390 0.634750
v -4.505192 2.792391 0.634750
v -4.505192 2.792391 0.682493
v -4.505192 2.792391 0.682493
v -4.093933 2.792390 0.682493
v -4.093933 2.792390 0.634750
v -4.505192 2.792391 0.634750
v -4.505192 2.399455 0.634750
v -4.505192 2.399456 0.682493
v -4.505192 2.399456 0.682493
v -4.505192 2.792391 0.682493
v -4.505192 2.792391 0.634750
v -4.505192 2.399456 -0.037717
v -4.505192 2.792391 -0.037717
v -4.093933 2.792390 -0.037717
v -4.093933 2.792390 -0.037717
v -4.093933 2.399455 -0.037717
v -4.505192 2.399456 -0.037717
v -4.505192 2.399455 0.010026
v -4.093933 2.399455 0.010026
v -4.093933 2.792390 0.010028
v -4.093933 2.792390 0.010028
v -4.505192 2.792390 0.010028
v -4.505192 2.399455 0.010026
v -4.505192 2.399456 -0.037717
v -4.093933 2.399455 -0.037717
v -4.093933 2.399455 0.010026
v -4.093933 2.399455 0.010026
v -4.505192 2.399455 0.010026
v -4.505192 2.399456 -0.037717
v -4.093933 2.399455 -0.037717
v -4.093933 2.792390 -0.037717
v -4.093933 2.792390 0.010028
v -4.093933 2.792390 0.010028
v -4.093933 2.399455 0.010026
v -4.093933 2.399455 -0.037717
v -4.093933 2.792390 -0.037717
v -4.505192 2.792391 -0.037717
v -4.505192 2.792390 0.010028
v -4.505192 2.792390 0.010028
v -4.093933 2.792390 0.010028
v -4.093933 2.792390 -0.037717
v -4.505192 2.792391 -0.037717
v -4.505192 2.399456 -0.037717
v -4.505192 2.399455 0.010026
v -4.505192 2.399455 0.010026
v -4.505192 2.792390 0.010028
v -4.505192 2.792391 -0.037717
v -4.142514 2.743000 -0.014863
v -4.456610 2.743000 -0.014863
v -4.456610 2.448846 -0.014865
v -4.456610 2.448846 -0.014865
v -4.142514 2.448846 -0.014865
v -4.142514 2.743000 -0.014863
v -4.142514 2.743000 0.652631
v -4.142514 2.448846 0.652631
v -4.456610 2.448847 0.652631
v -4.456610 2.448847 0.652631
v -4.456610 2.743000 0.652631
v -4.142514 2.743000 0.652631
v -4.142514 2.448846 0.652631
v -4.142514 2.448846 -0.014865
v -4.456610 2.448846 -0.014865
v -4.456610 2.448846 -0.014865
v -4.456610 2.448847 0.652631
v -4.142514 2.448846 0.652631
v -4.142514 2.743000 0.652631
v -4.142514 2.743000 -0.014863
v -4.142514 2.448846 -0.014865
v -4.142514 2.448846 -0.014865
v -4.142514 2.448846 0.652631
v -4.142514 2.743000 0.652631
v -4.456610 2.743000 0.652631
v -4.456610 2.743000 -0.014863
v -4.142514 2.743000 -0.014863
v -4.142514 2.743000 -0.014863
v -4.142514 2.743000 0.652631
v -4.456610 2.743000 0.652631
v -4.456610 2.448847 0.652631
v -4.456610 2.448846 -0.014865
v -4.456610 2.743000 -0.014863
v -4.456610 2.743000 -0.014863
v -4.456610 2.743000 0.652631
v -4.456610 2.448847 0.652631
v -4.103199 2.783124 0.641934
v -4.495925 2.783124 0.641934
v -4.495925 2.408722 0.641935
v -4.495925 2.408722 0.641935
v -4.103199 2.408722 0.641935
v -4.103199 2.783124 0.641934
v -4.103199 2.783124 0.675309
v -4.103199 2.408722 0.675309
v -4.495925 2.408722 0.675310
v -4.495925 2.408722 0.675310
v -4.495925 2.783125 0.675309
v -4.103199 2.783124 0.675309
v -4.103199 2.408722 0.675309
v -4.103199 2.408722 0.641935
v -4.495925 2.408722 0.641935
v -4.495925 2.408722 0.641935
v -4.495925 2.408722 0.675310
v -4.103199 2.408722 0.675309
v -4.103199 2.783124 0.675309
v -4.103199 2.783124 0.641934
v -4.103199 2.408722 0.641935
v -4.103199 2.408722 0.641935
v -4.103199 2.408722 0.675309
v -4.103199 2.783124 0.675309
v -4.495925 2.783125 0.675309
v -4.495925 2.783124 0.641934
v -4.103199 2.783124 0.641934
v -4.103199 2.783124 0.641934
v -4.103199 2.783124 0.675309
v -4.495925 2.783125 0.675309
v -4.495925 2.408722 0.675310
v -4.495925 2.408722 0.641935
v -4.495925 2.783124 0.641934
v -4.495925 2.783124 0.641934
v -4.495925 2.783125 0.675309
v -4.495925 2.408722 0.675310
v -4.103199 2.783124 -0.030533
v -4.495925 2.783124 -0.030533
v -4.495925 2.408722 -0.030532
v -4.495925 2.408722 -0.030532
v -4.103199 2.408722 -0.030532
v -4.103199 2.783124 -0.030533
v -4.103199 2.783124 0.002842
v -4.103199 2.408722 0.002842
v -4.495925 2.408722 0.002842
v -4.495925 2.408722 0.002842
v -4.495925 2.783124 0.002842
v -4.103199 2.783124 0.002842
v -4.103199 2.408722 0.002842
v -4.103199 2.408722 -0.030532
v -4.495925 2.408722 -0.030532
v -4.495925 2.408722 -0.030532
v -4.495925 2.408722 0.002842
v -4.103199 2.408722 0.002842
v -4.103199 2.783124 0.002842
v -4.103199 2.783124 -0.030533
v -4.103199 2.408722 -0.030532
v -4.103199 2.408722 -0.030532
v -4.103199 2.408722 0.002842
v -4.103199 2.783124 0.002842
v -4.495925 2.783124 0.002842
v -4.495925 2.783124 -0.030533
v -4.103199 2.783124 -0.030533
v -4.103199 2.783124 -0.030533
v -4.103199 2.783124 0.002842
v -4.495925 2.783124 0.002842
v -4.495925 2.408722 0.002842
v -4.495925 2.408722 -0.030532
v -4.495925 2.783124 -0.030533
v -4.495925 2.783124 -0.030533
v -4.495925 2.783124 0.002842
v -4.495925 2.408722 0.002842
v -4.491868 2.439580 -0.022049
v -4.491868 2.752266 -0.022047
v -4.159240 2.752266 -0.022047
v -4.159240 2.752266 -0.022047
v -4.159240 2.439580 -0.022049
v -4.491868 2.439580 -0.022049
v -4.491868 2.439580 0.659815
v -4.159240 2.439580 0.659815
v -4.159240 2.752266 0.659815
v -4.159240 2.752266 0.659815
v -4.491868 2.752266 0.659815
v -4.491868 2.439580 0.659815
v -4.491868 2.439580 -0.022049
v -4.159240 2.439580 -0.022049
v -4.159240 2.439580 0.659815
v -4.159240 2.439580 0.659815
v -4.491868 2.439580 0.659815
v -4.491868 2.439580 -0.022049
v -4.159240 2.439580 -0.022049
v -4.159240 2.752266 -0.022047
v -4.159240 2.752266 0.659815
v -4.159240 2.752266 0.659815
v -4.159240 2.439580 0.659815
v -4.159240 2.439580 -0.022049
v -4.159240 2.752266 -0.022047
v -4.491868 2.752266 -0.022047
v -4.491868 2.752266 0.659815
v -4.491868 2.752266 0.659815
v -4.159240 2.752266 0.659815
v -4.159240 2.752266 -0.022047
v -4.491868 2.752266 -0.022047
v -4.491868 2.439580 -0.022049
v -4.491868 2.439580 0.659815
v -4.491868 2.439580 0.659815
v -4.491868 2.752266 0.659815
v -4.491868 2.752266 -0.022047
v -4.531184 2.399455 0.634750
v -4.531184 2.792391 0.634750
v -4.119925 2.792390 0.634750
v -4.119925 2.792390 0.634750
v -4.119925 2.399455 0.634750
v -4.531184 2.399455 0.634750
v -4.531184 2.399456 0.682493
v -4.119925 2.399455 0.682493
v -4.119925 2.792390 0.682493
v -4.119925 2.792390 0.682493
v -4.531184 2.792391 0.682493
v -4.531184 2.399456 0.682493
v -4.531184 2.399455 0.634750
v -4.119925 2.399455 0.634750
v -4.119925 2.399455 0.682493
v -4.119925 2.399455 0.682493
v -4.531184 2.399456 0.682493
v -4.531184 2.399455 0.634750
v -4.119925 2.399455 0.634750
v -4.119925 2.792390 0.634750
v -4.119925 2.792390 0.682493
v -4.119925 2.792390 0.682493
v -4.119925 2.399455 0.682493
v -4.119925 2.399455 0.634750
v -4.119925 2.792390 0.634750
v -4.531184 2.792391 0.634750
v -4.531184 2.792391 0.682493
v -4.531184 2.792391 0.682493
v -4.119925 2.792390 0.682493
v -4.119925 2.792390 0.634750
v -4.531184 2.792391 0.634750
v -4.531184 2.399455 0.634750
v -4.531184 2.399456 0.682493
v -4.531184 2.399456 0.682493
v -4.531184 2.792391 0.682493
v -4.531184 2.792391 0.634750
v -4.531184 2.399456 -0.037717
v -4.531184 2.792391 -0.037717
v -4.119925 2.792390 -0.037717
v -4.119925 2.792390 -0.037717
v -4.119925 2.399455 -0.037717
v -4.531184 2.399456 -0.037717
v -4.531184 2.399455 0.010026
v -4.119925 2.399455 0.010026
v -4.119925 2.792390 0.010028
v -4.119925 2.792390 0.010028
v -4.531184 2.792390 0.010028
v -4.531184 2.399455 0.010026
v -4.531184 2.399456 -0.037717
v -4.119925 2.399455 -0.037717
v -4.119925 2.399455 0.010026
v -4.119925 2.399455 0.010026
v -4.531184 2.399455 0.010026
v -4.531184 2.399456 -0.037717
v -4.119925 2.399455 -0.037717
v -4.119925 2.792390 -0.037717
v -4.119925 2.792390 0.010028
v -4.119925 2.792390 0.010028
v -4.119925 2.399455 0.010026
v -4.119925 2.399455 -0.037717
v -4.119925 2.792390 -0.037717
v -4.531184 2.792391 -0.037717
v -4.531184 2.792390 0.010028
v -4.531184 2.792390 0.010028
v -4.119925 2.792390 0.010028
v -4.119925 2.792390 -0.037717
v -4.531184 2.792391 -0.037717
v -4.531184 2.399456 -0.037717
v -4.531184 2.399455 0.010026
v -4.531184 2.399455 0.010026
v -4.531184 2.792390 0.010028
v -4.531184 2.792391 -0.037717
v -4.168507 2.743000 -0.014863
v -4.482602 2.743000 -0.014863
v -4.482602 2.448846 -0.014865
v -4.482602 2.448846 -0.014865
v -4.168507 2.448846 -0.014865
v -4.168507 2.743000 -0.014863
v -4.168507 2.743000 0.652631
v -4.168507 2.448846 0.652631
v -4.482602 2.448847 0.652631
v -4.482602 2.448847 0.652631
v -4.482602 2.743000 0.652631
v -4.168507 2.743000 0.652631
v -4.168507 2.448846 0.652631
v -4.168507 2.448846 -0.014865
v -4.482602 2.448846 -0.014865
v -4.482602 2.448846 -0.014865
v -4.482602 2.448847 0.652631
v -4.168507 2.448846 0.652631
v -4.168507 2.743000 0.652631
v -4.168507 2.743000 -0.014863
v -4.168507 2.448846 -0.014865
v -4.168507 2.448846 -0.014865
v -4.168507 2.448846 0.652631
v -4.168507 2.743000 0.652631
v -4.482602 2.743000 0.652631
v -4.482602 2.743000 -0.014863
v -4.168507 2.743000 -0.014863
v -4.168507 2.743000 -0.014863
v -4.168507 2.743000 0.652631
v -4.482602 2.743000 0.652631
v -4.482602 2.448847 0.652631
v -4.482602 2.448846 -0.014865
v -4.482602 2.743000 -0.014863
v -4.482602 2.743000 -0.014863
v -4.482602 2.743000 0.652631
v -4.482602 2.448847 0.652631
v -4.129191 2.783124 0.641934
v -4.521918 2.783124 0.641934
v -4.521918 2.408722 0.641935
v -4.521918 2.408722 0.641935
v -4.129191 2.408722 0.641935
v -4.129191 2.783124 0.641934
v -4.129191 2.783124 0.675309
v -4.129191 2.408722 0.675309
v -4.521918 2.408722 0.675310
v -4.521918 2.408722 0.675310
v -4.521918 2.783125 0.675309
v -4.129191 2.783124 0.675309
v -4.129191 2.408722 0.675309
v -4.129191 2.408722 0.641935
v -4.521918 2.408722 0.641935
v -4.521918 2.408722 0.641935
v -4.521918 2.408722 0.675310
v -4.129191 2.408722 0.675309
v -4.129191 2.783124 0.675309
v -4.129191 2.783124 0.641934
v -4.129191 2.408722 0.641935
v -4.129191 2.408722 0.641935
v -4.129191 2.408722 0.675309
v -4.129191 2.783124 0.675309
v -4.521918 2.783125 0.675309
v -4.521918 2.783124 0.641934
v -4.129191 2.783124 0.641934
v -4.129191 2.783124 0.641934
v -4.129191 2.783124 0.675309
v -4.521918 2.783125 0.675309
v -4.521918 2.408722 0.675310
v -4.521918 2.408722 0.641935
v -4.521918 2.783124 0.641934
v -4.521918 2.783124 0.641934
v -4.521918 2.783125 0.675309
v -4.521918 2.408722 0.675310
v -4.129191 2.783124 -0.030533
v -4.521918 2.783124 -0.030533
v -4.521918 2.408722 -0.030532
v -4.521918 2.408722 -0.030532
v -4.129191 2.408722 -0.030532
v -4.129191 2.783124 -0.030533
v -4.129191 2.783124 0.002842
v -4.129191 2.408722 0.002842
v -4.521918 2.408722 0.002842
v -4.521918 2.408722 0.002842
v -4.521918 2.783124 0.002842
v -4.129191 2.783124 0.002842
v -4.129191 2.408722 0.002842
v -4.129191 2.408722 -0.030532
v -4.521918 2.408722 -0.030532
v -4.521918 2.408722 -0.030532
v -4.521918 2.408722 0.002842
v -4.129191 2.408722 0.002842
v -4.129191 2.783124 0.002842
v -4.129191 2.783124 -0.030533
v -4.129191 2.408722 -0.030532
v -4.129191 2.408722 -0.030532
v -4.129191 2.408722 0.002842
v -4.129191 2.783124 0.002842
v -4.521918 2.783124 0.002842
v -4.521918 2.783124 -0.030533
v -4.129191 2.783124 -0.030533
v -4.129191 2.783124 -0.030533
v -4.129191 2.783124 0.002842
v -4.521918 2.783124 0.002842
v -4.521918 2.408722 0.002842
v -4.521918 2.408722 -0.030532
v -4.521918 2.783124 -0.030533
v -4.521918 2.783124 -0.030533
v -4.521918 2.783124 0.002842
v -4.521918 2.408722 0.002842
v 2.439454 2.439577 -0.028693
v 2.439454 2.752263 -0.028691
v 2.772083 2.752263 -0.028692
v 2.772083 2.752263 -0.028692
v 2.772083 2.439577 -0.028693
v 2.439454 2.439577 -0.028693
v 2.439454 2.439577 1.283671
v 2.772083 2.439577 1.283670
v 2.772083 2.752263 1.283672
v 2.772083 2.752263 1.283672
v 2.439454 2.752263 1.283672
v 2.439454 2.439577 1.283671
v 2.439454 2.439577 -0.028693
v 2.772083 2.439577 -0.028693
v 2.772083 2.439577 1.283670
v 2.772083 2.439577 1.283670
v 2.439454 2.439577 1.283671
v 2.439454 2.439577 -0.028693
v 2.772083 2.439577 -0.028693
v 2.772083 2.752263 -0.028692
v 2.772083 2.752263 1.283672
v 2.772083 2.752263 1.283672
v 2.772083 2.439577 1.283670
v 2.772083 2.439577 -0.028693
v 2.772083 2.752263 -0.028692
v 2.439454 2.752263 -0.028691
v 2.439454 2.752263 1.283672
v 2.439454 2.752263 1.283672
v 2.772083 2.752263 1.283672
v 2.772083 2.752263 -0.028692
v 2.439454 2.752263 -0.028691
v 2.439454 2.439577 -0.028693
v 2.439454 2.439577 1.283671
v 2.439454 2.439577 1.283671
v 2.439454 2.752263 1.283672
v 2.439454 2.752263 -0.028691
v 2.400139 2.399453 1.235431
v 2.400139 2.792388 1.235429
v 2.811399 2.792388 1.235429
v 2.811399 2.792388 1.235429
v 2.811398 2.399453 1.235431
v 2.400139 2.399453 1.235431
v 2.400139 2.399452 1.327321
v 2.811398 2.399452 1.327320
v 2.811399 2.792388 1.327320
v 2.811399 2.792388 1.327320
v 2.400139 2.792388 1.327320
v 2.400139 2.399452 1.327321
v 2.400139 2.399453 1.235431
v 2.811398 2.399453 1.235431
v 2.811398 2.399452 1.327320
v 2.811398 2.399452 1.327320
v 2.400139 2.399452 1.327321
v 2.400139 2.399453 1.235431
v 2.811398 2.399453 1.235431
v 2.811399 2.792388 1.235429
v 2.811399 2.792388 1.327320
v 2.811399 2.792388 1.327320
v 2.811398 2.399452 1.327320
v 2.811398 2.399453 1.235431
v 2.811399 2.792388 1.235429
v 2.400139 2.792388 1.235429
v 2.400139 2.792388 1.327320
v 2.400139 2.792388 1.327320
v 2.811399 2.792388 1.327320
v 2.811399 2.792388 1.235429
v 2.400139 2.792388 1.235429
v 2.400139 2.399453 1.235431
v 2.400139 2.399452 1.327321
v 2.400139 2.399452 1.327321
v 2.400139 2.792388 1.327320
v 2.400139 2.792388 1.235429
v 2.400139 2.399452 -0.058850
v 2.400139 2.792387 -0.058850
v 2.811398 2.792387 -0.058850
v 2.811398 2.792387 -0.058850
v 2.811398 2.399452 -0.058850
v 2.400139 2.399452 -0.058850
v 2.400139 2.399452 0.033040
v 2.811398 2.399452 0.033040
v 2.811398 2.792387 0.033041
v 2.811398 2.792387 0.033041
v 2.400139 2.792387 0.033041
v 2.400139 2.399452 0.033040
v 2.400139 2.399452 -0.058850
v 2.811398 2.399452 -0.058850
v 2.811398 2.399452 0.033040
v 2.811398 2.399452 0.033040
v 2.400139 2.399452 0.033040
v 2.400139 2.399452 -0.058850
v 2.811398 2.399452 -0.058850
v 2.811398 2.792387 -0.058850
v 2.811398 2.792387 0.033041
v 2.811398 2.792387 0.033041
v 2.811398 2.399452 0.033040
v 2.811398 2.399452 -0.058850
v 2.811398 2.792387 -0.058850
v 2.400139 2.792387 -0.058850
v 2.400139 2.792387 0.033041
v 2.400139 2.792387 0.033041
v 2.811398 2.792387 0.033041
v 2.811398 2.792387 -0.058850
v 2.400139 2.792387 -0.058850
v 2.400139 2.399452 -0.058850
v 2.400139 2.399452 0.033040
v 2.400139 2.399452 0.033040
v 2.400139 2.792387 0.033041
v 2.400139 2.792387 -0.058850
v 2.762816 2.742997 -0.014865
v 2.448720 2.742997 -0.014865
v 2.448720 2.448843 -0.014866
v 2.448720 2.448843 -0.014866
v 2.762816 2.448843 -0.014866
v 2.762816 2.742997 -0.014865
v 2.762816 2.742997 1.269845
v 2.762816 2.448843 1.269844
v 2.448720 2.448844 1.269844
v 2.448720 2.448844 1.269844
v 2.448720 2.742997 1.269845
v 2.762816 2.742997 1.269845
v 2.762816 2.448843 1.269844
v 2.762816 2.448843 -0.014866
v 2.448720 2.448843 -0.014866
v 2.448720 2.448843 -0.014866
v 2.448720 2.448844 1.269844
v 2.762816 2.448843 1.269844
v 2.762816 2.742997 1.269845
v 2.762816 2.742997 -0.014865
v 2.762816 2.448843 -0.014866
v 2.762816 2.448843 -0.014866
v 2.762816 2.448843 1.269844
v 2.762816 2.742997 1.269845
v 2.448720 2.742997 1.269845
v 2.448720 2.742997 -0.014865
v 2.762816 2.742997 -0.014865
v 2.762816 2.742997 -0.014865
v 2.762816 2.742997 1.269845
v 2.448720 2.742997 1.269845
v 2.448720 2.448844 1.269844
v 2.448720 2.448843 -0.014866
v 2.448720 2.742997 -0.014865
v 2.448720 2.742997 -0.014865
v 2.448720 2.742997 1.269845
v 2.448720 2.448844 1.269844
v 2.802132 2.783121 1.249258
v 2.409405 2.783121 1.249258
v 2.409405 2.408719 1.249258
v 2.409405 2.408719 1.249258
v 2.802132 2.408719 1.249258
v 2.802132 2.783121 1.249258
v 2.802132 2.783121 1.313492
v 2.802132 2.408719 1.313494
v 2.409405 2.408719 1.313494
v 2.409405 2.408719 1.313494
v 2.409405 2.783121 1.313492
v 2.802132 2.783121 1.313492
v 2.802132 2.408719 1.313494
v 2.802132 2.408719 1.249258
v 2.409405 2.408719 1.249258
v 2.409405 2.408719 1.249258
v 2.409405 2.408719 1.313494
v 2.802132 2.408719 1.313494
v 2.802132 2.783121 1.313492
v 2.802132 2.783121 1.249258
v 2.802132 2.408719 1.249258
v 2.802132 2.408719 1.249258
v 2.802132 2.408719 1.313494
v 2.802132 2.783121 1.313492
v 2.409405 2.783121 1.313492
v 2.409405 2.783121 1.249258
v 2.802132 2.783121 1.249258
v 2.802132 2.783121 1.249258
v 2.802132 2.783121 1.313492
v 2.409405 2.783121 1.313492
v 2.409405 2.408719 1.313494
v 2.409405 2.408719 1.249258
v 2.409405 2.783121 1.249258
v 2.409405 2.783121 1.249258
v 2.409405 2.783121 1.313492
v 2.409405 2.408719 1.313494
v 2.802132 2.783121 -0.045022
v 2.409405 2.783121 -0.045022
v 2.409405 2.408718 -0.045023
v 2.409405 2.408718 -0.045023
v 2.802131 2.408718 -0.045023
v 2.802132 2.783121 -0.045022
v 2.802132 2.783121 0.019213
v 2.802131 2.408719 0.019213
v 2.409405 2.408719 0.019213
v 2.409405 2.408719 0.019213
v 2.409405 2.783121 0.019213
v 2.802132 2.783121 0.019213
v 2.802131 2.408719 0.019213
v 2.802131 2.408718 -0.045023
v 2.409405 2.408718 -0.045023
v 2.409405 2.408718 -0.045023
v 2.409405 2.408719 0.019213
v 2.802131 2.408719 0.019213
v 2.802132 2.783121 0.019213
v 2.802132 2.783121 -0.045022
v 2.802131 2.408718 -0.045023
v 2.802131 2.408718 -0.045023
v 2.802131 2.408719 0.019213
v 2.802132 2.783121 0.019213
v 2.409405 2.783121 0.019213
v 2.409405 2.783121 -0.045022
v 2.802132 2.783121 -0.045022
v 2.802132 2.783121 -0.045022
v 2.802132 2.783121 0.019213
v 2.409405 2.783121 0.019213
v 2.409405 2.408719 0.019213
v 2.409405 2.408718 -0.045023
v 2.409405 2.783121 -0.045022
v 2.409405 2.783121 -0.045022
v 2.409405 2.783121 0.019213
v 2.409405 2.408719 0.019213
v 2.465446 2.439577 -0.028693
v 2.465446 2.752263 -0.028691
v 2.798075 2.752263 -0.028692
v 2.798075 2.752263 -0.028692
v 2.798075 2.439577 -0.028693
v 2.465446 2.439577 -0.028693
v 2.465446 2.439577 1.283671
v 2.798075 2.439577 1.283670
v 2.798075 2.752263 1.283672
v 2.798075 2.752263 1.283672
v 2.465446 2.752263 1.283672
v 2.465446 2.439577 1.283671
v 2.465446 2.439577 -0.028693
v 2.798075 2.439577 -0.028693
v 2.798075 2.439577 1.283670
v 2.798075 2.439577 1.283670
v 2.465446 2.439577 1.283671
v 2.465446 2.439577 -0.028693
v 2.798075 2.439577 -0.028693
v 2.798075 2.752263 -0.028692
v 2.798075 2.752263 1.283672
v 2.798075 2.752263 1.283672
v 2.798075 2.439577 1.283670
v 2.798075 2.439577 -0.028693
v 2.798075 2.752263 -0.028692
v 2.465446 2.752263 -0.028691
v 2.465446 2.752263 1.283672
v 2.465446 2.752263 1.283672
v 2.798075 2.752263 1.283672
v 2.798075 2.752263 -0.028692
v 2.465446 2.752263 -0.028691
v 2.465446 2.439577 -0.028693
v 2.465446 2.439577 1.283671
v 2.465446 2.439577 1.283671
v 2.465446 2.752263 1.283672
v 2.465446 2.752263 -0.028691
v 2.426131 2.399453 1.235431
v 2.426131 2.792388 1.235429
v 2.837390 2.792388 1.235429
v 2.837390 2.792388 1.235429
v 2.837390 2.399453 1.235431
v 2.426131 2.399453 1.235431
v 2.426131 2.399452 1.327321
v 2.837390 2.399452 1.327320
v 2.837390 2.792388 1.327320
v 2.837390 2.792388 1.327320
v 2.426131 2.792388 1.327320
v 2.426131 2.399452 1.327321
v 2.426131 2.399453 1.235431
v 2.837390 2.399453 1.235431
v 2.837390 2.399452 1.327320
v 2.837390 2.399452 1.327320
v 2.426131 2.399452 1.327321
v 2.426131 2.399453 1.235431
v 2.837390 2.399453 1.235431
v 2.837390 2.792388 1.235429
v 2.837390 2.792388 1.327320
v 2.837390 2.792388 1.327320
v 2.837390 2.399452 1.327320
v 2.837390 2.399453 1.235431
v 2.837390 2.792388 1.235429
v 2.426131 2.792388 1.235429
v 2.426131 2.792388 1.327320
v 2.426131 2.792388 1.327320
v 2.837390 2.792388 1.327320
v 2.837390 2.792388 1.235429
v 2.426131 2.792388 1.235429
v 2.426131 2.399453 1.235431
v 2.426131 2.399452 1.327321
v 2.426131 2.399452 1.327321
v 2.426131 2.792388 1.327320
v 2.426131 2.792388 1.235429
v 2.426131 2.399452 -0.058850
v 2.426131 2.792387 -0.058850
v 2.837390 2.792387 -0.058850
v 2.837390 2.792387 -0.058850
v 2.837390 2.399452 -0.058850
v 2.426131 2.399452 -0.058850
v 2.426131 2.399452 0.033040
v 2.837390 2.399452 0.033040
v 2.837390 2.792387 0.033041
v 2.837390 2.792387 0.033041
v 2.426131 2.792387 0.033041
v 2.426131 2.399452 0.033040
v 2.426131 2.399452 -0.058850
v 2.837390 2.399452 -0.058850
v 2.837390 2.399452 0.033040
v 2.837390 2.399452 0.033040
v 2.426131 2.399452 0.033040
v 2.426131 2.399452 -0.058850
v 2.837390 2.399452 -0.058850
v 2.837390 2.792387 -0.058850
v 2.837390 2.792387 0.033041
v 2.837390 2.792387 0.033041
v 2.837390 2.399452 0.033040
v 2.837390 2.399452 -0.058850
v 2.837390 2.792387 -0.058850
v 2.426131 2.792387 -0.058850
v 2.426131 2.792387 0.033041
v 2.426131 2.792387 0.033041
v 2.837390 2.792387 0.033041
v 2.837390 2.792387 -0.058850
v 2.426131 2.792387 -0.058850
v 2.426131 2.399452 -0.058850
v 2.426131 2.399452 0.033040
v 2.426131 2.399452 0.033040
v 2.426131 2.792387 0.033041
v 2.426131 2.792387 -0.058850
v 2.788808 2.742997 -0.014865
v 2.474712 2.742997 -0.014865
v 2.474712 2.448843 -0.014866
v 2.474712 2.448843 -0.014866
v 2.788808 2.448843 -0.014866
v 2.788808 2.742997 -0.014865
v 2.788808 2.742997 1.269845
v 2.788808 2.448843 1.269844
v 2.474713 2.448844 1.269844
v 2.474713 2.448844 1.269844
v 2.474713 2.742997 1.269845
v 2.788808 2.742997 1.269845
v 2.788808 2.448843 1.269844
v 2.788808 2.448843 -0.014866
v 2.474712 2.448843 -0.014866
v 2.474712 2.448843 -0.014866
v 2.474713 2.448844 1.269844
v 2.788808 2.448843 1.269844
v 2.788808 2.742997 1.269845
v 2.788808 2.742997 -0.014865
v 2.788808 2.448843 -0.014866
v 2.788808 2.448843 -0.014866
v 2.788808 2.448843 1.269844
v 2.788808 2.742997 1.269845
v 2.474713 2.742997 1.269845
v 2.474712 2.742997 -0.014865
v 2.788808 2.742997 -0.014865
v 2.788808 2.742997 -0.014865
v 2.788808 2.742997 1.269845
v 2.474713 2.742997 1.269845
v 2.474713 2.448844 1.269844
v 2.474712 2.448843 -0.014866
v 2.474712 2.742997 -0.014865
v 2.474712 2.742997 -0.014865
v 2.474713 2.742997 1.269845
v 2.474713 2.448844 1.269844
v 2.828124 2.783121 1.249258
v 2.435397 2.783121 1.249258
v 2.435397 2.408719 1.249258
v 2.435397 2.408719 1.249258
v 2.828124 2.408719 1.249258
v 2.828124 2.783121 1.249258
v 2.828124 2.783121 1.313492
v 2.828124 2.408719 1.313494
v 2.435397 2.408719 1.313494
v 2.435397 2.408719 1.313494
v 2.435397 2.783121 1.313492
v 2.828124 2.783121 1.313492
v 2.828124 2.408719 1.313494
v 2.828124 2.408719 1.249258
v 2.435397 2.408719 1.249258
v 2.435397 2.408719 1.249258
v 2.435397 2.408719 1.313494
v 2.828124 2.408719 1.313494
v 2.828124 2.783121 1.313492
v 2.828124 2.783121 1.249258
v 2.828124 2.408719 1.249258
v 2.828124 2.408719 1.249258
v 2.828124 2.408719 1.313494
v 2.828124 2.783121 1.313492
v 2.435397 2.783121 1.313492
v 2.435397 2.783121 1.249258
v 2.828124 2.783121 1.249258
v 2.828124 2.783121 1.249258
v 2.828124 2.783121 1.313492
v 2.435397 2.783121 1.313492
v 2.435397 2.408719 1.313494
v 2.435397 2.408719 1.249258
v 2.435397 2.783121 1.249258
v 2.435397 2.783121 1.249258
v 2.435397 2.783121 1.313492
v 2.435397 2.408719 1.313494
v 2.828124 2.783121 -0.045022
v 2.435397 2.783121 -0.045022
v 2.435397 2.408718 -0.045023
v 2.435397 2.408718 -0.045023
v 2.828124 2.408718 -0.045023
v 2.828124 2.783121 -0.045022
v 2.828124 2.783121 0.019213
v 2.828124 2.408719 0.019213
v 2.435397 2.408719 0.019213
v 2.435397 2.408719 0.019213
v 2.435397 2.783121 0.019213
v 2.828124 2.783121 0.019213
v 2.828124 2.408719 0.019213
v 2.828124 2.408718 -0.045023
v 2.435397 2.408718 -0.045023
v 2.435397 2.408718 -0.045023
v 2.435397 2.408719 0.019213
v 2.828124 2.408719 0.019213
v 2.828124 2.783121 0.019213
v 2.828124 2.783121 -0.045022
v 2.828124 2.408718 -0.045023
v 2.828124 2.408718 -0.045023
v 2.828124 2.408719 0.019213
v 2.828124 2.783121 0.019213
v 2.435397 2.783121 0.019213
v 2.435397 2.783121 -0.045022
v 2.828124 2.783121 -0.045022
v 2.828124 2.783121 -0.045022
v 2.828124 2.783121 0.019213
v 2.435397 2.783121 0.019213
v 2.435397 2.408719 0.019213
v 2.435397 2.408718 -0.045023
v 2.435397 2.783121 -0.045022
v 2.435397 2.783121 -0.045022
v 2.435397 2.783121 0.019213
v 2.435397 2.408719 0.019213
v 3.255421 -1.097942 -0.025350
v 3.255422 -0.641544 -0.025350
v 3.740927 -0.641544 -0.025350
v 3.740927 -0.641544 -0.025350
v 3.740926 -1.097942 -0.025350
v 3.255421 -1.097942 -0.025350
v 3.255422 -1.097941 0.969897
v 3.740927 -1.097941 0.969897
v 3.740927 -0.641544 0.969897
v 3.740927 -0.641544 0.969897
v 3.255422 -0.641544 0.969897
v 3.255422 -1.097941 0.969897
v 3.255421 -1.097942 -0.025350
v 3.740926 -1.097942 -0.025350
v 3.740927 -1.097941 0.969897
v 3.740927 -1.097941 0.969897
v 3.255422 -1.097941 0.969897
v 3.255421 -1.097942 -0.025350
v 3.740926 -1.097942 -0.025350
v 3.740927 -0.641544 -0.025350
v 3.740927 -0.641544 0.969897
v 3.740927 -0.641544 0.969897
v 3.740927 -1.097941 0.969897
v 3.740926 -1.097942 -0.025350
v 3.740927 -0.641544 -0.025350
v 3.255422 -0.641544 -0.025350
v 3.255422 -0.641544 0.969897
v 3.255422 -0.641544 0.969897
v 3.740927 -0.641544 0.969897
v 3.740927 -0.641544 -0.025350
v 3.255422 -0.641544 -0.025350
v 3.255421 -1.097942 -0.025350
v 3.255422 -1.097941 0.969897
v 3.255422 -1.097941 0.969897
v 3.255422 -0.641544 0.969897
v 3.255422 -0.641544 -0.025350
v 3.198037 -1.156506 0.933312
v 3.198037 -0.582979 0.933312
v 3.798311 -0.582979 0.933312
v 3.798311 -0.582979 0.933312
v 3.798311 -1.156506 0.933312
v 3.198037 -1.156506 0.933312
v 3.198037 -1.156507 1.002997
v 3.798311 -1.156507 1.002997
v 3.798311 -0.582978 1.002998
v 3.798311 -0.582978 1.002998
v 3.198037 -0.582978 1.002998
v 3.198037 -1.156507 1.002997
v 3.198037 -1.156506 0.933312
v 3.798311 -1.156506 0.933312
v 3.798311 -1.156507 1.002997
v 3.798311 -1.156507 1.002997
v 3.198037 -1.156507 1.002997
v 3.198037 -1.156506 0.933312
v 3.798311 -1.156506 0.933312
v 3.798311 -0.582979 0.933312
v 3.798311 -0.582978 1.002998
v 3.798311 -0.582978 1.002998
v 3.798311 -1.156507 1.002997
v 3.798311 -1.156506 0.933312
v 3.798311 -0.582979 0.933312
v 3.198037 -0.582979 0.933312
v 3.198037 -0.582978 1.002998
v 3.198037 -0.582978 1.002998
v 3.798311 -0.582978 1.002998
v 3.798311 -0.582979 0.933312
v 3.198037 -0.582979 0.933312
v 3.198037 -1.156506 0.933312
v 3.198037 -1.156507 1.002997
v 3.198037 -1.156507 1.002997
v 3.198037 -0.582978 1.002998
v 3.198037 -0.582979 0.933312
v 3.198037 -1.156506 -0.048221
v 3.198037 -0.582978 -0.048221
v 3.798311 -0.582978 -0.048221
v 3.798311 -0.582978 -0.048221
v 3.798311 -1.156506 -0.048221
v 3.198037 -1.156506 -0.048221
v 3.198037 -1.156507 0.021465
v 3.798311 -1.156508 0.021465
v 3.798311 -0.582979 0.021466
v 3.798311 -0.582979 0.021466
v 3.198037 -0.582979 0.021466
v 3.198037 -1.156507 0.021465
v 3.198037 -1.156506 -0.048221
v 3.798311 -1.156506 -0.048221
v 3.798311 -1.156508 0.021465
v 3.798311 -1.156508 0.021465
v 3.198037 -1.156507 0.021465
v 3.198037 -1.156506 -0.048221
v 3.798311 -1.156506 -0.048221
v 3.798311 -0.582978 -0.048221
v 3.798311 -0.582979 0.021466
v 3.798311 -0.582979 0.021466
v 3.798311 -1.156508 0.021465
v 3.798311 -1.156506 -0.048221
v 3.798311 -0.582978 -0.048221
v 3.198037 -0.582978 -0.048221
v 3.198037 -0.582979 0.021466
v 3.198037 -0.582979 0.021466
v 3.798311 -0.582979 0.021466
v 3.798311 -0.582978 -0.048221
v 3.198037 -0.582978 -0.048221
v 3.198037 -1.156506 -0.048221
v 3.198037 -1.156507 0.021465
v 3.198037 -1.156507 0.021465
v 3.198037 -0.582979 0.021466
v 3.198037 -0.582978 -0.048221
v 3.727401 -0.655070 -0.014866
v 3.268947 -0.655070 -0.014866
v 3.268946 -1.084416 -0.014864
v 3.268946 -1.084416 -0.014864
v 3.727401 -1.084416 -0.014864
v 3.727401 -0.655070 -0.014866
v 3.727402 -0.655069 0.959409
v 3.727401 -1.084416 0.959411
v 3.268947 -1.084416 0.959411
v 3.268947 -1.084416 0.959411
v 3.268947 -0.655069 0.959410
v 3.727402 -0.655069 0.959409
v 3.727401 -1.084416 0.959411
v 3.727401 -1.084416 -0.014864
v 3.268946 -1.084416 -0.014864
v 3.268946 -1.084416 -0.014864
v 3.268947 -1.084416 0.959411
v 3.727401 -1.084416 0.959411
v 3.727402 -0.655069 0.959409
v 3.727401 -0.655070 -0.014866
v 3.727401 -1.084416 -0.014864
v 3.727401 -1.084416 -0.014864
v 3.727401 -1.084416 0.959411
v 3.727402 -0.655069 0.959409
v 3.268947 -0.655069 0.959410
v 3.268947 -0.655070 -0.014866
v 3.727401 -0.655070 -0.014866
v 3.727401 -0.655070 -0.014866
v 3.727402 -0.655069 0.959409
v 3.268947 -0.655069 0.959410
v 3.268947 -1.084416 0.959411
v 3.268946 -1.084416 -0.014864
v 3.268947 -0.655070 -0.014866
v 3.268947 -0.655070 -0.014866
v 3.268947 -0.655069 0.959410
v 3.268947 -1.084416 0.959411
v 3.784786 -0.596504 0.943798
v 3.211562 -0.596504 0.943798
v 3.211562 -1.142982 0.943798
v 3.211562 -1.142982 0.943798
v 3.784786 -1.142982 0.943798
v 3.784786 -0.596504 0.943798
v 3.784786 -0.596504 0.992511
v 3.784786 -1.142982 0.992512
v 3.211562 -1.142982 0.992513
v 3.211562 -1.142982 0.992513
v 3.211562 -0.596504 0.992511
v 3.784786 -0.596504 0.992511
v 3.784786 -1.142982 0.992512
v 3.784786 -1.142982 0.943798
v 3.211562 -1.142982 0.943798
v 3.211562 -1.142982 0.943798
v 3.211562 -1.142982 0.992513
v 3.784786 -1.142982 0.992512
v 3.784786 -0.596504 0.992511
v 3.784786 -0.596504 0.943798
v 3.784786 -1.142982 0.943798
v 3.784786 -1.142982 0.943798
v 3.784786 -1.142982 0.992512
v 3.784786 -0.596504 0.992511
v 3.211562 -0.596504 0.992511
v 3.211562 -0.596504 0.943798
v 3.784786 -0.596504 0.943798
v 3.784786 -0.596504 0.943798
v 3.784786 -0.596504 0.992511
v 3.211562 -0.596504 0.992511
v 3.211562 -1.142982 0.992513
v 3.211562 -1.142982 0.943798
v 3.211562 -0.596504 0.943798
v 3.211562 -0.596504 0.943798
v 3.211562 -0.596504 0.992511
v 3.211562 -1.142982 0.992513
v 3.784786 -0.596504 -0.037735
v 3.211562 -0.596504 -0.037735
v 3.211562 -1.142981 -0.037736
v 3.211562 -1.142981 -0.037736
v 3.784786 -1.142981 -0.037736
v 3.784786 -0.596504 -0.037735
v 3.784786 -0.596504 0.010979
v 3.784786 -1.142982 0.010979
v 3.211562 -1.142982 0.010979
v 3.211562 -1.142982 0.010979
v 3.211562 -0.596504 0.010979
v 3.784786 -0.596504 0.010979
v 3.784786 -1.142982 0.010979
v 3.784786 -1.142981 -0.037736
v 3.211562 -1.142981 -0.037736
v 3.211562 -1.142981 -0.037736
v 3.211562 -1.142982 0.010979
v 3.784786 -1.142982 0.010979
v 3.784786 -0.596504 0.010979
v 3.784786 -0.596504 -0.037735
v 3.784786 -1.142981 -0.037736
v 3.784786 -1.142981 -0.037736
v 3.784786 -1.142982 0.010979
v 3.784786 -0.596504 0.010979
v 3.211562 -0.596504 0.010979
v 3.211562 -0.596504 -0.037735
v 3.784786 -0.596504 -0.037735
v 3.784786 -0.596504 -0.037735
v 3.784786 -0.596504 0.010979
v 3.211562 -0.596504 0.010979
v 3.211562 -1.142982 0.010979
v 3.211562 -1.142981 -0.037736
v 3.211562 -0.596504 -0.037735
v 3.211562 -0.596504 -0.037735
v 3.211562 -0.596504 0.010979
v 3.211562 -1.142982 0.010979
v 3.281413 -1.097942 -0.025350
v 3.281413 -0.641544 -0.025350
v 3.766918 -0.641544 -0.025350
v 3.766918 -0.641544 -0.025350
v 3.766917 -1.097942 -0.025350
v 3.281413 -1.097942 -0.025350
v 3.281413 -1.097941 0.969897
v 3.766918 -1.097941 0.969897
v 3.766918 -0.641544 0.969897
v 3.766918 -0.641544 0.969897
v 3.281414 -0.641544 0.969897
v 3.281413 -1.097941 0.969897
v 3.281413 -1.097942 -0.025350
v 3.766917 -1.097942 -0.025350
v 3.766918 -1.097941 0.969897
v 3.766918 -1.097941 0.969897
v 3.281413 -1.097941 0.969897
v 3.281413 -1.097942 -0.025350
v 3.766917 -1.097942 -0.025350
v 3.766918 -0.641544 -0.025350
v 3.766918 -0.641544 0.969897
v 3.766918 -0.641544 0.969897
v 3.766918 -1.097941 0.969897
v 3.766917 -1.097942 -0.025350
v 3.766918 -0.641544 -0.025350
v 3.281413 -0.641544 -0.025350
v 3.281414 -0.641544 0.969897
v 3.281414 -0.641544 0.969897
v 3.766918 -0.641544 0.969897
v 3.766918 -0.641544 -0.025350
v 3.281413 -0.641544 -0.025350
v 3.281413 -1.097942 -0.025350
v 3.281413 -1.097941 0.969897
v 3.281413 -1.097941 0.969897
v 3.281414 -0.641544 0.969897
v 3.281413 -0.641544 -0.025350
v 3.224029 -1.156506 0.933312
v 3.224029 -0.582979 0.933312
v 3.824303 -0.582979 0.933312
v 3.824303 -0.582979 0.933312
v 3.824302 -1.156506 0.933312
v 3.224029 -1.156506 0.933312
v 3.224029 -1.156507 1.002997
v 3.824302 -1.156507 1.002997
v 3.824303 -0.582978 1.002998
v 3.824303 -0.582978 1.002998
v 3.224029 -0.582978 1.002998
v 3.224029 -1.156507 1.002997
v 3.224029 -1.156506 0.933312
v 3.824302 -1.156506 0.933312
v 3.824302 -1.156507 1.002997
v 3.824302 -1.156507 1.002997
v 3.224029 -1.156507 1.002997
v 3.224029 -1.156506 0.933312
v 3.824302 -1.156506 0.933312
v 3.824303 -0.582979 0.933312
v 3.824303 -0.582978 1.002998
v 3.824303 -0.582978 1.002998
v 3.824302 -1.156507 1.002997
v 3.824302 -1.156506 0.933312
v 3.824303 -0.582979 0.933312
v 3.224029 -0.582979 0.933312
v 3.224029 -0.582978 1.002998
v 3.224029 -0.582978 1.002998
v 3.824303 -0.582978 1.002998
v 3.824303 -0.582979 0.933312
v 3.224029 -0.582979 0.933312
v 3.224029 -1.156506 0.933312
v 3.224029 -1.156507 1.002997
v 3.224029 -1.156507 1.002997
v 3.224029 -0.582978 1.002998
v 3.224029 -0.582979 0.933312
v 3.224028 -1.156506 -0.048221
v 3.224029 -0.582978 -0.048221
v 3.824302 -0.582978 -0.048221
v 3.824302 -0.582978 -0.048221
v 3.824302 -1.156506 -0.048221
v 3.224028 -1.156506 -0.048221
v 3.224028 -1.156507 0.021465
v 3.824302 -1.156508 0.021465
v 3.824302 -0.582979 0.021466
v 3.824302 -0.582979 0.021466
v 3.224029 -0.582979 0.021466
v 3.224028 -1.156507 0.021465
v 3.224028 -1.156506 -0.048221
v 3.824302 -1.156506 -0.048221
v 3.824302 -1.156508 0.021465
v 3.824302 -1.156508 0.021465
v 3.224028 -1.156507 0.021465
v 3.224028 -1.156506 -0.048221
v 3.824302 -1.156506 -0.048221
v 3.824302 -0.582978 -0.048221
v 3.824302 -0.582979 0.021466
v 3.824302 -0.582979 0.021466
v 3.824302 -1.156508 0.021465
v 3.824302 -1.156506 -0.048221
v 3.824302 -0.582978 -0.048221
v 3.224029 -0.582978 -0.048221
v 3.224029 -0.582979 0.021466
v 3.224029 -0.582979 0.021466
v 3.824302 -0.582979 0.021466
v 3.824302 -0.582978 -0.048221
v 3.224029 -0.582978 -0.048221
v 3.224028 -1.156506 -0.048221
v 3.224028 -1.156507 0.021465
v 3.224028 -1.156507 0.021465
v 3.224029 -0.582979 0.021466
v 3.224029 -0.582978 -0.048221
v 3.753393 -0.655070 -0.014866
v 3.294939 -0.655070 -0.014866
v 3.294938 -1.084416 -0.014864
v 3.294938 -1.084416 -0.014864
v 3.753393 -1.084416 -0.014864
v 3.753393 -0.655070 -0.014866
v 3.753393 -0.655069 0.959409
v 3.753393 -1.084416 0.959411
v 3.294939 -1.084416 0.959411
v 3.294939 -1.084416 0.959411
v 3.294939 -0.655069 0.959410
v 3.753393 -0.655069 0.959409
v 3.753393 -1.084416 0.959411
v 3.753393 -1.084416 -0.014864
v 3.294938 -1.084416 -0.014864
v 3.294938 -1.084416 -0.014864
v 3.294939 -1.084416 0.959411
v 3.753393 -1.084416 0.959411
v 3.753393 -0.655069 0.959409
v 3.753393 -0.655070 -0.014866
v 3.753393 -1.084416 -0.014864
v 3.753393 -1.084416 -0.014864
v 3.753393 -1.084416 0.959411
v 3.753393 -0.655069 0.959409
v 3.294939 -0.655069 0.959410
v 3.294939 -0.655070 -0.014866
v 3.753393 -0.655070 -0.014866
v 3.753393 -0.655070 -0.014866
v 3.753393 -0.655069 0.959409
v 3.294939 -0.655069 0.959410
v 3.294939 -1.084416 0.959411
v 3.294938 -1.084416 -0.014864
v 3.294939 -0.655070 -0.014866
v 3.294939 -0.655070 -0.014866
v 3.294939 -0.655069 0.959410
v 3.294939 -1.084416 0.959411
v 3.810778 -0.596504 0.943798
v 3.237554 -0.596504 0.943798
v 3.237554 -1.142982 0.943798
v 3.237554 -1.142982 0.943798
v 3.810778 -1.142982 0.943798
v 3.810778 -0.596504 0.943798
v 3.810778 -0.596504 0.992511
v 3.810778 -1.142982 0.992512
v 3.237554 -1.142982 0.992513
v 3.237554 -1.142982 0.992513
v 3.237554 -0.596504 0.992511
v 3.810778 -0.596504 0.992511
v 3.810778 -1.142982 0.992512
v 3.810778 -1.142982 0.943798
v 3.237554 -1.142982 0.943798
v 3.237554 -1.142982 0.943798
v 3.237554 -1.142982 0.992513
v 3.810778 -1.142982 0.992512
v 3.810778 -0.596504 0.992511
v 3.810778 -0.596504 0.943798
v 3.810778 -1.142982 0.943798
v 3.810778 -1.142982 0.943798
v 3.810778 -1.142982 0.992512
v 3.810778 -0.596504 0.992511
v 3.237554 -0.596504 0.992511
v 3.237554 -0.596504 0.943798
v 3.810778 -0.596504 0.943798
v 3.810778 -0.596504 0.943798
v 3.810778 -0.596504 0.992511
v 3.237554 -0.596504 0.992511
v 3.237554 -1.142982 0.992513
v 3.237554 -1.142982 0.943798
v 3.237554 -0.596504 0.943798
v 3.237554 -0.596504 0.943798
v 3.237554 -0.596504 0.992511
v 3.237554 -1.142982 0.992513
v 3.810778 -0.596504 -0.037735
v 3.237554 -0.596504 -0.037735
v 3.237553 -1.142981 -0.037736
v 3.237553 -1.142981 -0.037736
v 3.810778 -1.142981 -0.037736
v 3.810778 -0.596504 -0.037735
v 3.810778 -0.596504 0.010979
v 3.810778 -1.142982 0.010979
v 3.237553 -1.142982 0.010979
v 3.237553 -1.142982 0.010979
v 3.237554 -0.596504 0.010979
v 3.810778 -0.596504 0.010979
v 3.810778 -1.142982 0.010979
v 3.810778 -1.142981 -0.037736
v 3.237553 -1.142981 -0.037736
v 3.237553 -1.142981 -0.037736
v 3.237553 -1.142982 0.010979
v 3.810778 -1.142982 0.010979
v 3.810778 -0.596504 0.010979
v 3.810778 -0.596504 -0.037735
v 3.810778 -1.142981 -0.037736
v 3.810778 -1.142981 -0.037736
v 3.810778 -1.142982 0.010979
v 3.810778 -0.596504 0.010979
v 3.237554 -0.596504 0.010979
v 3.237554 -0.596504 -0.037735
v 3.810778 -0.596504 -0.037735
v 3.810778 -0.596504 -0.037735
v 3.810778 -0.596504 0.010979
v 3.237554 -0.596504 0.010979
v 3.237553 -1.142982 0.010979
v 3.237553 -1.142981 -0.037736
v 3.237554 -0.596504 -0.037735
v 3.237554 -0.596504 -0.037735
v 3.237554 -0.596504 0.010979
v 3.237553 -1.142982 0.010979
vn -0.0000 -0.0000 1.0000
vn -0.0000 -0.0000 -1.0000
vn -0.0000 1.0000 -0.0000
vn -1.0000 -0.0000 -0.0000
vn -0.0000 -1.0000 -0.0000
vn 1.0000 -0.0000 -0.0000
vt 0.287605 0.736725
vt 0.712396 0.263275
vt 0.287605 0.263275
vt 0.712396 0.736725
vt 0.712396 0.736725
vt 0.287605 0.263275
vt 0.287605 0.736725
vt 0.712396 0.263275
vt 0.977899 0.287605
vt 0.032034 0.712395
vt 0.977899 0.712396
vt 0.032034 0.287604
vt 0.022101 0.736725
vt 0.967966 0.263275
vt 0.022101 0.263275
vt 0.967966 0.736725
vt 0.022101 0.712396
vt 0.967966 0.287604
vt 0.022101 0.287605
vt 0.967966 0.712395
vt 0.977899 0.263275
vt 0.032034 0.736725
vt 0.977899 0.736725
vt 0.032034 0.263275
vt 0.234433 0.801307
vt 0.765566 0.198693
vt 0.234433 0.198693
vt 0.765566 0.801307
vt 0.765567 0.801307
vt 0.234434 0.198693
vt 0.234434 0.801307
vt 0.765567 0.198693
vt 0.047191 0.234433
vt -0.000102 0.765566
vt 0.047191 0.765566
vt -0.000102 0.234433
vt 0.952809 0.801307
vt 1.000103 0.198693
vt 0.952809 0.198693
vt 1.000103 0.801307
vt 0.952809 0.765566
vt 1.000102 0.234433
vt 0.952809 0.234433
vt 1.000103 0.765566
vt 0.047191 0.198693
vt -0.000102 0.801307
vt 0.047191 0.801307
vt -0.000102 0.198693
vt 0.234434 0.801307
vt 0.765567 0.198693
vt 0.234434 0.198693
vt 0.765567 0.801307
vt 0.765566 0.801307
vt 0.234433 0.198693
vt 0.234433 0.801307
vt 0.765566 0.198693
vt 1.000102 0.234434
vt 0.952809 0.765567
vt 1.000102 0.765567
vt 0.952809 0.234434
vt -0.000102 0.801307
vt 0.047191 0.198693
vt -0.000102 0.198693
vt 0.047191 0.801307
vt -0.000102 0.765567
vt 0.047191 0.234434
vt -0.000102 0.234434
vt 0.047191 0.765567
vt 1.000102 0.198693
vt 0.952809 0.801307
vt 1.000102 0.801307
vt 0.952809 0.198693
s 0
f 1/1/1 3/2/1 2/3/1
f 4/2/1 6/1/1 5/4/1
f 7/5/2 9/6/2 8/7/2
f 10/6/2 12/5/2 11/8/2
f 13/9/3 15/10/3 14/11/3
f 16/10/3 18/9/3 17/12/3
f 19/13/4 21/14/4 20/15/4
f 22/14/4 24/13/4 23/16/4
f 25/17/5 27/18/5 26/19/5
f 28/18/5 30/17/5 29/20/5
f 31/21/6 33/22/6 32/23/6
f 34/22/6 36/21/6 35/24/6
f 37/25/1 39/26/1 38/27/1
f 40/26/1 42/25/1 41/28/1
f 43/29/2 45/30/2 44/31/2
f 46/30/2 48/29/2 47/32/2
f 49/33/3 51/34/3 50/35/3
f 52/34/3 54/33/3 53/36/3
f 55/37/4 57/38/4 56/39/4
f 58/38/4 60/37/4 59/40/4
f 61/41/5 63/42/5 62/43/5
f 64/42/5 66/41/5 65/44/5
f 67/45/6 69/46/6 68/47/6
f 70/46/6 72/45/6 71/48/6
f 73/49/1 75/50/1 74/51/1
f 76/50/1 78/49/1 77/52/1
f 79/53/2 81/54/2 80/55/2
f 82/54/2 84/53/2 83/56/2
f 85/57/3 87/58/3 86/59/3
f 88/58/3 90/57/3 89/60/3
f 91/61/4 93/62/4 92/63/4
f 94/62/4 96/61/4 95/64/4
f 97/65/5 99/66/5 98/67/5
f 100/66/5 102/65/5 101/68/5
f 103/69/6 105/70/6 104/71/6
f 106/70/6 108/69/6 107/72/6
f 109/2/2 111/1/2 110/3/2
f 112/1/2 114/2/2 113/4/2
f 115/6/1 117/5/1 116/7/1
f 118/5/1 120/6/1 119/8/1
f 121/10/5 123/9/5 122/11/5
f 124/9/5 126/10/5 125/12/5
f 127/14/6 129/13/6 128/15/6
f 130/13/6 132/14/6 131/16/6
f 133/18/3 135/17/3 134/19/3
f 136/17/3 138/18/3 137/20/3
f 139/22/4 141/21/4 140/23/4
f 142/21/4 144/22/4 143/24/4
f 145/26/2 147/25/2 146/27/2
f 148/25/2 150/26/2 149/28/2
f 151/30/1 153/29/1 152/31/1
f 154/29/1 156/30/1 155/32/1
f 157/34/5 159/33/5 158/35/5
f 160/33/5 162/34/5 161/36/5
f 163/38/6 165/37/6 164/39/6
f 166/37/6 168/38/6 167/40/6
f 169/42/3 171/41/3 170/43/3
f 172/41/3 174/42/3 173/44/3
f 175/46/4 177/45/4 176/47/4
f 178/45/4 180/46/4 179/48/4
f 181/50/2 183/49/2 182/51/2
f 184/49/2 186/50/2 185/52/2
f 187/54/1 189/53/1 188/55/1
f 190/53/1 192/54/1 191/56/1
f 193/58/5 195/57/5 194/59/5
f 196/57/5 198/58/5 197/60/5
f 199/62/6 201/61/6 200/63/6
f 202/61/6 204/62/6 203/64/6
f 205/66/3 207/65/3 206/67/3
f 208/65/3 210/66/3 209/68/3
f 211/70/4 213/69/4 212/71/4
f 214/69/4 216/70/4 215/72/4
f 217/1/1 219/2/1 218/3/1
f 220/2/1 222/1/1 221/4/1
f 223/5/2 225/6/2 224/7/2
f 226/6/2 228/5/2 227/8/2
f 229/9/3 231/10/3 230/11/3
f 232/10/3 234/9/3 233/12/3
f 235/13/4 237/14/4 236/15/4
f 238/14/4 240/13/4 239/16/4
f 241/17/5 243/18/5 242/19/5
f 244/18/5 246/17/5 245/20/5
f 247/21/6 249/22/6 248/23/6
f 250/22/6 252/21/6 251/24/6
f 253/25/1 255/26/1 254/27/1
f 256/26/1 258/25/1 257/28/1
f 259/29/2 261/30/2 260/31/2
f 262/30/2 264/29/2 263/32/2
f 265/33/3 267/34/3 266/35/3
f 268/34/3 270/33/3 269/36/3
f 271/37/4 273/38/4 272/39/4
f 274/38/4 276/37/4 275/40/4
f 277/41/5 279/42/5 278/43/5
f 280/42/5 282/41/5 281/44/5
f 283/45/6 285/46/6 284/47/6
f 286/46/6 288/45/6 287/48/6
f 289/49/1 291/50/1 290/51/1
f 292/50/1 294/49/1 293/52/1
f 295/53/2 297/54/2 296/55/2
f 298/54/2 300/53/2 299/56/2
f 301/57/3 303/58/3 302/59/3
f 304/58/3 306/57/3 305/60/3
f 307/61/4 309/62/4 308/63/4
f 310/62/4 312/61/4 311/64/4
f 313/65/5 315/66/5 314/67/5
f 316/66/5 318/65/5 317/68/5
f 319/69/6 321/70/6 320/71/6
f 322/70/6 324/69/6 323/72/6
f 325/2/2 327/1/2 326/3/2
f 328/1/2 330/2/2 329/4/2
f 331/6/1 333/5/1 332/7/1
f 334/5/1 336/6/1 335/8/1
f 337/10/5 339/9/5 338/11/5
f 340/9/5 342/10/5 341/12/5
f 343/14/6 345/13/6 344/15/6
f 346/13/6 348/14/6 347/16/6
f 349/18/3 351/17/3 350/19/3
f 352/17/3 354/18/3 353/20/3
f 355/22/4 357/21/4 356/23/4
f 358/21/4 360/22/4 359/24/4
f 361/26/2 363/25/2 362/27/2
f 364/25/2 366/26/2 365/28/2
f 367/30/1 369/29/1 368/31/1
f 370/29/1 372/30/1 371/32/1
f 373/34/5 375/33/5 374/35/5
f 376/33/5 378/34/5 377/36/5
f 379/38/6 381/37/6 380/39/6
f 382/37/6 384/38/6 383/40/6
f 385/42/3 387/41/3 386/43/3
f 388/41/3 390/42/3 389/44/3
f 391/46/4 393/45/4 392/47/4
f 394/45/4 396/46/4 395/48/4
f 397/50/2 399/49/2 398/51/2
f 400/49/2 402/50/2 401/52/2
f 403/54/1 405/53/1 404/55/1
f 406/53/1 408/54/1 407/56/1
f 409/58/5 411/57/5 410/59/5
f 412/57/5 414/58/5 413/60/5
f 415/62/6 417/61/6 416/63/6
f 418/61/6 420/62/6 419/64/6
f 421/66/3 423/65/3 422/67/3
f 424/65/3 426/66/3 425/68/3
f 427/70/4 429/69/4 428/71/4
f 430/69/4 432/70/4 431/72/4
f 433/1/1 435/2/1 434/3/1
f 436/2/1 438/1/1 437/4/1
f 439/5/2 441/6/2 440/7/2
f 442/6/2 444/5/2 443/8/2
f 445/9/3 447/10/3 446/11/3
f 448/10/3 450/9/3 449/12/3
f 451/13/4 453/14/4 452/15/4
f 454/14/4 456/13/4 455/16/4
f 457/17/5 459/18/5 458/19/5
f 460/18/5 462/17/5 461/20/5
f 463/21/6 465/22/6 464/23/6
f 466/22/6 468/21/6 467/24/6
f 469/25/1 471/26/1 470/27/1
f 472/26/1 474/25/1 473/28/1
f 475/29/2 477/30/2 476/31/2
f 478/30/2 480/29/2 479/32/2
f 481/33/3 483/34/3 482/35/3
f 484/34/3 486/33/3 485/36/3
f 487/37/4 489/38/4 488/39/4
f 490/38/4 492/37/4 491/40/4
f 493/41/5 495/42/5 494/43/5
f 496/42/5 498/41/5 497/44/5
f 499/45/6 501/46/6 500/47/6
f 502/46/6 504/45/6 503/48/6
f 505/49/1 507/50/1 506/51/1
f 508/50/1 510/49/1 509/52/1
f 511/53/2 513/54/2 512/55/2
f 514/54/2 516/53/2 515/56/2
f 517/57/3 519/58/3 518/59/3
f 520/58/3 522/57/3 521/60/3
f 523/61/4 525/62/4 524/63/4
f 526/62/4 528/61/4 527/64/4
f 529/65/5 531/66/5 530/67/5
f 532/66/5 534/65/5 533/68/5
f 535/69/6 537/70/6 536/71/6
f 538/70/6 540/69/6 539/72/6
f 541/2/2 543/1/2 542/3/2
f 544/1/2 546/2/2 545/4/2
f 547/6/1 549/5/1 548/7/1
f 550/5/1 552/6/1 551/8/1
f 553/10/5 555/9/5 554/11/5
f 556/9/5 558/10/5 557/12/5
f 559/14/6 561/13/6 560/15/6
f 562/13/6 564/14/6 563/16/6
f 565/18/3 567/17/3 566/19/3
f 568/17/3 570/18/3 569/20/3
f 571/22/4 573/21/4 572/23/4
f 574/21/4 576/22/4 575/24/4
f 577/26/2 579/25/2 578/27/2
f 580/25/2 582/26/2 581/28/2
f 583/30/1 585/29/1 584/31/1
f 586/29/1 588/30/1 587/32/1
f 589/34/5 591/33/5 590/35/5
f 592/33/5 594/34/5 593/36/5
f 595/38/6 597/37/6 596/39/6
f 598/37/6 600/38/6 599/40/6
f 601/42/3 603/41/3 602/43/3
f 604/41/3 606/42/3 605/44/3
f 607/46/4 609/45/4 608/47/4
f 610/45/4 612/46/4 611/48/4
f 613/50/2 615/49/2 614/51/2
f 616/49/2 618/50/2 617/52/2
f 619/54/1 621/53/1 620/55/1
f 622/53/1 624/54/1 623/56/1
f 625/58/5 627/57/5 626/59/5
f 628/57/5 630/58/5 629/60/5
f 631/62/6 633/61/6 632/63/6
f 634/61/6 636/62/6 635/64/6
f 637/66/3 639/65/3 638/67/3
f 640/65/3 642/66/3 641/68/3
f 643/70/4 645/69/4 644/71/4
f 646/69/4 648/70/4 647/72/4
f 649/1/1 651/2/1 650/3/1
f 652/2/1 654/1/1 653/4/1
f 655/5/2 657/6/2 656/7/2
f 658/6/2 660/5/2 659/8/2
f 661/9/3 663/10/3 662/11/3
f 664/10/3 666/9/3 665/12/3
f 667/13/4 669/14/4 668/15/4
f 670/14/4 672/13/4 671/16/4
f 673/17/5 675/18/5 674/19/5
f 676/18/5 678/17/5 677/20/5
f 679/21/6 681/22/6 680/23/6
f 682/22/6 684/21/6 683/24/6
f 685/25/1 687/26/1 686/27/1
f 688/26/1 690/25/1 689/28/1
f 691/29/2 693/30/2 692/31/2
f 694/30/2 696/29/2 695/32/2
f 697/33/3 699/34/3 698/35/3
f 700/34/3 702/33/3 701/36/3
f 703/37/4 705/38/4 704/39/4
f 706/38/4 708/37/4 707/40/4
f 709/41/5 711/42/5 710/43/5
f 712/42/5 714/41/5 713/44/5
f 715/45/6 717/46/6 716/47/6
f 718/46/6 720/45/6 719/48/6
f 721/49/1 723/50/1 722/51/1
f 724/50/1 726/49/1 725/52/1
f 727/53/2 729/54/2 728/55/2
f 730/54/2 732/53/2 731/56/2
f 733/57/3 735/58/3 734/59/3
f 736/58/3 738/57/3 737/60/3
f 739/61/4 741/62/4 740/63/4
f 742/62/4 744/61/4 743/64/4
f 745/65/5 747/66/5 746/67/5
f 748/66/5 750/65/5 749/68/5
f 751/69/6 753/70/6 752/71/6
f 754/70/6 756/69/6 755/72/6
f 757/2/2 759/1/2 758/3/2
f 760/1/2 762/2/2 761/4/2
f 763/6/1 765/5/1 764/7/1
f 766/5/1 768/6/1 767/8/1
f 769/10/5 771/9/5 770/11/5
f 772/9/5 774/10/5 773/12/5
f 775/14/6 777/13/6 776/15/6
f 778/13/6 780/14/6 779/16/6
f 781/18/3 783/17/3 782/19/3
f 784/17/3 786/18/3 785/20/3
f 787/22/4 789/21/4 788/23/4
f 790/21/4 792/22/4 791/24/4
f 793/26/2 795/25/2 794/27/2
f 796/25/2 798/26/2 797/28/2
f 799/30/1 801/29/1 800/31/1
f 802/29/1 804/30/1 803/32/1
f 805/34/5 807/33/5 806/35/5
f 808/33/5 810/34/5 809/36/5
f 811/38/6 813/37/6 812/39/6
f 814/37/6 816/38/6 815/40/6
f 817/42/3 819/41/3 818/43/3
f 820/41/3 822/42/3 821/44/3
f 823/46/4 825/45/4 824/47/4
f 826/45/4 828/46/4 827/48/4
f 829/50/2 831/49/2 830/51/2
f 832/49/2 834/50/2 833/52/2
f 835/54/1 837/53/1 836/55/1
f 838/53/1 840/54/1 839/56/1
f 841/58/5 843/57/5 842/59/5
f 844/57/5 846/58/5 845/60/5
f 847/62/6 849/61/6 848/63/6
f 850/61/6 852/62/6 851/64/6
f 853/66/3 855/65/3 854/67/3
f 856/65/3 858/66/3 857/68/3
f 859/70/4 861/69/4 860/71/4
f 862/69/4 864/70/4 863/72/4
f 865/1/1 867/2/1 866/3/1
f 868/2/1 870/1/1 869/4/1
f 871/5/2 873/6/2 872/7/2
f 874/6/2 876/5/2 875/8/2
f 877/9/3 879/10/3 878/11/3
f 880/10/3 882/9/3 881/12/3
f 883/13/4 885/14/4 884/15/4
f 886/14/4 888/13/4 887/16/4
f 889/17/5 891/18/5 890/19/5
f 892/18/5 894/17/5 893/20/5
f 895/21/6 897/22/6 896/23/6
f 898/22/6 900/21/6 899/24/6
f 901/25/1 903/26/1 902/27/1
f 904/26/1 906/25/1 905/28/1
f 907/29/2 909/30/2 908/31/2
f 910/30/2 912/29/2 911/32/2
f 913/33/3 915/34/3 914/35/3
f 916/34/3 918/33/3 917/36/3
f 919/37/4 921/38/4 920/39/4
f 922/38/4 924/37/4 923/40/4
f 925/41/5 927/42/5 926/43/5
f 928/42/5 930/41/5 929/44/5
f 931/45/6 933/46/6 932/47/6
f 934/46/6 936/45/6 935/48/6
f 937/49/1 939/50/1 938/51/1
f 940/50/1 942/49/1 941/52/1
f 943/53/2 945/54/2 944/55/2
f 946/54/2 948/53/2 947/56/2
f 949/57/3 951/58/3 950/59/3
f 952/58/3 954/57/3 953/60/3
f 955/61/4 957/62/4 956/63/4
f 958/62/4 960/61/4 959/64/4
f 961/65/5 963/66/5 962/67/5
f 964/66/5 966/65/5 965/68/5
f 967/69/6 969/70/6 968/71/6
f 970/70/6 972/69/6 971/72/6
f 973/2/2 975/1/2 974/3/2
f 976/1/2 978/2/2 977/4/2
f 979/6/1 981/5/1 980/7/1
f 982/5/1 984/6/1 983/8/1
f 985/10/5 987/9/5 986/11/5
f 988/9/5 990/10/5 989/12/5
f 991/14/6 993/13/6 992/15/6
f 994/13/6 996/14/6 995/16/6
f 997/18/3 999/17/3 998/19/3
f 1000/17/3 1002/18/3 1001/20/3
f 1003/22/4 1005/21/4 1004/23/4
f 1006/21/4 1008/22/4 1007/24/4
f 1009/26/2 1011/25/2 1010/27/2
f 1012/25/2 1014/26/2 1013/28/2
f 1015/30/1 1017/29/1 1016/31/1
f 1018/29/1 1020/30/1 1019/32/1
f 1021/34/5 1023/33/5 1022/35/5
f 1024/33/5 1026/34/5 1025/36/5
f 1027/38/6 1029/37/6 1028/39/6
f 1030/37/6 1032/38/6 1031/40/6
f 1033/42/3 1035/41/3 1034/43/3
f 1036/41/3 1038/42/3 1037/44/3
f 1039/46/4 1041/45/4 1040/47/4
f 1042/45/4 1044/46/4 1043/48/4
f 1045/50/2 1047/49/2 1046/51/2
f 1048/49/2 1050/50/2 1049/52/2
f 1051/54/1 1053/53/1 1052/55/1
f 1054/53/1 1056/54/1 1055/56/1
f 1057/58/5 1059/57/5 1058/59/5
f 1060/57/5 1062/58/5 1061/60/5
f 1063/62/6 1065/61/6 1064/63/6
f 1066/61/6 1068/62/6 1067/64/6
f 1069/66/3 1071/65/3 1070/67/3
f 1072/65/3 1074/66/3 1073/68/3
f 1075/70/4 1077/69/4 1076/71/4
f 1078/69/4 1080/70/4 1079/72/4
f 1081/1/1 1083/2/1 1082/3/1
f 1084/2/1 1086/1/1 1085/4/1
f 1087/5/2 1089/6/2 1088/7/2
f 1090/6/2 1092/5/2 1091/8/2
f 1093/9/3 1095/10/3 1094/11/3
f 1096/10/3 1098/9/3 1097/12/3
f 1099/13/4 1101/14/4 1100/15/4
f 1102/14/4 1104/13/4 1103/16/4
f 1105/17/5 1107/18/5 1106/19/5
f 1108/18/5 1110/17/5 1109/20/5
f 1111/21/6 1113/22/6 1112/23/6
f 1114/22/6 1116/21/6 1115/24/6
f 1117/25/1 1119/26/1 1118/27/1
f 1120/26/1 1122/25/1 1121/28/1
f 1123/29/2 1125/30/2 1124/31/2
f 1126/30/2 1128/29/2 1127/32/2
f 1129/33/3 1131/34/3 1130/35/3
f 1132/34/3 1134/33/3 1133/36/3
f 1135/37/4 1137/38/4 1136/39/4
f 1138/38/4 1140/37/4 1139/40/4
f 1141/41/5 1143/42/5 1142/43/5
f 1144/42/5 1146/41/5 1145/44/5
f 1147/45/6 1149/46/6 1148/47/6
f 1150/46/6 1152/45/6 1151/48/6
f 1153/49/1 1155/50/1 1154/51/1
f 1156/50/1 1158/49/1 1157/52/1
f 1159/53/2 1161/54/2 1160/55/2
f 1162/54/2 1164/53/2 1163/56/2
f 1165/57/3 1167/58/3 1166/59/3
f 1168/58/3 1170/57/3 1169/60/3
f 1171/61/4 1173/62/4 1172/63/4
f 1174/62/4 1176/61/4 1175/64/4
f 1177/65/5 1179/66/5 1178/67/5
f 1180/66/5 1182/65/5 1181/68/5
f 1183/69/6 1185/70/6 1184/71/6
f 1186/70/6 1188/69/6 1187/72/6
f 1189/2/2 1191/1/2 1190/3/2
f 1192/1/2 1194/2/2 1193/4/2
f 1195/6/1 1197/5/1 1196/7/1
f 1198/5/1 1200/6/1 1199/8/1
f 1201/10/5 1203/9/5 1202/11/5
f 1204/9/5 1206/10/5 1205/12/5
f 1207/14/6 1209/13/6 1208/15/6
f 1210/13/6 1212/14/6 1211/16/6
f 1213/18/3 1215/17/3 1214/19/3
f 1216/17/3 1218/18/3 1217/20/3
f 1219/22/4 1221/21/4 1220/23/4
f 1222/21/4 1224/22/4 1223/24/4
f 1225/26/2 1227/25/2 1226/27/2
f 1228/25/2 1230/26/2 1229/28/2
f 1231/30/1 1233/29/1 1232/31/1
f 1234/29/1 1236/30/1 1235/32/1
f 1237/34/5 1239/33/5 1238/35/5
f 1240/33/5 1242/34/5 1241/36/5
f 1243/38/6 1245/37/6 1244/39/6
f 1246/37/6 1248/38/6 1247/40/6
f 1249/42/3 1251/41/3 1250/43/3
f 1252/41/3 1254/42/3 1253/44/3
f 1255/46/4 1257/45/4 1256/47/4
f 1258/45/4 1260/46/4 1259/48/4
f 1261/50/2 1263/49/2 1262/51/2
f 1264/49/2 1266/50/2 1265/52/2
f 1267/54/1 1269/53/1 1268/55/1
f 1270/53/1 1272/54/1 1271/56/1
f 1273/58/5 1275/57/5 1274/59/5
f 1276/57/5 1278/58/5 1277/60/5
f 1279/62/6 1281/61/6 1280/63/6
f 1282/61/6 1284/62/6 1283/64/6
f 1285/66/3 1287/65/3 1286/67/3
f 1288/65/3 1290/66/3 1289/68/3
f 1291/70/4 1293/69/4 1292/71/4
f 1294/69/4 1296/70/4 1295/72/4
f 1297/1/1 1299/2/1 1298/3/1
f 1300/2/1 1302/1/1 1301/4/1
f 1303/5/2 1305/6/2 1304/7/2
f 1306/6/2 1308/5/2 1307/8/2
f 1309/9/3 1311/10/3 1310/11/3
f 1312/10/3 1314/9/3 1313/12/3
f 1315/13/4 1317/14/4 1316/15/4
f 1318/14/4 1320/13/4 1319/16/4
f 1321/17/5 1323/18/5 1322/19/5
f 1324/18/5 1326/17/5 1325/20/5
f 1327/21/6 1329/22/6 1328/23/6
f 1330/22/6 1332/21/6 1331/24/6
f 1333/25/1 1335/26/1 1334/27/1
f 1336/26/1 1338/25/1 1337/28/1
f 1339/29/2 1341/30/2 1340/31/2
f 1342/30/2 1344/29/2 1343/32/2
f 1345/33/3 1347/34/3 1346/35/3
f 1348/34/3 1350/33/3 1349/36/3
f 1351/37/4 1353/38/4 1352/39/4
f 1354/38/4 1356/37/4 1355/40/4
f 1357/41/5 1359/42/5 1358/43/5
f 1360/42/5 1362/41/5 1361/44/5
f 1363/45/6 1365/46/6 1364/47/6
f 1366/46/6 1368/45/6 1367/48/6
f 1369/49/1 1371/50/1 1370/51/1
f 1372/50/1 1374/49/1 1373/52/1
f 1375/53/2 1377/54/2 1376/55/2
f 1378/54/2 1380/53/2 1379/56/2
f 1381/57/3 1383/58/3 1382/59/3
f 1384/58/3 1386/57/3 1385/60/3
f 1387/61/4 1389/62/4 1388/63/4
f 1390/62/4 1392/61/4 1391/64/4
f 1393/65/5 1395/66/5 1394/67/5
f 1396/66/5 1398/65/5 1397/68/5
f 1399/69/6 1401/70/6 1400/71/6
f 1402/70/6 1404/69/6 1403/72/6
f 1405/2/2 1407/1/2 1406/3/2
f 1408/1/2 1410/2/2 1409/4/2
f 1411/6/1 1413/5/1 1412/7/1
f 1414/5/1 1416/6/1 1415/8/1
f 1417/10/5 1419/9/5 1418/11/5
f 1420/9/5 1422/10/5 1421/12/5
f 1423/14/6 1425/13/6 1424/15/6
f 1426/13/6 1428/14/6 1427/16/6
f 1429/18/3 1431/17/3 1430/19/3
f 1432/17/3 1434/18/3 1433/20/3
f 1435/22/4 1437/21/4 1436/23/4
f 1438/21/4 1440/22/4 1439/24/4
f 1441/26/2 1443/25/2 1442/27/2
f 1444/25/2 1446/26/2 1445/28/2
f 1447/30/1 1449/29/1 1448/31/1
f 1450/29/1 1452/30/1 1451/32/1
f 1453/34/5 1455/33/5 1454/35/5
f 1456/33/5 1458/34/5 1457/36/5
f 1459/38/6 1461/37/6 1460/39/6
f 1462/37/6 1464/38/6 1463/40/6
f 1465/42/3 1467/41/3 1466/43/3
f 1468/41/3 1470/42/3 1469/44/3
f 1471/46/4 1473/45/4 1472/47/4
f 1474/45/4 1476/46/4 1475/48/4
f 1477/50/2 1479/49/2 1478/51/2
f 1480/49/2 1482/50/2 1481/52/2
f 1483/54/1 1485/53/1 1484/55/1
f 1486/53/1 1488/54/1 1487/56/1
f 1489/58/5 1491/57/5 1490/59/5
f 1492/57/5 1494/58/5 1493/60/5
f 1495/62/6 1497/61/6 1496/63/6
f 1498/61/6 1500/62/6 1499/64/6
f 1501/66/3 1503/65/3 1502/67/3
f 1504/65/3 1506/66/3 1505/68/3
f 1507/70/4 1509/69/4 1508/71/4
f 1510/69/4 1512/70/4 1511/72/4
f 1513/1/1 1515/2/1 1514/3/1
f 1516/2/1 1518/1/1 1517/4/1
f 1519/5/2 1521/6/2 1520/7/2
f 1522/6/2 1524/5/2 1523/8/2
f 1525/9/3 1527/10/3 1526/11/3
f 1528/10/3 1530/9/3 1529/12/3
f 1531/13/4 1533/14/4 1532/15/4
f 1534/14/4 1536/13/4 1535/16/4
f 1537/17/5 1539/18/5 1538/19/5
f 1540/18/5 1542/17/5 1541/20/5
f 1543/21/6 1545/22/6 1544/23/6
f 1546/22/6 1548/21/6 1547/24/6
f 1549/25/1 1551/26/1 1550/27/1
f 1552/26/1 1554/25/1 1553/28/1
f 1555/29/2 1557/30/2 1556/31/2
f 1558/30/2 1560/29/2 1559/32/2
f 1561/33/3 1563/34/3 1562/35/3
f 1564/34/3 1566/33/3 1565/36/3
f 1567/37/4 1569/38/4 1568/39/4
f 1570/38/4 1572/37/4 1571/40/4
f 1573/41/5 1575/42/5 1574/43/5
f 1576/42/5 1578/41/5 1577/44/5
f 1579/45/6 1581/46/6 1580/47/6
f 1582/46/6 1584/45/6 1583/48/6
f 1585/49/1 1587/50/1 1586/51/1
f 1588/50/1 1590/49/1 1589/52/1
f 1591/53/2 1593/54/2 1592/55/2
f 1594/54/2 1596/53/2 1595/56/2
f 1597/57/3 1599/58/3 1598/59/3
f 1600/58/3 1602/57/3 1601/60/3
f 1603/61/4 1605/62/4 1604/63/4
f 1606/62/4 1608/61/4 1607/64/4
f 1609/65/5 1611/66/5 1610/67/5
f 1612/66/5 1614/65/5 1613/68/5
f 1615/69/6 1617/70/6 1616/71/6
f 1618/70/6 1620/69/6 1619/72/6
f 1621/2/2 1623/1/2 1622/3/2
f 1624/1/2 1626/2/2 1625/4/2
f 1627/6/1 1629/5/1 1628/7/1
f 1630/5/1 1632/6/1 1631/8/1
f 1633/10/5 1635/9/5 1634/11/5
f 1636/9/5 1638/10/5 1637/12/5
f 1639/14/6 1641/13/6 1640/15/6
f 1642/13/6 1644/14/6 1643/16/6
f 1645/18/3 1647/17/3 1646/19/3
f 1648/17/3 1650/18/3 1649/20/3
f 1651/22/4 1653/21/4 1652/23/4
f 1654/21/4 1656/22/4 1655/24/4
f 1657/26/2 1659/25/2 1658/27/2
f 1660/25/2 1662/26/2 1661/28/2
f 1663/30/1 1665/29/1 1664/31/1
f 1666/29/1 1668/30/1 1667/32/1
f 1669/34/5 1671/33/5 1670/35/5
f 1672/33/5 1674/34/5 1673/36/5
f 1675/38/6 1677/37/6 1676/39/6
f 1678/37/6 1680/38/6 1679/40/6
f 1681/42/3 1683/41/3 1682/43/3
f 1684/41/3 1686/42/3 1685/44/3
f 1687/46/4 1689/45/4 1688/47/4
f 1690/45/4 1692/46/4 1691/48/4
f 1693/50/2 1695/49/2 1694/51/2
f 1696/49/2 1698/50/2 1697/52/2
f 1699/54/1 1701/53/1 1700/55/1
f 1702/53/1 1704/54/1 1703/56/1
f 1705/58/5 1707/57/5 1706/59/5
f 1708/57/5 1710/58/5 1709/60/5
f 1711/62/6 1713/61/6 1712/63/6
f 1714/61/6 1716/62/6 1715/64/6
f 1717/66/3 1719/65/3 1718/67/3
f 1720/65/3 1722/66/3 1721/68/3
f 1723/70/4 1725/69/4 1724/71/4
f 1726/69/4 1728/70/4 1727/72/4
