# Blender 5.2.0 LTS
# www.blender.org
o demo5_background.015
v 42.651123 0.394576 3.390839
v 54.315678 -26.387579 -19.016062
v 54.315670 -26.387573 3.390843
v 42.651123 0.394576 3.390839
v 42.651119 0.394566 -19.016066
v 54.315678 -26.387579 -19.016062
v 21.751863 26.813301 3.390837
v 42.651119 0.394566 -19.016066
v 42.651123 0.394576 3.390839
v 21.751863 26.813301 3.390837
v 21.751862 26.813293 -19.016066
v 42.651119 0.394566 -19.016066
v -9.000103 33.973972 3.390843
v 21.751862 26.813293 -19.016066
v 21.751863 26.813301 3.390837
v -9.000103 33.973972 3.390843
v -9.000106 33.973961 -19.016062
v 21.751862 26.813293 -19.016066
v -39.094234 24.418791 3.390851
v -9.000106 33.973961 -19.016062
v -9.000103 33.973972 3.390843
v -39.094234 24.418791 3.390851
v -39.094238 24.418781 -19.016050
v -9.000106 33.973961 -19.016062
v -59.528202 -3.626552 3.390861
v -39.094238 24.418781 -19.016050
v -39.094234 24.418791 3.390851
v -59.528202 -3.626552 3.390861
v -59.528206 -3.626558 -19.016043
v -39.094238 24.418781 -19.016050
v -67.376518 -31.176598 3.390869
v -59.528206 -3.626558 -19.016043
v -59.528202 -3.626552 3.390861
v -67.376518 -31.176598 3.390869
v -67.376526 -31.176605 -19.016041
v -59.528206 -3.626558 -19.016043
vn 0.9542 0.2846 -0.0921
vn 0.9168 0.3993 -0.0000
vn 0.8706 0.4766 -0.1222
vn 0.9063 0.3947 0.1514
vn 0.8941 0.4225 -0.1486
vn 0.7752 0.6133 -0.1514
vn 0.8217 0.5545 0.1316
vn 0.6732 0.7018 -0.2332
vn 0.6970 0.7121 0.0838
vn 0.7555 0.5977 0.2683
vn 0.3597 0.9278 -0.0993
vn 0.2185 0.9382 -0.2683
vn 0.3343 0.9113 0.2405
vn 0.1494 0.9768 -0.1538
vn 0.0054 0.9879 0.1553
vn 0.2234 0.9595 0.1715
vn -0.0995 0.9845 -0.1441
vn -0.2981 0.9390 -0.1715
vn -0.2257 0.9620 0.1538
vn -0.3983 0.8897 -0.2232
vn -0.4315 0.8967 0.0993
vn -0.2931 0.9231 0.2490
vn -0.6882 0.7168 -0.1124
vn -0.7828 0.5703 -0.2490
vn -0.7127 0.6664 0.2188
vn -0.8489 0.4961 -0.1820
vn -0.9060 0.4012 0.1351
vn -0.7907 0.5761 0.2072
vn -0.9617 0.2740 -0.0000
vn -0.9409 0.2680 -0.2072
vn -0.9065 0.3886 0.1649
vn -0.9856 0.1111 0.1276
vt 0.899899 1.000000
vt 0.972532 1.000000
vt 0.972533 0.000002
vt 0.899899 0.000002
vt 0.753436 0.999999
vt 0.753436 0.000002
vt 0.513918 0.999999
vt 0.513918 0.000001
vt 0.266986 0.999999
vt 0.266986 0.000001
vt 0.082999 0.999999
vt 0.082999 0.000001
vt -0.000369 0.999998
vt -0.000369 0.000000
s 1
f 1/1/1 3/2/2 2/3/2
f 4/1/3 6/3/2 5/4/4
f 7/5/5 9/1/6 8/4/7
f 10/5/8 12/4/9 11/6/10
f 13/7/11 15/5/12 14/6/13
f 16/7/14 18/6/15 17/8/16
f 19/9/17 21/7/18 20/8/19
f 22/9/20 24/8/21 23/10/22
f 25/11/23 27/9/24 26/10/25
f 28/11/26 30/10/27 29/12/28
f 31/13/29 33/11/30 32/12/31
f 34/13/29 36/12/32 35/14/29
