# Blender 5.2.0 LTS
# www.blender.org
o demo5_background.016
v -6.543047 -3.611412 2.655830
v -5.024167 -3.612337 -0.023429
v -5.009078 -3.611414 2.651070
v -6.543047 -3.611412 2.655830
v -6.540000 -3.612337 -0.023429
v -5.024167 -3.612337 -0.023429
v -5.009078 -3.632772 2.651078
v -5.024167 -3.633695 -0.023421
v -6.543047 -3.632770 2.655837
v -5.024167 -3.633695 -0.023421
v -6.540000 -3.633694 -0.023421
v -6.543047 -3.632770 2.655837
v -5.009078 -3.611414 2.651070
v -5.024167 -3.612337 -0.023429
v -5.024167 -3.633695 -0.023421
v -5.024167 -3.633695 -0.023421
v -5.009078 -3.632772 2.651078
v -5.009078 -3.611414 2.651070
v -6.543047 -3.611412 2.655830
v -5.009078 -3.611414 2.651070
v -5.009078 -3.632772 2.651078
v -5.009078 -3.632772 2.651078
v -6.543047 -3.632770 2.655837
v -6.543047 -3.611412 2.655830
v -6.540000 -3.612337 -0.023429
v -6.543047 -3.611412 2.655830
v -6.543047 -3.632770 2.655837
v -6.543047 -3.632770 2.655837
v -6.540000 -3.633694 -0.023421
v -6.540000 -3.612337 -0.023429
v -5.024167 -3.612337 -0.023429
v -6.540000 -3.612337 -0.023429
v -6.540000 -3.633694 -0.023421
v -6.540000 -3.633694 -0.023421
v -5.024167 -3.633695 -0.023421
v -5.024167 -3.612337 -0.023429
vn -0.0000 1.0000 -0.0003
vn -0.0000 -1.0000 0.0003
vn 1.0000 -0.0000 -0.0056
vn 0.0031 0.0004 1.0000
vn 0.0031 0.0003 1.0000
vn -1.0000 -0.0000 -0.0011
vn -0.0000 -0.0003 -1.0000
vt 0.546727 0.996055
vt 0.999823 0.994737
vt 0.995366 0.254098
vt 0.547628 0.254098
s 0
f 1/1/1 3/2/1 2/3/1
f 4/1/1 6/3/1 5/4/1
f 7/2/2 9/1/2 8/3/2
f 10/3/2 12/1/2 11/4/2
f 13/2/3 15/3/3 14/3/3
f 16/3/3 18/2/3 17/2/3
f 19/1/4 21/2/4 20/2/4
f 22/2/5 24/1/5 23/1/5
f 25/4/6 27/1/6 26/1/6
f 28/1/6 30/4/6 29/4/6
f 31/3/7 33/4/7 32/4/7
f 34/4/7 36/3/7 35/3/7
